G75*
%MOIN*%
%OFA0B0*%
%FSLAX25Y25*%
%IPPOS*%
%LPD*%
%AMOC8*
5,1,8,0,0,1.08239X$1,22.5*
%
%ADD10C,0.00000*%
%ADD11R,0.06500X0.06500*%
%ADD12C,0.06500*%
%ADD13C,0.12600*%
%ADD14R,0.07400X0.07400*%
%ADD15OC8,0.07400*%
%ADD16OC8,0.06000*%
%ADD17OC8,0.06500*%
%ADD18OC8,0.08500*%
D10*
X0064055Y0017159D02*
X0064055Y0097977D01*
X0064052Y0098190D01*
X0064045Y0098402D01*
X0064032Y0098615D01*
X0064014Y0098827D01*
X0063991Y0099038D01*
X0063963Y0099249D01*
X0063929Y0099459D01*
X0063891Y0099668D01*
X0063848Y0099877D01*
X0063799Y0100084D01*
X0063746Y0100290D01*
X0063687Y0100494D01*
X0063624Y0100697D01*
X0063556Y0100899D01*
X0063483Y0101099D01*
X0063405Y0101297D01*
X0063323Y0101493D01*
X0063235Y0101687D01*
X0063143Y0101878D01*
X0063047Y0102068D01*
X0062946Y0102255D01*
X0062840Y0102440D01*
X0062730Y0102622D01*
X0062615Y0102801D01*
X0062497Y0102978D01*
X0062374Y0103151D01*
X0062247Y0103322D01*
X0062115Y0103489D01*
X0061980Y0103654D01*
X0061841Y0103814D01*
X0061698Y0103972D01*
X0061551Y0104126D01*
X0061401Y0104276D01*
X0061247Y0104423D01*
X0061089Y0104566D01*
X0060929Y0104705D01*
X0060764Y0104840D01*
X0060597Y0104972D01*
X0060426Y0105099D01*
X0060253Y0105222D01*
X0060076Y0105340D01*
X0059897Y0105455D01*
X0059715Y0105565D01*
X0059530Y0105671D01*
X0059343Y0105772D01*
X0059153Y0105868D01*
X0058962Y0105960D01*
X0058768Y0106048D01*
X0058572Y0106130D01*
X0058374Y0106208D01*
X0058174Y0106281D01*
X0057972Y0106349D01*
X0057769Y0106412D01*
X0057565Y0106471D01*
X0057359Y0106524D01*
X0057152Y0106573D01*
X0056943Y0106616D01*
X0056734Y0106654D01*
X0056524Y0106688D01*
X0056313Y0106716D01*
X0056102Y0106739D01*
X0055890Y0106757D01*
X0055677Y0106770D01*
X0055465Y0106777D01*
X0055252Y0106780D01*
X0055252Y0106781D02*
X0019195Y0106781D01*
X0018852Y0106785D01*
X0018509Y0106798D01*
X0018167Y0106818D01*
X0017825Y0106847D01*
X0017484Y0106884D01*
X0017144Y0106930D01*
X0016805Y0106984D01*
X0016468Y0107045D01*
X0016132Y0107115D01*
X0015798Y0107193D01*
X0015466Y0107280D01*
X0015136Y0107374D01*
X0014809Y0107476D01*
X0014484Y0107586D01*
X0014161Y0107703D01*
X0013842Y0107829D01*
X0013526Y0107962D01*
X0013213Y0108103D01*
X0012904Y0108251D01*
X0012598Y0108407D01*
X0012296Y0108570D01*
X0011999Y0108740D01*
X0011705Y0108918D01*
X0011416Y0109102D01*
X0011131Y0109294D01*
X0010851Y0109492D01*
X0010576Y0109697D01*
X0010306Y0109909D01*
X0010041Y0110127D01*
X0009782Y0110351D01*
X0009528Y0110581D01*
X0009280Y0110818D01*
X0009037Y0111061D01*
X0008800Y0111309D01*
X0008570Y0111563D01*
X0008346Y0111822D01*
X0008128Y0112087D01*
X0007916Y0112357D01*
X0007711Y0112632D01*
X0007513Y0112912D01*
X0007321Y0113197D01*
X0007137Y0113486D01*
X0006959Y0113780D01*
X0006789Y0114077D01*
X0006626Y0114379D01*
X0006470Y0114685D01*
X0006322Y0114994D01*
X0006181Y0115307D01*
X0006048Y0115623D01*
X0005922Y0115942D01*
X0005805Y0116265D01*
X0005695Y0116590D01*
X0005593Y0116917D01*
X0005499Y0117247D01*
X0005412Y0117579D01*
X0005334Y0117913D01*
X0005264Y0118249D01*
X0005203Y0118586D01*
X0005149Y0118925D01*
X0005103Y0119265D01*
X0005066Y0119606D01*
X0005037Y0119948D01*
X0005017Y0120290D01*
X0005004Y0120633D01*
X0005000Y0120976D01*
X0005000Y0232153D01*
X0005003Y0232423D01*
X0005013Y0232692D01*
X0005029Y0232962D01*
X0005052Y0233230D01*
X0005081Y0233499D01*
X0005117Y0233766D01*
X0005159Y0234032D01*
X0005208Y0234298D01*
X0005263Y0234562D01*
X0005324Y0234824D01*
X0005392Y0235086D01*
X0005466Y0235345D01*
X0005546Y0235603D01*
X0005633Y0235858D01*
X0005725Y0236111D01*
X0005824Y0236363D01*
X0005929Y0236611D01*
X0006040Y0236857D01*
X0006156Y0237100D01*
X0006279Y0237341D01*
X0006407Y0237578D01*
X0006541Y0237812D01*
X0006680Y0238043D01*
X0006825Y0238270D01*
X0006976Y0238494D01*
X0007132Y0238714D01*
X0007293Y0238931D01*
X0007459Y0239143D01*
X0007631Y0239351D01*
X0007807Y0239555D01*
X0007989Y0239755D01*
X0008175Y0239950D01*
X0008366Y0240141D01*
X0008561Y0240327D01*
X0008761Y0240509D01*
X0008965Y0240685D01*
X0009173Y0240857D01*
X0009385Y0241023D01*
X0009602Y0241184D01*
X0009822Y0241340D01*
X0010046Y0241491D01*
X0010273Y0241636D01*
X0010504Y0241775D01*
X0010738Y0241909D01*
X0010975Y0242037D01*
X0011216Y0242160D01*
X0011459Y0242276D01*
X0011705Y0242387D01*
X0011953Y0242492D01*
X0012205Y0242591D01*
X0012458Y0242683D01*
X0012713Y0242770D01*
X0012971Y0242850D01*
X0013230Y0242924D01*
X0013492Y0242992D01*
X0013754Y0243053D01*
X0014018Y0243108D01*
X0014284Y0243157D01*
X0014550Y0243199D01*
X0014817Y0243235D01*
X0015086Y0243264D01*
X0015354Y0243287D01*
X0015624Y0243303D01*
X0015893Y0243313D01*
X0016163Y0243316D01*
X0254763Y0243316D01*
X0262006Y0240330D02*
X0263110Y0239234D01*
X0265000Y0234691D02*
X0265000Y0192770D01*
X0265293Y0192063D02*
X0271217Y0186214D01*
X0272717Y0182626D02*
X0272717Y0108230D01*
X0272714Y0107959D01*
X0272704Y0107688D01*
X0272687Y0107417D01*
X0272664Y0107147D01*
X0272635Y0106878D01*
X0272598Y0106609D01*
X0272556Y0106341D01*
X0272506Y0106074D01*
X0272451Y0105809D01*
X0272388Y0105545D01*
X0272320Y0105283D01*
X0272245Y0105022D01*
X0272164Y0104763D01*
X0272076Y0104507D01*
X0271982Y0104252D01*
X0271882Y0104000D01*
X0271776Y0103751D01*
X0271664Y0103504D01*
X0271546Y0103260D01*
X0271422Y0103019D01*
X0271292Y0102780D01*
X0271157Y0102546D01*
X0271016Y0102314D01*
X0270869Y0102086D01*
X0270716Y0101862D01*
X0270559Y0101641D01*
X0270396Y0101425D01*
X0270227Y0101212D01*
X0270054Y0101004D01*
X0269875Y0100799D01*
X0269692Y0100600D01*
X0269504Y0100404D01*
X0269311Y0100214D01*
X0269114Y0100028D01*
X0268912Y0099847D01*
X0268705Y0099671D01*
X0268495Y0099500D01*
X0266956Y0098282D01*
X0264843Y0093911D02*
X0264843Y0040427D01*
X0265000Y0019603D01*
X0264997Y0019331D01*
X0264987Y0019060D01*
X0264970Y0018788D01*
X0264947Y0018518D01*
X0264918Y0018247D01*
X0264882Y0017978D01*
X0264839Y0017709D01*
X0264790Y0017442D01*
X0264735Y0017176D01*
X0264673Y0016911D01*
X0264605Y0016648D01*
X0264530Y0016387D01*
X0264450Y0016127D01*
X0264362Y0015870D01*
X0264269Y0015615D01*
X0264170Y0015362D01*
X0264064Y0015111D01*
X0263953Y0014864D01*
X0263835Y0014618D01*
X0263712Y0014376D01*
X0263583Y0014137D01*
X0263448Y0013901D01*
X0263307Y0013669D01*
X0263161Y0013440D01*
X0263009Y0013214D01*
X0262852Y0012992D01*
X0262690Y0012774D01*
X0262522Y0012560D01*
X0262349Y0012350D01*
X0262172Y0012145D01*
X0261989Y0011944D01*
X0261801Y0011747D01*
X0261609Y0011555D01*
X0261412Y0011367D01*
X0261211Y0011184D01*
X0261006Y0011007D01*
X0260796Y0010834D01*
X0260582Y0010666D01*
X0260364Y0010504D01*
X0260142Y0010347D01*
X0259916Y0010195D01*
X0259687Y0010049D01*
X0259455Y0009908D01*
X0259219Y0009773D01*
X0258980Y0009644D01*
X0258738Y0009521D01*
X0258492Y0009403D01*
X0258245Y0009292D01*
X0257994Y0009186D01*
X0257741Y0009087D01*
X0257486Y0008994D01*
X0257229Y0008906D01*
X0256969Y0008826D01*
X0256708Y0008751D01*
X0256445Y0008683D01*
X0256180Y0008621D01*
X0255914Y0008566D01*
X0255647Y0008517D01*
X0255378Y0008474D01*
X0255109Y0008438D01*
X0254838Y0008409D01*
X0254568Y0008386D01*
X0254296Y0008369D01*
X0254025Y0008359D01*
X0253753Y0008356D01*
X0072859Y0008356D01*
X0072646Y0008359D01*
X0072434Y0008366D01*
X0072221Y0008379D01*
X0072009Y0008397D01*
X0071798Y0008420D01*
X0071587Y0008448D01*
X0071377Y0008482D01*
X0071168Y0008520D01*
X0070959Y0008563D01*
X0070752Y0008612D01*
X0070546Y0008665D01*
X0070342Y0008724D01*
X0070139Y0008787D01*
X0069937Y0008855D01*
X0069737Y0008928D01*
X0069539Y0009006D01*
X0069343Y0009088D01*
X0069149Y0009176D01*
X0068958Y0009268D01*
X0068768Y0009364D01*
X0068581Y0009465D01*
X0068396Y0009571D01*
X0068214Y0009681D01*
X0068035Y0009796D01*
X0067858Y0009914D01*
X0067685Y0010037D01*
X0067514Y0010164D01*
X0067347Y0010296D01*
X0067182Y0010431D01*
X0067022Y0010570D01*
X0066864Y0010713D01*
X0066710Y0010860D01*
X0066560Y0011010D01*
X0066413Y0011164D01*
X0066270Y0011322D01*
X0066131Y0011482D01*
X0065996Y0011647D01*
X0065864Y0011814D01*
X0065737Y0011985D01*
X0065614Y0012158D01*
X0065496Y0012335D01*
X0065381Y0012514D01*
X0065271Y0012696D01*
X0065165Y0012881D01*
X0065064Y0013068D01*
X0064968Y0013258D01*
X0064876Y0013449D01*
X0064788Y0013643D01*
X0064706Y0013839D01*
X0064628Y0014037D01*
X0064555Y0014237D01*
X0064487Y0014439D01*
X0064424Y0014642D01*
X0064365Y0014846D01*
X0064312Y0015052D01*
X0064263Y0015259D01*
X0064220Y0015468D01*
X0064182Y0015677D01*
X0064148Y0015887D01*
X0064120Y0016098D01*
X0064097Y0016309D01*
X0064079Y0016521D01*
X0064066Y0016734D01*
X0064059Y0016946D01*
X0064056Y0017159D01*
X0143000Y0100155D02*
X0143121Y0100156D01*
X0143242Y0100160D01*
X0143363Y0100167D01*
X0143484Y0100179D01*
X0143604Y0100194D01*
X0143723Y0100214D01*
X0143842Y0100237D01*
X0143960Y0100264D01*
X0144077Y0100294D01*
X0144193Y0100328D01*
X0144308Y0100366D01*
X0144422Y0100408D01*
X0144534Y0100453D01*
X0144645Y0100502D01*
X0144754Y0100554D01*
X0144862Y0100609D01*
X0144968Y0100668D01*
X0145072Y0100731D01*
X0145173Y0100796D01*
X0145273Y0100865D01*
X0145370Y0100937D01*
X0145465Y0101012D01*
X0145558Y0101089D01*
X0145648Y0101170D01*
X0145736Y0101254D01*
X0145821Y0101340D01*
X0145903Y0101429D01*
X0145982Y0101521D01*
X0146058Y0101615D01*
X0146131Y0101711D01*
X0146202Y0101810D01*
X0146269Y0101911D01*
X0146332Y0102014D01*
X0146393Y0102118D01*
X0146450Y0102225D01*
X0146504Y0102334D01*
X0146554Y0102444D01*
X0146600Y0102556D01*
X0149600Y0116355D02*
X0149609Y0116500D01*
X0149622Y0116644D01*
X0149639Y0116788D01*
X0149659Y0116931D01*
X0149684Y0117074D01*
X0149712Y0117216D01*
X0149744Y0117357D01*
X0149780Y0117497D01*
X0149820Y0117636D01*
X0149863Y0117774D01*
X0149910Y0117911D01*
X0149961Y0118047D01*
X0150016Y0118181D01*
X0150074Y0118314D01*
X0150136Y0118444D01*
X0150201Y0118574D01*
X0150270Y0118701D01*
X0150342Y0118827D01*
X0150417Y0118950D01*
X0150496Y0119072D01*
X0150578Y0119191D01*
X0150664Y0119308D01*
X0150752Y0119422D01*
X0150844Y0119535D01*
X0150938Y0119644D01*
X0151035Y0119751D01*
X0151136Y0119856D01*
X0151239Y0119957D01*
X0151345Y0120056D01*
X0151453Y0120152D01*
X0151564Y0120245D01*
X0151677Y0120335D01*
X0151793Y0120422D01*
X0151911Y0120505D01*
X0152032Y0120586D01*
X0152154Y0120663D01*
X0152279Y0120737D01*
X0152405Y0120807D01*
X0152534Y0120874D01*
X0152664Y0120938D01*
X0152796Y0120997D01*
X0152929Y0121054D01*
X0153064Y0121106D01*
X0153200Y0121155D01*
X0153200Y0121156D02*
X0153200Y0124156D01*
X0153153Y0124158D01*
X0153106Y0124163D01*
X0153060Y0124173D01*
X0153015Y0124185D01*
X0152970Y0124202D01*
X0152928Y0124221D01*
X0152887Y0124244D01*
X0152847Y0124271D01*
X0152810Y0124300D01*
X0152776Y0124332D01*
X0152744Y0124366D01*
X0152715Y0124403D01*
X0152688Y0124443D01*
X0152665Y0124484D01*
X0152646Y0124526D01*
X0152629Y0124571D01*
X0152617Y0124616D01*
X0152607Y0124662D01*
X0152602Y0124709D01*
X0152600Y0124756D01*
X0152600Y0130756D01*
X0152598Y0130803D01*
X0152593Y0130850D01*
X0152583Y0130896D01*
X0152571Y0130941D01*
X0152554Y0130986D01*
X0152535Y0131028D01*
X0152512Y0131069D01*
X0152485Y0131109D01*
X0152456Y0131146D01*
X0152424Y0131180D01*
X0152390Y0131212D01*
X0152353Y0131241D01*
X0152313Y0131268D01*
X0152272Y0131291D01*
X0152230Y0131310D01*
X0152185Y0131327D01*
X0152140Y0131339D01*
X0152094Y0131349D01*
X0152047Y0131354D01*
X0152000Y0131356D01*
X0152000Y0131956D01*
X0152002Y0132053D01*
X0152008Y0132149D01*
X0152017Y0132245D01*
X0152031Y0132341D01*
X0152049Y0132436D01*
X0152070Y0132530D01*
X0152095Y0132624D01*
X0152124Y0132716D01*
X0152156Y0132807D01*
X0152192Y0132897D01*
X0152232Y0132985D01*
X0152275Y0133071D01*
X0152322Y0133156D01*
X0152372Y0133239D01*
X0152425Y0133319D01*
X0152481Y0133398D01*
X0152541Y0133474D01*
X0152604Y0133547D01*
X0152669Y0133619D01*
X0152737Y0133687D01*
X0152809Y0133752D01*
X0152882Y0133815D01*
X0152958Y0133875D01*
X0153037Y0133931D01*
X0153117Y0133984D01*
X0153200Y0134034D01*
X0153285Y0134081D01*
X0153371Y0134124D01*
X0153459Y0134164D01*
X0153549Y0134200D01*
X0153640Y0134232D01*
X0153732Y0134261D01*
X0153826Y0134286D01*
X0153920Y0134307D01*
X0154015Y0134325D01*
X0154111Y0134339D01*
X0154207Y0134348D01*
X0154303Y0134354D01*
X0154400Y0134356D01*
X0155600Y0134356D01*
X0155746Y0134354D01*
X0155892Y0134348D01*
X0156038Y0134338D01*
X0156184Y0134324D01*
X0156329Y0134307D01*
X0156474Y0134285D01*
X0156618Y0134259D01*
X0156761Y0134230D01*
X0156903Y0134196D01*
X0157045Y0134159D01*
X0157185Y0134118D01*
X0157324Y0134073D01*
X0157462Y0134025D01*
X0157599Y0133972D01*
X0157734Y0133917D01*
X0157867Y0133857D01*
X0157999Y0133794D01*
X0158129Y0133727D01*
X0158258Y0133657D01*
X0158384Y0133583D01*
X0158508Y0133506D01*
X0158630Y0133426D01*
X0158750Y0133342D01*
X0158868Y0133255D01*
X0158983Y0133165D01*
X0159096Y0133072D01*
X0159206Y0132975D01*
X0159314Y0132876D01*
X0159418Y0132774D01*
X0159520Y0132670D01*
X0159619Y0132562D01*
X0159716Y0132452D01*
X0159809Y0132339D01*
X0159899Y0132224D01*
X0159986Y0132106D01*
X0160070Y0131986D01*
X0160150Y0131864D01*
X0160227Y0131740D01*
X0160301Y0131614D01*
X0160371Y0131485D01*
X0160438Y0131355D01*
X0160501Y0131223D01*
X0160561Y0131090D01*
X0160616Y0130955D01*
X0160669Y0130818D01*
X0160717Y0130680D01*
X0160762Y0130541D01*
X0160803Y0130401D01*
X0160840Y0130259D01*
X0160874Y0130117D01*
X0160903Y0129974D01*
X0160929Y0129830D01*
X0160951Y0129685D01*
X0160968Y0129540D01*
X0160982Y0129394D01*
X0160992Y0129248D01*
X0160998Y0129102D01*
X0161000Y0128956D01*
X0161000Y0127756D01*
X0161600Y0127156D02*
X0161647Y0127158D01*
X0161694Y0127163D01*
X0161740Y0127173D01*
X0161785Y0127185D01*
X0161830Y0127202D01*
X0161872Y0127221D01*
X0161913Y0127244D01*
X0161953Y0127271D01*
X0161990Y0127300D01*
X0162024Y0127332D01*
X0162056Y0127366D01*
X0162085Y0127403D01*
X0162112Y0127443D01*
X0162135Y0127484D01*
X0162154Y0127526D01*
X0162171Y0127571D01*
X0162183Y0127616D01*
X0162193Y0127662D01*
X0162198Y0127709D01*
X0162200Y0127756D01*
X0161600Y0127156D02*
X0161553Y0127158D01*
X0161506Y0127163D01*
X0161460Y0127173D01*
X0161415Y0127185D01*
X0161370Y0127202D01*
X0161328Y0127221D01*
X0161287Y0127244D01*
X0161247Y0127271D01*
X0161210Y0127300D01*
X0161176Y0127332D01*
X0161144Y0127366D01*
X0161115Y0127403D01*
X0161088Y0127443D01*
X0161065Y0127484D01*
X0161046Y0127526D01*
X0161029Y0127571D01*
X0161017Y0127616D01*
X0161007Y0127662D01*
X0161002Y0127709D01*
X0161000Y0127756D01*
X0162533Y0128855D02*
X0168200Y0137356D01*
X0169400Y0137956D02*
X0169459Y0137950D01*
X0169518Y0137941D01*
X0169576Y0137928D01*
X0169633Y0137912D01*
X0169688Y0137891D01*
X0169743Y0137867D01*
X0169795Y0137839D01*
X0169846Y0137808D01*
X0169894Y0137774D01*
X0169940Y0137737D01*
X0169984Y0137696D01*
X0170025Y0137653D01*
X0170062Y0137608D01*
X0170097Y0137559D01*
X0170129Y0137509D01*
X0170157Y0137457D01*
X0170182Y0137403D01*
X0170203Y0137347D01*
X0170220Y0137291D01*
X0170233Y0137233D01*
X0170243Y0137174D01*
X0170249Y0137115D01*
X0170251Y0137056D01*
X0170249Y0136997D01*
X0170243Y0136938D01*
X0170233Y0136879D01*
X0170220Y0136821D01*
X0170203Y0136765D01*
X0170182Y0136709D01*
X0170157Y0136655D01*
X0170129Y0136603D01*
X0170097Y0136553D01*
X0170062Y0136504D01*
X0170025Y0136459D01*
X0169984Y0136416D01*
X0169940Y0136375D01*
X0169894Y0136338D01*
X0169846Y0136304D01*
X0169795Y0136273D01*
X0169743Y0136245D01*
X0169688Y0136221D01*
X0169633Y0136200D01*
X0169576Y0136184D01*
X0169518Y0136171D01*
X0169459Y0136162D01*
X0169400Y0136156D01*
X0165200Y0126556D01*
X0162200Y0127756D02*
X0162202Y0127839D01*
X0162207Y0127922D01*
X0162216Y0128005D01*
X0162228Y0128087D01*
X0162244Y0128169D01*
X0162263Y0128250D01*
X0162285Y0128330D01*
X0162311Y0128409D01*
X0162340Y0128487D01*
X0162372Y0128564D01*
X0162408Y0128639D01*
X0162446Y0128713D01*
X0162488Y0128785D01*
X0162533Y0128855D01*
X0166049Y0120907D02*
X0172169Y0114787D01*
X0172170Y0114787D02*
X0172235Y0114724D01*
X0172303Y0114664D01*
X0172373Y0114607D01*
X0172445Y0114553D01*
X0172520Y0114503D01*
X0172597Y0114455D01*
X0172675Y0114410D01*
X0172756Y0114369D01*
X0172838Y0114332D01*
X0172922Y0114297D01*
X0173007Y0114267D01*
X0173093Y0114240D01*
X0173180Y0114216D01*
X0173268Y0114196D01*
X0173357Y0114180D01*
X0173447Y0114168D01*
X0173537Y0114159D01*
X0173627Y0114154D01*
X0173717Y0114153D01*
X0173808Y0114156D01*
X0173898Y0114162D01*
X0173988Y0114172D01*
X0174077Y0114186D01*
X0174166Y0114204D01*
X0174253Y0114225D01*
X0174340Y0114250D01*
X0174426Y0114279D01*
X0174510Y0114311D01*
X0174593Y0114347D01*
X0174675Y0114386D01*
X0174755Y0114428D01*
X0174833Y0114474D01*
X0174909Y0114523D01*
X0174983Y0114575D01*
X0175054Y0114630D01*
X0175123Y0114688D01*
X0177241Y0116542D01*
X0178435Y0119095D02*
X0179558Y0168521D01*
X0179559Y0168521D02*
X0179560Y0168669D01*
X0179558Y0168817D01*
X0179551Y0168964D01*
X0179541Y0169112D01*
X0179527Y0169259D01*
X0179509Y0169405D01*
X0179488Y0169551D01*
X0179462Y0169697D01*
X0179433Y0169842D01*
X0179400Y0169985D01*
X0179364Y0170129D01*
X0179323Y0170271D01*
X0179279Y0170411D01*
X0179231Y0170551D01*
X0179180Y0170690D01*
X0179125Y0170827D01*
X0179067Y0170962D01*
X0179005Y0171096D01*
X0178939Y0171229D01*
X0178870Y0171359D01*
X0178798Y0171488D01*
X0178722Y0171615D01*
X0178643Y0171740D01*
X0178561Y0171862D01*
X0178476Y0171983D01*
X0178387Y0172101D01*
X0178296Y0172217D01*
X0178201Y0172331D01*
X0178104Y0172442D01*
X0178004Y0172550D01*
X0177901Y0172656D01*
X0177901Y0172655D02*
X0171200Y0179356D01*
X0159200Y0186556D02*
X0152600Y0188356D01*
X0159200Y0186556D02*
X0159874Y0186342D01*
X0160542Y0186112D01*
X0161204Y0185865D01*
X0161860Y0185602D01*
X0162509Y0185323D01*
X0163152Y0185028D01*
X0163787Y0184718D01*
X0164414Y0184392D01*
X0165033Y0184051D01*
X0165643Y0183695D01*
X0166245Y0183324D01*
X0166837Y0182938D01*
X0167420Y0182538D01*
X0167992Y0182124D01*
X0168555Y0181696D01*
X0169106Y0181254D01*
X0169647Y0180799D01*
X0170176Y0180331D01*
X0170694Y0179850D01*
X0171200Y0179356D01*
X0152600Y0188356D02*
X0151799Y0188564D01*
X0150993Y0188753D01*
X0150182Y0188922D01*
X0149368Y0189071D01*
X0148550Y0189200D01*
X0147729Y0189309D01*
X0146906Y0189399D01*
X0146081Y0189468D01*
X0145255Y0189518D01*
X0144428Y0189547D01*
X0143600Y0189556D01*
X0143600Y0189555D02*
X0142508Y0189540D01*
X0141417Y0189499D01*
X0140328Y0189431D01*
X0139240Y0189337D01*
X0138155Y0189216D01*
X0137074Y0189068D01*
X0135996Y0188895D01*
X0134923Y0188695D01*
X0133855Y0188468D01*
X0132793Y0188216D01*
X0131737Y0187938D01*
X0130689Y0187634D01*
X0129648Y0187305D01*
X0128615Y0186950D01*
X0127592Y0186571D01*
X0126578Y0186166D01*
X0125574Y0185737D01*
X0124581Y0185283D01*
X0123600Y0184806D01*
X0122630Y0184304D01*
X0121673Y0183779D01*
X0120729Y0183231D01*
X0119799Y0182660D01*
X0118883Y0182066D01*
X0117982Y0181450D01*
X0117096Y0180812D01*
X0116225Y0180153D01*
X0115372Y0179473D01*
X0114535Y0178772D01*
X0113715Y0178051D01*
X0112913Y0177310D01*
X0112130Y0176550D01*
X0111365Y0175771D01*
X0110620Y0174973D01*
X0109894Y0174158D01*
X0109189Y0173325D01*
X0108504Y0172475D01*
X0107840Y0171608D01*
X0107197Y0170726D01*
X0106576Y0169828D01*
X0105978Y0168915D01*
X0105401Y0167988D01*
X0104848Y0167047D01*
X0104317Y0166093D01*
X0103810Y0165126D01*
X0103327Y0164147D01*
X0102868Y0163157D01*
X0102433Y0162156D01*
X0102023Y0161144D01*
X0101638Y0160123D01*
X0101277Y0159092D01*
X0100942Y0158053D01*
X0100633Y0157006D01*
X0100349Y0155952D01*
X0100091Y0154892D01*
X0099859Y0153825D01*
X0099653Y0152753D01*
X0099473Y0151676D01*
X0099319Y0150595D01*
X0099192Y0149511D01*
X0099092Y0148424D01*
X0099018Y0147335D01*
X0098971Y0146244D01*
X0098950Y0145153D01*
X0098956Y0144061D01*
X0098989Y0142970D01*
X0099048Y0141880D01*
X0099134Y0140792D01*
X0099246Y0139706D01*
X0099385Y0138623D01*
X0099551Y0137544D01*
X0099742Y0136470D01*
X0099960Y0135400D01*
X0100204Y0134336D01*
X0100474Y0133278D01*
X0100769Y0132227D01*
X0101090Y0131184D01*
X0101437Y0130149D01*
X0101808Y0129122D01*
X0102205Y0128105D01*
X0102626Y0127098D01*
X0103072Y0126102D01*
X0103542Y0125116D01*
X0104036Y0124143D01*
X0104553Y0123182D01*
X0105094Y0122234D01*
X0105658Y0121299D01*
X0106245Y0120378D01*
X0106853Y0119472D01*
X0107484Y0118581D01*
X0108136Y0117706D01*
X0108810Y0116847D01*
X0109504Y0116004D01*
X0110219Y0115179D01*
X0110953Y0114371D01*
X0111707Y0113582D01*
X0112480Y0112811D01*
X0113272Y0112060D01*
X0114082Y0111328D01*
X0114909Y0110616D01*
X0115754Y0109924D01*
X0116615Y0109253D01*
X0117493Y0108604D01*
X0118386Y0107976D01*
X0119294Y0107370D01*
X0120216Y0106786D01*
X0121153Y0106225D01*
X0122103Y0105688D01*
X0123065Y0105173D01*
X0124040Y0104682D01*
X0125027Y0104215D01*
X0126025Y0103773D01*
X0127033Y0103355D01*
X0128052Y0102961D01*
X0129079Y0102593D01*
X0130116Y0102249D01*
X0131160Y0101932D01*
X0132212Y0101639D01*
X0133270Y0101373D01*
X0134335Y0101132D01*
X0135405Y0100918D01*
X0136481Y0100730D01*
X0137560Y0100568D01*
X0138644Y0100432D01*
X0139730Y0100323D01*
X0140818Y0100241D01*
X0141908Y0100185D01*
X0143000Y0100156D01*
X0164000Y0121756D02*
X0164103Y0121754D01*
X0164207Y0121749D01*
X0164310Y0121739D01*
X0164412Y0121727D01*
X0164514Y0121710D01*
X0164616Y0121690D01*
X0164716Y0121666D01*
X0164816Y0121639D01*
X0164915Y0121608D01*
X0165012Y0121573D01*
X0165109Y0121535D01*
X0165203Y0121494D01*
X0165297Y0121450D01*
X0165388Y0121402D01*
X0165478Y0121350D01*
X0165566Y0121296D01*
X0165652Y0121239D01*
X0165736Y0121178D01*
X0165818Y0121115D01*
X0165897Y0121048D01*
X0165974Y0120979D01*
X0166048Y0120907D01*
X0177241Y0116542D02*
X0177327Y0116620D01*
X0177411Y0116700D01*
X0177491Y0116784D01*
X0177569Y0116870D01*
X0177644Y0116958D01*
X0177716Y0117049D01*
X0177785Y0117143D01*
X0177851Y0117238D01*
X0177914Y0117336D01*
X0177973Y0117436D01*
X0178029Y0117537D01*
X0178082Y0117641D01*
X0178131Y0117746D01*
X0178176Y0117853D01*
X0178219Y0117961D01*
X0178257Y0118070D01*
X0178292Y0118181D01*
X0178323Y0118293D01*
X0178350Y0118406D01*
X0178374Y0118519D01*
X0178394Y0118634D01*
X0178410Y0118748D01*
X0178422Y0118864D01*
X0178431Y0118980D01*
X0178435Y0119096D01*
X0164000Y0121756D02*
X0164031Y0122110D01*
X0164072Y0122462D01*
X0164120Y0122814D01*
X0164177Y0123165D01*
X0164243Y0123514D01*
X0164316Y0123861D01*
X0164398Y0124206D01*
X0164488Y0124550D01*
X0164587Y0124891D01*
X0164693Y0125230D01*
X0164808Y0125566D01*
X0164931Y0125899D01*
X0165061Y0126229D01*
X0165200Y0126556D01*
X0168200Y0137356D02*
X0168240Y0137413D01*
X0168284Y0137469D01*
X0168330Y0137521D01*
X0168379Y0137572D01*
X0168430Y0137620D01*
X0168484Y0137665D01*
X0168540Y0137707D01*
X0168598Y0137746D01*
X0168658Y0137782D01*
X0168720Y0137815D01*
X0168784Y0137845D01*
X0168849Y0137871D01*
X0168915Y0137894D01*
X0168983Y0137914D01*
X0169051Y0137930D01*
X0169120Y0137942D01*
X0169190Y0137951D01*
X0169260Y0137956D01*
X0169330Y0137958D01*
X0169400Y0137956D01*
X0149600Y0116355D02*
X0149539Y0115344D01*
X0149455Y0114334D01*
X0149346Y0113326D01*
X0149214Y0112322D01*
X0149058Y0111320D01*
X0148878Y0110323D01*
X0148674Y0109330D01*
X0148447Y0108343D01*
X0148197Y0107361D01*
X0147923Y0106385D01*
X0147627Y0105416D01*
X0147307Y0104455D01*
X0146965Y0103501D01*
X0146600Y0102555D01*
X0258700Y0173356D02*
X0258702Y0173514D01*
X0258708Y0173673D01*
X0258718Y0173831D01*
X0258732Y0173988D01*
X0258750Y0174146D01*
X0258771Y0174302D01*
X0258797Y0174459D01*
X0258827Y0174614D01*
X0258860Y0174769D01*
X0258898Y0174923D01*
X0258939Y0175076D01*
X0258984Y0175227D01*
X0259033Y0175378D01*
X0259086Y0175527D01*
X0259142Y0175675D01*
X0259203Y0175822D01*
X0259266Y0175967D01*
X0259334Y0176110D01*
X0259405Y0176251D01*
X0259479Y0176391D01*
X0259557Y0176529D01*
X0259639Y0176665D01*
X0259724Y0176798D01*
X0259812Y0176930D01*
X0259903Y0177059D01*
X0259998Y0177186D01*
X0260096Y0177310D01*
X0260197Y0177432D01*
X0260301Y0177552D01*
X0260407Y0177669D01*
X0260517Y0177783D01*
X0260630Y0177894D01*
X0260745Y0178002D01*
X0260864Y0178108D01*
X0260984Y0178210D01*
X0261107Y0178310D01*
X0261233Y0178406D01*
X0261361Y0178499D01*
X0261492Y0178589D01*
X0261624Y0178675D01*
X0261759Y0178758D01*
X0261896Y0178838D01*
X0262035Y0178914D01*
X0262175Y0178987D01*
X0262318Y0179056D01*
X0262462Y0179122D01*
X0262607Y0179184D01*
X0262755Y0179242D01*
X0262903Y0179297D01*
X0263053Y0179348D01*
X0263204Y0179395D01*
X0263357Y0179438D01*
X0263510Y0179477D01*
X0263664Y0179513D01*
X0263819Y0179544D01*
X0263975Y0179572D01*
X0264132Y0179596D01*
X0264289Y0179616D01*
X0264447Y0179632D01*
X0264604Y0179644D01*
X0264763Y0179652D01*
X0264921Y0179656D01*
X0265079Y0179656D01*
X0265237Y0179652D01*
X0265396Y0179644D01*
X0265553Y0179632D01*
X0265711Y0179616D01*
X0265868Y0179596D01*
X0266025Y0179572D01*
X0266181Y0179544D01*
X0266336Y0179513D01*
X0266490Y0179477D01*
X0266643Y0179438D01*
X0266796Y0179395D01*
X0266947Y0179348D01*
X0267097Y0179297D01*
X0267245Y0179242D01*
X0267393Y0179184D01*
X0267538Y0179122D01*
X0267682Y0179056D01*
X0267825Y0178987D01*
X0267965Y0178914D01*
X0268104Y0178838D01*
X0268241Y0178758D01*
X0268376Y0178675D01*
X0268508Y0178589D01*
X0268639Y0178499D01*
X0268767Y0178406D01*
X0268893Y0178310D01*
X0269016Y0178210D01*
X0269136Y0178108D01*
X0269255Y0178002D01*
X0269370Y0177894D01*
X0269483Y0177783D01*
X0269593Y0177669D01*
X0269699Y0177552D01*
X0269803Y0177432D01*
X0269904Y0177310D01*
X0270002Y0177186D01*
X0270097Y0177059D01*
X0270188Y0176930D01*
X0270276Y0176798D01*
X0270361Y0176665D01*
X0270443Y0176529D01*
X0270521Y0176391D01*
X0270595Y0176251D01*
X0270666Y0176110D01*
X0270734Y0175967D01*
X0270797Y0175822D01*
X0270858Y0175675D01*
X0270914Y0175527D01*
X0270967Y0175378D01*
X0271016Y0175227D01*
X0271061Y0175076D01*
X0271102Y0174923D01*
X0271140Y0174769D01*
X0271173Y0174614D01*
X0271203Y0174459D01*
X0271229Y0174302D01*
X0271250Y0174146D01*
X0271268Y0173988D01*
X0271282Y0173831D01*
X0271292Y0173673D01*
X0271298Y0173514D01*
X0271300Y0173356D01*
X0271298Y0173198D01*
X0271292Y0173039D01*
X0271282Y0172881D01*
X0271268Y0172724D01*
X0271250Y0172566D01*
X0271229Y0172410D01*
X0271203Y0172253D01*
X0271173Y0172098D01*
X0271140Y0171943D01*
X0271102Y0171789D01*
X0271061Y0171636D01*
X0271016Y0171485D01*
X0270967Y0171334D01*
X0270914Y0171185D01*
X0270858Y0171037D01*
X0270797Y0170890D01*
X0270734Y0170745D01*
X0270666Y0170602D01*
X0270595Y0170461D01*
X0270521Y0170321D01*
X0270443Y0170183D01*
X0270361Y0170047D01*
X0270276Y0169914D01*
X0270188Y0169782D01*
X0270097Y0169653D01*
X0270002Y0169526D01*
X0269904Y0169402D01*
X0269803Y0169280D01*
X0269699Y0169160D01*
X0269593Y0169043D01*
X0269483Y0168929D01*
X0269370Y0168818D01*
X0269255Y0168710D01*
X0269136Y0168604D01*
X0269016Y0168502D01*
X0268893Y0168402D01*
X0268767Y0168306D01*
X0268639Y0168213D01*
X0268508Y0168123D01*
X0268376Y0168037D01*
X0268241Y0167954D01*
X0268104Y0167874D01*
X0267965Y0167798D01*
X0267825Y0167725D01*
X0267682Y0167656D01*
X0267538Y0167590D01*
X0267393Y0167528D01*
X0267245Y0167470D01*
X0267097Y0167415D01*
X0266947Y0167364D01*
X0266796Y0167317D01*
X0266643Y0167274D01*
X0266490Y0167235D01*
X0266336Y0167199D01*
X0266181Y0167168D01*
X0266025Y0167140D01*
X0265868Y0167116D01*
X0265711Y0167096D01*
X0265553Y0167080D01*
X0265396Y0167068D01*
X0265237Y0167060D01*
X0265079Y0167056D01*
X0264921Y0167056D01*
X0264763Y0167060D01*
X0264604Y0167068D01*
X0264447Y0167080D01*
X0264289Y0167096D01*
X0264132Y0167116D01*
X0263975Y0167140D01*
X0263819Y0167168D01*
X0263664Y0167199D01*
X0263510Y0167235D01*
X0263357Y0167274D01*
X0263204Y0167317D01*
X0263053Y0167364D01*
X0262903Y0167415D01*
X0262755Y0167470D01*
X0262607Y0167528D01*
X0262462Y0167590D01*
X0262318Y0167656D01*
X0262175Y0167725D01*
X0262035Y0167798D01*
X0261896Y0167874D01*
X0261759Y0167954D01*
X0261624Y0168037D01*
X0261492Y0168123D01*
X0261361Y0168213D01*
X0261233Y0168306D01*
X0261107Y0168402D01*
X0260984Y0168502D01*
X0260864Y0168604D01*
X0260745Y0168710D01*
X0260630Y0168818D01*
X0260517Y0168929D01*
X0260407Y0169043D01*
X0260301Y0169160D01*
X0260197Y0169280D01*
X0260096Y0169402D01*
X0259998Y0169526D01*
X0259903Y0169653D01*
X0259812Y0169782D01*
X0259724Y0169914D01*
X0259639Y0170047D01*
X0259557Y0170183D01*
X0259479Y0170321D01*
X0259405Y0170461D01*
X0259334Y0170602D01*
X0259266Y0170745D01*
X0259203Y0170890D01*
X0259142Y0171037D01*
X0259086Y0171185D01*
X0259033Y0171334D01*
X0258984Y0171485D01*
X0258939Y0171636D01*
X0258898Y0171789D01*
X0258860Y0171943D01*
X0258827Y0172098D01*
X0258797Y0172253D01*
X0258771Y0172410D01*
X0258750Y0172566D01*
X0258732Y0172724D01*
X0258718Y0172881D01*
X0258708Y0173039D01*
X0258702Y0173198D01*
X0258700Y0173356D01*
X0272717Y0182626D02*
X0272715Y0182764D01*
X0272709Y0182901D01*
X0272700Y0183039D01*
X0272687Y0183176D01*
X0272670Y0183312D01*
X0272649Y0183448D01*
X0272625Y0183584D01*
X0272597Y0183719D01*
X0272566Y0183853D01*
X0272530Y0183986D01*
X0272491Y0184118D01*
X0272449Y0184249D01*
X0272403Y0184378D01*
X0272353Y0184507D01*
X0272300Y0184634D01*
X0272243Y0184759D01*
X0272184Y0184883D01*
X0272120Y0185005D01*
X0272054Y0185126D01*
X0271984Y0185244D01*
X0271911Y0185361D01*
X0271834Y0185476D01*
X0271755Y0185588D01*
X0271673Y0185699D01*
X0271587Y0185807D01*
X0271499Y0185912D01*
X0271408Y0186015D01*
X0271314Y0186116D01*
X0271217Y0186214D01*
X0265293Y0192063D02*
X0265251Y0192107D01*
X0265213Y0192153D01*
X0265177Y0192202D01*
X0265144Y0192253D01*
X0265115Y0192305D01*
X0265088Y0192360D01*
X0265065Y0192415D01*
X0265045Y0192472D01*
X0265029Y0192531D01*
X0265016Y0192590D01*
X0265007Y0192649D01*
X0265002Y0192710D01*
X0265000Y0192770D01*
X0262006Y0240331D02*
X0261826Y0240506D01*
X0261641Y0240676D01*
X0261452Y0240842D01*
X0261260Y0241003D01*
X0261063Y0241159D01*
X0260863Y0241311D01*
X0260659Y0241458D01*
X0260451Y0241599D01*
X0260241Y0241736D01*
X0260026Y0241867D01*
X0259809Y0241993D01*
X0259589Y0242113D01*
X0259366Y0242229D01*
X0259140Y0242338D01*
X0258911Y0242443D01*
X0258680Y0242541D01*
X0258447Y0242634D01*
X0258211Y0242721D01*
X0257974Y0242803D01*
X0257734Y0242878D01*
X0257493Y0242948D01*
X0257250Y0243012D01*
X0257005Y0243069D01*
X0256760Y0243121D01*
X0256513Y0243167D01*
X0256265Y0243207D01*
X0256016Y0243240D01*
X0255766Y0243268D01*
X0255516Y0243289D01*
X0255265Y0243305D01*
X0255014Y0243314D01*
X0254763Y0243317D01*
X0263110Y0239233D02*
X0263220Y0239121D01*
X0263328Y0239006D01*
X0263433Y0238888D01*
X0263535Y0238767D01*
X0263634Y0238644D01*
X0263730Y0238519D01*
X0263822Y0238391D01*
X0263912Y0238261D01*
X0263998Y0238129D01*
X0264082Y0237995D01*
X0264161Y0237859D01*
X0264238Y0237721D01*
X0264311Y0237581D01*
X0264380Y0237439D01*
X0264446Y0237296D01*
X0264509Y0237151D01*
X0264567Y0237005D01*
X0264623Y0236857D01*
X0264674Y0236708D01*
X0264722Y0236557D01*
X0264766Y0236406D01*
X0264807Y0236253D01*
X0264843Y0236100D01*
X0264876Y0235945D01*
X0264905Y0235790D01*
X0264930Y0235634D01*
X0264951Y0235478D01*
X0264969Y0235321D01*
X0264983Y0235164D01*
X0264992Y0235006D01*
X0264998Y0234849D01*
X0265000Y0234691D01*
X0058700Y0233356D02*
X0058702Y0233514D01*
X0058708Y0233673D01*
X0058718Y0233831D01*
X0058732Y0233988D01*
X0058750Y0234146D01*
X0058771Y0234302D01*
X0058797Y0234459D01*
X0058827Y0234614D01*
X0058860Y0234769D01*
X0058898Y0234923D01*
X0058939Y0235076D01*
X0058984Y0235227D01*
X0059033Y0235378D01*
X0059086Y0235527D01*
X0059142Y0235675D01*
X0059203Y0235822D01*
X0059266Y0235967D01*
X0059334Y0236110D01*
X0059405Y0236251D01*
X0059479Y0236391D01*
X0059557Y0236529D01*
X0059639Y0236665D01*
X0059724Y0236798D01*
X0059812Y0236930D01*
X0059903Y0237059D01*
X0059998Y0237186D01*
X0060096Y0237310D01*
X0060197Y0237432D01*
X0060301Y0237552D01*
X0060407Y0237669D01*
X0060517Y0237783D01*
X0060630Y0237894D01*
X0060745Y0238002D01*
X0060864Y0238108D01*
X0060984Y0238210D01*
X0061107Y0238310D01*
X0061233Y0238406D01*
X0061361Y0238499D01*
X0061492Y0238589D01*
X0061624Y0238675D01*
X0061759Y0238758D01*
X0061896Y0238838D01*
X0062035Y0238914D01*
X0062175Y0238987D01*
X0062318Y0239056D01*
X0062462Y0239122D01*
X0062607Y0239184D01*
X0062755Y0239242D01*
X0062903Y0239297D01*
X0063053Y0239348D01*
X0063204Y0239395D01*
X0063357Y0239438D01*
X0063510Y0239477D01*
X0063664Y0239513D01*
X0063819Y0239544D01*
X0063975Y0239572D01*
X0064132Y0239596D01*
X0064289Y0239616D01*
X0064447Y0239632D01*
X0064604Y0239644D01*
X0064763Y0239652D01*
X0064921Y0239656D01*
X0065079Y0239656D01*
X0065237Y0239652D01*
X0065396Y0239644D01*
X0065553Y0239632D01*
X0065711Y0239616D01*
X0065868Y0239596D01*
X0066025Y0239572D01*
X0066181Y0239544D01*
X0066336Y0239513D01*
X0066490Y0239477D01*
X0066643Y0239438D01*
X0066796Y0239395D01*
X0066947Y0239348D01*
X0067097Y0239297D01*
X0067245Y0239242D01*
X0067393Y0239184D01*
X0067538Y0239122D01*
X0067682Y0239056D01*
X0067825Y0238987D01*
X0067965Y0238914D01*
X0068104Y0238838D01*
X0068241Y0238758D01*
X0068376Y0238675D01*
X0068508Y0238589D01*
X0068639Y0238499D01*
X0068767Y0238406D01*
X0068893Y0238310D01*
X0069016Y0238210D01*
X0069136Y0238108D01*
X0069255Y0238002D01*
X0069370Y0237894D01*
X0069483Y0237783D01*
X0069593Y0237669D01*
X0069699Y0237552D01*
X0069803Y0237432D01*
X0069904Y0237310D01*
X0070002Y0237186D01*
X0070097Y0237059D01*
X0070188Y0236930D01*
X0070276Y0236798D01*
X0070361Y0236665D01*
X0070443Y0236529D01*
X0070521Y0236391D01*
X0070595Y0236251D01*
X0070666Y0236110D01*
X0070734Y0235967D01*
X0070797Y0235822D01*
X0070858Y0235675D01*
X0070914Y0235527D01*
X0070967Y0235378D01*
X0071016Y0235227D01*
X0071061Y0235076D01*
X0071102Y0234923D01*
X0071140Y0234769D01*
X0071173Y0234614D01*
X0071203Y0234459D01*
X0071229Y0234302D01*
X0071250Y0234146D01*
X0071268Y0233988D01*
X0071282Y0233831D01*
X0071292Y0233673D01*
X0071298Y0233514D01*
X0071300Y0233356D01*
X0071298Y0233198D01*
X0071292Y0233039D01*
X0071282Y0232881D01*
X0071268Y0232724D01*
X0071250Y0232566D01*
X0071229Y0232410D01*
X0071203Y0232253D01*
X0071173Y0232098D01*
X0071140Y0231943D01*
X0071102Y0231789D01*
X0071061Y0231636D01*
X0071016Y0231485D01*
X0070967Y0231334D01*
X0070914Y0231185D01*
X0070858Y0231037D01*
X0070797Y0230890D01*
X0070734Y0230745D01*
X0070666Y0230602D01*
X0070595Y0230461D01*
X0070521Y0230321D01*
X0070443Y0230183D01*
X0070361Y0230047D01*
X0070276Y0229914D01*
X0070188Y0229782D01*
X0070097Y0229653D01*
X0070002Y0229526D01*
X0069904Y0229402D01*
X0069803Y0229280D01*
X0069699Y0229160D01*
X0069593Y0229043D01*
X0069483Y0228929D01*
X0069370Y0228818D01*
X0069255Y0228710D01*
X0069136Y0228604D01*
X0069016Y0228502D01*
X0068893Y0228402D01*
X0068767Y0228306D01*
X0068639Y0228213D01*
X0068508Y0228123D01*
X0068376Y0228037D01*
X0068241Y0227954D01*
X0068104Y0227874D01*
X0067965Y0227798D01*
X0067825Y0227725D01*
X0067682Y0227656D01*
X0067538Y0227590D01*
X0067393Y0227528D01*
X0067245Y0227470D01*
X0067097Y0227415D01*
X0066947Y0227364D01*
X0066796Y0227317D01*
X0066643Y0227274D01*
X0066490Y0227235D01*
X0066336Y0227199D01*
X0066181Y0227168D01*
X0066025Y0227140D01*
X0065868Y0227116D01*
X0065711Y0227096D01*
X0065553Y0227080D01*
X0065396Y0227068D01*
X0065237Y0227060D01*
X0065079Y0227056D01*
X0064921Y0227056D01*
X0064763Y0227060D01*
X0064604Y0227068D01*
X0064447Y0227080D01*
X0064289Y0227096D01*
X0064132Y0227116D01*
X0063975Y0227140D01*
X0063819Y0227168D01*
X0063664Y0227199D01*
X0063510Y0227235D01*
X0063357Y0227274D01*
X0063204Y0227317D01*
X0063053Y0227364D01*
X0062903Y0227415D01*
X0062755Y0227470D01*
X0062607Y0227528D01*
X0062462Y0227590D01*
X0062318Y0227656D01*
X0062175Y0227725D01*
X0062035Y0227798D01*
X0061896Y0227874D01*
X0061759Y0227954D01*
X0061624Y0228037D01*
X0061492Y0228123D01*
X0061361Y0228213D01*
X0061233Y0228306D01*
X0061107Y0228402D01*
X0060984Y0228502D01*
X0060864Y0228604D01*
X0060745Y0228710D01*
X0060630Y0228818D01*
X0060517Y0228929D01*
X0060407Y0229043D01*
X0060301Y0229160D01*
X0060197Y0229280D01*
X0060096Y0229402D01*
X0059998Y0229526D01*
X0059903Y0229653D01*
X0059812Y0229782D01*
X0059724Y0229914D01*
X0059639Y0230047D01*
X0059557Y0230183D01*
X0059479Y0230321D01*
X0059405Y0230461D01*
X0059334Y0230602D01*
X0059266Y0230745D01*
X0059203Y0230890D01*
X0059142Y0231037D01*
X0059086Y0231185D01*
X0059033Y0231334D01*
X0058984Y0231485D01*
X0058939Y0231636D01*
X0058898Y0231789D01*
X0058860Y0231943D01*
X0058827Y0232098D01*
X0058797Y0232253D01*
X0058771Y0232410D01*
X0058750Y0232566D01*
X0058732Y0232724D01*
X0058718Y0232881D01*
X0058708Y0233039D01*
X0058702Y0233198D01*
X0058700Y0233356D01*
X0266957Y0098281D02*
X0266842Y0098188D01*
X0266730Y0098092D01*
X0266621Y0097993D01*
X0266514Y0097891D01*
X0266410Y0097786D01*
X0266308Y0097678D01*
X0266210Y0097568D01*
X0266115Y0097455D01*
X0266022Y0097340D01*
X0265933Y0097222D01*
X0265847Y0097102D01*
X0265764Y0096980D01*
X0265684Y0096856D01*
X0265608Y0096729D01*
X0265535Y0096601D01*
X0265465Y0096470D01*
X0265399Y0096338D01*
X0265337Y0096205D01*
X0265278Y0096069D01*
X0265222Y0095932D01*
X0265171Y0095794D01*
X0265122Y0095654D01*
X0265078Y0095513D01*
X0265038Y0095371D01*
X0265001Y0095228D01*
X0264968Y0095084D01*
X0264939Y0094939D01*
X0264913Y0094794D01*
X0264892Y0094648D01*
X0264874Y0094501D01*
X0264861Y0094354D01*
X0264851Y0094206D01*
X0264845Y0094059D01*
X0264843Y0093911D01*
D11*
X0205000Y0053356D03*
X0205000Y0043356D03*
X0185000Y0043356D03*
X0185200Y0053356D03*
X0255000Y0153356D03*
X0255006Y0223352D03*
X0255000Y0233356D03*
X0169000Y0233356D03*
D12*
X0159000Y0233356D03*
X0149000Y0233356D03*
X0139000Y0233356D03*
X0129000Y0233356D03*
X0119000Y0233356D03*
X0109000Y0233356D03*
X0099000Y0233356D03*
X0089000Y0233356D03*
X0079000Y0233356D03*
X0078997Y0223352D03*
X0088997Y0223352D03*
X0098997Y0223352D03*
X0108997Y0223352D03*
X0118997Y0223352D03*
X0128997Y0223352D03*
X0138997Y0223352D03*
X0148997Y0223352D03*
X0158997Y0223352D03*
X0185006Y0223352D03*
X0195006Y0223352D03*
X0205006Y0223352D03*
X0215006Y0223352D03*
X0225006Y0223352D03*
X0235006Y0223352D03*
X0245006Y0223352D03*
X0245000Y0233356D03*
X0235000Y0233356D03*
X0225000Y0233356D03*
X0215000Y0233356D03*
X0205000Y0233356D03*
X0195000Y0233356D03*
X0185000Y0233356D03*
X0265000Y0153356D03*
X0265000Y0143356D03*
X0255000Y0143356D03*
X0255000Y0133356D03*
X0265000Y0133356D03*
X0255000Y0053356D03*
X0245000Y0053356D03*
X0235000Y0053356D03*
X0225000Y0053356D03*
X0215000Y0053356D03*
X0215000Y0043356D03*
X0225000Y0043356D03*
X0235000Y0043356D03*
X0245000Y0043356D03*
X0255000Y0043356D03*
X0175000Y0043356D03*
X0165000Y0043356D03*
X0155000Y0043356D03*
X0145000Y0043356D03*
X0135000Y0043356D03*
X0125000Y0043356D03*
X0115000Y0043356D03*
X0115200Y0053356D03*
X0125200Y0053356D03*
X0135200Y0053356D03*
X0145200Y0053356D03*
X0155200Y0053356D03*
X0165200Y0053356D03*
X0175200Y0053356D03*
D13*
X0265000Y0173356D03*
X0065000Y0233356D03*
D14*
X0032402Y0215954D03*
D15*
X0042402Y0215954D03*
X0052402Y0215954D03*
X0052402Y0225954D03*
X0042402Y0225954D03*
X0032402Y0225954D03*
D16*
X0083858Y0025167D03*
X0093858Y0025167D03*
X0103858Y0025167D03*
X0113858Y0025167D03*
X0123858Y0025167D03*
X0133858Y0025167D03*
X0143858Y0025167D03*
X0153858Y0025167D03*
X0163858Y0025167D03*
X0173858Y0025167D03*
X0183858Y0025167D03*
X0193858Y0025167D03*
X0193858Y0015167D03*
X0183858Y0015167D03*
X0173858Y0015167D03*
X0163858Y0015167D03*
X0153858Y0015167D03*
X0143858Y0015167D03*
X0133858Y0015167D03*
X0123858Y0015167D03*
X0113858Y0015167D03*
X0103858Y0015167D03*
X0093858Y0015167D03*
X0083858Y0015167D03*
D17*
X0168997Y0223352D03*
D18*
X0029600Y0131956D03*
X0017000Y0125356D03*
X0029600Y0117556D03*
X0043400Y0117556D03*
M02*
