G75*
%MOIN*%
%OFA0B0*%
%FSLAX25Y25*%
%IPPOS*%
%LPD*%
%AMOC8*
5,1,8,0,0,1.08239X$1,22.5*
%
%ADD10C,0.00000*%
%ADD11C,0.00600*%
%ADD12C,0.00300*%
%ADD13C,0.00500*%
%ADD14R,0.00200X0.00400*%
%ADD15R,0.00200X0.01800*%
%ADD16R,0.00200X0.02200*%
%ADD17R,0.00200X0.02800*%
%ADD18R,0.00200X0.03000*%
%ADD19R,0.00200X0.03200*%
%ADD20R,0.00200X0.03600*%
%ADD21R,0.00200X0.04200*%
%ADD22R,0.00200X0.04400*%
%ADD23R,0.00200X0.04600*%
%ADD24R,0.00200X0.04800*%
%ADD25R,0.00200X0.05000*%
%ADD26R,0.00200X0.05200*%
%ADD27R,0.00200X0.05400*%
%ADD28R,0.00200X0.05600*%
%ADD29R,0.00200X0.05800*%
%ADD30R,0.00200X0.06000*%
%ADD31R,0.00200X0.06200*%
%ADD32R,0.00200X0.06400*%
%ADD33R,0.00200X0.06600*%
%ADD34R,0.00200X0.01200*%
%ADD35R,0.00200X0.01400*%
%ADD36R,0.00200X0.02400*%
%ADD37R,0.00200X0.06800*%
%ADD38R,0.00200X0.03400*%
%ADD39R,0.00200X0.04000*%
%ADD40R,0.00200X0.02000*%
%ADD41R,0.00200X0.07000*%
%ADD42R,0.00200X0.07200*%
%ADD43R,0.00200X0.07400*%
%ADD44R,0.00200X0.07600*%
%ADD45R,0.00200X0.07800*%
%ADD46R,0.00200X0.08000*%
%ADD47R,0.00200X0.08200*%
%ADD48R,0.00200X0.08600*%
%ADD49R,0.00200X0.08400*%
%ADD50R,0.00200X0.08800*%
%ADD51R,0.00200X0.09000*%
%ADD52R,0.00200X0.09200*%
%ADD53R,0.00200X0.09400*%
%ADD54R,0.00200X0.09600*%
%ADD55R,0.00200X0.10000*%
%ADD56R,0.00200X0.09800*%
%ADD57R,0.00200X0.10200*%
%ADD58R,0.00200X0.10400*%
%ADD59R,0.00200X0.10600*%
%ADD60R,0.00200X0.10800*%
%ADD61R,0.00200X0.11000*%
%ADD62R,0.00200X0.11400*%
%ADD63R,0.00200X0.22200*%
%ADD64R,0.00200X0.00600*%
%ADD65R,0.00200X0.21800*%
%ADD66R,0.00200X0.21600*%
%ADD67R,0.00200X0.21400*%
%ADD68R,0.00200X0.25800*%
%ADD69R,0.00200X0.26200*%
%ADD70R,0.00200X0.26400*%
%ADD71R,0.00200X0.26800*%
%ADD72R,0.00200X0.27200*%
%ADD73R,0.00200X0.27400*%
%ADD74R,0.00200X0.27600*%
%ADD75R,0.00200X0.28000*%
%ADD76R,0.00200X0.28200*%
%ADD77R,0.00200X0.28600*%
%ADD78R,0.00200X0.29200*%
%ADD79R,0.00200X0.29800*%
%ADD80R,0.00200X0.11600*%
%ADD81R,0.00200X0.18600*%
%ADD82R,0.00200X0.32000*%
%ADD83R,0.00200X0.44200*%
%ADD84R,0.00200X0.13400*%
%ADD85R,0.00200X0.30400*%
%ADD86R,0.00200X0.44400*%
%ADD87R,0.00200X0.45400*%
%ADD88R,0.00200X0.45600*%
%ADD89R,0.00200X0.46000*%
%ADD90R,0.00200X0.46200*%
%ADD91R,0.00200X0.46400*%
%ADD92R,0.00200X0.46600*%
%ADD93R,0.00200X0.46800*%
%ADD94R,0.00200X0.47000*%
%ADD95R,0.00200X0.47200*%
%ADD96R,0.00200X0.47400*%
%ADD97R,0.00200X0.47600*%
%ADD98R,0.00200X0.36400*%
%ADD99R,0.00200X0.36000*%
%ADD100R,0.00200X0.35800*%
%ADD101R,0.00200X0.35600*%
%ADD102R,0.00200X0.35200*%
%ADD103R,0.00200X0.19200*%
%ADD104R,0.00200X0.17800*%
%ADD105R,0.00200X0.17600*%
%ADD106R,0.00200X0.16600*%
%ADD107R,0.00200X0.16200*%
%ADD108R,0.00200X0.16000*%
%ADD109R,0.00200X0.15400*%
%ADD110R,0.00200X0.15000*%
%ADD111R,0.00200X0.14600*%
%ADD112R,0.00200X0.14400*%
%ADD113R,0.00200X0.11800*%
%ADD114R,0.00200X0.14200*%
%ADD115R,0.00200X0.12800*%
%ADD116R,0.00200X0.14000*%
%ADD117R,0.00200X0.13600*%
%ADD118R,0.00200X0.14800*%
%ADD119R,0.00200X0.00200*%
%ADD120R,0.00200X0.16400*%
%ADD121R,0.00200X0.13200*%
%ADD122R,0.00200X0.17200*%
%ADD123R,0.00200X0.12600*%
%ADD124R,0.00200X0.19400*%
%ADD125R,0.00200X0.20200*%
%ADD126R,0.00200X0.12200*%
%ADD127R,0.00200X0.20400*%
%ADD128R,0.00200X0.21000*%
%ADD129R,0.00200X0.12000*%
%ADD130R,0.00200X0.22600*%
%ADD131R,0.00200X0.00800*%
%ADD132R,0.00200X0.23000*%
%ADD133R,0.00200X0.11200*%
%ADD134R,0.00200X0.03800*%
%ADD135R,0.00200X0.24000*%
%ADD136R,0.00200X0.25000*%
%ADD137R,0.00200X0.26000*%
%ADD138R,0.00200X0.27800*%
%ADD139R,0.00200X0.01600*%
%ADD140R,0.00200X0.29000*%
%ADD141R,0.00200X0.29600*%
%ADD142R,0.00200X0.31200*%
%ADD143R,0.00200X0.32400*%
%ADD144R,0.00200X0.32800*%
%ADD145R,0.00200X0.33400*%
%ADD146R,0.00200X0.33800*%
%ADD147R,0.00200X0.34200*%
%ADD148R,0.00200X0.34600*%
%ADD149R,0.00200X0.34800*%
%ADD150R,0.00200X0.35000*%
%ADD151R,0.00200X0.01000*%
%ADD152R,0.00200X0.35400*%
%ADD153R,0.00200X0.33600*%
%ADD154R,0.00200X0.12400*%
%ADD155R,0.00200X0.33200*%
%ADD156R,0.00200X0.33000*%
%ADD157R,0.00200X0.32200*%
%ADD158R,0.00200X0.30800*%
%ADD159R,0.00200X0.29400*%
%ADD160R,0.00200X0.28800*%
%ADD161R,0.00200X0.13000*%
%ADD162R,0.00200X0.26600*%
%ADD163R,0.00200X0.25600*%
%ADD164R,0.00200X0.25200*%
%ADD165R,0.00200X0.24800*%
%ADD166R,0.00200X0.24200*%
%ADD167R,0.00200X0.23600*%
%ADD168R,0.00200X0.13800*%
%ADD169R,0.00200X0.22400*%
%ADD170R,0.00200X0.21200*%
%ADD171R,0.00200X0.02600*%
%ADD172R,0.00200X0.15200*%
%ADD173R,0.00200X0.15600*%
%ADD174R,0.00200X0.16800*%
%ADD175R,0.00200X0.17000*%
%ADD176R,0.00200X0.17400*%
%ADD177R,0.00200X0.18000*%
%ADD178R,0.00200X0.15800*%
%ADD179R,0.00200X0.30600*%
%ADD180R,0.00200X0.38000*%
%ADD181R,0.00200X0.37800*%
%ADD182R,0.00200X0.37600*%
%ADD183R,0.00200X0.37400*%
%ADD184R,0.00200X0.37200*%
%ADD185R,0.00200X0.37000*%
%ADD186R,0.00200X0.22800*%
%ADD187R,0.00200X0.20800*%
%ADD188R,0.00200X0.19800*%
%ADD189R,0.00200X0.18800*%
%ADD190R,0.00200X0.22000*%
%ADD191R,0.00200X0.34400*%
%ADD192R,0.00200X0.42200*%
%ADD193R,0.00200X0.41800*%
%ADD194R,0.00200X0.41400*%
%ADD195R,0.00200X0.41200*%
%ADD196R,0.00200X0.40400*%
%ADD197R,0.00200X0.40000*%
%ADD198R,0.00200X0.39600*%
%ADD199R,0.00200X0.40200*%
%ADD200R,0.00200X0.42400*%
%ADD201R,0.00200X0.43800*%
%ADD202R,0.00200X0.44600*%
%ADD203R,0.00200X0.45200*%
%ADD204R,0.00200X0.48400*%
%ADD205R,0.00200X0.48800*%
%ADD206R,0.00200X0.49200*%
%ADD207R,0.00200X0.49800*%
%ADD208R,0.00200X0.50000*%
%ADD209R,0.00200X0.50800*%
%ADD210R,0.00200X0.51000*%
%ADD211R,0.00200X0.51200*%
%ADD212R,0.00200X0.51800*%
%ADD213R,0.00200X0.52400*%
%ADD214R,0.00200X0.52600*%
%ADD215R,0.00200X0.53000*%
%ADD216R,0.00200X0.53600*%
%ADD217R,0.00200X0.53800*%
%ADD218R,0.00200X0.54600*%
%ADD219R,0.00200X0.55000*%
%ADD220R,0.00200X0.55600*%
%ADD221R,0.00200X0.56400*%
%ADD222R,0.00200X0.56600*%
%ADD223R,0.00200X0.56800*%
%ADD224R,0.00200X0.57200*%
%ADD225R,0.00200X0.57400*%
%ADD226R,0.00200X0.57800*%
%ADD227R,0.00200X0.58000*%
%ADD228R,0.00200X0.58600*%
%ADD229R,0.00200X0.41600*%
%ADD230R,0.00200X0.41000*%
%ADD231R,0.00200X0.40800*%
%ADD232R,0.00200X0.40600*%
%ADD233R,0.00200X0.27000*%
%ADD234R,0.00200X0.25400*%
%ADD235R,0.00200X0.24600*%
%ADD236R,0.00200X0.24400*%
%ADD237R,0.00200X0.18200*%
%ADD238R,0.00200X0.18400*%
%ADD239R,0.00200X0.20000*%
%ADD240R,0.00200X0.20600*%
%ADD241R,0.00200X0.23400*%
%ADD242R,0.00200X0.23200*%
%ADD243R,0.00200X0.67600*%
%ADD244R,0.00200X0.67000*%
%ADD245R,0.00200X0.66600*%
%ADD246R,0.00200X0.65800*%
%ADD247R,0.00200X0.65600*%
%ADD248R,0.00200X0.64800*%
%ADD249R,0.00200X0.64200*%
%ADD250R,0.00200X0.63600*%
%ADD251R,0.00200X0.63200*%
%ADD252R,0.00200X0.62600*%
%ADD253R,0.00200X0.62000*%
%ADD254R,0.00200X0.61400*%
%ADD255R,0.00200X0.61200*%
%ADD256R,0.00200X0.60200*%
%ADD257R,0.00200X0.60000*%
%ADD258R,0.00200X0.59600*%
%ADD259R,0.00200X0.58200*%
%ADD260R,0.00200X0.57600*%
%ADD261R,0.00200X0.56000*%
%ADD262R,0.00200X0.54800*%
%ADD263R,0.00200X0.54000*%
%ADD264R,0.00200X0.51400*%
%ADD265R,0.00200X0.50400*%
%ADD266R,0.00200X0.49600*%
%ADD267R,0.00200X0.48600*%
%ADD268R,0.00200X0.48200*%
%ADD269R,0.00200X0.47800*%
%ADD270R,0.00200X0.45000*%
%ADD271R,0.00200X0.43200*%
%ADD272R,0.00200X0.42800*%
%ADD273R,0.00200X0.38800*%
%ADD274R,0.00200X0.38200*%
%ADD275R,0.00200X0.36800*%
%ADD276R,0.00200X0.28400*%
%ADD277R,0.02340X0.00334*%
%ADD278R,0.05660X0.00333*%
%ADD279R,0.09330X0.00333*%
%ADD280R,0.00670X0.00333*%
%ADD281R,0.01000X0.00333*%
%ADD282R,0.12000X0.00334*%
%ADD283R,0.07000X0.00334*%
%ADD284R,0.12000X0.00333*%
%ADD285R,0.03330X0.00333*%
%ADD286R,0.05330X0.00333*%
%ADD287R,0.03000X0.00333*%
%ADD288R,0.03000X0.00334*%
%ADD289R,0.03670X0.00333*%
%ADD290R,0.03660X0.00334*%
%ADD291R,0.04330X0.00333*%
%ADD292R,0.05000X0.00333*%
%ADD293R,0.01000X0.00334*%
%ADD294R,0.06340X0.00334*%
%ADD295R,0.01340X0.00333*%
%ADD296R,0.06660X0.00333*%
%ADD297R,0.07000X0.00333*%
%ADD298R,0.01330X0.00334*%
%ADD299R,0.01660X0.00333*%
%ADD300R,0.01330X0.00333*%
%ADD301R,0.01660X0.00334*%
%ADD302R,0.02670X0.00334*%
%ADD303R,0.07670X0.00334*%
%ADD304R,0.00660X0.00333*%
%ADD305R,0.12660X0.00333*%
%ADD306R,0.00330X0.00333*%
%ADD307R,0.06670X0.00333*%
%ADD308R,0.02000X0.00334*%
%ADD309R,0.00670X0.00334*%
%ADD310R,0.05000X0.00334*%
%ADD311R,0.06660X0.00334*%
%ADD312R,0.02330X0.00333*%
%ADD313R,0.04670X0.00333*%
%ADD314R,0.06340X0.00333*%
%ADD315R,0.04340X0.00333*%
%ADD316R,0.06000X0.00333*%
%ADD317R,0.02330X0.00334*%
%ADD318R,0.04000X0.00334*%
%ADD319R,0.04660X0.00334*%
%ADD320R,0.04000X0.00333*%
%ADD321R,0.01340X0.00334*%
%ADD322R,0.00330X0.00334*%
%ADD323R,0.04330X0.00334*%
%ADD324R,0.02670X0.00333*%
%ADD325R,0.02660X0.00334*%
%ADD326R,0.01670X0.00333*%
%ADD327R,0.02660X0.00333*%
%ADD328R,0.00340X0.00333*%
%ADD329R,0.00340X0.00334*%
%ADD330R,0.03330X0.00334*%
%ADD331R,0.04670X0.00334*%
%ADD332R,0.03660X0.00333*%
%ADD333R,0.03340X0.00334*%
%ADD334R,0.03340X0.00333*%
%ADD335R,0.05340X0.00333*%
%ADD336R,0.05340X0.00334*%
%ADD337R,0.05670X0.00334*%
%ADD338R,0.05670X0.00333*%
%ADD339R,0.02340X0.00333*%
%ADD340R,0.02000X0.00333*%
%ADD341R,0.06330X0.00333*%
%ADD342R,0.01670X0.00334*%
%ADD343R,0.04340X0.00334*%
%ADD344R,0.07670X0.00333*%
%ADD345R,0.00660X0.00334*%
%ADD346R,0.12330X0.00334*%
%ADD347R,0.13000X0.00333*%
%ADD348R,0.12330X0.00333*%
%ADD349R,0.11670X0.00334*%
%ADD350R,0.06000X0.00334*%
%ADD351R,0.05330X0.00334*%
%ADD352R,0.03670X0.00334*%
%ADD353R,0.08000X0.00333*%
%ADD354R,0.08000X0.00334*%
D10*
X0064055Y0017159D02*
X0064055Y0097977D01*
X0064052Y0098190D01*
X0064045Y0098402D01*
X0064032Y0098615D01*
X0064014Y0098827D01*
X0063991Y0099038D01*
X0063963Y0099249D01*
X0063929Y0099459D01*
X0063891Y0099668D01*
X0063848Y0099877D01*
X0063799Y0100084D01*
X0063746Y0100290D01*
X0063687Y0100494D01*
X0063624Y0100697D01*
X0063556Y0100899D01*
X0063483Y0101099D01*
X0063405Y0101297D01*
X0063323Y0101493D01*
X0063235Y0101687D01*
X0063143Y0101878D01*
X0063047Y0102068D01*
X0062946Y0102255D01*
X0062840Y0102440D01*
X0062730Y0102622D01*
X0062615Y0102801D01*
X0062497Y0102978D01*
X0062374Y0103151D01*
X0062247Y0103322D01*
X0062115Y0103489D01*
X0061980Y0103654D01*
X0061841Y0103814D01*
X0061698Y0103972D01*
X0061551Y0104126D01*
X0061401Y0104276D01*
X0061247Y0104423D01*
X0061089Y0104566D01*
X0060929Y0104705D01*
X0060764Y0104840D01*
X0060597Y0104972D01*
X0060426Y0105099D01*
X0060253Y0105222D01*
X0060076Y0105340D01*
X0059897Y0105455D01*
X0059715Y0105565D01*
X0059530Y0105671D01*
X0059343Y0105772D01*
X0059153Y0105868D01*
X0058962Y0105960D01*
X0058768Y0106048D01*
X0058572Y0106130D01*
X0058374Y0106208D01*
X0058174Y0106281D01*
X0057972Y0106349D01*
X0057769Y0106412D01*
X0057565Y0106471D01*
X0057359Y0106524D01*
X0057152Y0106573D01*
X0056943Y0106616D01*
X0056734Y0106654D01*
X0056524Y0106688D01*
X0056313Y0106716D01*
X0056102Y0106739D01*
X0055890Y0106757D01*
X0055677Y0106770D01*
X0055465Y0106777D01*
X0055252Y0106780D01*
X0055252Y0106781D02*
X0019195Y0106781D01*
X0018852Y0106785D01*
X0018509Y0106798D01*
X0018167Y0106818D01*
X0017825Y0106847D01*
X0017484Y0106884D01*
X0017144Y0106930D01*
X0016805Y0106984D01*
X0016468Y0107045D01*
X0016132Y0107115D01*
X0015798Y0107193D01*
X0015466Y0107280D01*
X0015136Y0107374D01*
X0014809Y0107476D01*
X0014484Y0107586D01*
X0014161Y0107703D01*
X0013842Y0107829D01*
X0013526Y0107962D01*
X0013213Y0108103D01*
X0012904Y0108251D01*
X0012598Y0108407D01*
X0012296Y0108570D01*
X0011999Y0108740D01*
X0011705Y0108918D01*
X0011416Y0109102D01*
X0011131Y0109294D01*
X0010851Y0109492D01*
X0010576Y0109697D01*
X0010306Y0109909D01*
X0010041Y0110127D01*
X0009782Y0110351D01*
X0009528Y0110581D01*
X0009280Y0110818D01*
X0009037Y0111061D01*
X0008800Y0111309D01*
X0008570Y0111563D01*
X0008346Y0111822D01*
X0008128Y0112087D01*
X0007916Y0112357D01*
X0007711Y0112632D01*
X0007513Y0112912D01*
X0007321Y0113197D01*
X0007137Y0113486D01*
X0006959Y0113780D01*
X0006789Y0114077D01*
X0006626Y0114379D01*
X0006470Y0114685D01*
X0006322Y0114994D01*
X0006181Y0115307D01*
X0006048Y0115623D01*
X0005922Y0115942D01*
X0005805Y0116265D01*
X0005695Y0116590D01*
X0005593Y0116917D01*
X0005499Y0117247D01*
X0005412Y0117579D01*
X0005334Y0117913D01*
X0005264Y0118249D01*
X0005203Y0118586D01*
X0005149Y0118925D01*
X0005103Y0119265D01*
X0005066Y0119606D01*
X0005037Y0119948D01*
X0005017Y0120290D01*
X0005004Y0120633D01*
X0005000Y0120976D01*
X0005000Y0232153D01*
X0005003Y0232423D01*
X0005013Y0232692D01*
X0005029Y0232962D01*
X0005052Y0233230D01*
X0005081Y0233499D01*
X0005117Y0233766D01*
X0005159Y0234032D01*
X0005208Y0234298D01*
X0005263Y0234562D01*
X0005324Y0234824D01*
X0005392Y0235086D01*
X0005466Y0235345D01*
X0005546Y0235603D01*
X0005633Y0235858D01*
X0005725Y0236111D01*
X0005824Y0236363D01*
X0005929Y0236611D01*
X0006040Y0236857D01*
X0006156Y0237100D01*
X0006279Y0237341D01*
X0006407Y0237578D01*
X0006541Y0237812D01*
X0006680Y0238043D01*
X0006825Y0238270D01*
X0006976Y0238494D01*
X0007132Y0238714D01*
X0007293Y0238931D01*
X0007459Y0239143D01*
X0007631Y0239351D01*
X0007807Y0239555D01*
X0007989Y0239755D01*
X0008175Y0239950D01*
X0008366Y0240141D01*
X0008561Y0240327D01*
X0008761Y0240509D01*
X0008965Y0240685D01*
X0009173Y0240857D01*
X0009385Y0241023D01*
X0009602Y0241184D01*
X0009822Y0241340D01*
X0010046Y0241491D01*
X0010273Y0241636D01*
X0010504Y0241775D01*
X0010738Y0241909D01*
X0010975Y0242037D01*
X0011216Y0242160D01*
X0011459Y0242276D01*
X0011705Y0242387D01*
X0011953Y0242492D01*
X0012205Y0242591D01*
X0012458Y0242683D01*
X0012713Y0242770D01*
X0012971Y0242850D01*
X0013230Y0242924D01*
X0013492Y0242992D01*
X0013754Y0243053D01*
X0014018Y0243108D01*
X0014284Y0243157D01*
X0014550Y0243199D01*
X0014817Y0243235D01*
X0015086Y0243264D01*
X0015354Y0243287D01*
X0015624Y0243303D01*
X0015893Y0243313D01*
X0016163Y0243316D01*
X0254763Y0243316D01*
X0262006Y0240330D02*
X0263110Y0239234D01*
X0265000Y0234691D02*
X0265000Y0192770D01*
X0265293Y0192063D02*
X0271217Y0186214D01*
X0272717Y0182626D02*
X0272717Y0108230D01*
X0272714Y0107959D01*
X0272704Y0107688D01*
X0272687Y0107417D01*
X0272664Y0107147D01*
X0272635Y0106878D01*
X0272598Y0106609D01*
X0272556Y0106341D01*
X0272506Y0106074D01*
X0272451Y0105809D01*
X0272388Y0105545D01*
X0272320Y0105283D01*
X0272245Y0105022D01*
X0272164Y0104763D01*
X0272076Y0104507D01*
X0271982Y0104252D01*
X0271882Y0104000D01*
X0271776Y0103751D01*
X0271664Y0103504D01*
X0271546Y0103260D01*
X0271422Y0103019D01*
X0271292Y0102780D01*
X0271157Y0102546D01*
X0271016Y0102314D01*
X0270869Y0102086D01*
X0270716Y0101862D01*
X0270559Y0101641D01*
X0270396Y0101425D01*
X0270227Y0101212D01*
X0270054Y0101004D01*
X0269875Y0100799D01*
X0269692Y0100600D01*
X0269504Y0100404D01*
X0269311Y0100214D01*
X0269114Y0100028D01*
X0268912Y0099847D01*
X0268705Y0099671D01*
X0268495Y0099500D01*
X0266956Y0098282D01*
X0264843Y0093911D02*
X0264843Y0040427D01*
X0265000Y0019603D01*
X0264997Y0019331D01*
X0264987Y0019060D01*
X0264970Y0018788D01*
X0264947Y0018518D01*
X0264918Y0018247D01*
X0264882Y0017978D01*
X0264839Y0017709D01*
X0264790Y0017442D01*
X0264735Y0017176D01*
X0264673Y0016911D01*
X0264605Y0016648D01*
X0264530Y0016387D01*
X0264450Y0016127D01*
X0264362Y0015870D01*
X0264269Y0015615D01*
X0264170Y0015362D01*
X0264064Y0015111D01*
X0263953Y0014864D01*
X0263835Y0014618D01*
X0263712Y0014376D01*
X0263583Y0014137D01*
X0263448Y0013901D01*
X0263307Y0013669D01*
X0263161Y0013440D01*
X0263009Y0013214D01*
X0262852Y0012992D01*
X0262690Y0012774D01*
X0262522Y0012560D01*
X0262349Y0012350D01*
X0262172Y0012145D01*
X0261989Y0011944D01*
X0261801Y0011747D01*
X0261609Y0011555D01*
X0261412Y0011367D01*
X0261211Y0011184D01*
X0261006Y0011007D01*
X0260796Y0010834D01*
X0260582Y0010666D01*
X0260364Y0010504D01*
X0260142Y0010347D01*
X0259916Y0010195D01*
X0259687Y0010049D01*
X0259455Y0009908D01*
X0259219Y0009773D01*
X0258980Y0009644D01*
X0258738Y0009521D01*
X0258492Y0009403D01*
X0258245Y0009292D01*
X0257994Y0009186D01*
X0257741Y0009087D01*
X0257486Y0008994D01*
X0257229Y0008906D01*
X0256969Y0008826D01*
X0256708Y0008751D01*
X0256445Y0008683D01*
X0256180Y0008621D01*
X0255914Y0008566D01*
X0255647Y0008517D01*
X0255378Y0008474D01*
X0255109Y0008438D01*
X0254838Y0008409D01*
X0254568Y0008386D01*
X0254296Y0008369D01*
X0254025Y0008359D01*
X0253753Y0008356D01*
X0072859Y0008356D01*
X0072646Y0008359D01*
X0072434Y0008366D01*
X0072221Y0008379D01*
X0072009Y0008397D01*
X0071798Y0008420D01*
X0071587Y0008448D01*
X0071377Y0008482D01*
X0071168Y0008520D01*
X0070959Y0008563D01*
X0070752Y0008612D01*
X0070546Y0008665D01*
X0070342Y0008724D01*
X0070139Y0008787D01*
X0069937Y0008855D01*
X0069737Y0008928D01*
X0069539Y0009006D01*
X0069343Y0009088D01*
X0069149Y0009176D01*
X0068958Y0009268D01*
X0068768Y0009364D01*
X0068581Y0009465D01*
X0068396Y0009571D01*
X0068214Y0009681D01*
X0068035Y0009796D01*
X0067858Y0009914D01*
X0067685Y0010037D01*
X0067514Y0010164D01*
X0067347Y0010296D01*
X0067182Y0010431D01*
X0067022Y0010570D01*
X0066864Y0010713D01*
X0066710Y0010860D01*
X0066560Y0011010D01*
X0066413Y0011164D01*
X0066270Y0011322D01*
X0066131Y0011482D01*
X0065996Y0011647D01*
X0065864Y0011814D01*
X0065737Y0011985D01*
X0065614Y0012158D01*
X0065496Y0012335D01*
X0065381Y0012514D01*
X0065271Y0012696D01*
X0065165Y0012881D01*
X0065064Y0013068D01*
X0064968Y0013258D01*
X0064876Y0013449D01*
X0064788Y0013643D01*
X0064706Y0013839D01*
X0064628Y0014037D01*
X0064555Y0014237D01*
X0064487Y0014439D01*
X0064424Y0014642D01*
X0064365Y0014846D01*
X0064312Y0015052D01*
X0064263Y0015259D01*
X0064220Y0015468D01*
X0064182Y0015677D01*
X0064148Y0015887D01*
X0064120Y0016098D01*
X0064097Y0016309D01*
X0064079Y0016521D01*
X0064066Y0016734D01*
X0064059Y0016946D01*
X0064056Y0017159D01*
X0143000Y0100155D02*
X0143121Y0100156D01*
X0143242Y0100160D01*
X0143363Y0100167D01*
X0143484Y0100179D01*
X0143604Y0100194D01*
X0143723Y0100214D01*
X0143842Y0100237D01*
X0143960Y0100264D01*
X0144077Y0100294D01*
X0144193Y0100328D01*
X0144308Y0100366D01*
X0144422Y0100408D01*
X0144534Y0100453D01*
X0144645Y0100502D01*
X0144754Y0100554D01*
X0144862Y0100609D01*
X0144968Y0100668D01*
X0145072Y0100731D01*
X0145173Y0100796D01*
X0145273Y0100865D01*
X0145370Y0100937D01*
X0145465Y0101012D01*
X0145558Y0101089D01*
X0145648Y0101170D01*
X0145736Y0101254D01*
X0145821Y0101340D01*
X0145903Y0101429D01*
X0145982Y0101521D01*
X0146058Y0101615D01*
X0146131Y0101711D01*
X0146202Y0101810D01*
X0146269Y0101911D01*
X0146332Y0102014D01*
X0146393Y0102118D01*
X0146450Y0102225D01*
X0146504Y0102334D01*
X0146554Y0102444D01*
X0146600Y0102556D01*
X0149600Y0116355D02*
X0149609Y0116500D01*
X0149622Y0116644D01*
X0149639Y0116788D01*
X0149659Y0116931D01*
X0149684Y0117074D01*
X0149712Y0117216D01*
X0149744Y0117357D01*
X0149780Y0117497D01*
X0149820Y0117636D01*
X0149863Y0117774D01*
X0149910Y0117911D01*
X0149961Y0118047D01*
X0150016Y0118181D01*
X0150074Y0118314D01*
X0150136Y0118444D01*
X0150201Y0118574D01*
X0150270Y0118701D01*
X0150342Y0118827D01*
X0150417Y0118950D01*
X0150496Y0119072D01*
X0150578Y0119191D01*
X0150664Y0119308D01*
X0150752Y0119422D01*
X0150844Y0119535D01*
X0150938Y0119644D01*
X0151035Y0119751D01*
X0151136Y0119856D01*
X0151239Y0119957D01*
X0151345Y0120056D01*
X0151453Y0120152D01*
X0151564Y0120245D01*
X0151677Y0120335D01*
X0151793Y0120422D01*
X0151911Y0120505D01*
X0152032Y0120586D01*
X0152154Y0120663D01*
X0152279Y0120737D01*
X0152405Y0120807D01*
X0152534Y0120874D01*
X0152664Y0120938D01*
X0152796Y0120997D01*
X0152929Y0121054D01*
X0153064Y0121106D01*
X0153200Y0121155D01*
X0153200Y0121156D02*
X0153200Y0124156D01*
X0153153Y0124158D01*
X0153106Y0124163D01*
X0153060Y0124173D01*
X0153015Y0124185D01*
X0152970Y0124202D01*
X0152928Y0124221D01*
X0152887Y0124244D01*
X0152847Y0124271D01*
X0152810Y0124300D01*
X0152776Y0124332D01*
X0152744Y0124366D01*
X0152715Y0124403D01*
X0152688Y0124443D01*
X0152665Y0124484D01*
X0152646Y0124526D01*
X0152629Y0124571D01*
X0152617Y0124616D01*
X0152607Y0124662D01*
X0152602Y0124709D01*
X0152600Y0124756D01*
X0152600Y0130756D01*
X0152598Y0130803D01*
X0152593Y0130850D01*
X0152583Y0130896D01*
X0152571Y0130941D01*
X0152554Y0130986D01*
X0152535Y0131028D01*
X0152512Y0131069D01*
X0152485Y0131109D01*
X0152456Y0131146D01*
X0152424Y0131180D01*
X0152390Y0131212D01*
X0152353Y0131241D01*
X0152313Y0131268D01*
X0152272Y0131291D01*
X0152230Y0131310D01*
X0152185Y0131327D01*
X0152140Y0131339D01*
X0152094Y0131349D01*
X0152047Y0131354D01*
X0152000Y0131356D01*
X0152000Y0131956D01*
X0152002Y0132053D01*
X0152008Y0132149D01*
X0152017Y0132245D01*
X0152031Y0132341D01*
X0152049Y0132436D01*
X0152070Y0132530D01*
X0152095Y0132624D01*
X0152124Y0132716D01*
X0152156Y0132807D01*
X0152192Y0132897D01*
X0152232Y0132985D01*
X0152275Y0133071D01*
X0152322Y0133156D01*
X0152372Y0133239D01*
X0152425Y0133319D01*
X0152481Y0133398D01*
X0152541Y0133474D01*
X0152604Y0133547D01*
X0152669Y0133619D01*
X0152737Y0133687D01*
X0152809Y0133752D01*
X0152882Y0133815D01*
X0152958Y0133875D01*
X0153037Y0133931D01*
X0153117Y0133984D01*
X0153200Y0134034D01*
X0153285Y0134081D01*
X0153371Y0134124D01*
X0153459Y0134164D01*
X0153549Y0134200D01*
X0153640Y0134232D01*
X0153732Y0134261D01*
X0153826Y0134286D01*
X0153920Y0134307D01*
X0154015Y0134325D01*
X0154111Y0134339D01*
X0154207Y0134348D01*
X0154303Y0134354D01*
X0154400Y0134356D01*
X0155600Y0134356D01*
X0155746Y0134354D01*
X0155892Y0134348D01*
X0156038Y0134338D01*
X0156184Y0134324D01*
X0156329Y0134307D01*
X0156474Y0134285D01*
X0156618Y0134259D01*
X0156761Y0134230D01*
X0156903Y0134196D01*
X0157045Y0134159D01*
X0157185Y0134118D01*
X0157324Y0134073D01*
X0157462Y0134025D01*
X0157599Y0133972D01*
X0157734Y0133917D01*
X0157867Y0133857D01*
X0157999Y0133794D01*
X0158129Y0133727D01*
X0158258Y0133657D01*
X0158384Y0133583D01*
X0158508Y0133506D01*
X0158630Y0133426D01*
X0158750Y0133342D01*
X0158868Y0133255D01*
X0158983Y0133165D01*
X0159096Y0133072D01*
X0159206Y0132975D01*
X0159314Y0132876D01*
X0159418Y0132774D01*
X0159520Y0132670D01*
X0159619Y0132562D01*
X0159716Y0132452D01*
X0159809Y0132339D01*
X0159899Y0132224D01*
X0159986Y0132106D01*
X0160070Y0131986D01*
X0160150Y0131864D01*
X0160227Y0131740D01*
X0160301Y0131614D01*
X0160371Y0131485D01*
X0160438Y0131355D01*
X0160501Y0131223D01*
X0160561Y0131090D01*
X0160616Y0130955D01*
X0160669Y0130818D01*
X0160717Y0130680D01*
X0160762Y0130541D01*
X0160803Y0130401D01*
X0160840Y0130259D01*
X0160874Y0130117D01*
X0160903Y0129974D01*
X0160929Y0129830D01*
X0160951Y0129685D01*
X0160968Y0129540D01*
X0160982Y0129394D01*
X0160992Y0129248D01*
X0160998Y0129102D01*
X0161000Y0128956D01*
X0161000Y0127756D01*
X0161600Y0127156D02*
X0161647Y0127158D01*
X0161694Y0127163D01*
X0161740Y0127173D01*
X0161785Y0127185D01*
X0161830Y0127202D01*
X0161872Y0127221D01*
X0161913Y0127244D01*
X0161953Y0127271D01*
X0161990Y0127300D01*
X0162024Y0127332D01*
X0162056Y0127366D01*
X0162085Y0127403D01*
X0162112Y0127443D01*
X0162135Y0127484D01*
X0162154Y0127526D01*
X0162171Y0127571D01*
X0162183Y0127616D01*
X0162193Y0127662D01*
X0162198Y0127709D01*
X0162200Y0127756D01*
X0161600Y0127156D02*
X0161553Y0127158D01*
X0161506Y0127163D01*
X0161460Y0127173D01*
X0161415Y0127185D01*
X0161370Y0127202D01*
X0161328Y0127221D01*
X0161287Y0127244D01*
X0161247Y0127271D01*
X0161210Y0127300D01*
X0161176Y0127332D01*
X0161144Y0127366D01*
X0161115Y0127403D01*
X0161088Y0127443D01*
X0161065Y0127484D01*
X0161046Y0127526D01*
X0161029Y0127571D01*
X0161017Y0127616D01*
X0161007Y0127662D01*
X0161002Y0127709D01*
X0161000Y0127756D01*
X0162533Y0128855D02*
X0168200Y0137356D01*
X0169400Y0137956D02*
X0169459Y0137950D01*
X0169518Y0137941D01*
X0169576Y0137928D01*
X0169633Y0137912D01*
X0169688Y0137891D01*
X0169743Y0137867D01*
X0169795Y0137839D01*
X0169846Y0137808D01*
X0169894Y0137774D01*
X0169940Y0137737D01*
X0169984Y0137696D01*
X0170025Y0137653D01*
X0170062Y0137608D01*
X0170097Y0137559D01*
X0170129Y0137509D01*
X0170157Y0137457D01*
X0170182Y0137403D01*
X0170203Y0137347D01*
X0170220Y0137291D01*
X0170233Y0137233D01*
X0170243Y0137174D01*
X0170249Y0137115D01*
X0170251Y0137056D01*
X0170249Y0136997D01*
X0170243Y0136938D01*
X0170233Y0136879D01*
X0170220Y0136821D01*
X0170203Y0136765D01*
X0170182Y0136709D01*
X0170157Y0136655D01*
X0170129Y0136603D01*
X0170097Y0136553D01*
X0170062Y0136504D01*
X0170025Y0136459D01*
X0169984Y0136416D01*
X0169940Y0136375D01*
X0169894Y0136338D01*
X0169846Y0136304D01*
X0169795Y0136273D01*
X0169743Y0136245D01*
X0169688Y0136221D01*
X0169633Y0136200D01*
X0169576Y0136184D01*
X0169518Y0136171D01*
X0169459Y0136162D01*
X0169400Y0136156D01*
X0165200Y0126556D01*
X0162200Y0127756D02*
X0162202Y0127839D01*
X0162207Y0127922D01*
X0162216Y0128005D01*
X0162228Y0128087D01*
X0162244Y0128169D01*
X0162263Y0128250D01*
X0162285Y0128330D01*
X0162311Y0128409D01*
X0162340Y0128487D01*
X0162372Y0128564D01*
X0162408Y0128639D01*
X0162446Y0128713D01*
X0162488Y0128785D01*
X0162533Y0128855D01*
X0166049Y0120907D02*
X0172169Y0114787D01*
X0172170Y0114787D02*
X0172235Y0114724D01*
X0172303Y0114664D01*
X0172373Y0114607D01*
X0172445Y0114553D01*
X0172520Y0114503D01*
X0172597Y0114455D01*
X0172675Y0114410D01*
X0172756Y0114369D01*
X0172838Y0114332D01*
X0172922Y0114297D01*
X0173007Y0114267D01*
X0173093Y0114240D01*
X0173180Y0114216D01*
X0173268Y0114196D01*
X0173357Y0114180D01*
X0173447Y0114168D01*
X0173537Y0114159D01*
X0173627Y0114154D01*
X0173717Y0114153D01*
X0173808Y0114156D01*
X0173898Y0114162D01*
X0173988Y0114172D01*
X0174077Y0114186D01*
X0174166Y0114204D01*
X0174253Y0114225D01*
X0174340Y0114250D01*
X0174426Y0114279D01*
X0174510Y0114311D01*
X0174593Y0114347D01*
X0174675Y0114386D01*
X0174755Y0114428D01*
X0174833Y0114474D01*
X0174909Y0114523D01*
X0174983Y0114575D01*
X0175054Y0114630D01*
X0175123Y0114688D01*
X0177241Y0116542D01*
X0178435Y0119095D02*
X0179558Y0168521D01*
X0179559Y0168521D02*
X0179560Y0168669D01*
X0179558Y0168817D01*
X0179551Y0168964D01*
X0179541Y0169112D01*
X0179527Y0169259D01*
X0179509Y0169405D01*
X0179488Y0169551D01*
X0179462Y0169697D01*
X0179433Y0169842D01*
X0179400Y0169985D01*
X0179364Y0170129D01*
X0179323Y0170271D01*
X0179279Y0170411D01*
X0179231Y0170551D01*
X0179180Y0170690D01*
X0179125Y0170827D01*
X0179067Y0170962D01*
X0179005Y0171096D01*
X0178939Y0171229D01*
X0178870Y0171359D01*
X0178798Y0171488D01*
X0178722Y0171615D01*
X0178643Y0171740D01*
X0178561Y0171862D01*
X0178476Y0171983D01*
X0178387Y0172101D01*
X0178296Y0172217D01*
X0178201Y0172331D01*
X0178104Y0172442D01*
X0178004Y0172550D01*
X0177901Y0172656D01*
X0177901Y0172655D02*
X0171200Y0179356D01*
X0159200Y0186556D02*
X0152600Y0188356D01*
X0159200Y0186556D02*
X0159874Y0186342D01*
X0160542Y0186112D01*
X0161204Y0185865D01*
X0161860Y0185602D01*
X0162509Y0185323D01*
X0163152Y0185028D01*
X0163787Y0184718D01*
X0164414Y0184392D01*
X0165033Y0184051D01*
X0165643Y0183695D01*
X0166245Y0183324D01*
X0166837Y0182938D01*
X0167420Y0182538D01*
X0167992Y0182124D01*
X0168555Y0181696D01*
X0169106Y0181254D01*
X0169647Y0180799D01*
X0170176Y0180331D01*
X0170694Y0179850D01*
X0171200Y0179356D01*
X0152600Y0188356D02*
X0151799Y0188564D01*
X0150993Y0188753D01*
X0150182Y0188922D01*
X0149368Y0189071D01*
X0148550Y0189200D01*
X0147729Y0189309D01*
X0146906Y0189399D01*
X0146081Y0189468D01*
X0145255Y0189518D01*
X0144428Y0189547D01*
X0143600Y0189556D01*
X0143600Y0189555D02*
X0142508Y0189540D01*
X0141417Y0189499D01*
X0140328Y0189431D01*
X0139240Y0189337D01*
X0138155Y0189216D01*
X0137074Y0189068D01*
X0135996Y0188895D01*
X0134923Y0188695D01*
X0133855Y0188468D01*
X0132793Y0188216D01*
X0131737Y0187938D01*
X0130689Y0187634D01*
X0129648Y0187305D01*
X0128615Y0186950D01*
X0127592Y0186571D01*
X0126578Y0186166D01*
X0125574Y0185737D01*
X0124581Y0185283D01*
X0123600Y0184806D01*
X0122630Y0184304D01*
X0121673Y0183779D01*
X0120729Y0183231D01*
X0119799Y0182660D01*
X0118883Y0182066D01*
X0117982Y0181450D01*
X0117096Y0180812D01*
X0116225Y0180153D01*
X0115372Y0179473D01*
X0114535Y0178772D01*
X0113715Y0178051D01*
X0112913Y0177310D01*
X0112130Y0176550D01*
X0111365Y0175771D01*
X0110620Y0174973D01*
X0109894Y0174158D01*
X0109189Y0173325D01*
X0108504Y0172475D01*
X0107840Y0171608D01*
X0107197Y0170726D01*
X0106576Y0169828D01*
X0105978Y0168915D01*
X0105401Y0167988D01*
X0104848Y0167047D01*
X0104317Y0166093D01*
X0103810Y0165126D01*
X0103327Y0164147D01*
X0102868Y0163157D01*
X0102433Y0162156D01*
X0102023Y0161144D01*
X0101638Y0160123D01*
X0101277Y0159092D01*
X0100942Y0158053D01*
X0100633Y0157006D01*
X0100349Y0155952D01*
X0100091Y0154892D01*
X0099859Y0153825D01*
X0099653Y0152753D01*
X0099473Y0151676D01*
X0099319Y0150595D01*
X0099192Y0149511D01*
X0099092Y0148424D01*
X0099018Y0147335D01*
X0098971Y0146244D01*
X0098950Y0145153D01*
X0098956Y0144061D01*
X0098989Y0142970D01*
X0099048Y0141880D01*
X0099134Y0140792D01*
X0099246Y0139706D01*
X0099385Y0138623D01*
X0099551Y0137544D01*
X0099742Y0136470D01*
X0099960Y0135400D01*
X0100204Y0134336D01*
X0100474Y0133278D01*
X0100769Y0132227D01*
X0101090Y0131184D01*
X0101437Y0130149D01*
X0101808Y0129122D01*
X0102205Y0128105D01*
X0102626Y0127098D01*
X0103072Y0126102D01*
X0103542Y0125116D01*
X0104036Y0124143D01*
X0104553Y0123182D01*
X0105094Y0122234D01*
X0105658Y0121299D01*
X0106245Y0120378D01*
X0106853Y0119472D01*
X0107484Y0118581D01*
X0108136Y0117706D01*
X0108810Y0116847D01*
X0109504Y0116004D01*
X0110219Y0115179D01*
X0110953Y0114371D01*
X0111707Y0113582D01*
X0112480Y0112811D01*
X0113272Y0112060D01*
X0114082Y0111328D01*
X0114909Y0110616D01*
X0115754Y0109924D01*
X0116615Y0109253D01*
X0117493Y0108604D01*
X0118386Y0107976D01*
X0119294Y0107370D01*
X0120216Y0106786D01*
X0121153Y0106225D01*
X0122103Y0105688D01*
X0123065Y0105173D01*
X0124040Y0104682D01*
X0125027Y0104215D01*
X0126025Y0103773D01*
X0127033Y0103355D01*
X0128052Y0102961D01*
X0129079Y0102593D01*
X0130116Y0102249D01*
X0131160Y0101932D01*
X0132212Y0101639D01*
X0133270Y0101373D01*
X0134335Y0101132D01*
X0135405Y0100918D01*
X0136481Y0100730D01*
X0137560Y0100568D01*
X0138644Y0100432D01*
X0139730Y0100323D01*
X0140818Y0100241D01*
X0141908Y0100185D01*
X0143000Y0100156D01*
X0164000Y0121756D02*
X0164103Y0121754D01*
X0164207Y0121749D01*
X0164310Y0121739D01*
X0164412Y0121727D01*
X0164514Y0121710D01*
X0164616Y0121690D01*
X0164716Y0121666D01*
X0164816Y0121639D01*
X0164915Y0121608D01*
X0165012Y0121573D01*
X0165109Y0121535D01*
X0165203Y0121494D01*
X0165297Y0121450D01*
X0165388Y0121402D01*
X0165478Y0121350D01*
X0165566Y0121296D01*
X0165652Y0121239D01*
X0165736Y0121178D01*
X0165818Y0121115D01*
X0165897Y0121048D01*
X0165974Y0120979D01*
X0166048Y0120907D01*
X0177241Y0116542D02*
X0177327Y0116620D01*
X0177411Y0116700D01*
X0177491Y0116784D01*
X0177569Y0116870D01*
X0177644Y0116958D01*
X0177716Y0117049D01*
X0177785Y0117143D01*
X0177851Y0117238D01*
X0177914Y0117336D01*
X0177973Y0117436D01*
X0178029Y0117537D01*
X0178082Y0117641D01*
X0178131Y0117746D01*
X0178176Y0117853D01*
X0178219Y0117961D01*
X0178257Y0118070D01*
X0178292Y0118181D01*
X0178323Y0118293D01*
X0178350Y0118406D01*
X0178374Y0118519D01*
X0178394Y0118634D01*
X0178410Y0118748D01*
X0178422Y0118864D01*
X0178431Y0118980D01*
X0178435Y0119096D01*
X0164000Y0121756D02*
X0164031Y0122110D01*
X0164072Y0122462D01*
X0164120Y0122814D01*
X0164177Y0123165D01*
X0164243Y0123514D01*
X0164316Y0123861D01*
X0164398Y0124206D01*
X0164488Y0124550D01*
X0164587Y0124891D01*
X0164693Y0125230D01*
X0164808Y0125566D01*
X0164931Y0125899D01*
X0165061Y0126229D01*
X0165200Y0126556D01*
X0168200Y0137356D02*
X0168240Y0137413D01*
X0168284Y0137469D01*
X0168330Y0137521D01*
X0168379Y0137572D01*
X0168430Y0137620D01*
X0168484Y0137665D01*
X0168540Y0137707D01*
X0168598Y0137746D01*
X0168658Y0137782D01*
X0168720Y0137815D01*
X0168784Y0137845D01*
X0168849Y0137871D01*
X0168915Y0137894D01*
X0168983Y0137914D01*
X0169051Y0137930D01*
X0169120Y0137942D01*
X0169190Y0137951D01*
X0169260Y0137956D01*
X0169330Y0137958D01*
X0169400Y0137956D01*
X0149600Y0116355D02*
X0149539Y0115344D01*
X0149455Y0114334D01*
X0149346Y0113326D01*
X0149214Y0112322D01*
X0149058Y0111320D01*
X0148878Y0110323D01*
X0148674Y0109330D01*
X0148447Y0108343D01*
X0148197Y0107361D01*
X0147923Y0106385D01*
X0147627Y0105416D01*
X0147307Y0104455D01*
X0146965Y0103501D01*
X0146600Y0102555D01*
X0258700Y0173356D02*
X0258702Y0173514D01*
X0258708Y0173673D01*
X0258718Y0173831D01*
X0258732Y0173988D01*
X0258750Y0174146D01*
X0258771Y0174302D01*
X0258797Y0174459D01*
X0258827Y0174614D01*
X0258860Y0174769D01*
X0258898Y0174923D01*
X0258939Y0175076D01*
X0258984Y0175227D01*
X0259033Y0175378D01*
X0259086Y0175527D01*
X0259142Y0175675D01*
X0259203Y0175822D01*
X0259266Y0175967D01*
X0259334Y0176110D01*
X0259405Y0176251D01*
X0259479Y0176391D01*
X0259557Y0176529D01*
X0259639Y0176665D01*
X0259724Y0176798D01*
X0259812Y0176930D01*
X0259903Y0177059D01*
X0259998Y0177186D01*
X0260096Y0177310D01*
X0260197Y0177432D01*
X0260301Y0177552D01*
X0260407Y0177669D01*
X0260517Y0177783D01*
X0260630Y0177894D01*
X0260745Y0178002D01*
X0260864Y0178108D01*
X0260984Y0178210D01*
X0261107Y0178310D01*
X0261233Y0178406D01*
X0261361Y0178499D01*
X0261492Y0178589D01*
X0261624Y0178675D01*
X0261759Y0178758D01*
X0261896Y0178838D01*
X0262035Y0178914D01*
X0262175Y0178987D01*
X0262318Y0179056D01*
X0262462Y0179122D01*
X0262607Y0179184D01*
X0262755Y0179242D01*
X0262903Y0179297D01*
X0263053Y0179348D01*
X0263204Y0179395D01*
X0263357Y0179438D01*
X0263510Y0179477D01*
X0263664Y0179513D01*
X0263819Y0179544D01*
X0263975Y0179572D01*
X0264132Y0179596D01*
X0264289Y0179616D01*
X0264447Y0179632D01*
X0264604Y0179644D01*
X0264763Y0179652D01*
X0264921Y0179656D01*
X0265079Y0179656D01*
X0265237Y0179652D01*
X0265396Y0179644D01*
X0265553Y0179632D01*
X0265711Y0179616D01*
X0265868Y0179596D01*
X0266025Y0179572D01*
X0266181Y0179544D01*
X0266336Y0179513D01*
X0266490Y0179477D01*
X0266643Y0179438D01*
X0266796Y0179395D01*
X0266947Y0179348D01*
X0267097Y0179297D01*
X0267245Y0179242D01*
X0267393Y0179184D01*
X0267538Y0179122D01*
X0267682Y0179056D01*
X0267825Y0178987D01*
X0267965Y0178914D01*
X0268104Y0178838D01*
X0268241Y0178758D01*
X0268376Y0178675D01*
X0268508Y0178589D01*
X0268639Y0178499D01*
X0268767Y0178406D01*
X0268893Y0178310D01*
X0269016Y0178210D01*
X0269136Y0178108D01*
X0269255Y0178002D01*
X0269370Y0177894D01*
X0269483Y0177783D01*
X0269593Y0177669D01*
X0269699Y0177552D01*
X0269803Y0177432D01*
X0269904Y0177310D01*
X0270002Y0177186D01*
X0270097Y0177059D01*
X0270188Y0176930D01*
X0270276Y0176798D01*
X0270361Y0176665D01*
X0270443Y0176529D01*
X0270521Y0176391D01*
X0270595Y0176251D01*
X0270666Y0176110D01*
X0270734Y0175967D01*
X0270797Y0175822D01*
X0270858Y0175675D01*
X0270914Y0175527D01*
X0270967Y0175378D01*
X0271016Y0175227D01*
X0271061Y0175076D01*
X0271102Y0174923D01*
X0271140Y0174769D01*
X0271173Y0174614D01*
X0271203Y0174459D01*
X0271229Y0174302D01*
X0271250Y0174146D01*
X0271268Y0173988D01*
X0271282Y0173831D01*
X0271292Y0173673D01*
X0271298Y0173514D01*
X0271300Y0173356D01*
X0271298Y0173198D01*
X0271292Y0173039D01*
X0271282Y0172881D01*
X0271268Y0172724D01*
X0271250Y0172566D01*
X0271229Y0172410D01*
X0271203Y0172253D01*
X0271173Y0172098D01*
X0271140Y0171943D01*
X0271102Y0171789D01*
X0271061Y0171636D01*
X0271016Y0171485D01*
X0270967Y0171334D01*
X0270914Y0171185D01*
X0270858Y0171037D01*
X0270797Y0170890D01*
X0270734Y0170745D01*
X0270666Y0170602D01*
X0270595Y0170461D01*
X0270521Y0170321D01*
X0270443Y0170183D01*
X0270361Y0170047D01*
X0270276Y0169914D01*
X0270188Y0169782D01*
X0270097Y0169653D01*
X0270002Y0169526D01*
X0269904Y0169402D01*
X0269803Y0169280D01*
X0269699Y0169160D01*
X0269593Y0169043D01*
X0269483Y0168929D01*
X0269370Y0168818D01*
X0269255Y0168710D01*
X0269136Y0168604D01*
X0269016Y0168502D01*
X0268893Y0168402D01*
X0268767Y0168306D01*
X0268639Y0168213D01*
X0268508Y0168123D01*
X0268376Y0168037D01*
X0268241Y0167954D01*
X0268104Y0167874D01*
X0267965Y0167798D01*
X0267825Y0167725D01*
X0267682Y0167656D01*
X0267538Y0167590D01*
X0267393Y0167528D01*
X0267245Y0167470D01*
X0267097Y0167415D01*
X0266947Y0167364D01*
X0266796Y0167317D01*
X0266643Y0167274D01*
X0266490Y0167235D01*
X0266336Y0167199D01*
X0266181Y0167168D01*
X0266025Y0167140D01*
X0265868Y0167116D01*
X0265711Y0167096D01*
X0265553Y0167080D01*
X0265396Y0167068D01*
X0265237Y0167060D01*
X0265079Y0167056D01*
X0264921Y0167056D01*
X0264763Y0167060D01*
X0264604Y0167068D01*
X0264447Y0167080D01*
X0264289Y0167096D01*
X0264132Y0167116D01*
X0263975Y0167140D01*
X0263819Y0167168D01*
X0263664Y0167199D01*
X0263510Y0167235D01*
X0263357Y0167274D01*
X0263204Y0167317D01*
X0263053Y0167364D01*
X0262903Y0167415D01*
X0262755Y0167470D01*
X0262607Y0167528D01*
X0262462Y0167590D01*
X0262318Y0167656D01*
X0262175Y0167725D01*
X0262035Y0167798D01*
X0261896Y0167874D01*
X0261759Y0167954D01*
X0261624Y0168037D01*
X0261492Y0168123D01*
X0261361Y0168213D01*
X0261233Y0168306D01*
X0261107Y0168402D01*
X0260984Y0168502D01*
X0260864Y0168604D01*
X0260745Y0168710D01*
X0260630Y0168818D01*
X0260517Y0168929D01*
X0260407Y0169043D01*
X0260301Y0169160D01*
X0260197Y0169280D01*
X0260096Y0169402D01*
X0259998Y0169526D01*
X0259903Y0169653D01*
X0259812Y0169782D01*
X0259724Y0169914D01*
X0259639Y0170047D01*
X0259557Y0170183D01*
X0259479Y0170321D01*
X0259405Y0170461D01*
X0259334Y0170602D01*
X0259266Y0170745D01*
X0259203Y0170890D01*
X0259142Y0171037D01*
X0259086Y0171185D01*
X0259033Y0171334D01*
X0258984Y0171485D01*
X0258939Y0171636D01*
X0258898Y0171789D01*
X0258860Y0171943D01*
X0258827Y0172098D01*
X0258797Y0172253D01*
X0258771Y0172410D01*
X0258750Y0172566D01*
X0258732Y0172724D01*
X0258718Y0172881D01*
X0258708Y0173039D01*
X0258702Y0173198D01*
X0258700Y0173356D01*
X0272717Y0182626D02*
X0272715Y0182764D01*
X0272709Y0182901D01*
X0272700Y0183039D01*
X0272687Y0183176D01*
X0272670Y0183312D01*
X0272649Y0183448D01*
X0272625Y0183584D01*
X0272597Y0183719D01*
X0272566Y0183853D01*
X0272530Y0183986D01*
X0272491Y0184118D01*
X0272449Y0184249D01*
X0272403Y0184378D01*
X0272353Y0184507D01*
X0272300Y0184634D01*
X0272243Y0184759D01*
X0272184Y0184883D01*
X0272120Y0185005D01*
X0272054Y0185126D01*
X0271984Y0185244D01*
X0271911Y0185361D01*
X0271834Y0185476D01*
X0271755Y0185588D01*
X0271673Y0185699D01*
X0271587Y0185807D01*
X0271499Y0185912D01*
X0271408Y0186015D01*
X0271314Y0186116D01*
X0271217Y0186214D01*
X0265293Y0192063D02*
X0265251Y0192107D01*
X0265213Y0192153D01*
X0265177Y0192202D01*
X0265144Y0192253D01*
X0265115Y0192305D01*
X0265088Y0192360D01*
X0265065Y0192415D01*
X0265045Y0192472D01*
X0265029Y0192531D01*
X0265016Y0192590D01*
X0265007Y0192649D01*
X0265002Y0192710D01*
X0265000Y0192770D01*
X0262006Y0240331D02*
X0261826Y0240506D01*
X0261641Y0240676D01*
X0261452Y0240842D01*
X0261260Y0241003D01*
X0261063Y0241159D01*
X0260863Y0241311D01*
X0260659Y0241458D01*
X0260451Y0241599D01*
X0260241Y0241736D01*
X0260026Y0241867D01*
X0259809Y0241993D01*
X0259589Y0242113D01*
X0259366Y0242229D01*
X0259140Y0242338D01*
X0258911Y0242443D01*
X0258680Y0242541D01*
X0258447Y0242634D01*
X0258211Y0242721D01*
X0257974Y0242803D01*
X0257734Y0242878D01*
X0257493Y0242948D01*
X0257250Y0243012D01*
X0257005Y0243069D01*
X0256760Y0243121D01*
X0256513Y0243167D01*
X0256265Y0243207D01*
X0256016Y0243240D01*
X0255766Y0243268D01*
X0255516Y0243289D01*
X0255265Y0243305D01*
X0255014Y0243314D01*
X0254763Y0243317D01*
X0263110Y0239233D02*
X0263220Y0239121D01*
X0263328Y0239006D01*
X0263433Y0238888D01*
X0263535Y0238767D01*
X0263634Y0238644D01*
X0263730Y0238519D01*
X0263822Y0238391D01*
X0263912Y0238261D01*
X0263998Y0238129D01*
X0264082Y0237995D01*
X0264161Y0237859D01*
X0264238Y0237721D01*
X0264311Y0237581D01*
X0264380Y0237439D01*
X0264446Y0237296D01*
X0264509Y0237151D01*
X0264567Y0237005D01*
X0264623Y0236857D01*
X0264674Y0236708D01*
X0264722Y0236557D01*
X0264766Y0236406D01*
X0264807Y0236253D01*
X0264843Y0236100D01*
X0264876Y0235945D01*
X0264905Y0235790D01*
X0264930Y0235634D01*
X0264951Y0235478D01*
X0264969Y0235321D01*
X0264983Y0235164D01*
X0264992Y0235006D01*
X0264998Y0234849D01*
X0265000Y0234691D01*
X0058700Y0233356D02*
X0058702Y0233514D01*
X0058708Y0233673D01*
X0058718Y0233831D01*
X0058732Y0233988D01*
X0058750Y0234146D01*
X0058771Y0234302D01*
X0058797Y0234459D01*
X0058827Y0234614D01*
X0058860Y0234769D01*
X0058898Y0234923D01*
X0058939Y0235076D01*
X0058984Y0235227D01*
X0059033Y0235378D01*
X0059086Y0235527D01*
X0059142Y0235675D01*
X0059203Y0235822D01*
X0059266Y0235967D01*
X0059334Y0236110D01*
X0059405Y0236251D01*
X0059479Y0236391D01*
X0059557Y0236529D01*
X0059639Y0236665D01*
X0059724Y0236798D01*
X0059812Y0236930D01*
X0059903Y0237059D01*
X0059998Y0237186D01*
X0060096Y0237310D01*
X0060197Y0237432D01*
X0060301Y0237552D01*
X0060407Y0237669D01*
X0060517Y0237783D01*
X0060630Y0237894D01*
X0060745Y0238002D01*
X0060864Y0238108D01*
X0060984Y0238210D01*
X0061107Y0238310D01*
X0061233Y0238406D01*
X0061361Y0238499D01*
X0061492Y0238589D01*
X0061624Y0238675D01*
X0061759Y0238758D01*
X0061896Y0238838D01*
X0062035Y0238914D01*
X0062175Y0238987D01*
X0062318Y0239056D01*
X0062462Y0239122D01*
X0062607Y0239184D01*
X0062755Y0239242D01*
X0062903Y0239297D01*
X0063053Y0239348D01*
X0063204Y0239395D01*
X0063357Y0239438D01*
X0063510Y0239477D01*
X0063664Y0239513D01*
X0063819Y0239544D01*
X0063975Y0239572D01*
X0064132Y0239596D01*
X0064289Y0239616D01*
X0064447Y0239632D01*
X0064604Y0239644D01*
X0064763Y0239652D01*
X0064921Y0239656D01*
X0065079Y0239656D01*
X0065237Y0239652D01*
X0065396Y0239644D01*
X0065553Y0239632D01*
X0065711Y0239616D01*
X0065868Y0239596D01*
X0066025Y0239572D01*
X0066181Y0239544D01*
X0066336Y0239513D01*
X0066490Y0239477D01*
X0066643Y0239438D01*
X0066796Y0239395D01*
X0066947Y0239348D01*
X0067097Y0239297D01*
X0067245Y0239242D01*
X0067393Y0239184D01*
X0067538Y0239122D01*
X0067682Y0239056D01*
X0067825Y0238987D01*
X0067965Y0238914D01*
X0068104Y0238838D01*
X0068241Y0238758D01*
X0068376Y0238675D01*
X0068508Y0238589D01*
X0068639Y0238499D01*
X0068767Y0238406D01*
X0068893Y0238310D01*
X0069016Y0238210D01*
X0069136Y0238108D01*
X0069255Y0238002D01*
X0069370Y0237894D01*
X0069483Y0237783D01*
X0069593Y0237669D01*
X0069699Y0237552D01*
X0069803Y0237432D01*
X0069904Y0237310D01*
X0070002Y0237186D01*
X0070097Y0237059D01*
X0070188Y0236930D01*
X0070276Y0236798D01*
X0070361Y0236665D01*
X0070443Y0236529D01*
X0070521Y0236391D01*
X0070595Y0236251D01*
X0070666Y0236110D01*
X0070734Y0235967D01*
X0070797Y0235822D01*
X0070858Y0235675D01*
X0070914Y0235527D01*
X0070967Y0235378D01*
X0071016Y0235227D01*
X0071061Y0235076D01*
X0071102Y0234923D01*
X0071140Y0234769D01*
X0071173Y0234614D01*
X0071203Y0234459D01*
X0071229Y0234302D01*
X0071250Y0234146D01*
X0071268Y0233988D01*
X0071282Y0233831D01*
X0071292Y0233673D01*
X0071298Y0233514D01*
X0071300Y0233356D01*
X0071298Y0233198D01*
X0071292Y0233039D01*
X0071282Y0232881D01*
X0071268Y0232724D01*
X0071250Y0232566D01*
X0071229Y0232410D01*
X0071203Y0232253D01*
X0071173Y0232098D01*
X0071140Y0231943D01*
X0071102Y0231789D01*
X0071061Y0231636D01*
X0071016Y0231485D01*
X0070967Y0231334D01*
X0070914Y0231185D01*
X0070858Y0231037D01*
X0070797Y0230890D01*
X0070734Y0230745D01*
X0070666Y0230602D01*
X0070595Y0230461D01*
X0070521Y0230321D01*
X0070443Y0230183D01*
X0070361Y0230047D01*
X0070276Y0229914D01*
X0070188Y0229782D01*
X0070097Y0229653D01*
X0070002Y0229526D01*
X0069904Y0229402D01*
X0069803Y0229280D01*
X0069699Y0229160D01*
X0069593Y0229043D01*
X0069483Y0228929D01*
X0069370Y0228818D01*
X0069255Y0228710D01*
X0069136Y0228604D01*
X0069016Y0228502D01*
X0068893Y0228402D01*
X0068767Y0228306D01*
X0068639Y0228213D01*
X0068508Y0228123D01*
X0068376Y0228037D01*
X0068241Y0227954D01*
X0068104Y0227874D01*
X0067965Y0227798D01*
X0067825Y0227725D01*
X0067682Y0227656D01*
X0067538Y0227590D01*
X0067393Y0227528D01*
X0067245Y0227470D01*
X0067097Y0227415D01*
X0066947Y0227364D01*
X0066796Y0227317D01*
X0066643Y0227274D01*
X0066490Y0227235D01*
X0066336Y0227199D01*
X0066181Y0227168D01*
X0066025Y0227140D01*
X0065868Y0227116D01*
X0065711Y0227096D01*
X0065553Y0227080D01*
X0065396Y0227068D01*
X0065237Y0227060D01*
X0065079Y0227056D01*
X0064921Y0227056D01*
X0064763Y0227060D01*
X0064604Y0227068D01*
X0064447Y0227080D01*
X0064289Y0227096D01*
X0064132Y0227116D01*
X0063975Y0227140D01*
X0063819Y0227168D01*
X0063664Y0227199D01*
X0063510Y0227235D01*
X0063357Y0227274D01*
X0063204Y0227317D01*
X0063053Y0227364D01*
X0062903Y0227415D01*
X0062755Y0227470D01*
X0062607Y0227528D01*
X0062462Y0227590D01*
X0062318Y0227656D01*
X0062175Y0227725D01*
X0062035Y0227798D01*
X0061896Y0227874D01*
X0061759Y0227954D01*
X0061624Y0228037D01*
X0061492Y0228123D01*
X0061361Y0228213D01*
X0061233Y0228306D01*
X0061107Y0228402D01*
X0060984Y0228502D01*
X0060864Y0228604D01*
X0060745Y0228710D01*
X0060630Y0228818D01*
X0060517Y0228929D01*
X0060407Y0229043D01*
X0060301Y0229160D01*
X0060197Y0229280D01*
X0060096Y0229402D01*
X0059998Y0229526D01*
X0059903Y0229653D01*
X0059812Y0229782D01*
X0059724Y0229914D01*
X0059639Y0230047D01*
X0059557Y0230183D01*
X0059479Y0230321D01*
X0059405Y0230461D01*
X0059334Y0230602D01*
X0059266Y0230745D01*
X0059203Y0230890D01*
X0059142Y0231037D01*
X0059086Y0231185D01*
X0059033Y0231334D01*
X0058984Y0231485D01*
X0058939Y0231636D01*
X0058898Y0231789D01*
X0058860Y0231943D01*
X0058827Y0232098D01*
X0058797Y0232253D01*
X0058771Y0232410D01*
X0058750Y0232566D01*
X0058732Y0232724D01*
X0058718Y0232881D01*
X0058708Y0233039D01*
X0058702Y0233198D01*
X0058700Y0233356D01*
X0266957Y0098281D02*
X0266842Y0098188D01*
X0266730Y0098092D01*
X0266621Y0097993D01*
X0266514Y0097891D01*
X0266410Y0097786D01*
X0266308Y0097678D01*
X0266210Y0097568D01*
X0266115Y0097455D01*
X0266022Y0097340D01*
X0265933Y0097222D01*
X0265847Y0097102D01*
X0265764Y0096980D01*
X0265684Y0096856D01*
X0265608Y0096729D01*
X0265535Y0096601D01*
X0265465Y0096470D01*
X0265399Y0096338D01*
X0265337Y0096205D01*
X0265278Y0096069D01*
X0265222Y0095932D01*
X0265171Y0095794D01*
X0265122Y0095654D01*
X0265078Y0095513D01*
X0265038Y0095371D01*
X0265001Y0095228D01*
X0264968Y0095084D01*
X0264939Y0094939D01*
X0264913Y0094794D01*
X0264892Y0094648D01*
X0264874Y0094501D01*
X0264861Y0094354D01*
X0264851Y0094206D01*
X0264845Y0094059D01*
X0264843Y0093911D01*
D11*
X0198858Y0027667D02*
X0196358Y0030167D01*
X0191358Y0030167D01*
X0188858Y0027667D01*
X0188858Y0012667D01*
X0186358Y0010167D01*
X0181358Y0010167D01*
X0178858Y0012667D01*
X0178858Y0027667D01*
X0176358Y0030167D01*
X0171358Y0030167D01*
X0168858Y0027667D01*
X0168858Y0012667D01*
X0166358Y0010167D01*
X0161358Y0010167D01*
X0158858Y0012667D01*
X0158858Y0027667D01*
X0156358Y0030167D01*
X0151358Y0030167D01*
X0148858Y0027667D01*
X0148858Y0012667D01*
X0146358Y0010167D01*
X0141358Y0010167D01*
X0138858Y0012667D01*
X0138858Y0027667D01*
X0136358Y0030167D01*
X0131358Y0030167D01*
X0128858Y0027667D01*
X0128858Y0012667D01*
X0126358Y0010167D01*
X0121358Y0010167D01*
X0118858Y0012667D01*
X0118858Y0027667D01*
X0121358Y0030167D01*
X0126358Y0030167D01*
X0128858Y0027667D01*
X0118858Y0027667D02*
X0116358Y0030167D01*
X0111358Y0030167D01*
X0108858Y0027667D01*
X0108858Y0012667D01*
X0106358Y0010167D01*
X0101358Y0010167D01*
X0098858Y0012667D01*
X0098858Y0027667D01*
X0101358Y0030167D01*
X0106358Y0030167D01*
X0108858Y0027667D01*
X0098858Y0027667D02*
X0096358Y0030167D01*
X0091358Y0030167D01*
X0088858Y0027667D01*
X0086358Y0030167D01*
X0081358Y0030167D01*
X0078858Y0027667D01*
X0078858Y0012667D01*
X0081358Y0010167D01*
X0086358Y0010167D01*
X0088858Y0012667D01*
X0088858Y0027667D01*
X0088858Y0012667D02*
X0091358Y0010167D01*
X0096358Y0010167D01*
X0098858Y0012667D01*
X0108858Y0012667D02*
X0111358Y0010167D01*
X0116358Y0010167D01*
X0118858Y0012667D01*
X0128858Y0012667D02*
X0131358Y0010167D01*
X0136358Y0010167D01*
X0138858Y0012667D01*
X0148858Y0012667D02*
X0151358Y0010167D01*
X0156358Y0010167D01*
X0158858Y0012667D01*
X0168858Y0012667D02*
X0171358Y0010167D01*
X0176358Y0010167D01*
X0178858Y0012667D01*
X0188858Y0012667D02*
X0191358Y0010167D01*
X0196358Y0010167D01*
X0198858Y0012667D01*
X0198858Y0027667D01*
X0188858Y0027667D02*
X0186358Y0030167D01*
X0181358Y0030167D01*
X0178858Y0027667D01*
X0168858Y0027667D02*
X0166358Y0030167D01*
X0161358Y0030167D01*
X0158858Y0027667D01*
X0148858Y0027667D02*
X0146358Y0030167D01*
X0141358Y0030167D01*
X0138858Y0027667D01*
X0048900Y0115556D02*
X0045400Y0112056D01*
X0041400Y0112056D01*
X0037900Y0115556D01*
X0037900Y0119556D01*
X0041400Y0123056D01*
X0045400Y0123056D01*
X0048900Y0119556D01*
X0048900Y0115556D01*
X0035100Y0115556D02*
X0031600Y0112056D01*
X0027600Y0112056D01*
X0024100Y0115556D01*
X0024100Y0119556D01*
X0027600Y0123056D01*
X0031600Y0123056D01*
X0035100Y0119556D01*
X0035100Y0115556D01*
X0022500Y0123356D02*
X0022500Y0127356D01*
X0019000Y0130856D01*
X0015000Y0130856D01*
X0011500Y0127356D01*
X0011500Y0123356D01*
X0015000Y0119856D01*
X0019000Y0119856D01*
X0022500Y0123356D01*
X0027600Y0126456D02*
X0031600Y0126456D01*
X0035100Y0129956D01*
X0035100Y0133956D01*
X0031600Y0137456D01*
X0027600Y0137456D01*
X0024100Y0133956D01*
X0024100Y0129956D01*
X0027600Y0126456D01*
X0020300Y0138256D02*
X0013895Y0138256D01*
X0013895Y0141458D01*
X0014962Y0142526D01*
X0016030Y0142526D01*
X0017097Y0141458D01*
X0017097Y0138256D01*
X0017097Y0141458D02*
X0018165Y0142526D01*
X0019232Y0142526D01*
X0020300Y0141458D01*
X0020300Y0138256D01*
X0019232Y0144701D02*
X0020300Y0145769D01*
X0020300Y0148971D01*
X0021368Y0148971D02*
X0022435Y0147904D01*
X0022435Y0146836D01*
X0021368Y0148971D02*
X0016030Y0148971D01*
X0016030Y0151147D02*
X0017097Y0151147D01*
X0017097Y0152214D01*
X0016030Y0152214D01*
X0016030Y0151147D01*
X0019232Y0151147D02*
X0020300Y0151147D01*
X0020300Y0152214D01*
X0019232Y0152214D01*
X0019232Y0151147D01*
X0019232Y0144701D02*
X0016030Y0144701D01*
X0050985Y0151455D02*
X0050985Y0126856D01*
X0064607Y0126856D01*
X0064607Y0151455D01*
X0050985Y0151455D01*
D12*
X0069800Y0162282D02*
X0070418Y0161665D01*
X0071652Y0161665D01*
X0072269Y0162282D01*
X0073484Y0161665D02*
X0075952Y0164133D01*
X0075952Y0164751D01*
X0075335Y0165368D01*
X0074101Y0165368D01*
X0073484Y0164751D01*
X0072269Y0164751D02*
X0071652Y0165368D01*
X0070418Y0165368D01*
X0069800Y0164751D01*
X0069800Y0162282D01*
X0073484Y0161665D02*
X0075952Y0161665D01*
X0066609Y0120841D02*
X0066609Y0118372D01*
X0066609Y0119606D02*
X0062906Y0119606D01*
X0064140Y0118372D01*
X0063523Y0117158D02*
X0062906Y0116541D01*
X0062906Y0115306D01*
X0063523Y0114689D01*
X0065992Y0114689D01*
X0066609Y0115306D01*
X0066609Y0116541D01*
X0065992Y0117158D01*
X0065392Y0111241D02*
X0066009Y0110624D01*
X0066009Y0109389D01*
X0065392Y0108772D01*
X0065392Y0107558D02*
X0066009Y0106941D01*
X0066009Y0105706D01*
X0065392Y0105089D01*
X0062923Y0105089D01*
X0062306Y0105706D01*
X0062306Y0106941D01*
X0062923Y0107558D01*
X0062923Y0108772D02*
X0062306Y0109389D01*
X0062306Y0110624D01*
X0062923Y0111241D01*
X0063540Y0111241D01*
X0064157Y0110624D01*
X0064775Y0111241D01*
X0065392Y0111241D01*
X0064157Y0110624D02*
X0064157Y0110006D01*
X0122947Y0086529D02*
X0122947Y0084060D01*
X0126650Y0084060D01*
X0126650Y0082846D02*
X0126650Y0080377D01*
X0122947Y0080377D01*
X0122947Y0082846D01*
X0124798Y0084060D02*
X0124798Y0085294D01*
X0124798Y0081611D02*
X0124798Y0080377D01*
X0124798Y0079162D02*
X0125416Y0078545D01*
X0125416Y0076694D01*
X0126650Y0076694D02*
X0122947Y0076694D01*
X0122947Y0078545D01*
X0123564Y0079162D01*
X0124798Y0079162D01*
X0125416Y0077928D02*
X0126650Y0079162D01*
X0126033Y0075479D02*
X0123564Y0075479D01*
X0122947Y0074862D01*
X0122947Y0073628D01*
X0123564Y0073010D01*
X0126033Y0073010D01*
X0126650Y0073628D01*
X0126650Y0074862D01*
X0126033Y0075479D01*
X0126650Y0071789D02*
X0126650Y0070555D01*
X0126650Y0071172D02*
X0122947Y0071172D01*
X0122947Y0070555D02*
X0122947Y0071789D01*
X0122947Y0069341D02*
X0126650Y0066872D01*
X0125416Y0065658D02*
X0122947Y0065658D01*
X0125416Y0065658D02*
X0126650Y0064423D01*
X0125416Y0063189D01*
X0122947Y0063189D01*
X0122947Y0061974D02*
X0122947Y0059506D01*
X0124798Y0059506D01*
X0124181Y0060740D01*
X0124181Y0061357D01*
X0124798Y0061974D01*
X0126033Y0061974D01*
X0126650Y0061357D01*
X0126650Y0060123D01*
X0126033Y0059506D01*
X0132547Y0059506D02*
X0132547Y0061357D01*
X0133164Y0061974D01*
X0134398Y0061974D01*
X0135016Y0061357D01*
X0135016Y0059506D01*
X0136250Y0059506D02*
X0132547Y0059506D01*
X0135016Y0060740D02*
X0136250Y0061974D01*
X0135633Y0063189D02*
X0136250Y0063806D01*
X0136250Y0065040D01*
X0135633Y0065658D01*
X0135016Y0065658D01*
X0134398Y0065040D01*
X0134398Y0063806D01*
X0133781Y0063189D01*
X0133164Y0063189D01*
X0132547Y0063806D01*
X0132547Y0065040D01*
X0133164Y0065658D01*
X0132547Y0066872D02*
X0132547Y0069341D01*
X0132547Y0068106D02*
X0136250Y0068106D01*
X0142747Y0068713D02*
X0145216Y0068713D01*
X0146450Y0069948D01*
X0145216Y0071182D01*
X0142747Y0071182D01*
X0143364Y0067499D02*
X0143981Y0067499D01*
X0144598Y0066882D01*
X0145216Y0067499D01*
X0145833Y0067499D01*
X0146450Y0066882D01*
X0146450Y0065648D01*
X0145833Y0065030D01*
X0145833Y0063806D02*
X0146450Y0063806D01*
X0146450Y0063189D01*
X0145833Y0063189D01*
X0145833Y0063806D01*
X0145833Y0061974D02*
X0146450Y0061357D01*
X0146450Y0060123D01*
X0145833Y0059506D01*
X0144598Y0060740D02*
X0144598Y0061357D01*
X0145216Y0061974D01*
X0145833Y0061974D01*
X0144598Y0061357D02*
X0143981Y0061974D01*
X0143364Y0061974D01*
X0142747Y0061357D01*
X0142747Y0060123D01*
X0143364Y0059506D01*
X0143364Y0065030D02*
X0142747Y0065648D01*
X0142747Y0066882D01*
X0143364Y0067499D01*
X0144598Y0066882D02*
X0144598Y0066265D01*
X0152347Y0065658D02*
X0154816Y0065658D01*
X0156050Y0064423D01*
X0154816Y0063189D01*
X0152347Y0063189D01*
X0152347Y0061974D02*
X0152347Y0059506D01*
X0154198Y0059506D01*
X0153581Y0060740D01*
X0153581Y0061357D01*
X0154198Y0061974D01*
X0155433Y0061974D01*
X0156050Y0061357D01*
X0156050Y0060123D01*
X0155433Y0059506D01*
X0162547Y0060123D02*
X0163164Y0059506D01*
X0165633Y0059506D01*
X0166250Y0060123D01*
X0166250Y0061357D01*
X0165633Y0061974D01*
X0164398Y0061974D01*
X0164398Y0060740D01*
X0163164Y0061974D02*
X0162547Y0061357D01*
X0162547Y0060123D01*
X0162547Y0063189D02*
X0166250Y0065658D01*
X0162547Y0065658D01*
X0162547Y0066872D02*
X0162547Y0068723D01*
X0163164Y0069341D01*
X0165633Y0069341D01*
X0166250Y0068723D01*
X0166250Y0066872D01*
X0162547Y0066872D01*
X0162547Y0063189D02*
X0166250Y0063189D01*
X0172147Y0062589D02*
X0175850Y0065058D01*
X0172147Y0065058D01*
X0172147Y0066272D02*
X0172147Y0068123D01*
X0172764Y0068741D01*
X0175233Y0068741D01*
X0175850Y0068123D01*
X0175850Y0066272D01*
X0172147Y0066272D01*
X0172147Y0062589D02*
X0175850Y0062589D01*
X0175233Y0061374D02*
X0173998Y0061374D01*
X0173998Y0060140D01*
X0172764Y0058906D02*
X0175233Y0058906D01*
X0175850Y0059523D01*
X0175850Y0060757D01*
X0175233Y0061374D01*
X0172764Y0061374D02*
X0172147Y0060757D01*
X0172147Y0059523D01*
X0172764Y0058906D01*
X0182947Y0059506D02*
X0186650Y0061974D01*
X0182947Y0061974D01*
X0183564Y0063189D02*
X0186033Y0063189D01*
X0186650Y0063806D01*
X0186650Y0065040D01*
X0186033Y0065658D01*
X0183564Y0065658D02*
X0182947Y0065040D01*
X0182947Y0063806D01*
X0183564Y0063189D01*
X0182947Y0059506D02*
X0186650Y0059506D01*
X0201547Y0060740D02*
X0202781Y0061974D01*
X0205250Y0061974D01*
X0204633Y0063189D02*
X0205250Y0063806D01*
X0205250Y0065040D01*
X0204633Y0065658D01*
X0204016Y0065658D01*
X0203398Y0065040D01*
X0203398Y0063189D01*
X0204633Y0063189D01*
X0203398Y0063189D02*
X0202164Y0064423D01*
X0201547Y0065658D01*
X0203398Y0061974D02*
X0203398Y0059506D01*
X0202781Y0059506D02*
X0205250Y0059506D01*
X0202781Y0059506D02*
X0201547Y0060740D01*
X0211147Y0060740D02*
X0212381Y0061974D01*
X0214850Y0061974D01*
X0214233Y0063189D02*
X0214850Y0063806D01*
X0214850Y0065040D01*
X0214233Y0065658D01*
X0212998Y0065658D01*
X0212381Y0065040D01*
X0212381Y0064423D01*
X0212998Y0063189D01*
X0211147Y0063189D01*
X0211147Y0065658D01*
X0212998Y0061974D02*
X0212998Y0059506D01*
X0212381Y0059506D02*
X0214850Y0059506D01*
X0212381Y0059506D02*
X0211147Y0060740D01*
X0222547Y0060740D02*
X0223781Y0061974D01*
X0226250Y0061974D01*
X0224398Y0061974D02*
X0224398Y0059506D01*
X0223781Y0059506D02*
X0222547Y0060740D01*
X0223781Y0059506D02*
X0226250Y0059506D01*
X0224398Y0063189D02*
X0224398Y0065658D01*
X0222547Y0065040D02*
X0226250Y0065040D01*
X0224398Y0063189D02*
X0222547Y0065040D01*
X0231547Y0065040D02*
X0231547Y0063806D01*
X0232164Y0063189D01*
X0232781Y0061974D02*
X0235250Y0061974D01*
X0234633Y0063189D02*
X0235250Y0063806D01*
X0235250Y0065040D01*
X0234633Y0065658D01*
X0234016Y0065658D01*
X0233398Y0065040D01*
X0233398Y0064423D01*
X0233398Y0065040D02*
X0232781Y0065658D01*
X0232164Y0065658D01*
X0231547Y0065040D01*
X0232781Y0061974D02*
X0231547Y0060740D01*
X0232781Y0059506D01*
X0235250Y0059506D01*
X0233398Y0059506D02*
X0233398Y0061974D01*
X0241747Y0060740D02*
X0242981Y0061974D01*
X0245450Y0061974D01*
X0243598Y0061974D02*
X0243598Y0059506D01*
X0242981Y0059506D02*
X0245450Y0059506D01*
X0242981Y0059506D02*
X0241747Y0060740D01*
X0243598Y0063189D02*
X0243598Y0065658D01*
X0241747Y0065040D02*
X0245450Y0065040D01*
X0243598Y0063189D02*
X0241747Y0065040D01*
X0251947Y0065658D02*
X0251947Y0063189D01*
X0253798Y0063189D01*
X0253181Y0064423D01*
X0253181Y0065040D01*
X0253798Y0065658D01*
X0255033Y0065658D01*
X0255650Y0065040D01*
X0255650Y0063806D01*
X0255033Y0063189D01*
X0255650Y0061974D02*
X0253181Y0061974D01*
X0251947Y0060740D01*
X0253181Y0059506D01*
X0255650Y0059506D01*
X0253798Y0059506D02*
X0253798Y0061974D01*
X0222050Y0090106D02*
X0218347Y0090106D01*
X0218347Y0091957D01*
X0218964Y0092574D01*
X0220198Y0092574D01*
X0220816Y0091957D01*
X0220816Y0090106D01*
X0221433Y0093789D02*
X0220816Y0094406D01*
X0220816Y0096258D01*
X0220198Y0096258D02*
X0222050Y0096258D01*
X0222050Y0094406D01*
X0221433Y0093789D01*
X0219581Y0094406D02*
X0219581Y0095640D01*
X0220198Y0096258D01*
X0219581Y0097472D02*
X0219581Y0099323D01*
X0220198Y0099941D01*
X0222050Y0099941D01*
X0221433Y0101155D02*
X0220198Y0101155D01*
X0219581Y0101772D01*
X0219581Y0103624D01*
X0218347Y0103624D02*
X0222050Y0103624D01*
X0222050Y0101772D01*
X0221433Y0101155D01*
X0222050Y0097472D02*
X0219581Y0097472D01*
X0221433Y0104838D02*
X0220816Y0105455D01*
X0220816Y0107307D01*
X0220198Y0107307D02*
X0222050Y0107307D01*
X0222050Y0105455D01*
X0221433Y0104838D01*
X0219581Y0105455D02*
X0219581Y0106690D01*
X0220198Y0107307D01*
X0220198Y0108521D02*
X0220198Y0110990D01*
X0220198Y0112205D02*
X0219581Y0112822D01*
X0219581Y0114056D01*
X0220198Y0114673D01*
X0220816Y0114673D01*
X0220816Y0112205D01*
X0221433Y0112205D02*
X0220198Y0112205D01*
X0221433Y0112205D02*
X0222050Y0112822D01*
X0222050Y0114056D01*
X0222050Y0115888D02*
X0222050Y0117122D01*
X0222050Y0116505D02*
X0218347Y0116505D01*
X0218347Y0115888D01*
X0219581Y0118343D02*
X0219581Y0120195D01*
X0220198Y0120812D01*
X0221433Y0120812D01*
X0222050Y0120195D01*
X0222050Y0118343D01*
X0223284Y0118343D02*
X0219581Y0118343D01*
X0220198Y0122026D02*
X0219581Y0122643D01*
X0219581Y0123878D01*
X0220198Y0124495D01*
X0220816Y0124495D01*
X0220816Y0122026D01*
X0221433Y0122026D02*
X0220198Y0122026D01*
X0221433Y0122026D02*
X0222050Y0122643D01*
X0222050Y0123878D01*
X0222050Y0125709D02*
X0219581Y0125709D01*
X0220816Y0125709D02*
X0219581Y0126944D01*
X0219581Y0127561D01*
X0218347Y0132462D02*
X0220816Y0132462D01*
X0222050Y0133696D01*
X0220816Y0134931D01*
X0218347Y0134931D01*
X0218964Y0136145D02*
X0218347Y0136762D01*
X0218347Y0137997D01*
X0218964Y0138614D01*
X0219581Y0138614D01*
X0222050Y0136145D01*
X0222050Y0138614D01*
X0222050Y0139828D02*
X0222050Y0140445D01*
X0221433Y0140445D01*
X0221433Y0139828D01*
X0222050Y0139828D01*
X0221433Y0141670D02*
X0218964Y0144138D01*
X0221433Y0144138D01*
X0222050Y0143521D01*
X0222050Y0142287D01*
X0221433Y0141670D01*
X0218964Y0141670D01*
X0218347Y0142287D01*
X0218347Y0143521D01*
X0218964Y0144138D01*
X0218347Y0110990D02*
X0222050Y0110990D01*
X0222050Y0108521D02*
X0218347Y0108521D01*
X0116450Y0065040D02*
X0116450Y0063806D01*
X0115833Y0063189D01*
X0113364Y0063189D01*
X0112747Y0063806D01*
X0112747Y0065040D01*
X0113364Y0065658D01*
X0115833Y0065658D02*
X0116450Y0065040D01*
X0116450Y0061974D02*
X0112747Y0061974D01*
X0112747Y0059506D02*
X0116450Y0061974D01*
X0116450Y0059506D02*
X0112747Y0059506D01*
X0243547Y0201106D02*
X0243547Y0202957D01*
X0244164Y0203574D01*
X0246633Y0203574D01*
X0247250Y0202957D01*
X0247250Y0201106D01*
X0243547Y0201106D01*
X0244781Y0204789D02*
X0243547Y0206023D01*
X0247250Y0206023D01*
X0247250Y0204789D02*
X0247250Y0207258D01*
X0247250Y0210941D02*
X0243547Y0208472D01*
X0253147Y0207872D02*
X0256850Y0210341D01*
X0256850Y0211555D02*
X0253147Y0211555D01*
X0253147Y0213407D01*
X0253764Y0214024D01*
X0254998Y0214024D01*
X0255616Y0213407D01*
X0255616Y0211555D01*
X0255616Y0212789D02*
X0256850Y0214024D01*
X0256850Y0215238D02*
X0253147Y0217707D01*
X0253147Y0215238D02*
X0256850Y0217707D01*
X0247250Y0218307D02*
X0243547Y0215838D01*
X0243547Y0214624D02*
X0243547Y0212155D01*
X0243547Y0213389D02*
X0247250Y0213389D01*
X0247250Y0215838D02*
X0243547Y0218307D01*
X0236450Y0215058D02*
X0236450Y0212589D01*
X0233981Y0215058D01*
X0233364Y0215058D01*
X0232747Y0214440D01*
X0232747Y0213206D01*
X0233364Y0212589D01*
X0233364Y0211374D02*
X0232747Y0210757D01*
X0232747Y0208906D01*
X0236450Y0208906D01*
X0236450Y0210757D01*
X0235833Y0211374D01*
X0233364Y0211374D01*
X0226850Y0210840D02*
X0226850Y0209606D01*
X0226233Y0208989D01*
X0226233Y0207774D02*
X0223764Y0207774D01*
X0223147Y0207157D01*
X0223147Y0205306D01*
X0226850Y0205306D01*
X0226850Y0207157D01*
X0226233Y0207774D01*
X0224998Y0210223D02*
X0224998Y0210840D01*
X0225616Y0211458D01*
X0226233Y0211458D01*
X0226850Y0210840D01*
X0224998Y0210840D02*
X0224381Y0211458D01*
X0223764Y0211458D01*
X0223147Y0210840D01*
X0223147Y0209606D01*
X0223764Y0208989D01*
X0216650Y0207157D02*
X0216650Y0205306D01*
X0212947Y0205306D01*
X0212947Y0207157D01*
X0213564Y0207774D01*
X0216033Y0207774D01*
X0216650Y0207157D01*
X0214798Y0208989D02*
X0212947Y0210840D01*
X0216650Y0210840D01*
X0214798Y0211458D02*
X0214798Y0208989D01*
X0207050Y0209606D02*
X0206433Y0208989D01*
X0207050Y0209606D02*
X0207050Y0210840D01*
X0206433Y0211458D01*
X0205198Y0211458D01*
X0204581Y0210840D01*
X0204581Y0210223D01*
X0205198Y0208989D01*
X0203347Y0208989D01*
X0203347Y0211458D01*
X0203964Y0207774D02*
X0203347Y0207157D01*
X0203347Y0205306D01*
X0207050Y0205306D01*
X0207050Y0207157D01*
X0206433Y0207774D01*
X0203964Y0207774D01*
X0196850Y0207157D02*
X0196850Y0205306D01*
X0193147Y0205306D01*
X0193147Y0207157D01*
X0193764Y0207774D01*
X0196233Y0207774D01*
X0196850Y0207157D01*
X0196233Y0208989D02*
X0196850Y0209606D01*
X0196850Y0210840D01*
X0196233Y0211458D01*
X0195616Y0211458D01*
X0194998Y0210840D01*
X0194998Y0208989D01*
X0196233Y0208989D01*
X0194998Y0208989D02*
X0193764Y0210223D01*
X0193147Y0211458D01*
X0186650Y0208989D02*
X0186033Y0208989D01*
X0183564Y0211458D01*
X0182947Y0211458D01*
X0182947Y0208989D01*
X0183564Y0207774D02*
X0182947Y0207157D01*
X0182947Y0205306D01*
X0186650Y0205306D01*
X0186650Y0207157D01*
X0186033Y0207774D01*
X0183564Y0207774D01*
X0171050Y0207157D02*
X0171050Y0205306D01*
X0167347Y0205306D01*
X0167347Y0207157D01*
X0167964Y0207774D01*
X0170433Y0207774D01*
X0171050Y0207157D01*
X0170433Y0208989D02*
X0169816Y0208989D01*
X0169198Y0209606D01*
X0169198Y0210840D01*
X0169816Y0211458D01*
X0170433Y0211458D01*
X0171050Y0210840D01*
X0171050Y0209606D01*
X0170433Y0208989D01*
X0169198Y0209606D02*
X0168581Y0208989D01*
X0167964Y0208989D01*
X0167347Y0209606D01*
X0167347Y0210840D01*
X0167964Y0211458D01*
X0168581Y0211458D01*
X0169198Y0210840D01*
X0162050Y0210240D02*
X0161433Y0210858D01*
X0158964Y0210858D01*
X0158347Y0210240D01*
X0158347Y0209006D01*
X0158964Y0208389D01*
X0159581Y0208389D01*
X0160198Y0209006D01*
X0160198Y0210858D01*
X0162050Y0210240D02*
X0162050Y0209006D01*
X0161433Y0208389D01*
X0161433Y0207174D02*
X0158964Y0207174D01*
X0158347Y0206557D01*
X0158347Y0204706D01*
X0162050Y0204706D01*
X0162050Y0206557D01*
X0161433Y0207174D01*
X0151850Y0206557D02*
X0151850Y0204706D01*
X0148147Y0204706D01*
X0148147Y0206557D01*
X0148764Y0207174D01*
X0151233Y0207174D01*
X0151850Y0206557D01*
X0151850Y0208389D02*
X0151850Y0210858D01*
X0151850Y0209623D02*
X0148147Y0209623D01*
X0149381Y0208389D01*
X0142250Y0208389D02*
X0142250Y0210858D01*
X0142250Y0212072D02*
X0142250Y0214541D01*
X0142250Y0213306D02*
X0138547Y0213306D01*
X0139781Y0212072D01*
X0138547Y0209623D02*
X0142250Y0209623D01*
X0141633Y0207174D02*
X0139164Y0207174D01*
X0138547Y0206557D01*
X0138547Y0204706D01*
X0142250Y0204706D01*
X0142250Y0206557D01*
X0141633Y0207174D01*
X0139781Y0208389D02*
X0138547Y0209623D01*
X0131450Y0209623D02*
X0127747Y0209623D01*
X0128981Y0208389D01*
X0128364Y0207174D02*
X0127747Y0206557D01*
X0127747Y0204706D01*
X0131450Y0204706D01*
X0131450Y0206557D01*
X0130833Y0207174D01*
X0128364Y0207174D01*
X0131450Y0208389D02*
X0131450Y0210858D01*
X0131450Y0212072D02*
X0128981Y0214541D01*
X0128364Y0214541D01*
X0127747Y0213923D01*
X0127747Y0212689D01*
X0128364Y0212072D01*
X0131450Y0212072D02*
X0131450Y0214541D01*
X0120650Y0213923D02*
X0120650Y0212689D01*
X0120033Y0212072D01*
X0120650Y0210858D02*
X0120650Y0208389D01*
X0120650Y0209623D02*
X0116947Y0209623D01*
X0118181Y0208389D01*
X0117564Y0207174D02*
X0116947Y0206557D01*
X0116947Y0204706D01*
X0120650Y0204706D01*
X0120650Y0206557D01*
X0120033Y0207174D01*
X0117564Y0207174D01*
X0117564Y0212072D02*
X0116947Y0212689D01*
X0116947Y0213923D01*
X0117564Y0214541D01*
X0118181Y0214541D01*
X0118798Y0213923D01*
X0119416Y0214541D01*
X0120033Y0214541D01*
X0120650Y0213923D01*
X0118798Y0213923D02*
X0118798Y0213306D01*
X0111050Y0213923D02*
X0110433Y0214541D01*
X0107964Y0214541D01*
X0107347Y0213923D01*
X0107347Y0212072D01*
X0111050Y0212072D01*
X0111050Y0213923D01*
X0111050Y0210858D02*
X0107347Y0210858D01*
X0107347Y0208389D02*
X0111050Y0210858D01*
X0111050Y0208389D02*
X0107347Y0208389D01*
X0107964Y0207174D02*
X0107347Y0206557D01*
X0107347Y0205323D01*
X0107964Y0204706D01*
X0110433Y0204706D01*
X0111050Y0205323D01*
X0111050Y0206557D01*
X0110433Y0207174D01*
X0109198Y0207174D01*
X0109198Y0205940D01*
X0100850Y0207174D02*
X0097147Y0204706D01*
X0100850Y0204706D01*
X0100850Y0207174D02*
X0097147Y0207174D01*
X0097764Y0208389D02*
X0100233Y0208389D01*
X0100850Y0209006D01*
X0100850Y0210240D01*
X0100233Y0210858D01*
X0097764Y0210858D02*
X0097147Y0210240D01*
X0097147Y0209006D01*
X0097764Y0208389D01*
X0091250Y0208389D02*
X0091250Y0210240D01*
X0090633Y0210858D01*
X0088164Y0210858D01*
X0087547Y0210240D01*
X0087547Y0208389D01*
X0091250Y0208389D01*
X0090633Y0207174D02*
X0091250Y0206557D01*
X0091250Y0205323D01*
X0090633Y0204706D01*
X0089398Y0205323D02*
X0089398Y0206557D01*
X0090016Y0207174D01*
X0090633Y0207174D01*
X0089398Y0205323D02*
X0088781Y0204706D01*
X0088164Y0204706D01*
X0087547Y0205323D01*
X0087547Y0206557D01*
X0088164Y0207174D01*
X0088781Y0212072D02*
X0087547Y0213306D01*
X0088781Y0214541D01*
X0091250Y0214541D01*
X0089398Y0214541D02*
X0089398Y0212072D01*
X0088781Y0212072D02*
X0091250Y0212072D01*
X0081050Y0212072D02*
X0081050Y0214541D01*
X0081050Y0212072D02*
X0077347Y0212072D01*
X0077964Y0210858D02*
X0077347Y0210240D01*
X0077347Y0209006D01*
X0077964Y0208389D01*
X0080433Y0208389D01*
X0081050Y0209006D01*
X0081050Y0210240D01*
X0080433Y0210858D01*
X0080433Y0207174D02*
X0081050Y0206557D01*
X0081050Y0205323D01*
X0080433Y0204706D01*
X0079198Y0205323D02*
X0079198Y0206557D01*
X0079816Y0207174D01*
X0080433Y0207174D01*
X0079198Y0205323D02*
X0078581Y0204706D01*
X0077964Y0204706D01*
X0077347Y0205323D01*
X0077347Y0206557D01*
X0077964Y0207174D01*
X0148147Y0212689D02*
X0148147Y0213923D01*
X0148764Y0214541D01*
X0151233Y0212072D01*
X0151850Y0212689D01*
X0151850Y0213923D01*
X0151233Y0214541D01*
X0148764Y0214541D01*
X0148147Y0212689D02*
X0148764Y0212072D01*
X0151233Y0212072D01*
X0253147Y0206040D02*
X0253147Y0204806D01*
X0253764Y0204189D01*
X0256233Y0204189D01*
X0253764Y0206658D01*
X0256233Y0206658D01*
X0256850Y0206040D01*
X0256850Y0204806D01*
X0256233Y0204189D01*
X0256233Y0202974D02*
X0253764Y0202974D01*
X0253147Y0202357D01*
X0253147Y0200506D01*
X0256850Y0200506D01*
X0256850Y0202357D01*
X0256233Y0202974D01*
X0253147Y0206040D02*
X0253764Y0206658D01*
D13*
X0005000Y0243356D02*
X0005000Y0033356D01*
X0110000Y0038356D02*
X0110000Y0048356D01*
X0190000Y0048356D01*
X0190000Y0038356D01*
X0110000Y0038356D01*
X0110200Y0048356D02*
X0110200Y0058356D01*
X0190200Y0058356D01*
X0190200Y0048356D01*
X0110200Y0048356D01*
X0186798Y0007420D02*
X0188299Y0007420D01*
X0187548Y0007420D02*
X0187548Y0003667D01*
X0186798Y0002917D01*
X0186047Y0002917D01*
X0185296Y0003667D01*
X0189900Y0002917D02*
X0189900Y0007420D01*
X0192152Y0007420D01*
X0192903Y0006670D01*
X0192903Y0005169D01*
X0192152Y0004418D01*
X0189900Y0004418D01*
X0194504Y0003667D02*
X0195255Y0002917D01*
X0196756Y0002917D01*
X0197507Y0003667D01*
X0197507Y0004418D01*
X0196756Y0005169D01*
X0196006Y0005169D01*
X0196756Y0005169D02*
X0197507Y0005919D01*
X0197507Y0006670D01*
X0196756Y0007420D01*
X0195255Y0007420D01*
X0194504Y0006670D01*
X0200000Y0038356D02*
X0200000Y0048356D01*
X0260000Y0048356D01*
X0260000Y0058356D01*
X0200000Y0058356D01*
X0200000Y0048356D01*
X0260000Y0048356D01*
X0260000Y0038356D01*
X0200000Y0038356D01*
X0265000Y0043356D02*
X0265000Y0033356D01*
X0265000Y0043356D02*
X0275000Y0053356D01*
X0275000Y0182356D01*
X0265000Y0192356D01*
X0265000Y0237356D01*
X0259000Y0243356D01*
X0005000Y0243356D01*
X0027652Y0234455D02*
X0028402Y0233704D01*
X0029153Y0233704D01*
X0029903Y0234455D01*
X0029903Y0238208D01*
X0029153Y0238208D02*
X0030654Y0238208D01*
X0032255Y0238208D02*
X0034507Y0238208D01*
X0035258Y0237457D01*
X0035258Y0235956D01*
X0034507Y0235205D01*
X0032255Y0235205D01*
X0032255Y0233704D02*
X0032255Y0238208D01*
X0036859Y0236707D02*
X0038361Y0238208D01*
X0038361Y0233704D01*
X0039862Y0233704D02*
X0036859Y0233704D01*
X0074000Y0238356D02*
X0074000Y0228356D01*
X0174000Y0228356D01*
X0174000Y0238356D01*
X0074000Y0238356D01*
X0073997Y0228352D02*
X0173997Y0228352D01*
X0173997Y0218352D01*
X0073997Y0218352D01*
X0073997Y0228352D01*
X0180000Y0228356D02*
X0260000Y0228356D01*
X0260000Y0238356D01*
X0180000Y0238356D01*
X0180000Y0228356D01*
X0180006Y0228352D02*
X0260006Y0228352D01*
X0260006Y0218352D01*
X0180006Y0218352D01*
X0180006Y0228352D01*
D14*
X0248600Y0185456D03*
X0182000Y0168256D03*
X0174200Y0102456D03*
X0142200Y0099456D03*
X0144800Y0068656D03*
D15*
X0181200Y0070956D03*
X0198400Y0093156D03*
X0182600Y0101356D03*
X0182200Y0101156D03*
X0182000Y0101156D03*
X0176400Y0102356D03*
X0176200Y0102356D03*
X0172800Y0112956D03*
X0141400Y0099156D03*
X0168800Y0136756D03*
X0194000Y0146356D03*
X0181000Y0169756D03*
X0180800Y0170156D03*
X0180600Y0170356D03*
X0180000Y0171356D03*
X0179600Y0172156D03*
X0179400Y0172156D03*
X0178200Y0173956D03*
X0201000Y0178356D03*
X0201400Y0178756D03*
X0201600Y0178956D03*
X0201800Y0178956D03*
X0202200Y0179156D03*
X0202400Y0179356D03*
X0202600Y0179356D03*
X0180000Y0190756D03*
X0248400Y0185356D03*
D16*
X0248200Y0185356D03*
X0238600Y0203556D03*
X0200800Y0178156D03*
X0178000Y0174156D03*
X0177800Y0174556D03*
X0177200Y0175156D03*
X0177000Y0175356D03*
X0176400Y0176156D03*
X0176200Y0176356D03*
X0175400Y0177356D03*
X0175200Y0177356D03*
X0175000Y0177756D03*
X0168000Y0152756D03*
X0168200Y0152356D03*
X0168400Y0136156D03*
X0193400Y0146956D03*
X0193800Y0146556D03*
X0223600Y0159756D03*
X0240200Y0154156D03*
X0207800Y0113356D03*
X0195800Y0107156D03*
X0192600Y0105356D03*
X0192400Y0105156D03*
X0192000Y0104956D03*
X0191800Y0104756D03*
X0191600Y0104756D03*
X0191400Y0104756D03*
X0191200Y0104756D03*
X0190400Y0104356D03*
X0190200Y0104356D03*
X0189800Y0104156D03*
X0189400Y0103956D03*
X0189200Y0103956D03*
X0188400Y0103556D03*
X0188000Y0103356D03*
X0187800Y0103356D03*
X0187400Y0103156D03*
X0187000Y0102956D03*
X0186800Y0102956D03*
X0186000Y0102556D03*
X0185800Y0102556D03*
X0185600Y0102556D03*
X0185400Y0102356D03*
X0185000Y0102156D03*
X0184800Y0102156D03*
X0184600Y0102156D03*
X0184200Y0101956D03*
X0184000Y0101756D03*
X0183800Y0101756D03*
X0183400Y0101556D03*
X0168600Y0115556D03*
X0145000Y0068356D03*
D17*
X0140600Y0098656D03*
X0168400Y0115456D03*
X0172400Y0112656D03*
X0197800Y0093056D03*
X0167800Y0135056D03*
X0168000Y0135456D03*
X0167800Y0153056D03*
X0193000Y0147656D03*
X0200400Y0177456D03*
X0171600Y0180856D03*
X0171200Y0181256D03*
X0170800Y0181656D03*
X0169800Y0182456D03*
X0248000Y0185256D03*
D18*
X0247800Y0185356D03*
X0238400Y0203556D03*
X0214200Y0172356D03*
X0212400Y0160556D03*
X0192800Y0147956D03*
X0209400Y0143356D03*
X0239800Y0154356D03*
X0167400Y0153756D03*
X0167200Y0153956D03*
X0167600Y0134756D03*
X0152400Y0132156D03*
X0171000Y0181556D03*
X0170600Y0181756D03*
X0170400Y0181956D03*
X0170200Y0182156D03*
X0170000Y0182356D03*
X0169600Y0182756D03*
X0169400Y0182756D03*
X0169200Y0182956D03*
X0168800Y0183156D03*
X0168600Y0183356D03*
X0168000Y0183756D03*
D19*
X0168200Y0183656D03*
X0168400Y0183456D03*
X0169000Y0183056D03*
X0167800Y0184056D03*
X0167600Y0184056D03*
X0167000Y0184456D03*
X0166800Y0184656D03*
X0167000Y0154256D03*
X0191600Y0151056D03*
X0167400Y0134256D03*
X0140400Y0098456D03*
X0129400Y0081656D03*
X0145200Y0068456D03*
X0181000Y0071056D03*
X0197400Y0093056D03*
X0197600Y0093056D03*
X0247600Y0185256D03*
D20*
X0247400Y0185256D03*
X0247200Y0185256D03*
X0223400Y0159856D03*
X0239200Y0154456D03*
X0239400Y0154456D03*
X0166600Y0155056D03*
X0167200Y0134056D03*
X0140200Y0098256D03*
X0129600Y0081856D03*
X0165800Y0185256D03*
X0165000Y0185656D03*
X0164600Y0186056D03*
X0164200Y0186256D03*
X0164000Y0186256D03*
X0163400Y0186656D03*
X0162800Y0187056D03*
D21*
X0161400Y0187756D03*
X0161000Y0187956D03*
X0160600Y0188156D03*
X0160400Y0188156D03*
X0159800Y0188556D03*
X0159200Y0188756D03*
X0159000Y0188756D03*
X0158800Y0188956D03*
X0158400Y0189156D03*
X0158200Y0189156D03*
X0157200Y0189556D03*
X0200000Y0176556D03*
X0212800Y0161156D03*
X0246800Y0185156D03*
X0247000Y0185156D03*
X0237800Y0203556D03*
X0166000Y0156356D03*
X0166600Y0132956D03*
X0168000Y0115156D03*
X0195800Y0093156D03*
X0196000Y0093156D03*
X0196200Y0093156D03*
X0208800Y0116756D03*
D22*
X0179400Y0095656D03*
X0180800Y0071056D03*
X0152600Y0131456D03*
X0166200Y0132256D03*
X0165800Y0156656D03*
X0165600Y0156856D03*
X0199800Y0176256D03*
X0158000Y0189256D03*
X0157800Y0189256D03*
X0157600Y0189456D03*
X0157400Y0189456D03*
X0157000Y0189656D03*
X0156400Y0189856D03*
X0156200Y0189856D03*
X0156000Y0190056D03*
X0155800Y0190056D03*
X0155400Y0190256D03*
X0155200Y0190256D03*
X0238800Y0154456D03*
X0246600Y0185256D03*
D23*
X0246400Y0185156D03*
X0237600Y0203356D03*
X0199600Y0176156D03*
X0238600Y0154556D03*
X0194200Y0147556D03*
X0156800Y0189756D03*
X0156600Y0189756D03*
X0155600Y0190156D03*
X0155000Y0190356D03*
X0154800Y0190356D03*
X0154400Y0190556D03*
X0154200Y0190556D03*
X0154000Y0190556D03*
X0153800Y0190756D03*
X0153600Y0190756D03*
X0139600Y0097756D03*
X0139400Y0097756D03*
X0130000Y0081956D03*
X0195200Y0093156D03*
X0195400Y0093156D03*
X0195600Y0093156D03*
D24*
X0195000Y0093056D03*
X0194800Y0093056D03*
X0194600Y0093056D03*
X0145400Y0068856D03*
X0165800Y0131256D03*
X0166000Y0131656D03*
X0209600Y0143256D03*
X0213000Y0161456D03*
X0238400Y0154656D03*
X0246200Y0185056D03*
X0237400Y0203256D03*
X0154600Y0190456D03*
X0153400Y0190856D03*
X0152800Y0191056D03*
X0152600Y0191056D03*
X0152400Y0191056D03*
X0152000Y0191256D03*
X0151800Y0191256D03*
D25*
X0151600Y0191356D03*
X0151400Y0191356D03*
X0151200Y0191356D03*
X0150600Y0191556D03*
X0149800Y0191756D03*
X0149600Y0191756D03*
X0149400Y0191756D03*
X0152200Y0191156D03*
X0153000Y0190956D03*
X0153200Y0190956D03*
X0165200Y0157756D03*
X0165400Y0157356D03*
X0165600Y0131156D03*
X0167800Y0115156D03*
X0173200Y0108356D03*
X0191000Y0092156D03*
X0190200Y0091756D03*
X0190000Y0091756D03*
X0189200Y0091156D03*
X0188600Y0090756D03*
X0188000Y0090356D03*
X0187800Y0090356D03*
X0192200Y0092556D03*
X0192400Y0092556D03*
X0193800Y0092956D03*
X0194000Y0092956D03*
X0194200Y0092956D03*
X0194400Y0092956D03*
X0139200Y0097556D03*
X0139000Y0097556D03*
X0130200Y0082156D03*
X0238200Y0154756D03*
X0245800Y0184956D03*
X0246000Y0184956D03*
X0237200Y0203156D03*
D26*
X0245400Y0184856D03*
X0245600Y0184856D03*
X0214000Y0172256D03*
X0194400Y0159056D03*
X0193200Y0155056D03*
X0209800Y0143256D03*
X0238000Y0154856D03*
X0180600Y0190656D03*
X0151000Y0191456D03*
X0150800Y0191456D03*
X0150400Y0191656D03*
X0150200Y0191656D03*
X0150000Y0191656D03*
X0149200Y0191856D03*
X0149000Y0191856D03*
X0148800Y0191856D03*
X0165000Y0158256D03*
X0191200Y0092256D03*
X0191400Y0092256D03*
X0191800Y0092456D03*
X0192000Y0092456D03*
X0192600Y0092656D03*
X0192800Y0092656D03*
X0193200Y0092856D03*
X0193400Y0092856D03*
X0193600Y0092856D03*
X0190800Y0092056D03*
X0190600Y0092056D03*
X0190400Y0091856D03*
X0189800Y0091656D03*
X0189600Y0091456D03*
X0189400Y0091256D03*
X0189000Y0091056D03*
X0188400Y0090656D03*
X0188200Y0090456D03*
X0187600Y0090256D03*
X0187400Y0090256D03*
D27*
X0187200Y0090156D03*
X0187000Y0090156D03*
X0186800Y0090156D03*
X0188800Y0090956D03*
X0191600Y0092356D03*
X0193000Y0092756D03*
X0179200Y0095756D03*
X0180600Y0071156D03*
X0145600Y0068956D03*
X0130400Y0082156D03*
X0138600Y0097356D03*
X0138800Y0097356D03*
X0165400Y0130356D03*
X0193000Y0154556D03*
X0193400Y0155956D03*
X0193600Y0156356D03*
X0193800Y0157356D03*
X0194200Y0158556D03*
X0199400Y0175356D03*
X0180800Y0190756D03*
X0148600Y0191956D03*
X0148400Y0191956D03*
X0148200Y0191956D03*
X0148000Y0191956D03*
X0164800Y0158556D03*
X0237800Y0154956D03*
X0245000Y0184756D03*
X0245200Y0184756D03*
X0237000Y0203156D03*
D28*
X0236800Y0203056D03*
X0244600Y0184656D03*
X0244800Y0184656D03*
X0213800Y0172256D03*
X0194000Y0157656D03*
X0192800Y0154256D03*
X0194400Y0148056D03*
X0165200Y0130056D03*
X0165000Y0129656D03*
X0164800Y0129456D03*
X0167600Y0115056D03*
X0138400Y0097256D03*
X0182800Y0089256D03*
X0185600Y0090056D03*
X0185800Y0090056D03*
X0186000Y0090056D03*
X0186200Y0090056D03*
X0186400Y0090056D03*
X0186600Y0090056D03*
X0237600Y0155056D03*
X0147800Y0192056D03*
X0147600Y0192056D03*
X0147400Y0192056D03*
X0147200Y0192056D03*
X0147000Y0192056D03*
X0146400Y0192256D03*
X0146200Y0192256D03*
D29*
X0146000Y0192356D03*
X0145800Y0192356D03*
X0145600Y0192356D03*
X0145400Y0192356D03*
X0145200Y0192356D03*
X0145000Y0192356D03*
X0144800Y0192356D03*
X0146600Y0192156D03*
X0146800Y0192156D03*
X0164600Y0159156D03*
X0199200Y0174956D03*
X0244000Y0184556D03*
X0244200Y0184556D03*
X0244400Y0184556D03*
X0236600Y0202956D03*
X0152800Y0130956D03*
X0138200Y0097156D03*
X0138000Y0097156D03*
X0130600Y0082156D03*
X0182200Y0088956D03*
X0182400Y0089156D03*
X0182600Y0089156D03*
X0183000Y0089356D03*
X0183200Y0089356D03*
X0183600Y0089556D03*
X0185000Y0089956D03*
X0185200Y0089956D03*
X0185400Y0089956D03*
D30*
X0184800Y0089856D03*
X0184600Y0089856D03*
X0184400Y0089856D03*
X0184200Y0089856D03*
X0183800Y0089656D03*
X0183400Y0089456D03*
X0182000Y0089056D03*
X0181800Y0089056D03*
X0181600Y0089056D03*
X0237200Y0155056D03*
X0237400Y0155056D03*
X0237000Y0155256D03*
X0199000Y0174456D03*
X0243600Y0184456D03*
X0243800Y0184456D03*
X0236400Y0202856D03*
X0144600Y0192456D03*
X0144400Y0192456D03*
X0144200Y0192456D03*
X0144000Y0192456D03*
D31*
X0143800Y0192556D03*
X0143600Y0192556D03*
X0143400Y0192556D03*
X0143200Y0192556D03*
X0143000Y0192556D03*
X0142800Y0192556D03*
X0142600Y0192556D03*
X0142400Y0192556D03*
X0142200Y0192556D03*
X0142000Y0192556D03*
X0141800Y0192556D03*
X0141600Y0192556D03*
X0141400Y0192556D03*
X0141200Y0192556D03*
X0141000Y0192556D03*
X0140800Y0192556D03*
X0140600Y0192556D03*
X0140400Y0192556D03*
X0181000Y0190556D03*
X0198800Y0174356D03*
X0213600Y0172156D03*
X0237000Y0182956D03*
X0237600Y0183156D03*
X0237800Y0183356D03*
X0238000Y0183356D03*
X0242600Y0184356D03*
X0242800Y0184356D03*
X0243000Y0184356D03*
X0243200Y0184356D03*
X0243400Y0184356D03*
X0236200Y0202756D03*
X0236000Y0202756D03*
X0164400Y0159556D03*
X0192000Y0151156D03*
X0236800Y0155356D03*
X0207800Y0117956D03*
X0184000Y0089756D03*
D32*
X0181400Y0089056D03*
X0181200Y0089056D03*
X0181000Y0089056D03*
X0180400Y0088656D03*
X0180200Y0088656D03*
X0137800Y0097056D03*
X0131000Y0082456D03*
X0130800Y0082456D03*
X0164600Y0128656D03*
X0192200Y0151256D03*
X0210000Y0143256D03*
X0236600Y0155456D03*
X0213400Y0162056D03*
X0213200Y0162056D03*
X0236800Y0182856D03*
X0237200Y0183056D03*
X0237400Y0183056D03*
X0238200Y0183456D03*
X0238400Y0183456D03*
X0238600Y0183456D03*
X0238800Y0183456D03*
X0240400Y0183856D03*
X0240600Y0183856D03*
X0241800Y0184056D03*
X0242000Y0184056D03*
X0242200Y0184056D03*
X0242400Y0184256D03*
X0235600Y0202456D03*
X0235800Y0202656D03*
X0164200Y0160056D03*
X0159400Y0171856D03*
X0140200Y0192456D03*
X0207600Y0118056D03*
D33*
X0207400Y0118156D03*
X0208600Y0116556D03*
X0173400Y0108356D03*
X0167400Y0114956D03*
X0164400Y0128356D03*
X0137600Y0096956D03*
X0137400Y0096956D03*
X0137200Y0096956D03*
X0180000Y0088556D03*
X0180600Y0088956D03*
X0180800Y0088956D03*
X0180400Y0071356D03*
X0236400Y0155556D03*
X0235400Y0182556D03*
X0236200Y0182756D03*
X0236400Y0182756D03*
X0236600Y0182756D03*
X0239000Y0183556D03*
X0239200Y0183556D03*
X0239400Y0183556D03*
X0240000Y0183756D03*
X0240200Y0183756D03*
X0240800Y0183956D03*
X0241000Y0183956D03*
X0241200Y0183956D03*
X0241400Y0183956D03*
X0241600Y0183956D03*
X0235400Y0202356D03*
X0164000Y0160356D03*
X0140000Y0192556D03*
X0139800Y0192556D03*
X0139600Y0192556D03*
X0139400Y0192556D03*
X0139200Y0192556D03*
X0139000Y0192556D03*
X0138800Y0192556D03*
X0138600Y0192556D03*
X0138400Y0192556D03*
X0138200Y0192556D03*
X0138000Y0192556D03*
X0137800Y0192556D03*
X0137600Y0192556D03*
X0137400Y0192556D03*
X0137200Y0192556D03*
D34*
X0181800Y0168656D03*
X0212000Y0159656D03*
X0223800Y0159656D03*
X0240600Y0154256D03*
X0207000Y0112056D03*
X0206400Y0111456D03*
X0206200Y0111256D03*
X0205800Y0111056D03*
X0205600Y0110856D03*
X0205200Y0110656D03*
X0205000Y0110656D03*
X0204800Y0110456D03*
X0204400Y0110256D03*
X0204200Y0110256D03*
X0204000Y0110056D03*
X0203600Y0109856D03*
X0203400Y0109856D03*
X0203000Y0109656D03*
X0202800Y0109656D03*
X0202400Y0109456D03*
X0201800Y0109256D03*
X0201400Y0109056D03*
X0200800Y0108856D03*
X0200600Y0108856D03*
X0200400Y0108656D03*
X0200200Y0108456D03*
X0200000Y0108456D03*
X0199800Y0108456D03*
X0199600Y0108456D03*
X0199400Y0108256D03*
X0199200Y0108256D03*
X0199000Y0108056D03*
X0198400Y0107856D03*
X0198200Y0107856D03*
X0198000Y0107656D03*
X0197800Y0107656D03*
X0197400Y0107456D03*
X0197200Y0107256D03*
X0178200Y0101256D03*
X0178000Y0101456D03*
X0177800Y0101656D03*
X0177600Y0101656D03*
X0177400Y0101656D03*
X0173000Y0113056D03*
X0141800Y0099256D03*
D35*
X0176600Y0102156D03*
X0176800Y0102156D03*
X0177000Y0101956D03*
X0177200Y0101956D03*
X0178400Y0101156D03*
X0178600Y0101156D03*
X0179200Y0100956D03*
X0179400Y0100956D03*
X0179600Y0100956D03*
X0179800Y0100956D03*
X0180000Y0100956D03*
X0180200Y0100956D03*
X0180400Y0100956D03*
X0180600Y0100956D03*
X0180800Y0100956D03*
X0179800Y0095356D03*
X0196200Y0107156D03*
X0196400Y0107156D03*
X0196600Y0107156D03*
X0196800Y0107156D03*
X0197000Y0107156D03*
X0197600Y0107556D03*
X0198600Y0107956D03*
X0198800Y0107956D03*
X0201000Y0108956D03*
X0201200Y0108956D03*
X0202000Y0109356D03*
X0202200Y0109356D03*
X0202600Y0109556D03*
X0203200Y0109756D03*
X0205400Y0110756D03*
X0206000Y0111156D03*
X0206600Y0111556D03*
X0206800Y0111756D03*
X0207400Y0112556D03*
X0198600Y0093156D03*
X0169000Y0136956D03*
X0168600Y0151956D03*
X0181600Y0168756D03*
X0181200Y0169556D03*
X0202800Y0179556D03*
X0203000Y0179556D03*
X0203400Y0179756D03*
X0203800Y0179956D03*
X0204000Y0179956D03*
X0240400Y0154156D03*
X0209200Y0143356D03*
D36*
X0193200Y0147456D03*
X0178400Y0173656D03*
X0176600Y0175856D03*
X0176000Y0176656D03*
X0175800Y0176856D03*
X0174800Y0177856D03*
X0174600Y0178056D03*
X0174400Y0178256D03*
X0174200Y0178456D03*
X0174000Y0178656D03*
X0173600Y0179056D03*
X0173400Y0179256D03*
X0173200Y0179456D03*
X0173000Y0179656D03*
X0200600Y0177856D03*
X0240000Y0154256D03*
X0172600Y0112856D03*
X0183600Y0101656D03*
X0188200Y0103456D03*
X0141000Y0098856D03*
D37*
X0167200Y0114856D03*
X0179600Y0088456D03*
X0179800Y0088456D03*
X0145800Y0069456D03*
X0131200Y0082656D03*
X0210200Y0143256D03*
X0236200Y0155656D03*
X0235200Y0182456D03*
X0235000Y0182456D03*
X0235600Y0182656D03*
X0235800Y0182656D03*
X0236000Y0182656D03*
X0239600Y0183656D03*
X0239800Y0183656D03*
X0235200Y0202256D03*
X0235000Y0202256D03*
X0181200Y0190456D03*
X0137000Y0192456D03*
X0136800Y0192456D03*
X0136600Y0192456D03*
X0163800Y0160656D03*
D38*
X0166800Y0154756D03*
X0167000Y0133956D03*
X0212600Y0160756D03*
X0200200Y0177156D03*
X0180200Y0190756D03*
X0167400Y0184156D03*
X0167200Y0184356D03*
X0166600Y0184756D03*
X0166400Y0184956D03*
X0166200Y0184956D03*
X0166000Y0185156D03*
X0165600Y0185356D03*
X0165400Y0185556D03*
X0165200Y0185556D03*
X0164800Y0185756D03*
X0238200Y0203556D03*
X0239600Y0154356D03*
X0197200Y0093156D03*
X0197000Y0093156D03*
D39*
X0196400Y0093056D03*
X0139800Y0098056D03*
X0129800Y0081856D03*
X0166400Y0132456D03*
X0166800Y0133256D03*
X0191800Y0151056D03*
X0197200Y0162456D03*
X0166400Y0155456D03*
X0166200Y0155656D03*
X0162400Y0187256D03*
X0162200Y0187256D03*
X0161600Y0187656D03*
X0161200Y0187856D03*
X0160800Y0188056D03*
X0160200Y0188256D03*
X0160000Y0188456D03*
X0159600Y0188656D03*
X0159400Y0188656D03*
X0158600Y0189056D03*
X0238000Y0203456D03*
X0239000Y0154456D03*
D40*
X0212200Y0160056D03*
X0193600Y0146856D03*
X0168600Y0136256D03*
X0152200Y0132256D03*
X0190600Y0104456D03*
X0190800Y0104456D03*
X0191000Y0104656D03*
X0190000Y0104256D03*
X0189600Y0104056D03*
X0189000Y0103856D03*
X0188800Y0103856D03*
X0188600Y0103656D03*
X0187600Y0103256D03*
X0187200Y0103056D03*
X0186600Y0102856D03*
X0186400Y0102656D03*
X0186200Y0102656D03*
X0185200Y0102256D03*
X0184400Y0102056D03*
X0183200Y0101456D03*
X0183000Y0101456D03*
X0182800Y0101456D03*
X0182400Y0101256D03*
X0192200Y0105056D03*
X0198200Y0093056D03*
X0141200Y0099056D03*
X0129200Y0081656D03*
X0180400Y0170856D03*
X0180200Y0171056D03*
X0179800Y0171656D03*
X0179200Y0172456D03*
X0179000Y0172856D03*
X0178800Y0173056D03*
X0178600Y0173456D03*
X0177600Y0174656D03*
X0177400Y0174856D03*
X0176800Y0175656D03*
X0201200Y0178456D03*
X0238800Y0203656D03*
D41*
X0234800Y0202156D03*
X0234600Y0201956D03*
X0234400Y0201956D03*
X0234200Y0201756D03*
X0234000Y0201756D03*
X0234200Y0182356D03*
X0234400Y0182356D03*
X0234600Y0182356D03*
X0234800Y0182356D03*
X0213600Y0162356D03*
X0195400Y0163556D03*
X0194600Y0161156D03*
X0163600Y0161356D03*
X0136400Y0192356D03*
X0136200Y0192356D03*
X0136000Y0192356D03*
X0135800Y0192356D03*
X0135600Y0192356D03*
X0135400Y0192356D03*
X0135200Y0192356D03*
X0135000Y0192356D03*
X0235600Y0155956D03*
X0236000Y0155756D03*
X0164200Y0127756D03*
X0173600Y0108356D03*
X0179400Y0088556D03*
X0180200Y0071356D03*
X0137000Y0096956D03*
X0136800Y0096956D03*
X0136600Y0096956D03*
X0136400Y0096956D03*
X0136200Y0096956D03*
X0136000Y0096956D03*
X0135800Y0096956D03*
X0135600Y0096956D03*
X0131400Y0082756D03*
D42*
X0131600Y0082856D03*
X0146000Y0069656D03*
X0135400Y0097056D03*
X0135200Y0097056D03*
X0135000Y0097056D03*
X0134800Y0097056D03*
X0134600Y0097256D03*
X0134400Y0097256D03*
X0134200Y0097256D03*
X0134000Y0097256D03*
X0167000Y0114856D03*
X0207200Y0118256D03*
X0210400Y0143456D03*
X0235200Y0156256D03*
X0235400Y0156056D03*
X0235800Y0155856D03*
X0198600Y0173456D03*
X0195200Y0163056D03*
X0195000Y0162056D03*
X0194800Y0161656D03*
X0163400Y0161656D03*
X0181400Y0190456D03*
X0134800Y0192256D03*
X0134600Y0192256D03*
X0134400Y0192256D03*
X0134200Y0192256D03*
X0133800Y0192056D03*
X0133600Y0192056D03*
X0133400Y0192056D03*
X0133200Y0192056D03*
X0133000Y0192056D03*
X0232800Y0201056D03*
X0233000Y0201056D03*
X0233200Y0201256D03*
X0233600Y0182456D03*
X0233800Y0182456D03*
X0234000Y0182456D03*
D43*
X0233400Y0182356D03*
X0233200Y0182356D03*
X0231600Y0200356D03*
X0232000Y0200556D03*
X0232200Y0200756D03*
X0232600Y0200956D03*
X0233400Y0201356D03*
X0233600Y0201556D03*
X0233800Y0201556D03*
X0198400Y0173156D03*
X0192400Y0151156D03*
X0194600Y0148556D03*
X0164000Y0127356D03*
X0165800Y0104756D03*
X0166000Y0104756D03*
X0179200Y0088756D03*
X0133800Y0097356D03*
X0133600Y0097356D03*
X0133400Y0097356D03*
X0133200Y0097356D03*
X0133000Y0097356D03*
X0132200Y0083356D03*
X0132000Y0083156D03*
X0131800Y0082956D03*
X0207000Y0118356D03*
X0208400Y0116756D03*
X0235000Y0156356D03*
X0134000Y0192156D03*
X0132800Y0191956D03*
X0132600Y0191956D03*
D44*
X0132400Y0191856D03*
X0132200Y0191856D03*
X0132000Y0191856D03*
X0131800Y0191856D03*
X0131600Y0191856D03*
X0131400Y0191856D03*
X0159600Y0171856D03*
X0181600Y0190456D03*
X0181800Y0190456D03*
X0198200Y0172856D03*
X0198000Y0171856D03*
X0197800Y0171456D03*
X0195800Y0164656D03*
X0195600Y0164456D03*
X0213400Y0172256D03*
X0230600Y0181856D03*
X0230800Y0181856D03*
X0231400Y0182056D03*
X0231600Y0182056D03*
X0232000Y0182256D03*
X0232200Y0182256D03*
X0232400Y0182256D03*
X0232600Y0182256D03*
X0232800Y0182256D03*
X0233000Y0182256D03*
X0222600Y0194056D03*
X0221800Y0193656D03*
X0231800Y0200456D03*
X0232400Y0200856D03*
X0234600Y0156656D03*
X0234800Y0156456D03*
X0163800Y0127056D03*
X0166200Y0104856D03*
X0132800Y0097456D03*
X0132600Y0097456D03*
X0132400Y0083456D03*
D45*
X0132600Y0083556D03*
X0132400Y0097556D03*
X0132200Y0097556D03*
X0132000Y0097556D03*
X0131800Y0097556D03*
X0131600Y0097556D03*
X0131400Y0097556D03*
X0131000Y0097756D03*
X0130200Y0097956D03*
X0130000Y0097956D03*
X0129400Y0098156D03*
X0166400Y0104956D03*
X0173800Y0108356D03*
X0166800Y0114756D03*
X0194800Y0148756D03*
X0197200Y0169356D03*
X0230400Y0181756D03*
X0231000Y0181956D03*
X0231200Y0181956D03*
X0231800Y0182156D03*
X0222200Y0193756D03*
X0222000Y0193756D03*
X0222400Y0193956D03*
X0223200Y0194556D03*
X0231400Y0200156D03*
X0234200Y0156956D03*
X0234400Y0156956D03*
X0131200Y0191756D03*
X0131000Y0191756D03*
X0130800Y0191756D03*
D46*
X0130600Y0191656D03*
X0130400Y0191656D03*
X0130200Y0191456D03*
X0130000Y0191456D03*
X0129800Y0191456D03*
X0129200Y0191256D03*
X0163000Y0162856D03*
X0163200Y0162456D03*
X0210600Y0143656D03*
X0210800Y0143656D03*
X0233800Y0157256D03*
X0234000Y0157056D03*
X0213800Y0162856D03*
X0226400Y0180256D03*
X0226600Y0180256D03*
X0226800Y0180256D03*
X0227200Y0180456D03*
X0227400Y0180656D03*
X0227600Y0180656D03*
X0228200Y0180856D03*
X0229200Y0181256D03*
X0229400Y0181256D03*
X0229600Y0181456D03*
X0229800Y0181456D03*
X0230000Y0181656D03*
X0230200Y0181656D03*
X0221000Y0193056D03*
X0221200Y0193256D03*
X0221600Y0193456D03*
X0222800Y0194256D03*
X0223000Y0194456D03*
X0223400Y0194656D03*
X0223600Y0194856D03*
X0223800Y0194856D03*
X0224000Y0195056D03*
X0231200Y0199856D03*
X0163600Y0126456D03*
X0163400Y0126056D03*
X0166600Y0105056D03*
X0131200Y0097656D03*
X0130800Y0097856D03*
X0130600Y0097856D03*
X0130400Y0097856D03*
X0129800Y0098056D03*
X0129600Y0098056D03*
X0129200Y0098256D03*
X0129000Y0098256D03*
X0128800Y0098256D03*
X0133200Y0084056D03*
X0133000Y0083856D03*
X0132800Y0083656D03*
X0146200Y0069856D03*
X0180000Y0071456D03*
X0208200Y0116656D03*
X0206800Y0118256D03*
D47*
X0206600Y0118156D03*
X0211000Y0143956D03*
X0233400Y0157556D03*
X0233600Y0157356D03*
X0225800Y0179956D03*
X0226000Y0180156D03*
X0226200Y0180156D03*
X0227000Y0180356D03*
X0227800Y0180756D03*
X0228000Y0180756D03*
X0228400Y0180956D03*
X0228600Y0181156D03*
X0228800Y0181156D03*
X0229000Y0181156D03*
X0221400Y0193356D03*
X0224200Y0195156D03*
X0224400Y0195156D03*
X0224600Y0195356D03*
X0225000Y0195556D03*
X0225200Y0195756D03*
X0230400Y0199356D03*
X0230600Y0199356D03*
X0230800Y0199556D03*
X0231000Y0199756D03*
X0197600Y0170756D03*
X0182000Y0190356D03*
X0129600Y0191356D03*
X0129400Y0191356D03*
X0129000Y0191156D03*
X0128800Y0191156D03*
X0128600Y0191156D03*
X0128400Y0191156D03*
X0166800Y0105156D03*
X0134200Y0084756D03*
X0133600Y0084356D03*
X0133400Y0084156D03*
X0128600Y0098356D03*
X0128400Y0098356D03*
X0179800Y0071556D03*
D48*
X0139400Y0089356D03*
X0139200Y0089356D03*
X0138800Y0088956D03*
X0138600Y0088956D03*
X0138400Y0088556D03*
X0138200Y0088556D03*
X0137200Y0087556D03*
X0136600Y0086756D03*
X0136400Y0086756D03*
X0135800Y0086156D03*
X0135600Y0085956D03*
X0135400Y0085756D03*
X0135200Y0085556D03*
X0135000Y0085356D03*
X0134800Y0085356D03*
X0134400Y0084956D03*
X0127600Y0098556D03*
X0127000Y0098756D03*
X0126800Y0098956D03*
X0126600Y0098956D03*
X0126400Y0098956D03*
X0126200Y0098956D03*
X0126000Y0098956D03*
X0167000Y0105356D03*
X0167200Y0105356D03*
X0167400Y0105356D03*
X0166600Y0114756D03*
X0153000Y0129556D03*
X0162600Y0163756D03*
X0182800Y0189956D03*
X0183000Y0189956D03*
X0183200Y0189956D03*
X0183400Y0189756D03*
X0183800Y0189556D03*
X0184000Y0189556D03*
X0184200Y0189356D03*
X0184400Y0189356D03*
X0184800Y0189156D03*
X0213200Y0172156D03*
X0225000Y0179556D03*
X0225200Y0179556D03*
X0220600Y0192756D03*
X0225600Y0195956D03*
X0226200Y0196356D03*
X0226400Y0196356D03*
X0226600Y0196556D03*
X0226800Y0196756D03*
X0227000Y0196756D03*
X0227200Y0196956D03*
X0227400Y0196956D03*
X0227600Y0197156D03*
X0227800Y0197156D03*
X0228000Y0197356D03*
X0228400Y0197756D03*
X0228600Y0197756D03*
X0228800Y0197956D03*
X0229000Y0198156D03*
X0229600Y0198556D03*
X0230000Y0198956D03*
X0214000Y0163156D03*
X0232800Y0158156D03*
X0233200Y0157756D03*
X0213400Y0146556D03*
X0211200Y0144156D03*
X0127200Y0190756D03*
X0127000Y0190556D03*
X0126800Y0190556D03*
X0126000Y0190356D03*
D49*
X0127400Y0190856D03*
X0127600Y0190856D03*
X0127800Y0190856D03*
X0128000Y0191056D03*
X0128200Y0191056D03*
X0162800Y0163456D03*
X0196000Y0165256D03*
X0197400Y0170256D03*
X0182600Y0190056D03*
X0182400Y0190256D03*
X0182200Y0190256D03*
X0220800Y0192856D03*
X0224800Y0195456D03*
X0225400Y0195856D03*
X0225800Y0196056D03*
X0226000Y0196256D03*
X0228200Y0197656D03*
X0229200Y0198256D03*
X0229400Y0198456D03*
X0229800Y0198656D03*
X0230200Y0199056D03*
X0225600Y0179856D03*
X0225400Y0179856D03*
X0233000Y0158056D03*
X0213200Y0146256D03*
X0195000Y0148856D03*
X0206400Y0118256D03*
X0208000Y0116656D03*
X0134600Y0085056D03*
X0134000Y0084656D03*
X0133800Y0084456D03*
X0128200Y0098456D03*
X0128000Y0098456D03*
X0127800Y0098456D03*
X0127400Y0098656D03*
X0127200Y0098656D03*
X0146400Y0070056D03*
X0086200Y0144856D03*
D50*
X0125000Y0190056D03*
X0125200Y0190056D03*
X0125800Y0190256D03*
X0126200Y0190456D03*
X0126400Y0190456D03*
X0126600Y0190456D03*
X0183600Y0189656D03*
X0184600Y0189256D03*
X0185000Y0189056D03*
X0185400Y0188856D03*
X0185600Y0188656D03*
X0185800Y0188656D03*
X0186000Y0188456D03*
X0186200Y0188456D03*
X0186400Y0188456D03*
X0220400Y0192656D03*
X0196200Y0165456D03*
X0192600Y0151456D03*
X0211400Y0144256D03*
X0212000Y0144856D03*
X0213000Y0145856D03*
X0232200Y0158656D03*
X0232600Y0158456D03*
X0166400Y0114656D03*
X0174000Y0108456D03*
X0139600Y0089456D03*
X0139000Y0089256D03*
X0138000Y0088456D03*
X0137800Y0088056D03*
X0137600Y0088056D03*
X0137400Y0087656D03*
X0137000Y0087256D03*
X0136800Y0087056D03*
X0136200Y0086656D03*
X0136000Y0086256D03*
X0125800Y0099056D03*
X0125600Y0099256D03*
X0125400Y0099256D03*
X0125000Y0099456D03*
D51*
X0124800Y0099556D03*
X0124600Y0099556D03*
X0124400Y0099556D03*
X0124200Y0099556D03*
X0125200Y0099356D03*
X0139800Y0089756D03*
X0140200Y0089956D03*
X0206200Y0118156D03*
X0211800Y0144756D03*
X0212200Y0144956D03*
X0212400Y0145356D03*
X0212600Y0145356D03*
X0212800Y0145756D03*
X0231600Y0159356D03*
X0231800Y0159156D03*
X0232000Y0158956D03*
X0232400Y0158556D03*
X0224800Y0179356D03*
X0224600Y0179356D03*
X0188800Y0187556D03*
X0188600Y0187556D03*
X0188400Y0187556D03*
X0188200Y0187756D03*
X0188000Y0187756D03*
X0187800Y0187956D03*
X0187600Y0187956D03*
X0187400Y0187956D03*
X0187200Y0188156D03*
X0187000Y0188156D03*
X0186800Y0188356D03*
X0186600Y0188356D03*
X0185200Y0188956D03*
X0162400Y0164756D03*
X0125600Y0190156D03*
X0125400Y0190156D03*
X0124800Y0189956D03*
X0124400Y0189756D03*
X0124200Y0189756D03*
D52*
X0124000Y0189656D03*
X0123800Y0189656D03*
X0123400Y0189456D03*
X0124600Y0189856D03*
X0189000Y0187456D03*
X0189200Y0187256D03*
X0189400Y0187256D03*
X0189600Y0187056D03*
X0189800Y0187056D03*
X0190000Y0187056D03*
X0231400Y0159456D03*
X0211600Y0144456D03*
X0206000Y0118256D03*
X0174200Y0108456D03*
X0167600Y0105456D03*
X0166200Y0114656D03*
X0140400Y0090256D03*
X0140000Y0089856D03*
X0124000Y0099656D03*
X0123800Y0099856D03*
X0123400Y0100056D03*
X0123200Y0100056D03*
X0146600Y0070456D03*
X0179600Y0071656D03*
D53*
X0179400Y0071756D03*
X0146800Y0070556D03*
X0140600Y0090356D03*
X0123600Y0099956D03*
X0123000Y0100156D03*
X0122800Y0100156D03*
X0122400Y0100356D03*
X0167800Y0105556D03*
X0231200Y0159956D03*
X0214200Y0163556D03*
X0190200Y0186956D03*
X0220200Y0192356D03*
X0162200Y0164956D03*
X0162000Y0165356D03*
X0123600Y0189556D03*
X0123200Y0189356D03*
X0123000Y0189156D03*
X0122800Y0189156D03*
D54*
X0122600Y0189056D03*
X0122400Y0189056D03*
X0122200Y0189056D03*
X0122000Y0188856D03*
X0121600Y0188656D03*
X0190400Y0186856D03*
X0224400Y0179056D03*
X0228400Y0163256D03*
X0228800Y0162856D03*
X0229200Y0162456D03*
X0229600Y0161856D03*
X0230600Y0160656D03*
X0230800Y0160456D03*
X0231000Y0160056D03*
X0215200Y0150456D03*
X0174600Y0108456D03*
X0174400Y0108456D03*
X0141000Y0090856D03*
X0140800Y0090656D03*
X0122600Y0100256D03*
X0122200Y0100456D03*
X0121800Y0100656D03*
X0121400Y0100856D03*
D55*
X0120400Y0101256D03*
X0120200Y0101456D03*
X0120000Y0101456D03*
X0165800Y0114656D03*
X0168000Y0105856D03*
X0205400Y0118256D03*
X0205600Y0118256D03*
X0213600Y0147856D03*
X0214200Y0149056D03*
X0214800Y0149856D03*
X0229800Y0161656D03*
X0230400Y0160856D03*
X0228200Y0163456D03*
X0227800Y0163656D03*
X0227600Y0163856D03*
X0195200Y0149456D03*
X0161800Y0166256D03*
X0161600Y0166656D03*
X0159800Y0171656D03*
X0190600Y0186456D03*
X0121200Y0188456D03*
X0121000Y0188456D03*
X0120800Y0188456D03*
X0120600Y0188256D03*
X0120400Y0188256D03*
X0120200Y0188056D03*
X0120000Y0187856D03*
X0147200Y0071056D03*
D56*
X0147000Y0070756D03*
X0179200Y0071956D03*
X0122000Y0100556D03*
X0121600Y0100756D03*
X0121200Y0100956D03*
X0121000Y0100956D03*
X0120800Y0100956D03*
X0120600Y0101156D03*
X0166000Y0114556D03*
X0153200Y0129156D03*
X0205800Y0118156D03*
X0215000Y0150356D03*
X0215400Y0150756D03*
X0229000Y0162556D03*
X0228600Y0162956D03*
X0228000Y0163556D03*
X0229400Y0162156D03*
X0230000Y0161356D03*
X0230200Y0161156D03*
X0214400Y0163756D03*
X0121800Y0188756D03*
X0121400Y0188556D03*
D57*
X0119800Y0187756D03*
X0195400Y0149556D03*
X0213800Y0148156D03*
X0214000Y0148556D03*
X0214600Y0149756D03*
X0214600Y0164156D03*
X0227200Y0163956D03*
X0227400Y0163956D03*
X0205200Y0118356D03*
X0168200Y0105956D03*
X0165600Y0114756D03*
X0141400Y0091356D03*
X0141200Y0091156D03*
X0147400Y0071156D03*
X0179000Y0071956D03*
D58*
X0142000Y0091856D03*
X0141800Y0091656D03*
X0141600Y0091656D03*
X0146200Y0096456D03*
X0146400Y0096656D03*
X0146800Y0097056D03*
X0119800Y0101656D03*
X0119600Y0101656D03*
X0119400Y0101656D03*
X0119200Y0101856D03*
X0118800Y0102056D03*
X0174800Y0108456D03*
X0205000Y0118256D03*
X0214400Y0149256D03*
X0226000Y0164856D03*
X0226400Y0164656D03*
X0226600Y0164456D03*
X0226800Y0164256D03*
X0227000Y0164256D03*
X0190800Y0186256D03*
X0119600Y0187656D03*
X0119400Y0187656D03*
X0119200Y0187656D03*
X0119000Y0187456D03*
X0118800Y0187256D03*
X0118600Y0187256D03*
D59*
X0118400Y0187156D03*
X0118200Y0186956D03*
X0118000Y0186956D03*
X0117800Y0186756D03*
X0117600Y0186756D03*
X0196400Y0166356D03*
X0213000Y0171556D03*
X0214800Y0164356D03*
X0225400Y0165356D03*
X0225800Y0165156D03*
X0226200Y0164756D03*
X0207200Y0186956D03*
X0207000Y0186956D03*
X0206800Y0186956D03*
X0206600Y0186956D03*
X0206400Y0186956D03*
X0206200Y0186956D03*
X0206000Y0186956D03*
X0205800Y0186956D03*
X0205600Y0186956D03*
X0205400Y0186956D03*
X0205200Y0186956D03*
X0205000Y0186956D03*
X0204800Y0186956D03*
X0204600Y0186956D03*
X0204400Y0186956D03*
X0204200Y0186956D03*
X0119000Y0101956D03*
X0118600Y0102156D03*
X0118000Y0102556D03*
X0142200Y0092156D03*
X0145600Y0095756D03*
X0146000Y0096156D03*
X0146600Y0096956D03*
X0147000Y0097356D03*
X0147600Y0071356D03*
X0178800Y0071956D03*
D60*
X0147800Y0071656D03*
X0142400Y0092256D03*
X0142600Y0092656D03*
X0142800Y0092856D03*
X0143000Y0093056D03*
X0143200Y0093256D03*
X0145000Y0095056D03*
X0145200Y0095256D03*
X0145800Y0096056D03*
X0147200Y0097856D03*
X0168400Y0106256D03*
X0165400Y0114656D03*
X0204800Y0118256D03*
X0195600Y0149656D03*
X0216000Y0152456D03*
X0216200Y0152656D03*
X0225600Y0165256D03*
X0225200Y0165656D03*
X0225000Y0165856D03*
X0224800Y0166256D03*
X0207800Y0186856D03*
X0207600Y0186856D03*
X0207400Y0186856D03*
X0204000Y0186856D03*
X0203800Y0186856D03*
X0203600Y0186856D03*
X0203400Y0186856D03*
X0203200Y0186856D03*
X0196600Y0166456D03*
X0160000Y0171256D03*
X0117400Y0186656D03*
X0117200Y0102856D03*
X0117800Y0102656D03*
X0118200Y0102456D03*
X0118400Y0102256D03*
D61*
X0117600Y0102756D03*
X0117400Y0102756D03*
X0117000Y0103156D03*
X0116800Y0103156D03*
X0116600Y0103356D03*
X0143800Y0093756D03*
X0144000Y0094156D03*
X0144200Y0094156D03*
X0144400Y0094556D03*
X0144600Y0094756D03*
X0144800Y0094956D03*
X0145400Y0095556D03*
X0168600Y0106356D03*
X0175000Y0108556D03*
X0165200Y0114556D03*
X0204400Y0118156D03*
X0204600Y0118156D03*
X0215600Y0151956D03*
X0215800Y0152156D03*
X0224600Y0166556D03*
X0212800Y0171556D03*
X0209000Y0186756D03*
X0208800Y0186756D03*
X0208600Y0186756D03*
X0208400Y0186756D03*
X0208200Y0186756D03*
X0208000Y0186756D03*
X0191000Y0185756D03*
X0161400Y0167556D03*
X0117200Y0186556D03*
X0117000Y0186356D03*
X0116800Y0186156D03*
X0148000Y0071956D03*
X0178400Y0072356D03*
D62*
X0178200Y0072556D03*
X0177600Y0073156D03*
X0148200Y0072156D03*
X0147600Y0098556D03*
X0168800Y0106756D03*
X0204000Y0118156D03*
X0224400Y0166956D03*
X0209400Y0186556D03*
X0202600Y0186756D03*
X0202400Y0186756D03*
X0191200Y0185556D03*
X0160200Y0171156D03*
X0116400Y0185956D03*
X0116000Y0185756D03*
X0115400Y0185356D03*
X0115400Y0103956D03*
X0115600Y0103956D03*
X0115800Y0103756D03*
D63*
X0101200Y0119356D03*
X0101000Y0119556D03*
X0165200Y0096956D03*
X0170200Y0089556D03*
X0101000Y0169756D03*
X0224200Y0172756D03*
D64*
X0224000Y0159756D03*
X0194400Y0163556D03*
X0129000Y0081756D03*
D65*
X0164800Y0096956D03*
X0209600Y0168956D03*
X0209800Y0168956D03*
X0224000Y0172956D03*
D66*
X0223800Y0172856D03*
X0223600Y0172856D03*
X0198600Y0154056D03*
X0101400Y0118856D03*
X0170000Y0089656D03*
D67*
X0169800Y0089756D03*
X0164600Y0097156D03*
X0150000Y0104956D03*
X0101400Y0170556D03*
X0210000Y0168956D03*
X0223400Y0172956D03*
D68*
X0223200Y0170756D03*
X0208600Y0167556D03*
X0099800Y0122556D03*
D69*
X0099600Y0122956D03*
X0223000Y0170556D03*
D70*
X0222800Y0170256D03*
X0152800Y0106856D03*
X0152600Y0106856D03*
D71*
X0200400Y0156856D03*
X0208200Y0167256D03*
X0222400Y0170056D03*
X0222600Y0170056D03*
D72*
X0222200Y0169856D03*
X0153200Y0107256D03*
D73*
X0222000Y0169756D03*
D74*
X0221800Y0169656D03*
X0099400Y0165456D03*
X0087800Y0144656D03*
X0099400Y0123856D03*
D75*
X0099200Y0124256D03*
X0221600Y0169456D03*
D76*
X0221400Y0169356D03*
X0207800Y0166556D03*
X0200800Y0157556D03*
X0099200Y0164956D03*
D77*
X0221200Y0169156D03*
D78*
X0221000Y0169056D03*
X0173600Y0088856D03*
D79*
X0099000Y0163956D03*
X0220600Y0168956D03*
X0220800Y0168956D03*
D80*
X0220400Y0159456D03*
X0196800Y0166656D03*
X0191400Y0185456D03*
X0202000Y0186656D03*
X0202200Y0186656D03*
X0115200Y0185256D03*
X0203800Y0118256D03*
X0176200Y0109456D03*
X0169600Y0106856D03*
X0169000Y0106856D03*
X0165000Y0114656D03*
X0115200Y0104056D03*
X0115000Y0104256D03*
X0114800Y0104456D03*
X0114400Y0104656D03*
X0114200Y0104856D03*
X0177200Y0073656D03*
X0177400Y0073256D03*
X0177800Y0073056D03*
D81*
X0167600Y0091156D03*
X0220400Y0174756D03*
X0214600Y0184556D03*
D82*
X0220200Y0169056D03*
X0206800Y0164856D03*
D83*
X0220000Y0174956D03*
D84*
X0212000Y0185956D03*
X0211800Y0185956D03*
X0199400Y0185956D03*
X0192400Y0184156D03*
X0219800Y0159156D03*
X0199200Y0117156D03*
X0199000Y0117156D03*
X0198600Y0116956D03*
X0198400Y0116956D03*
X0198200Y0116956D03*
X0197600Y0116556D03*
X0197400Y0116556D03*
X0197200Y0116356D03*
X0197000Y0116356D03*
X0196000Y0115956D03*
X0195800Y0115756D03*
X0192600Y0114156D03*
X0190000Y0113756D03*
X0178400Y0109556D03*
X0178200Y0109556D03*
X0176000Y0108356D03*
X0148400Y0100156D03*
X0149000Y0073956D03*
X0111200Y0107156D03*
X0111000Y0107356D03*
X0110600Y0107756D03*
X0110600Y0181756D03*
X0110800Y0181956D03*
X0111000Y0182156D03*
D85*
X0201400Y0158856D03*
X0207200Y0165456D03*
X0219800Y0181656D03*
X0099000Y0125656D03*
D86*
X0219600Y0174456D03*
D87*
X0219400Y0173956D03*
D88*
X0219200Y0173856D03*
D89*
X0219000Y0173456D03*
X0160000Y0108256D03*
D90*
X0091400Y0144556D03*
X0218600Y0173156D03*
X0218800Y0173356D03*
D91*
X0218400Y0172856D03*
D92*
X0218200Y0172756D03*
X0159800Y0108356D03*
X0091600Y0144756D03*
D93*
X0217800Y0172456D03*
X0218000Y0172456D03*
D94*
X0217600Y0172156D03*
D95*
X0217400Y0172056D03*
X0217200Y0171856D03*
X0216800Y0171656D03*
D96*
X0217000Y0171756D03*
X0216400Y0171356D03*
X0159600Y0108356D03*
D97*
X0159400Y0108456D03*
X0216600Y0171456D03*
D98*
X0216200Y0176656D03*
D99*
X0216000Y0176656D03*
X0089200Y0144656D03*
D100*
X0215800Y0176756D03*
D101*
X0215600Y0176656D03*
X0204200Y0162856D03*
D102*
X0204800Y0163256D03*
X0215000Y0176656D03*
X0215200Y0176656D03*
X0215400Y0176656D03*
D103*
X0211200Y0169256D03*
X0214800Y0184456D03*
X0103000Y0116256D03*
X0168000Y0090856D03*
D104*
X0167200Y0091556D03*
X0104200Y0114356D03*
X0104200Y0174956D03*
X0196000Y0182956D03*
X0214400Y0184556D03*
D105*
X0214200Y0184656D03*
X0195800Y0182856D03*
X0195600Y0182856D03*
X0104400Y0175256D03*
X0104400Y0114256D03*
X0167000Y0091656D03*
D106*
X0105800Y0112356D03*
X0105400Y0112756D03*
X0197200Y0151956D03*
X0195000Y0182756D03*
X0194800Y0182756D03*
X0194600Y0182756D03*
X0214000Y0185156D03*
X0105800Y0176956D03*
X0105600Y0176756D03*
X0105400Y0176556D03*
D107*
X0195600Y0114156D03*
X0176000Y0092756D03*
X0175000Y0093556D03*
X0166200Y0092556D03*
X0106200Y0111956D03*
X0106000Y0112156D03*
X0213800Y0185156D03*
D108*
X0213600Y0185256D03*
X0194400Y0182856D03*
X0194200Y0182856D03*
X0180600Y0144856D03*
X0180400Y0144856D03*
X0180200Y0144856D03*
X0149200Y0101856D03*
X0166000Y0092856D03*
X0174200Y0093656D03*
X0174400Y0093656D03*
X0174600Y0093656D03*
X0174800Y0093656D03*
X0175400Y0093056D03*
X0175800Y0092856D03*
X0176200Y0092656D03*
X0176400Y0092656D03*
X0176600Y0092456D03*
X0176800Y0092456D03*
X0177000Y0092456D03*
X0151400Y0078056D03*
X0151000Y0077456D03*
X0106000Y0177256D03*
X0106200Y0177456D03*
D109*
X0107000Y0178356D03*
X0179400Y0144956D03*
X0179600Y0144956D03*
X0181400Y0144956D03*
X0196800Y0151356D03*
X0211800Y0170556D03*
X0194000Y0182956D03*
X0197600Y0184756D03*
X0213400Y0185156D03*
X0153600Y0082756D03*
X0153200Y0081556D03*
X0152800Y0080556D03*
X0150000Y0075956D03*
X0149800Y0075756D03*
D110*
X0149600Y0075356D03*
X0149400Y0075156D03*
X0178200Y0092156D03*
X0107800Y0110156D03*
X0107200Y0110756D03*
X0086600Y0144756D03*
X0107200Y0178756D03*
X0107600Y0178956D03*
X0213200Y0185356D03*
D111*
X0213000Y0185556D03*
X0198400Y0185356D03*
X0198200Y0185356D03*
X0108400Y0179756D03*
X0108000Y0179356D03*
X0108400Y0109556D03*
X0148800Y0100956D03*
X0178400Y0091956D03*
X0178600Y0091956D03*
X0178800Y0091956D03*
D112*
X0179000Y0092056D03*
X0180000Y0110256D03*
X0180200Y0110456D03*
X0180400Y0110456D03*
X0108800Y0109256D03*
X0212200Y0170856D03*
X0193400Y0183456D03*
X0198600Y0185456D03*
X0212800Y0185656D03*
X0108600Y0180056D03*
D113*
X0114600Y0184756D03*
X0114800Y0184956D03*
X0115000Y0185156D03*
X0160400Y0170756D03*
X0195800Y0149956D03*
X0212600Y0171556D03*
X0210000Y0186556D03*
X0209800Y0186556D03*
X0209600Y0186556D03*
X0201800Y0186556D03*
X0201600Y0186556D03*
X0201400Y0186556D03*
X0203200Y0118156D03*
X0203400Y0118156D03*
X0203600Y0118156D03*
X0176400Y0109556D03*
X0169800Y0106956D03*
X0169400Y0106956D03*
X0169200Y0106956D03*
X0164800Y0114556D03*
X0147800Y0098756D03*
X0114600Y0104556D03*
X0114000Y0104956D03*
X0148400Y0072556D03*
X0177000Y0073956D03*
D114*
X0179800Y0110156D03*
X0180600Y0110356D03*
X0180800Y0110356D03*
X0182800Y0111156D03*
X0183000Y0111156D03*
X0184800Y0111956D03*
X0196400Y0150956D03*
X0193200Y0183556D03*
X0212600Y0185756D03*
X0109600Y0180956D03*
X0109400Y0180756D03*
X0109200Y0180556D03*
X0109000Y0180356D03*
X0108800Y0180156D03*
X0108600Y0109356D03*
X0109000Y0108956D03*
D115*
X0111600Y0106856D03*
X0112000Y0106456D03*
X0112200Y0106256D03*
X0148200Y0099656D03*
X0164200Y0114456D03*
X0175800Y0108456D03*
X0177800Y0109456D03*
X0201000Y0117856D03*
X0201200Y0117856D03*
X0201400Y0117856D03*
X0201600Y0117856D03*
X0212400Y0171256D03*
X0211400Y0186056D03*
X0200400Y0186256D03*
X0200200Y0186256D03*
X0192200Y0184456D03*
X0192000Y0184656D03*
X0160800Y0170056D03*
X0111800Y0182856D03*
X0111600Y0182656D03*
D116*
X0109800Y0181056D03*
X0181600Y0145056D03*
X0188400Y0113456D03*
X0188600Y0113456D03*
X0188200Y0113256D03*
X0188000Y0113256D03*
X0187800Y0113056D03*
X0187600Y0113056D03*
X0187400Y0113056D03*
X0187200Y0112856D03*
X0186600Y0112456D03*
X0186400Y0112456D03*
X0186200Y0112456D03*
X0186000Y0112456D03*
X0185800Y0112256D03*
X0185600Y0112256D03*
X0185400Y0112056D03*
X0185200Y0112056D03*
X0185000Y0112056D03*
X0184600Y0111856D03*
X0184400Y0111656D03*
X0184200Y0111656D03*
X0184000Y0111656D03*
X0183800Y0111656D03*
X0183600Y0111456D03*
X0183400Y0111456D03*
X0183200Y0111256D03*
X0182600Y0111056D03*
X0182400Y0111056D03*
X0182200Y0110856D03*
X0181600Y0110656D03*
X0181200Y0110456D03*
X0181000Y0110456D03*
X0179400Y0109856D03*
X0170600Y0108056D03*
X0170400Y0108056D03*
X0149200Y0074456D03*
X0109600Y0108456D03*
X0109400Y0108656D03*
X0109200Y0108856D03*
X0193000Y0183656D03*
X0198800Y0185656D03*
X0212400Y0185856D03*
D117*
X0212200Y0185856D03*
X0199200Y0185856D03*
X0110400Y0181656D03*
X0110200Y0181456D03*
X0110000Y0181256D03*
X0189200Y0113656D03*
X0189400Y0113656D03*
X0189600Y0113656D03*
X0189800Y0113656D03*
X0179000Y0109656D03*
X0178800Y0109656D03*
X0178600Y0109656D03*
X0110400Y0107856D03*
X0110200Y0108056D03*
D118*
X0108200Y0109656D03*
X0108000Y0110056D03*
X0179200Y0144856D03*
X0196600Y0151256D03*
X0212000Y0170656D03*
X0193600Y0183256D03*
X0108200Y0179656D03*
X0107800Y0179256D03*
D119*
X0168800Y0151556D03*
X0211800Y0159156D03*
D120*
X0197000Y0151856D03*
X0211600Y0170256D03*
X0195400Y0114056D03*
X0166400Y0092456D03*
X0105600Y0112656D03*
D121*
X0110800Y0107456D03*
X0175600Y0077056D03*
X0176400Y0075856D03*
X0190200Y0113856D03*
X0190400Y0113856D03*
X0190600Y0113856D03*
X0190800Y0113856D03*
X0191200Y0114056D03*
X0192400Y0114256D03*
X0196200Y0116056D03*
X0196400Y0116056D03*
X0196600Y0116256D03*
X0196800Y0116256D03*
X0197800Y0116656D03*
X0198000Y0116656D03*
X0198800Y0117056D03*
X0199400Y0117256D03*
X0199600Y0117456D03*
X0199800Y0117456D03*
X0200000Y0117456D03*
X0200200Y0117456D03*
X0200400Y0117656D03*
X0196200Y0150456D03*
X0199600Y0186056D03*
X0199800Y0186056D03*
X0211600Y0186056D03*
X0111200Y0182256D03*
D122*
X0104800Y0175656D03*
X0196600Y0183456D03*
X0211400Y0170056D03*
X0104800Y0113656D03*
X0105000Y0113256D03*
X0166800Y0091856D03*
D123*
X0174800Y0078356D03*
X0175000Y0078156D03*
X0175200Y0077756D03*
X0175400Y0077556D03*
X0176600Y0075156D03*
X0177400Y0109556D03*
X0177600Y0109556D03*
X0164400Y0114556D03*
X0201800Y0117956D03*
X0202000Y0117956D03*
X0196000Y0150356D03*
X0200600Y0186356D03*
X0211000Y0186156D03*
X0211200Y0186156D03*
X0112600Y0183556D03*
X0112400Y0183356D03*
X0112200Y0183156D03*
X0112000Y0182956D03*
X0112400Y0106156D03*
X0112600Y0105956D03*
D124*
X0102800Y0116556D03*
X0168200Y0090756D03*
X0211000Y0169156D03*
X0103000Y0173156D03*
X0102800Y0172956D03*
D125*
X0102200Y0172156D03*
X0197800Y0153756D03*
X0210800Y0169156D03*
X0149800Y0104356D03*
D126*
X0175400Y0108356D03*
X0176800Y0109356D03*
X0177000Y0109356D03*
X0202800Y0118156D03*
X0203000Y0118156D03*
X0174600Y0078556D03*
X0113400Y0105356D03*
X0113000Y0105756D03*
X0197000Y0166956D03*
X0191800Y0184956D03*
X0191600Y0184956D03*
X0201000Y0186356D03*
X0210600Y0186356D03*
X0210800Y0186356D03*
X0161000Y0169556D03*
X0160600Y0170556D03*
X0113600Y0184156D03*
D127*
X0197400Y0153856D03*
X0197600Y0153856D03*
X0198000Y0153856D03*
X0210600Y0169056D03*
X0169000Y0090256D03*
X0168800Y0090256D03*
D128*
X0169400Y0089956D03*
X0198200Y0153756D03*
X0210200Y0168956D03*
X0210400Y0168956D03*
D129*
X0210400Y0186456D03*
X0210200Y0186456D03*
X0201200Y0186456D03*
X0114400Y0184656D03*
X0114200Y0184656D03*
X0114000Y0184456D03*
X0113800Y0184256D03*
X0176600Y0109456D03*
X0175200Y0108256D03*
X0148600Y0072856D03*
X0113800Y0105056D03*
X0113600Y0105256D03*
D130*
X0165400Y0096956D03*
X0170400Y0089556D03*
X0199000Y0154556D03*
X0209400Y0168756D03*
D131*
X0159200Y0171656D03*
X0209200Y0116656D03*
X0198800Y0093256D03*
X0142000Y0099456D03*
D132*
X0150600Y0105756D03*
X0165600Y0096756D03*
X0100800Y0120156D03*
X0100800Y0169156D03*
X0209200Y0168556D03*
D133*
X0209200Y0186656D03*
X0203000Y0186856D03*
X0202800Y0186856D03*
X0161200Y0168056D03*
X0116600Y0186056D03*
X0116200Y0185856D03*
X0115800Y0185656D03*
X0115600Y0185456D03*
X0204200Y0118256D03*
X0147400Y0098056D03*
X0143600Y0093656D03*
X0143400Y0093456D03*
X0116400Y0103456D03*
X0116200Y0103456D03*
X0116000Y0103656D03*
X0178000Y0072656D03*
X0178600Y0072256D03*
D134*
X0196600Y0093156D03*
X0196800Y0093156D03*
X0179600Y0095556D03*
X0173000Y0108556D03*
X0172200Y0112356D03*
X0168200Y0115356D03*
X0140000Y0098156D03*
X0209000Y0116756D03*
X0164400Y0186156D03*
X0163800Y0186356D03*
X0163600Y0186556D03*
X0163200Y0186756D03*
X0163000Y0186956D03*
X0162600Y0187156D03*
X0162000Y0187356D03*
X0161800Y0187556D03*
X0180400Y0190756D03*
D135*
X0209000Y0168256D03*
X0151000Y0106256D03*
X0087400Y0144656D03*
D136*
X0208800Y0167756D03*
D137*
X0208400Y0167456D03*
X0099600Y0166456D03*
D138*
X0200600Y0157356D03*
X0208000Y0166756D03*
D139*
X0202000Y0179056D03*
X0203200Y0179656D03*
X0203600Y0179856D03*
X0181400Y0169256D03*
X0168400Y0152056D03*
X0207600Y0112656D03*
X0207200Y0112256D03*
X0196000Y0107056D03*
X0181800Y0101056D03*
X0181600Y0101056D03*
X0181400Y0101056D03*
X0181200Y0101056D03*
X0181000Y0101056D03*
X0179000Y0101056D03*
X0178800Y0101056D03*
X0141600Y0099256D03*
D140*
X0172600Y0090156D03*
X0172800Y0090156D03*
X0173000Y0089556D03*
X0207600Y0166156D03*
D141*
X0207400Y0165856D03*
X0172400Y0090656D03*
X0173800Y0088456D03*
X0174000Y0088256D03*
D142*
X0088400Y0144656D03*
X0201800Y0159256D03*
X0207000Y0165056D03*
D143*
X0206600Y0164656D03*
D144*
X0206400Y0164456D03*
X0202200Y0160256D03*
X0098800Y0162256D03*
D145*
X0206200Y0164156D03*
D146*
X0206000Y0164156D03*
X0204000Y0161756D03*
X0203800Y0161556D03*
X0203600Y0161356D03*
X0203200Y0160956D03*
X0088800Y0144756D03*
D147*
X0205600Y0163756D03*
X0205800Y0163756D03*
D148*
X0205400Y0163556D03*
X0163400Y0104356D03*
D149*
X0205200Y0163456D03*
D150*
X0205000Y0163356D03*
D151*
X0169200Y0137156D03*
X0201600Y0109156D03*
X0203800Y0109956D03*
X0204600Y0110356D03*
D152*
X0204400Y0162956D03*
X0204600Y0163156D03*
D153*
X0203400Y0161256D03*
X0203000Y0160656D03*
X0202800Y0160656D03*
D154*
X0200800Y0186456D03*
X0113400Y0184056D03*
X0113200Y0183856D03*
X0113000Y0183656D03*
X0112800Y0183656D03*
X0202200Y0118056D03*
X0202400Y0118056D03*
X0202600Y0118056D03*
X0177200Y0109456D03*
X0175600Y0108456D03*
X0170000Y0107256D03*
X0164600Y0114656D03*
X0148000Y0099456D03*
X0174200Y0079056D03*
X0174400Y0078856D03*
X0176800Y0074656D03*
X0148800Y0073256D03*
X0113200Y0105456D03*
X0112800Y0105856D03*
D155*
X0098800Y0127256D03*
X0202600Y0160456D03*
D156*
X0202400Y0160356D03*
X0088600Y0144756D03*
D157*
X0202000Y0159756D03*
D158*
X0201600Y0159056D03*
D159*
X0201200Y0158356D03*
X0173200Y0089356D03*
X0173400Y0088956D03*
D160*
X0201000Y0158056D03*
D161*
X0200000Y0186156D03*
X0111400Y0182556D03*
X0200600Y0117756D03*
X0200800Y0117756D03*
X0192200Y0114356D03*
X0192000Y0114356D03*
X0191800Y0114356D03*
X0191600Y0114356D03*
X0191400Y0114156D03*
X0191000Y0113956D03*
X0178000Y0109556D03*
X0164000Y0114556D03*
X0111800Y0106556D03*
X0111400Y0106956D03*
X0175800Y0076756D03*
X0176000Y0076556D03*
X0176200Y0076156D03*
D162*
X0200200Y0156556D03*
D163*
X0200000Y0156056D03*
D164*
X0199800Y0155856D03*
X0099800Y0167056D03*
X0087600Y0144656D03*
D165*
X0100000Y0121856D03*
X0151800Y0106656D03*
X0152000Y0106656D03*
X0199600Y0155656D03*
D166*
X0199400Y0155356D03*
X0151200Y0106356D03*
D167*
X0150800Y0106056D03*
X0199200Y0155056D03*
D168*
X0192800Y0183756D03*
X0192600Y0183956D03*
X0199000Y0185756D03*
X0086400Y0144756D03*
X0109800Y0108356D03*
X0110000Y0108156D03*
X0148600Y0100556D03*
X0170200Y0107956D03*
X0179200Y0109756D03*
X0179600Y0109956D03*
X0181400Y0110556D03*
X0181800Y0110756D03*
X0182000Y0110756D03*
X0186800Y0112556D03*
X0187000Y0112756D03*
X0188800Y0113556D03*
X0189000Y0113556D03*
D169*
X0150200Y0105456D03*
X0198800Y0154456D03*
D170*
X0198400Y0153856D03*
X0164400Y0097056D03*
X0169600Y0089856D03*
X0101600Y0118456D03*
X0101600Y0170856D03*
D171*
X0167600Y0153156D03*
X0168200Y0135756D03*
X0140800Y0098756D03*
X0198000Y0093156D03*
X0175600Y0176956D03*
X0173800Y0178756D03*
X0172800Y0179956D03*
X0172600Y0179956D03*
X0172400Y0180156D03*
X0172200Y0180356D03*
X0172000Y0180556D03*
X0171800Y0180756D03*
X0171400Y0181156D03*
D172*
X0193800Y0183056D03*
X0197800Y0185056D03*
X0198000Y0185056D03*
X0107400Y0178856D03*
X0107400Y0110656D03*
X0107600Y0110456D03*
X0149000Y0101456D03*
X0178000Y0092256D03*
X0153400Y0082256D03*
X0153000Y0081256D03*
D173*
X0152600Y0080256D03*
X0152400Y0079656D03*
X0152000Y0078856D03*
X0151800Y0078656D03*
X0150200Y0076456D03*
X0153800Y0083056D03*
X0177400Y0092256D03*
X0177600Y0092256D03*
X0177800Y0092256D03*
X0107000Y0111056D03*
X0106800Y0111256D03*
X0179800Y0144856D03*
X0181000Y0144856D03*
X0181200Y0144856D03*
X0197400Y0184656D03*
X0106800Y0178056D03*
X0106600Y0177856D03*
D174*
X0197200Y0184056D03*
X0195200Y0113856D03*
X0194400Y0113456D03*
X0193600Y0113056D03*
X0193400Y0113056D03*
X0166600Y0092056D03*
X0105200Y0113056D03*
D175*
X0192800Y0112756D03*
X0193000Y0112956D03*
X0193200Y0112956D03*
X0193800Y0113156D03*
X0194000Y0113156D03*
X0194200Y0113356D03*
X0194600Y0113556D03*
X0194800Y0113556D03*
X0195000Y0113556D03*
X0105200Y0176356D03*
X0105000Y0176156D03*
X0195200Y0182756D03*
X0197000Y0183956D03*
D176*
X0196800Y0183556D03*
X0195400Y0182756D03*
X0104600Y0175556D03*
X0104600Y0113756D03*
X0149400Y0102956D03*
D177*
X0167400Y0091456D03*
X0103800Y0174656D03*
X0104000Y0174856D03*
X0196200Y0183056D03*
X0196400Y0183056D03*
D178*
X0180800Y0144756D03*
X0180000Y0144756D03*
X0106600Y0111556D03*
X0106400Y0111556D03*
X0154000Y0083556D03*
X0152200Y0079356D03*
X0151600Y0078556D03*
X0151200Y0077756D03*
X0150800Y0077156D03*
X0150600Y0076756D03*
X0150400Y0076756D03*
X0165800Y0092956D03*
X0175200Y0093156D03*
X0175600Y0092956D03*
X0177200Y0092356D03*
X0106400Y0177756D03*
D179*
X0088200Y0144756D03*
X0172200Y0091556D03*
D180*
X0172000Y0095456D03*
D181*
X0171800Y0095756D03*
D182*
X0171600Y0095856D03*
D183*
X0171400Y0095956D03*
D184*
X0171200Y0096056D03*
X0170800Y0096456D03*
D185*
X0171000Y0096356D03*
D186*
X0170600Y0089456D03*
X0150400Y0105656D03*
D187*
X0164000Y0097256D03*
X0164200Y0097256D03*
X0169200Y0090056D03*
X0101800Y0118056D03*
D188*
X0168400Y0090556D03*
X0168600Y0090556D03*
X0102600Y0172556D03*
D189*
X0103200Y0173656D03*
X0103400Y0173856D03*
X0086800Y0144856D03*
X0103200Y0115856D03*
X0103400Y0115656D03*
X0167800Y0091056D03*
D190*
X0165000Y0097056D03*
X0087200Y0144856D03*
X0101200Y0170056D03*
D191*
X0089000Y0144656D03*
X0163600Y0104256D03*
X0163800Y0104056D03*
D192*
X0163200Y0108356D03*
D193*
X0163000Y0108156D03*
X0161000Y0107356D03*
D194*
X0162800Y0107956D03*
X0090400Y0144756D03*
D195*
X0162600Y0107856D03*
D196*
X0162400Y0107456D03*
D197*
X0162200Y0107256D03*
X0162000Y0107056D03*
X0090000Y0144656D03*
D198*
X0161400Y0106656D03*
X0161600Y0106656D03*
X0161800Y0106856D03*
D199*
X0161200Y0106756D03*
D200*
X0160800Y0107456D03*
D201*
X0160600Y0107956D03*
D202*
X0160400Y0108156D03*
X0091000Y0144756D03*
D203*
X0160200Y0108256D03*
D204*
X0159200Y0108456D03*
D205*
X0159000Y0108256D03*
D206*
X0158800Y0108256D03*
D207*
X0158600Y0108156D03*
D208*
X0158400Y0108056D03*
D209*
X0158200Y0108056D03*
D210*
X0158000Y0107956D03*
D211*
X0157800Y0108056D03*
X0092800Y0144656D03*
D212*
X0157600Y0107956D03*
D213*
X0157400Y0107856D03*
D214*
X0157200Y0107756D03*
D215*
X0157000Y0107556D03*
X0093400Y0144756D03*
X0093200Y0144756D03*
D216*
X0156800Y0107456D03*
D217*
X0156600Y0107356D03*
D218*
X0156400Y0107156D03*
X0093800Y0144756D03*
D219*
X0156200Y0106956D03*
D220*
X0156000Y0106656D03*
X0155800Y0106656D03*
X0094200Y0144656D03*
D221*
X0155600Y0106256D03*
D222*
X0155400Y0106156D03*
D223*
X0155200Y0106056D03*
D224*
X0155000Y0105856D03*
X0094600Y0144656D03*
D225*
X0154800Y0105756D03*
D226*
X0154600Y0105556D03*
D227*
X0154400Y0105456D03*
D228*
X0154200Y0105156D03*
X0095200Y0144756D03*
D229*
X0154000Y0113656D03*
D230*
X0153800Y0113756D03*
D231*
X0153600Y0113656D03*
D232*
X0153400Y0113756D03*
X0090200Y0144756D03*
D233*
X0153000Y0107156D03*
D234*
X0152400Y0106756D03*
X0152200Y0106756D03*
D235*
X0151600Y0106556D03*
X0100000Y0167556D03*
D236*
X0100200Y0168056D03*
X0100200Y0121456D03*
X0151400Y0106456D03*
D237*
X0149600Y0103356D03*
X0104000Y0114556D03*
X0103800Y0114956D03*
X0103600Y0174356D03*
D238*
X0103600Y0115056D03*
D239*
X0102600Y0116856D03*
X0102400Y0117056D03*
X0102200Y0117256D03*
X0102400Y0172456D03*
D240*
X0102000Y0171556D03*
X0101800Y0171356D03*
X0087000Y0144756D03*
X0102000Y0117756D03*
D241*
X0100600Y0120556D03*
X0100400Y0120756D03*
X0100400Y0168556D03*
D242*
X0100600Y0168856D03*
D243*
X0098600Y0144656D03*
D244*
X0098400Y0144756D03*
D245*
X0098200Y0144756D03*
D246*
X0098000Y0144756D03*
D247*
X0097800Y0144656D03*
D248*
X0097600Y0144656D03*
X0097400Y0144656D03*
D249*
X0097200Y0144756D03*
D250*
X0097000Y0144656D03*
D251*
X0096800Y0144656D03*
D252*
X0096600Y0144756D03*
D253*
X0096400Y0144656D03*
D254*
X0096200Y0144756D03*
D255*
X0096000Y0144656D03*
D256*
X0095800Y0144756D03*
D257*
X0095600Y0144656D03*
D258*
X0095400Y0144656D03*
D259*
X0095000Y0144756D03*
D260*
X0094800Y0144656D03*
D261*
X0094400Y0144656D03*
D262*
X0094000Y0144656D03*
D263*
X0093600Y0144656D03*
D264*
X0093000Y0144756D03*
D265*
X0092600Y0144656D03*
D266*
X0092400Y0144656D03*
D267*
X0092200Y0144756D03*
D268*
X0092000Y0144756D03*
D269*
X0091800Y0144756D03*
D270*
X0091200Y0144756D03*
D271*
X0090800Y0144656D03*
D272*
X0090600Y0144656D03*
D273*
X0089800Y0144656D03*
D274*
X0089600Y0144556D03*
D275*
X0089400Y0144656D03*
D276*
X0088000Y0144656D03*
D277*
X0028600Y0155556D03*
D278*
X0027600Y0155889D03*
D279*
X0026765Y0156222D03*
D280*
X0034435Y0156222D03*
X0029765Y0160222D03*
X0041435Y0167222D03*
X0041435Y0168222D03*
X0041435Y0169222D03*
X0041435Y0169889D03*
X0041435Y0170222D03*
X0043435Y0168889D03*
X0046435Y0167222D03*
X0043435Y0172889D03*
X0030435Y0175222D03*
X0027765Y0177889D03*
X0029435Y0179889D03*
X0025765Y0173889D03*
D281*
X0028270Y0167222D03*
X0025600Y0166222D03*
X0025600Y0165889D03*
X0025270Y0165222D03*
X0025270Y0164889D03*
X0025270Y0163222D03*
X0027930Y0162222D03*
X0027930Y0161889D03*
X0028930Y0160889D03*
X0038600Y0156222D03*
X0041600Y0167889D03*
X0041270Y0170889D03*
X0041270Y0171222D03*
X0041270Y0171889D03*
X0041270Y0172222D03*
X0046600Y0173889D03*
X0039600Y0179222D03*
X0037270Y0183222D03*
D282*
X0026770Y0156556D03*
D283*
X0037270Y0156556D03*
X0045930Y0160556D03*
X0023270Y0181556D03*
D284*
X0025430Y0156889D03*
D285*
X0040435Y0156889D03*
X0042765Y0157889D03*
X0038765Y0167889D03*
X0038435Y0168222D03*
X0038765Y0168889D03*
X0038765Y0169222D03*
X0038435Y0171222D03*
X0047765Y0169889D03*
X0041765Y0181889D03*
D286*
X0025435Y0157222D03*
D287*
X0041930Y0157222D03*
X0038930Y0167222D03*
X0038600Y0169889D03*
X0038600Y0170222D03*
X0038600Y0170889D03*
X0046930Y0172222D03*
X0041600Y0182222D03*
X0027930Y0182889D03*
X0028270Y0176889D03*
X0028270Y0176222D03*
X0028270Y0175222D03*
D288*
X0028270Y0176556D03*
X0038600Y0170556D03*
X0038930Y0167556D03*
X0047600Y0169556D03*
X0042270Y0157556D03*
D289*
X0043265Y0158222D03*
X0038265Y0172222D03*
D290*
X0038600Y0171556D03*
X0047600Y0170556D03*
X0043600Y0158556D03*
D291*
X0043935Y0158889D03*
X0040935Y0164889D03*
X0051935Y0164222D03*
X0052265Y0164889D03*
X0052935Y0166222D03*
X0053265Y0166889D03*
X0053265Y0167222D03*
X0051265Y0176222D03*
X0050265Y0176889D03*
X0040935Y0176222D03*
X0040935Y0175889D03*
D292*
X0052930Y0173222D03*
X0053270Y0171889D03*
X0053270Y0171222D03*
X0040930Y0165222D03*
X0040600Y0165889D03*
X0044270Y0159222D03*
D293*
X0042930Y0167556D03*
X0046600Y0167556D03*
X0041270Y0171556D03*
X0036600Y0173556D03*
X0027600Y0177556D03*
X0025270Y0163556D03*
X0029270Y0160556D03*
X0026270Y0159556D03*
X0046270Y0176556D03*
D294*
X0040600Y0173556D03*
X0044600Y0159556D03*
D295*
X0026100Y0159889D03*
X0026100Y0160222D03*
X0025100Y0163889D03*
X0025100Y0164222D03*
X0025100Y0177222D03*
X0025100Y0177889D03*
X0043100Y0173222D03*
X0046100Y0176889D03*
D296*
X0045100Y0159889D03*
D297*
X0045600Y0160222D03*
X0046600Y0160889D03*
X0046930Y0161222D03*
X0048600Y0162222D03*
D298*
X0025765Y0160556D03*
X0025435Y0161556D03*
X0025435Y0162556D03*
D299*
X0025600Y0161222D03*
X0025600Y0160889D03*
X0028600Y0172889D03*
D300*
X0025435Y0174222D03*
X0028435Y0178889D03*
X0046765Y0167889D03*
X0028765Y0161222D03*
X0025435Y0161889D03*
X0025435Y0162222D03*
X0025435Y0162889D03*
D301*
X0028600Y0161556D03*
X0029600Y0174556D03*
X0027600Y0174556D03*
D302*
X0042435Y0166556D03*
X0040435Y0161556D03*
X0046765Y0172556D03*
D303*
X0047265Y0161556D03*
D304*
X0029100Y0161889D03*
D305*
X0045100Y0161889D03*
D306*
X0030935Y0164222D03*
X0029265Y0162222D03*
X0041265Y0168889D03*
D307*
X0040765Y0173889D03*
X0045765Y0178889D03*
X0041435Y0162222D03*
D308*
X0047100Y0168556D03*
X0028430Y0166556D03*
X0028430Y0162556D03*
X0025430Y0179556D03*
D309*
X0039435Y0179556D03*
X0043435Y0172556D03*
X0041435Y0170556D03*
X0041435Y0169556D03*
X0041435Y0168556D03*
X0041435Y0167556D03*
X0043435Y0168556D03*
X0047435Y0163556D03*
X0038435Y0162556D03*
X0025435Y0165556D03*
D310*
X0040930Y0165556D03*
X0041930Y0162556D03*
X0053270Y0171556D03*
X0052930Y0173556D03*
X0040930Y0175556D03*
D311*
X0041100Y0174556D03*
X0049100Y0162556D03*
D312*
X0042265Y0166222D03*
X0047265Y0168889D03*
X0040265Y0182889D03*
X0025265Y0179222D03*
X0028265Y0166222D03*
X0028265Y0165889D03*
X0028265Y0165222D03*
X0028265Y0164889D03*
X0028265Y0164222D03*
X0028265Y0163889D03*
X0028265Y0163222D03*
X0028265Y0162889D03*
D313*
X0041765Y0162889D03*
X0053435Y0167889D03*
X0053435Y0169889D03*
X0053435Y0170222D03*
X0053435Y0170889D03*
X0052765Y0173889D03*
X0043435Y0180889D03*
X0041435Y0176889D03*
D314*
X0045600Y0179222D03*
X0049600Y0162889D03*
D315*
X0051600Y0163889D03*
X0053600Y0168222D03*
X0052600Y0174222D03*
X0049600Y0177222D03*
X0041600Y0163222D03*
D316*
X0050100Y0163222D03*
X0041100Y0174889D03*
X0039100Y0173222D03*
X0044770Y0179889D03*
D317*
X0046265Y0173556D03*
X0028265Y0165556D03*
X0028265Y0164556D03*
X0028265Y0163556D03*
D318*
X0041430Y0163556D03*
X0052100Y0164556D03*
X0052770Y0165556D03*
X0053100Y0166556D03*
X0053770Y0168556D03*
X0053770Y0169556D03*
X0052100Y0175556D03*
X0050770Y0176556D03*
D319*
X0041100Y0176556D03*
X0051100Y0163556D03*
D320*
X0052430Y0165222D03*
X0052770Y0165889D03*
X0053770Y0168889D03*
X0053770Y0169222D03*
X0052430Y0174889D03*
X0052100Y0175222D03*
X0051770Y0175889D03*
X0047430Y0171222D03*
X0047770Y0170222D03*
X0041100Y0163889D03*
X0040770Y0164222D03*
X0038430Y0171889D03*
X0042770Y0181222D03*
D321*
X0029100Y0179556D03*
X0025100Y0177556D03*
X0025100Y0164556D03*
D322*
X0030935Y0164556D03*
D323*
X0040935Y0164556D03*
X0053265Y0167556D03*
D324*
X0047435Y0169222D03*
X0042435Y0166889D03*
X0039435Y0166222D03*
X0028435Y0173222D03*
X0039765Y0178889D03*
D325*
X0041100Y0182556D03*
X0028100Y0175556D03*
X0039100Y0166556D03*
D326*
X0042935Y0167222D03*
X0046935Y0168222D03*
X0028265Y0166889D03*
X0025265Y0174889D03*
X0025265Y0175222D03*
X0024935Y0175889D03*
X0024935Y0176222D03*
X0024935Y0176889D03*
X0025265Y0178222D03*
X0025935Y0180222D03*
X0028935Y0179222D03*
X0038935Y0183222D03*
D327*
X0028100Y0177222D03*
X0028100Y0175889D03*
X0039100Y0166889D03*
D328*
X0036600Y0167222D03*
X0036600Y0167889D03*
X0036600Y0173889D03*
X0028600Y0183222D03*
D329*
X0030600Y0175556D03*
X0036600Y0167556D03*
D330*
X0038435Y0168556D03*
X0038765Y0169556D03*
X0028435Y0173556D03*
D331*
X0053435Y0170556D03*
D332*
X0047600Y0170889D03*
X0028600Y0173889D03*
X0028600Y0174222D03*
X0028600Y0174889D03*
D333*
X0047100Y0171556D03*
D334*
X0047100Y0171889D03*
D335*
X0053100Y0172222D03*
D336*
X0039100Y0172556D03*
D337*
X0052935Y0172556D03*
D338*
X0052935Y0172889D03*
X0044265Y0180222D03*
X0041265Y0175222D03*
X0038935Y0172889D03*
D339*
X0046600Y0172889D03*
D340*
X0046430Y0173222D03*
X0028100Y0178222D03*
X0025770Y0179889D03*
X0025100Y0178889D03*
X0019770Y0181222D03*
D341*
X0040935Y0174222D03*
D342*
X0028265Y0178556D03*
X0025265Y0178556D03*
X0024935Y0176556D03*
X0024935Y0175556D03*
X0025265Y0174556D03*
D343*
X0052600Y0174556D03*
D344*
X0042935Y0177222D03*
D345*
X0038100Y0177556D03*
X0026100Y0180556D03*
D346*
X0045265Y0177556D03*
D347*
X0044270Y0177889D03*
D348*
X0044265Y0178222D03*
D349*
X0043935Y0178556D03*
D350*
X0045100Y0179556D03*
D351*
X0043765Y0180556D03*
D352*
X0042265Y0181556D03*
D353*
X0026100Y0182222D03*
X0024770Y0181889D03*
D354*
X0027430Y0182556D03*
M02*
