%
M48
M72
T01C0.02362
T02C0.03500
T03C0.04000
T04C0.05200
T05C0.12600
%
T01
X71000Y17956
X76400Y101356
X78200Y94156
X84800Y93556
X93200Y98356
X100400Y89956
X96800Y86356
X81200Y80956
X75800Y74956
X114800Y73156
X120200Y85756
X116600Y89956
X136400Y72556
X137000Y63556
X140600Y57556
X144847Y37156
X150200Y34756
X155000Y31756
X129200Y37156
X123800Y34756
X111800Y32956
X89600Y43156
X83600Y42556
X75200Y29956
X71600Y23356
X153800Y75556
X179000Y83956
X186800Y74356
X203000Y73756
X222200Y73756
X240200Y65356
X245600Y70156
X255200Y65956
X245600Y61156
X219800Y58156
X230000Y37156
X236000Y34756
X246200Y35956
X245000Y28156
X237200Y24556
X226400Y23956
X216200Y25156
X209600Y24556
X201200Y24556
X201200Y31756
X195200Y38356
X190400Y34756
X225800Y11956
X247400Y19156
X241400Y80356
X213200Y98956
X209600Y93556
X227000Y110356
X231800Y116356
X242600Y116356
X246200Y119956
X248000Y125956
X245600Y107956
X245600Y102556
X258200Y108556
X236600Y146356
X235400Y155956
X255800Y163156
X257000Y196156
X239600Y194356
X239000Y201556
X224600Y193156
X225800Y186556
X221000Y185356
X243800Y175156
X199400Y200956
X186200Y200356
X174200Y199156
X187400Y192556
X120200Y202756
X108200Y190756
X111800Y185956
X99800Y194356
X93200Y173356
X60200Y179956
X51800Y184756
X37400Y189556
X30200Y194356
X59000Y163756
X173000Y212956
X184400Y213556
T02
X138997Y223352
X148997Y223352
X158997Y223352
X168997Y223352
X185006Y223352
X195006Y223352
X205006Y223352
X215006Y223352
X225006Y223352
X235006Y223352
X245006Y223352
X255006Y223352
X255000Y233356
X245000Y233356
X235000Y233356
X225000Y233356
X215000Y233356
X205000Y233356
X195000Y233356
X185000Y233356
X169000Y233356
X159000Y233356
X149000Y233356
X139000Y233356
X129000Y233356
X119000Y233356
X109000Y233356
X99000Y233356
X89000Y233356
X79000Y233356
X78997Y223352
X88997Y223352
X98997Y223352
X108997Y223352
X118997Y223352
X128997Y223352
X255000Y133356
X265000Y133356
X265000Y143356
X255000Y143356
X255000Y153356
X265000Y153356
X255000Y53356
X245000Y53356
X235000Y53356
X225000Y53356
X215000Y53356
X205000Y53356
X205000Y43356
X215000Y43356
X225000Y43356
X235000Y43356
X245000Y43356
X255000Y43356
X185000Y43356
X175000Y43356
X165000Y43356
X155000Y43356
X145000Y43356
X135000Y43356
X125000Y43356
X115000Y43356
X115200Y53356
X125200Y53356
X135200Y53356
X145200Y53356
X155200Y53356
X165200Y53356
X175200Y53356
X185200Y53356
T03
X83858Y15167
X93858Y15167
X103858Y15167
X113858Y15167
X123858Y15167
X133858Y15167
X143858Y15167
X153858Y15167
X163858Y15167
X173858Y15167
X183858Y15167
X193858Y15167
X193858Y25167
X183858Y25167
X173858Y25167
X163858Y25167
X153858Y25167
X143858Y25167
X133858Y25167
X123858Y25167
X113858Y25167
X103858Y25167
X93858Y25167
X83858Y25167
X52402Y225954
X42402Y225954
X32402Y225954
X32402Y215954
X42402Y215954
X52402Y215954
T04
X17000Y125356
X43400Y117556
X29600Y117556
X29600Y131956
T05
X265000Y173356
X65000Y233356
M30
