G75*
%MOIN*%
%OFA0B0*%
%FSLAX25Y25*%
%IPPOS*%
%LPD*%
%AMOC8*
5,1,8,0,0,1.08239X$1,22.5*
%
%ADD10C,0.00000*%
%ADD11R,0.06500X0.06500*%
%ADD12C,0.06500*%
%ADD13R,0.07400X0.07400*%
%ADD14OC8,0.07400*%
%ADD15OC8,0.06000*%
%ADD16OC8,0.06500*%
%ADD17OC8,0.08500*%
%ADD18C,0.01600*%
%ADD19C,0.03562*%
%ADD20C,0.00600*%
D10*
X0064055Y0010103D02*
X0064055Y0090922D01*
X0064052Y0091135D01*
X0064045Y0091347D01*
X0064032Y0091560D01*
X0064014Y0091772D01*
X0063991Y0091983D01*
X0063963Y0092194D01*
X0063929Y0092404D01*
X0063891Y0092613D01*
X0063848Y0092822D01*
X0063799Y0093029D01*
X0063746Y0093235D01*
X0063687Y0093439D01*
X0063624Y0093642D01*
X0063556Y0093844D01*
X0063483Y0094044D01*
X0063405Y0094242D01*
X0063323Y0094438D01*
X0063235Y0094632D01*
X0063143Y0094823D01*
X0063047Y0095013D01*
X0062946Y0095200D01*
X0062840Y0095385D01*
X0062730Y0095567D01*
X0062615Y0095746D01*
X0062497Y0095923D01*
X0062374Y0096096D01*
X0062247Y0096267D01*
X0062115Y0096434D01*
X0061980Y0096599D01*
X0061841Y0096759D01*
X0061698Y0096917D01*
X0061551Y0097071D01*
X0061401Y0097221D01*
X0061247Y0097368D01*
X0061089Y0097511D01*
X0060929Y0097650D01*
X0060764Y0097785D01*
X0060597Y0097917D01*
X0060426Y0098044D01*
X0060253Y0098167D01*
X0060076Y0098285D01*
X0059897Y0098400D01*
X0059715Y0098510D01*
X0059530Y0098616D01*
X0059343Y0098717D01*
X0059153Y0098813D01*
X0058962Y0098905D01*
X0058768Y0098993D01*
X0058572Y0099075D01*
X0058374Y0099153D01*
X0058174Y0099226D01*
X0057972Y0099294D01*
X0057769Y0099357D01*
X0057565Y0099416D01*
X0057359Y0099469D01*
X0057152Y0099518D01*
X0056943Y0099561D01*
X0056734Y0099599D01*
X0056524Y0099633D01*
X0056313Y0099661D01*
X0056102Y0099684D01*
X0055890Y0099702D01*
X0055677Y0099715D01*
X0055465Y0099722D01*
X0055252Y0099725D01*
X0019195Y0099725D01*
X0018852Y0099729D01*
X0018509Y0099742D01*
X0018167Y0099762D01*
X0017825Y0099791D01*
X0017484Y0099828D01*
X0017144Y0099874D01*
X0016805Y0099928D01*
X0016468Y0099989D01*
X0016132Y0100059D01*
X0015798Y0100137D01*
X0015466Y0100224D01*
X0015136Y0100318D01*
X0014809Y0100420D01*
X0014484Y0100530D01*
X0014161Y0100647D01*
X0013842Y0100773D01*
X0013526Y0100906D01*
X0013213Y0101047D01*
X0012904Y0101195D01*
X0012598Y0101351D01*
X0012296Y0101514D01*
X0011999Y0101684D01*
X0011705Y0101862D01*
X0011416Y0102046D01*
X0011131Y0102238D01*
X0010851Y0102436D01*
X0010576Y0102641D01*
X0010306Y0102853D01*
X0010041Y0103071D01*
X0009782Y0103295D01*
X0009528Y0103525D01*
X0009280Y0103762D01*
X0009037Y0104005D01*
X0008800Y0104253D01*
X0008570Y0104507D01*
X0008346Y0104766D01*
X0008128Y0105031D01*
X0007916Y0105301D01*
X0007711Y0105576D01*
X0007513Y0105856D01*
X0007321Y0106141D01*
X0007137Y0106430D01*
X0006959Y0106724D01*
X0006789Y0107021D01*
X0006626Y0107323D01*
X0006470Y0107629D01*
X0006322Y0107938D01*
X0006181Y0108251D01*
X0006048Y0108567D01*
X0005922Y0108886D01*
X0005805Y0109209D01*
X0005695Y0109534D01*
X0005593Y0109861D01*
X0005499Y0110191D01*
X0005412Y0110523D01*
X0005334Y0110857D01*
X0005264Y0111193D01*
X0005203Y0111530D01*
X0005149Y0111869D01*
X0005103Y0112209D01*
X0005066Y0112550D01*
X0005037Y0112892D01*
X0005017Y0113234D01*
X0005004Y0113577D01*
X0005000Y0113920D01*
X0005000Y0225098D01*
X0005003Y0225368D01*
X0005013Y0225637D01*
X0005029Y0225907D01*
X0005052Y0226175D01*
X0005081Y0226444D01*
X0005117Y0226711D01*
X0005159Y0226977D01*
X0005208Y0227243D01*
X0005263Y0227507D01*
X0005324Y0227769D01*
X0005392Y0228031D01*
X0005466Y0228290D01*
X0005546Y0228548D01*
X0005633Y0228803D01*
X0005725Y0229056D01*
X0005824Y0229308D01*
X0005929Y0229556D01*
X0006040Y0229802D01*
X0006156Y0230045D01*
X0006279Y0230286D01*
X0006407Y0230523D01*
X0006541Y0230757D01*
X0006680Y0230988D01*
X0006825Y0231215D01*
X0006976Y0231439D01*
X0007132Y0231659D01*
X0007293Y0231876D01*
X0007459Y0232088D01*
X0007631Y0232296D01*
X0007807Y0232500D01*
X0007989Y0232700D01*
X0008175Y0232895D01*
X0008366Y0233086D01*
X0008561Y0233272D01*
X0008761Y0233454D01*
X0008965Y0233630D01*
X0009173Y0233802D01*
X0009385Y0233968D01*
X0009602Y0234129D01*
X0009822Y0234285D01*
X0010046Y0234436D01*
X0010273Y0234581D01*
X0010504Y0234720D01*
X0010738Y0234854D01*
X0010975Y0234982D01*
X0011216Y0235105D01*
X0011459Y0235221D01*
X0011705Y0235332D01*
X0011953Y0235437D01*
X0012205Y0235536D01*
X0012458Y0235628D01*
X0012713Y0235715D01*
X0012971Y0235795D01*
X0013230Y0235869D01*
X0013492Y0235937D01*
X0013754Y0235998D01*
X0014018Y0236053D01*
X0014284Y0236102D01*
X0014550Y0236144D01*
X0014817Y0236180D01*
X0015086Y0236209D01*
X0015354Y0236232D01*
X0015624Y0236248D01*
X0015893Y0236258D01*
X0016163Y0236261D01*
X0254763Y0236261D01*
X0262006Y0233275D02*
X0263110Y0232178D01*
X0265000Y0227635D02*
X0265000Y0185714D01*
X0265293Y0185007D02*
X0271217Y0179158D01*
X0272717Y0175571D02*
X0272717Y0101174D01*
X0272714Y0100903D01*
X0272704Y0100632D01*
X0272687Y0100361D01*
X0272664Y0100091D01*
X0272635Y0099822D01*
X0272598Y0099553D01*
X0272556Y0099285D01*
X0272506Y0099018D01*
X0272451Y0098753D01*
X0272388Y0098489D01*
X0272320Y0098227D01*
X0272245Y0097966D01*
X0272164Y0097707D01*
X0272076Y0097451D01*
X0271982Y0097196D01*
X0271882Y0096944D01*
X0271776Y0096695D01*
X0271664Y0096448D01*
X0271546Y0096204D01*
X0271422Y0095963D01*
X0271292Y0095724D01*
X0271157Y0095490D01*
X0271016Y0095258D01*
X0270869Y0095030D01*
X0270716Y0094806D01*
X0270559Y0094585D01*
X0270396Y0094369D01*
X0270227Y0094156D01*
X0270054Y0093948D01*
X0269875Y0093743D01*
X0269692Y0093544D01*
X0269504Y0093348D01*
X0269311Y0093158D01*
X0269114Y0092972D01*
X0268912Y0092791D01*
X0268705Y0092615D01*
X0268495Y0092444D01*
X0266956Y0091226D01*
X0264843Y0086856D02*
X0264843Y0033371D01*
X0265000Y0012547D01*
X0264997Y0012275D01*
X0264987Y0012004D01*
X0264970Y0011732D01*
X0264947Y0011462D01*
X0264918Y0011191D01*
X0264882Y0010922D01*
X0264839Y0010653D01*
X0264790Y0010386D01*
X0264735Y0010120D01*
X0264673Y0009855D01*
X0264605Y0009592D01*
X0264530Y0009331D01*
X0264450Y0009071D01*
X0264362Y0008814D01*
X0264269Y0008559D01*
X0264170Y0008306D01*
X0264064Y0008055D01*
X0263953Y0007808D01*
X0263835Y0007562D01*
X0263712Y0007320D01*
X0263583Y0007081D01*
X0263448Y0006845D01*
X0263307Y0006613D01*
X0263161Y0006384D01*
X0263009Y0006158D01*
X0262852Y0005936D01*
X0262690Y0005718D01*
X0262522Y0005504D01*
X0262349Y0005294D01*
X0262172Y0005089D01*
X0261989Y0004888D01*
X0261801Y0004691D01*
X0261609Y0004499D01*
X0261412Y0004311D01*
X0261211Y0004128D01*
X0261006Y0003951D01*
X0260796Y0003778D01*
X0260582Y0003610D01*
X0260364Y0003448D01*
X0260142Y0003291D01*
X0259916Y0003139D01*
X0259687Y0002993D01*
X0259455Y0002852D01*
X0259219Y0002717D01*
X0258980Y0002588D01*
X0258738Y0002465D01*
X0258492Y0002347D01*
X0258245Y0002236D01*
X0257994Y0002130D01*
X0257741Y0002031D01*
X0257486Y0001938D01*
X0257229Y0001850D01*
X0256969Y0001770D01*
X0256708Y0001695D01*
X0256445Y0001627D01*
X0256180Y0001565D01*
X0255914Y0001510D01*
X0255647Y0001461D01*
X0255378Y0001418D01*
X0255109Y0001382D01*
X0254838Y0001353D01*
X0254568Y0001330D01*
X0254296Y0001313D01*
X0254025Y0001303D01*
X0253753Y0001300D01*
X0072859Y0001300D01*
X0072646Y0001303D01*
X0072434Y0001310D01*
X0072221Y0001323D01*
X0072009Y0001341D01*
X0071798Y0001364D01*
X0071587Y0001392D01*
X0071377Y0001426D01*
X0071168Y0001464D01*
X0070959Y0001507D01*
X0070752Y0001556D01*
X0070546Y0001609D01*
X0070342Y0001668D01*
X0070139Y0001731D01*
X0069937Y0001799D01*
X0069737Y0001872D01*
X0069539Y0001950D01*
X0069343Y0002032D01*
X0069149Y0002120D01*
X0068958Y0002212D01*
X0068768Y0002308D01*
X0068581Y0002409D01*
X0068396Y0002515D01*
X0068214Y0002625D01*
X0068035Y0002740D01*
X0067858Y0002858D01*
X0067685Y0002981D01*
X0067514Y0003108D01*
X0067347Y0003240D01*
X0067182Y0003375D01*
X0067022Y0003514D01*
X0066864Y0003657D01*
X0066710Y0003804D01*
X0066560Y0003954D01*
X0066413Y0004108D01*
X0066270Y0004266D01*
X0066131Y0004426D01*
X0065996Y0004591D01*
X0065864Y0004758D01*
X0065737Y0004929D01*
X0065614Y0005102D01*
X0065496Y0005279D01*
X0065381Y0005458D01*
X0065271Y0005640D01*
X0065165Y0005825D01*
X0065064Y0006012D01*
X0064968Y0006202D01*
X0064876Y0006393D01*
X0064788Y0006587D01*
X0064706Y0006783D01*
X0064628Y0006981D01*
X0064555Y0007181D01*
X0064487Y0007383D01*
X0064424Y0007586D01*
X0064365Y0007790D01*
X0064312Y0007996D01*
X0064263Y0008203D01*
X0064220Y0008412D01*
X0064182Y0008621D01*
X0064148Y0008831D01*
X0064120Y0009042D01*
X0064097Y0009253D01*
X0064079Y0009465D01*
X0064066Y0009678D01*
X0064059Y0009890D01*
X0064056Y0010103D01*
X0264843Y0086856D02*
X0264845Y0087004D01*
X0264851Y0087151D01*
X0264861Y0087299D01*
X0264874Y0087446D01*
X0264892Y0087593D01*
X0264913Y0087739D01*
X0264939Y0087884D01*
X0264968Y0088029D01*
X0265001Y0088173D01*
X0265038Y0088316D01*
X0265078Y0088458D01*
X0265122Y0088599D01*
X0265171Y0088739D01*
X0265222Y0088877D01*
X0265278Y0089014D01*
X0265337Y0089150D01*
X0265399Y0089283D01*
X0265465Y0089415D01*
X0265535Y0089546D01*
X0265608Y0089674D01*
X0265684Y0089801D01*
X0265764Y0089925D01*
X0265847Y0090047D01*
X0265933Y0090167D01*
X0266022Y0090285D01*
X0266115Y0090400D01*
X0266210Y0090513D01*
X0266308Y0090623D01*
X0266410Y0090731D01*
X0266514Y0090836D01*
X0266621Y0090938D01*
X0266730Y0091037D01*
X0266842Y0091133D01*
X0266957Y0091226D01*
X0258700Y0166300D02*
X0258702Y0166458D01*
X0258708Y0166617D01*
X0258718Y0166775D01*
X0258732Y0166932D01*
X0258750Y0167090D01*
X0258771Y0167246D01*
X0258797Y0167403D01*
X0258827Y0167558D01*
X0258860Y0167713D01*
X0258898Y0167867D01*
X0258939Y0168020D01*
X0258984Y0168171D01*
X0259033Y0168322D01*
X0259086Y0168471D01*
X0259142Y0168619D01*
X0259203Y0168766D01*
X0259266Y0168911D01*
X0259334Y0169054D01*
X0259405Y0169195D01*
X0259479Y0169335D01*
X0259557Y0169473D01*
X0259639Y0169609D01*
X0259724Y0169742D01*
X0259812Y0169874D01*
X0259903Y0170003D01*
X0259998Y0170130D01*
X0260096Y0170254D01*
X0260197Y0170376D01*
X0260301Y0170496D01*
X0260407Y0170613D01*
X0260517Y0170727D01*
X0260630Y0170838D01*
X0260745Y0170946D01*
X0260864Y0171052D01*
X0260984Y0171154D01*
X0261107Y0171254D01*
X0261233Y0171350D01*
X0261361Y0171443D01*
X0261492Y0171533D01*
X0261624Y0171619D01*
X0261759Y0171702D01*
X0261896Y0171782D01*
X0262035Y0171858D01*
X0262175Y0171931D01*
X0262318Y0172000D01*
X0262462Y0172066D01*
X0262607Y0172128D01*
X0262755Y0172186D01*
X0262903Y0172241D01*
X0263053Y0172292D01*
X0263204Y0172339D01*
X0263357Y0172382D01*
X0263510Y0172421D01*
X0263664Y0172457D01*
X0263819Y0172488D01*
X0263975Y0172516D01*
X0264132Y0172540D01*
X0264289Y0172560D01*
X0264447Y0172576D01*
X0264604Y0172588D01*
X0264763Y0172596D01*
X0264921Y0172600D01*
X0265079Y0172600D01*
X0265237Y0172596D01*
X0265396Y0172588D01*
X0265553Y0172576D01*
X0265711Y0172560D01*
X0265868Y0172540D01*
X0266025Y0172516D01*
X0266181Y0172488D01*
X0266336Y0172457D01*
X0266490Y0172421D01*
X0266643Y0172382D01*
X0266796Y0172339D01*
X0266947Y0172292D01*
X0267097Y0172241D01*
X0267245Y0172186D01*
X0267393Y0172128D01*
X0267538Y0172066D01*
X0267682Y0172000D01*
X0267825Y0171931D01*
X0267965Y0171858D01*
X0268104Y0171782D01*
X0268241Y0171702D01*
X0268376Y0171619D01*
X0268508Y0171533D01*
X0268639Y0171443D01*
X0268767Y0171350D01*
X0268893Y0171254D01*
X0269016Y0171154D01*
X0269136Y0171052D01*
X0269255Y0170946D01*
X0269370Y0170838D01*
X0269483Y0170727D01*
X0269593Y0170613D01*
X0269699Y0170496D01*
X0269803Y0170376D01*
X0269904Y0170254D01*
X0270002Y0170130D01*
X0270097Y0170003D01*
X0270188Y0169874D01*
X0270276Y0169742D01*
X0270361Y0169609D01*
X0270443Y0169473D01*
X0270521Y0169335D01*
X0270595Y0169195D01*
X0270666Y0169054D01*
X0270734Y0168911D01*
X0270797Y0168766D01*
X0270858Y0168619D01*
X0270914Y0168471D01*
X0270967Y0168322D01*
X0271016Y0168171D01*
X0271061Y0168020D01*
X0271102Y0167867D01*
X0271140Y0167713D01*
X0271173Y0167558D01*
X0271203Y0167403D01*
X0271229Y0167246D01*
X0271250Y0167090D01*
X0271268Y0166932D01*
X0271282Y0166775D01*
X0271292Y0166617D01*
X0271298Y0166458D01*
X0271300Y0166300D01*
X0271298Y0166142D01*
X0271292Y0165983D01*
X0271282Y0165825D01*
X0271268Y0165668D01*
X0271250Y0165510D01*
X0271229Y0165354D01*
X0271203Y0165197D01*
X0271173Y0165042D01*
X0271140Y0164887D01*
X0271102Y0164733D01*
X0271061Y0164580D01*
X0271016Y0164429D01*
X0270967Y0164278D01*
X0270914Y0164129D01*
X0270858Y0163981D01*
X0270797Y0163834D01*
X0270734Y0163689D01*
X0270666Y0163546D01*
X0270595Y0163405D01*
X0270521Y0163265D01*
X0270443Y0163127D01*
X0270361Y0162991D01*
X0270276Y0162858D01*
X0270188Y0162726D01*
X0270097Y0162597D01*
X0270002Y0162470D01*
X0269904Y0162346D01*
X0269803Y0162224D01*
X0269699Y0162104D01*
X0269593Y0161987D01*
X0269483Y0161873D01*
X0269370Y0161762D01*
X0269255Y0161654D01*
X0269136Y0161548D01*
X0269016Y0161446D01*
X0268893Y0161346D01*
X0268767Y0161250D01*
X0268639Y0161157D01*
X0268508Y0161067D01*
X0268376Y0160981D01*
X0268241Y0160898D01*
X0268104Y0160818D01*
X0267965Y0160742D01*
X0267825Y0160669D01*
X0267682Y0160600D01*
X0267538Y0160534D01*
X0267393Y0160472D01*
X0267245Y0160414D01*
X0267097Y0160359D01*
X0266947Y0160308D01*
X0266796Y0160261D01*
X0266643Y0160218D01*
X0266490Y0160179D01*
X0266336Y0160143D01*
X0266181Y0160112D01*
X0266025Y0160084D01*
X0265868Y0160060D01*
X0265711Y0160040D01*
X0265553Y0160024D01*
X0265396Y0160012D01*
X0265237Y0160004D01*
X0265079Y0160000D01*
X0264921Y0160000D01*
X0264763Y0160004D01*
X0264604Y0160012D01*
X0264447Y0160024D01*
X0264289Y0160040D01*
X0264132Y0160060D01*
X0263975Y0160084D01*
X0263819Y0160112D01*
X0263664Y0160143D01*
X0263510Y0160179D01*
X0263357Y0160218D01*
X0263204Y0160261D01*
X0263053Y0160308D01*
X0262903Y0160359D01*
X0262755Y0160414D01*
X0262607Y0160472D01*
X0262462Y0160534D01*
X0262318Y0160600D01*
X0262175Y0160669D01*
X0262035Y0160742D01*
X0261896Y0160818D01*
X0261759Y0160898D01*
X0261624Y0160981D01*
X0261492Y0161067D01*
X0261361Y0161157D01*
X0261233Y0161250D01*
X0261107Y0161346D01*
X0260984Y0161446D01*
X0260864Y0161548D01*
X0260745Y0161654D01*
X0260630Y0161762D01*
X0260517Y0161873D01*
X0260407Y0161987D01*
X0260301Y0162104D01*
X0260197Y0162224D01*
X0260096Y0162346D01*
X0259998Y0162470D01*
X0259903Y0162597D01*
X0259812Y0162726D01*
X0259724Y0162858D01*
X0259639Y0162991D01*
X0259557Y0163127D01*
X0259479Y0163265D01*
X0259405Y0163405D01*
X0259334Y0163546D01*
X0259266Y0163689D01*
X0259203Y0163834D01*
X0259142Y0163981D01*
X0259086Y0164129D01*
X0259033Y0164278D01*
X0258984Y0164429D01*
X0258939Y0164580D01*
X0258898Y0164733D01*
X0258860Y0164887D01*
X0258827Y0165042D01*
X0258797Y0165197D01*
X0258771Y0165354D01*
X0258750Y0165510D01*
X0258732Y0165668D01*
X0258718Y0165825D01*
X0258708Y0165983D01*
X0258702Y0166142D01*
X0258700Y0166300D01*
X0272717Y0175571D02*
X0272715Y0175709D01*
X0272709Y0175846D01*
X0272700Y0175984D01*
X0272687Y0176121D01*
X0272670Y0176257D01*
X0272649Y0176393D01*
X0272625Y0176529D01*
X0272597Y0176664D01*
X0272566Y0176798D01*
X0272530Y0176931D01*
X0272491Y0177063D01*
X0272449Y0177194D01*
X0272403Y0177323D01*
X0272353Y0177452D01*
X0272300Y0177579D01*
X0272243Y0177704D01*
X0272184Y0177828D01*
X0272120Y0177950D01*
X0272054Y0178071D01*
X0271984Y0178189D01*
X0271911Y0178306D01*
X0271834Y0178421D01*
X0271755Y0178533D01*
X0271673Y0178644D01*
X0271587Y0178752D01*
X0271499Y0178857D01*
X0271408Y0178960D01*
X0271314Y0179061D01*
X0271217Y0179159D01*
X0265293Y0185007D02*
X0265251Y0185051D01*
X0265213Y0185097D01*
X0265177Y0185146D01*
X0265144Y0185197D01*
X0265115Y0185249D01*
X0265088Y0185304D01*
X0265065Y0185359D01*
X0265045Y0185416D01*
X0265029Y0185475D01*
X0265016Y0185534D01*
X0265007Y0185593D01*
X0265002Y0185654D01*
X0265000Y0185714D01*
X0262006Y0233275D02*
X0261826Y0233450D01*
X0261641Y0233620D01*
X0261452Y0233786D01*
X0261260Y0233947D01*
X0261063Y0234103D01*
X0260863Y0234255D01*
X0260659Y0234402D01*
X0260451Y0234543D01*
X0260241Y0234680D01*
X0260026Y0234811D01*
X0259809Y0234937D01*
X0259589Y0235057D01*
X0259366Y0235173D01*
X0259140Y0235282D01*
X0258911Y0235387D01*
X0258680Y0235485D01*
X0258447Y0235578D01*
X0258211Y0235665D01*
X0257974Y0235747D01*
X0257734Y0235822D01*
X0257493Y0235892D01*
X0257250Y0235956D01*
X0257005Y0236013D01*
X0256760Y0236065D01*
X0256513Y0236111D01*
X0256265Y0236151D01*
X0256016Y0236184D01*
X0255766Y0236212D01*
X0255516Y0236233D01*
X0255265Y0236249D01*
X0255014Y0236258D01*
X0254763Y0236261D01*
X0263110Y0232177D02*
X0263220Y0232065D01*
X0263328Y0231950D01*
X0263433Y0231832D01*
X0263535Y0231711D01*
X0263634Y0231588D01*
X0263730Y0231463D01*
X0263822Y0231335D01*
X0263912Y0231205D01*
X0263998Y0231073D01*
X0264082Y0230939D01*
X0264161Y0230803D01*
X0264238Y0230665D01*
X0264311Y0230525D01*
X0264380Y0230383D01*
X0264446Y0230240D01*
X0264509Y0230095D01*
X0264567Y0229949D01*
X0264623Y0229801D01*
X0264674Y0229652D01*
X0264722Y0229501D01*
X0264766Y0229350D01*
X0264807Y0229197D01*
X0264843Y0229044D01*
X0264876Y0228889D01*
X0264905Y0228734D01*
X0264930Y0228578D01*
X0264951Y0228422D01*
X0264969Y0228265D01*
X0264983Y0228108D01*
X0264992Y0227950D01*
X0264998Y0227793D01*
X0265000Y0227635D01*
X0058700Y0226300D02*
X0058702Y0226458D01*
X0058708Y0226617D01*
X0058718Y0226775D01*
X0058732Y0226932D01*
X0058750Y0227090D01*
X0058771Y0227246D01*
X0058797Y0227403D01*
X0058827Y0227558D01*
X0058860Y0227713D01*
X0058898Y0227867D01*
X0058939Y0228020D01*
X0058984Y0228171D01*
X0059033Y0228322D01*
X0059086Y0228471D01*
X0059142Y0228619D01*
X0059203Y0228766D01*
X0059266Y0228911D01*
X0059334Y0229054D01*
X0059405Y0229195D01*
X0059479Y0229335D01*
X0059557Y0229473D01*
X0059639Y0229609D01*
X0059724Y0229742D01*
X0059812Y0229874D01*
X0059903Y0230003D01*
X0059998Y0230130D01*
X0060096Y0230254D01*
X0060197Y0230376D01*
X0060301Y0230496D01*
X0060407Y0230613D01*
X0060517Y0230727D01*
X0060630Y0230838D01*
X0060745Y0230946D01*
X0060864Y0231052D01*
X0060984Y0231154D01*
X0061107Y0231254D01*
X0061233Y0231350D01*
X0061361Y0231443D01*
X0061492Y0231533D01*
X0061624Y0231619D01*
X0061759Y0231702D01*
X0061896Y0231782D01*
X0062035Y0231858D01*
X0062175Y0231931D01*
X0062318Y0232000D01*
X0062462Y0232066D01*
X0062607Y0232128D01*
X0062755Y0232186D01*
X0062903Y0232241D01*
X0063053Y0232292D01*
X0063204Y0232339D01*
X0063357Y0232382D01*
X0063510Y0232421D01*
X0063664Y0232457D01*
X0063819Y0232488D01*
X0063975Y0232516D01*
X0064132Y0232540D01*
X0064289Y0232560D01*
X0064447Y0232576D01*
X0064604Y0232588D01*
X0064763Y0232596D01*
X0064921Y0232600D01*
X0065079Y0232600D01*
X0065237Y0232596D01*
X0065396Y0232588D01*
X0065553Y0232576D01*
X0065711Y0232560D01*
X0065868Y0232540D01*
X0066025Y0232516D01*
X0066181Y0232488D01*
X0066336Y0232457D01*
X0066490Y0232421D01*
X0066643Y0232382D01*
X0066796Y0232339D01*
X0066947Y0232292D01*
X0067097Y0232241D01*
X0067245Y0232186D01*
X0067393Y0232128D01*
X0067538Y0232066D01*
X0067682Y0232000D01*
X0067825Y0231931D01*
X0067965Y0231858D01*
X0068104Y0231782D01*
X0068241Y0231702D01*
X0068376Y0231619D01*
X0068508Y0231533D01*
X0068639Y0231443D01*
X0068767Y0231350D01*
X0068893Y0231254D01*
X0069016Y0231154D01*
X0069136Y0231052D01*
X0069255Y0230946D01*
X0069370Y0230838D01*
X0069483Y0230727D01*
X0069593Y0230613D01*
X0069699Y0230496D01*
X0069803Y0230376D01*
X0069904Y0230254D01*
X0070002Y0230130D01*
X0070097Y0230003D01*
X0070188Y0229874D01*
X0070276Y0229742D01*
X0070361Y0229609D01*
X0070443Y0229473D01*
X0070521Y0229335D01*
X0070595Y0229195D01*
X0070666Y0229054D01*
X0070734Y0228911D01*
X0070797Y0228766D01*
X0070858Y0228619D01*
X0070914Y0228471D01*
X0070967Y0228322D01*
X0071016Y0228171D01*
X0071061Y0228020D01*
X0071102Y0227867D01*
X0071140Y0227713D01*
X0071173Y0227558D01*
X0071203Y0227403D01*
X0071229Y0227246D01*
X0071250Y0227090D01*
X0071268Y0226932D01*
X0071282Y0226775D01*
X0071292Y0226617D01*
X0071298Y0226458D01*
X0071300Y0226300D01*
X0071298Y0226142D01*
X0071292Y0225983D01*
X0071282Y0225825D01*
X0071268Y0225668D01*
X0071250Y0225510D01*
X0071229Y0225354D01*
X0071203Y0225197D01*
X0071173Y0225042D01*
X0071140Y0224887D01*
X0071102Y0224733D01*
X0071061Y0224580D01*
X0071016Y0224429D01*
X0070967Y0224278D01*
X0070914Y0224129D01*
X0070858Y0223981D01*
X0070797Y0223834D01*
X0070734Y0223689D01*
X0070666Y0223546D01*
X0070595Y0223405D01*
X0070521Y0223265D01*
X0070443Y0223127D01*
X0070361Y0222991D01*
X0070276Y0222858D01*
X0070188Y0222726D01*
X0070097Y0222597D01*
X0070002Y0222470D01*
X0069904Y0222346D01*
X0069803Y0222224D01*
X0069699Y0222104D01*
X0069593Y0221987D01*
X0069483Y0221873D01*
X0069370Y0221762D01*
X0069255Y0221654D01*
X0069136Y0221548D01*
X0069016Y0221446D01*
X0068893Y0221346D01*
X0068767Y0221250D01*
X0068639Y0221157D01*
X0068508Y0221067D01*
X0068376Y0220981D01*
X0068241Y0220898D01*
X0068104Y0220818D01*
X0067965Y0220742D01*
X0067825Y0220669D01*
X0067682Y0220600D01*
X0067538Y0220534D01*
X0067393Y0220472D01*
X0067245Y0220414D01*
X0067097Y0220359D01*
X0066947Y0220308D01*
X0066796Y0220261D01*
X0066643Y0220218D01*
X0066490Y0220179D01*
X0066336Y0220143D01*
X0066181Y0220112D01*
X0066025Y0220084D01*
X0065868Y0220060D01*
X0065711Y0220040D01*
X0065553Y0220024D01*
X0065396Y0220012D01*
X0065237Y0220004D01*
X0065079Y0220000D01*
X0064921Y0220000D01*
X0064763Y0220004D01*
X0064604Y0220012D01*
X0064447Y0220024D01*
X0064289Y0220040D01*
X0064132Y0220060D01*
X0063975Y0220084D01*
X0063819Y0220112D01*
X0063664Y0220143D01*
X0063510Y0220179D01*
X0063357Y0220218D01*
X0063204Y0220261D01*
X0063053Y0220308D01*
X0062903Y0220359D01*
X0062755Y0220414D01*
X0062607Y0220472D01*
X0062462Y0220534D01*
X0062318Y0220600D01*
X0062175Y0220669D01*
X0062035Y0220742D01*
X0061896Y0220818D01*
X0061759Y0220898D01*
X0061624Y0220981D01*
X0061492Y0221067D01*
X0061361Y0221157D01*
X0061233Y0221250D01*
X0061107Y0221346D01*
X0060984Y0221446D01*
X0060864Y0221548D01*
X0060745Y0221654D01*
X0060630Y0221762D01*
X0060517Y0221873D01*
X0060407Y0221987D01*
X0060301Y0222104D01*
X0060197Y0222224D01*
X0060096Y0222346D01*
X0059998Y0222470D01*
X0059903Y0222597D01*
X0059812Y0222726D01*
X0059724Y0222858D01*
X0059639Y0222991D01*
X0059557Y0223127D01*
X0059479Y0223265D01*
X0059405Y0223405D01*
X0059334Y0223546D01*
X0059266Y0223689D01*
X0059203Y0223834D01*
X0059142Y0223981D01*
X0059086Y0224129D01*
X0059033Y0224278D01*
X0058984Y0224429D01*
X0058939Y0224580D01*
X0058898Y0224733D01*
X0058860Y0224887D01*
X0058827Y0225042D01*
X0058797Y0225197D01*
X0058771Y0225354D01*
X0058750Y0225510D01*
X0058732Y0225668D01*
X0058718Y0225825D01*
X0058708Y0225983D01*
X0058702Y0226142D01*
X0058700Y0226300D01*
D11*
X0169000Y0226300D03*
X0255000Y0226300D03*
X0255006Y0216297D03*
X0255000Y0146300D03*
X0205000Y0046300D03*
X0205000Y0036300D03*
X0185000Y0036300D03*
X0185200Y0046300D03*
D12*
X0175200Y0046300D03*
X0165200Y0046300D03*
X0155200Y0046300D03*
X0145200Y0046300D03*
X0135200Y0046300D03*
X0125200Y0046300D03*
X0115200Y0046300D03*
X0115000Y0036300D03*
X0125000Y0036300D03*
X0135000Y0036300D03*
X0145000Y0036300D03*
X0155000Y0036300D03*
X0165000Y0036300D03*
X0175000Y0036300D03*
X0215000Y0036300D03*
X0225000Y0036300D03*
X0235000Y0036300D03*
X0245000Y0036300D03*
X0255000Y0036300D03*
X0255000Y0046300D03*
X0245000Y0046300D03*
X0235000Y0046300D03*
X0225000Y0046300D03*
X0215000Y0046300D03*
X0255000Y0126300D03*
X0265000Y0126300D03*
X0265000Y0136300D03*
X0255000Y0136300D03*
X0265000Y0146300D03*
X0245006Y0216297D03*
X0235006Y0216297D03*
X0225006Y0216297D03*
X0215006Y0216297D03*
X0205006Y0216297D03*
X0195006Y0216297D03*
X0185006Y0216297D03*
X0185000Y0226300D03*
X0195000Y0226300D03*
X0205000Y0226300D03*
X0215000Y0226300D03*
X0225000Y0226300D03*
X0235000Y0226300D03*
X0245000Y0226300D03*
X0159000Y0226300D03*
X0149000Y0226300D03*
X0139000Y0226300D03*
X0129000Y0226300D03*
X0119000Y0226300D03*
X0109000Y0226300D03*
X0099000Y0226300D03*
X0089000Y0226300D03*
X0079000Y0226300D03*
X0078997Y0216297D03*
X0088997Y0216297D03*
X0098997Y0216297D03*
X0108997Y0216297D03*
X0118997Y0216297D03*
X0128997Y0216297D03*
X0138997Y0216297D03*
X0148997Y0216297D03*
X0158997Y0216297D03*
D13*
X0032402Y0208898D03*
D14*
X0042402Y0208898D03*
X0052402Y0208898D03*
X0052402Y0218898D03*
X0042402Y0218898D03*
X0032402Y0218898D03*
D15*
X0083858Y0018111D03*
X0093858Y0018111D03*
X0103858Y0018111D03*
X0113858Y0018111D03*
X0123858Y0018111D03*
X0133858Y0018111D03*
X0143858Y0018111D03*
X0153858Y0018111D03*
X0163858Y0018111D03*
X0173858Y0018111D03*
X0183858Y0018111D03*
X0193858Y0018111D03*
X0193858Y0008111D03*
X0183858Y0008111D03*
X0173858Y0008111D03*
X0163858Y0008111D03*
X0153858Y0008111D03*
X0143858Y0008111D03*
X0133858Y0008111D03*
X0123858Y0008111D03*
X0113858Y0008111D03*
X0103858Y0008111D03*
X0093858Y0008111D03*
X0083858Y0008111D03*
D16*
X0168997Y0216297D03*
D17*
X0142400Y0162100D03*
X0124400Y0162700D03*
X0117200Y0148900D03*
X0132200Y0148900D03*
X0150200Y0149500D03*
X0150200Y0133300D03*
X0133400Y0133300D03*
X0116600Y0132100D03*
X0125600Y0115900D03*
X0143000Y0115900D03*
X0177200Y0118300D03*
X0191000Y0126100D03*
X0207800Y0124300D03*
X0224600Y0123700D03*
X0224600Y0109300D03*
X0224600Y0094900D03*
X0213800Y0084100D03*
X0174200Y0154900D03*
X0030800Y0156700D03*
X0030800Y0142300D03*
X0031400Y0127300D03*
X0017600Y0120100D03*
X0032000Y0112900D03*
D18*
X0105800Y0115300D02*
X0110600Y0110500D01*
X0110600Y0075700D01*
X0116600Y0069700D01*
X0152600Y0069700D01*
X0153800Y0068500D01*
X0159800Y0062500D01*
X0209000Y0062500D01*
X0236600Y0090100D01*
X0236600Y0139300D01*
X0235006Y0216297D02*
X0235006Y0226300D01*
X0235000Y0226300D01*
X0225006Y0226300D02*
X0225000Y0226300D01*
X0215000Y0226300D02*
X0215000Y0216297D01*
X0215006Y0216297D01*
X0205006Y0216297D02*
X0205000Y0216297D01*
X0205000Y0226300D01*
X0195000Y0226300D02*
X0195000Y0216297D01*
X0195006Y0216297D01*
X0185006Y0216297D02*
X0185000Y0216297D01*
X0185000Y0226300D01*
X0169000Y0226300D02*
X0169000Y0216297D01*
X0168997Y0216297D01*
X0159000Y0216297D02*
X0159000Y0226300D01*
X0149000Y0226300D02*
X0149000Y0216297D01*
X0148997Y0216297D01*
X0139000Y0216297D02*
X0139000Y0226300D01*
X0129000Y0226300D02*
X0129000Y0216297D01*
X0128997Y0216297D01*
X0119000Y0216297D02*
X0119000Y0226300D01*
X0109000Y0226300D02*
X0109000Y0216297D01*
X0108997Y0216297D01*
X0099000Y0216297D02*
X0099000Y0226300D01*
X0089000Y0226300D02*
X0089000Y0216297D01*
X0088997Y0216297D01*
X0079000Y0216297D02*
X0079000Y0226300D01*
X0078997Y0216297D02*
X0079000Y0216297D01*
X0098997Y0216297D02*
X0099000Y0216297D01*
X0118997Y0216297D02*
X0119000Y0216297D01*
X0138997Y0216297D02*
X0139000Y0216297D01*
X0158997Y0216297D02*
X0159000Y0216297D01*
X0245006Y0216297D02*
X0245006Y0226300D01*
X0245000Y0226300D01*
X0255000Y0226300D02*
X0255000Y0216297D01*
X0255006Y0216297D01*
X0105800Y0159700D02*
X0105800Y0115300D01*
X0125200Y0046300D02*
X0125200Y0036300D01*
X0125000Y0036300D01*
X0135000Y0036300D02*
X0135200Y0036300D01*
X0135200Y0043300D01*
X0135200Y0046300D01*
X0145200Y0046300D02*
X0145200Y0036300D01*
X0145000Y0036300D01*
X0155000Y0036300D02*
X0155200Y0036300D01*
X0155200Y0046300D01*
X0165200Y0046300D02*
X0165200Y0036300D01*
X0165000Y0036300D01*
X0175000Y0036300D02*
X0175200Y0036300D01*
X0175200Y0046300D01*
X0205000Y0046300D02*
X0205000Y0036300D01*
X0215000Y0036300D02*
X0215000Y0046300D01*
X0225000Y0046300D02*
X0225000Y0036300D01*
X0235000Y0036300D02*
X0235000Y0046300D01*
X0245000Y0046300D02*
X0245000Y0036300D01*
X0255000Y0036300D02*
X0255000Y0046300D01*
X0113858Y0018111D02*
X0113827Y0018113D01*
X0113796Y0018118D01*
X0113767Y0018128D01*
X0113738Y0018141D01*
X0113711Y0018157D01*
X0113687Y0018176D01*
X0113665Y0018198D01*
X0113646Y0018222D01*
X0113630Y0018249D01*
X0113617Y0018278D01*
X0113607Y0018307D01*
X0113602Y0018338D01*
X0113600Y0018369D01*
D19*
X0129800Y0027700D03*
X0140000Y0026500D03*
X0150200Y0031300D03*
X0179000Y0031300D03*
X0195200Y0049300D03*
X0222200Y0057700D03*
X0233000Y0064900D03*
X0234200Y0070900D03*
X0233000Y0079300D03*
X0248600Y0081700D03*
X0236600Y0139300D03*
X0235400Y0148900D03*
X0255800Y0156100D03*
X0243800Y0168100D03*
X0257000Y0189700D03*
X0239000Y0194500D03*
X0111800Y0178900D03*
X0108200Y0183700D03*
X0099800Y0187300D03*
X0099800Y0171700D03*
X0105800Y0159700D03*
X0095000Y0145300D03*
X0089000Y0134500D03*
X0074600Y0132100D03*
X0090200Y0122500D03*
X0083000Y0111700D03*
X0089000Y0092500D03*
X0083000Y0088900D03*
X0109400Y0064900D03*
X0153800Y0068500D03*
X0060200Y0172900D03*
X0051800Y0177700D03*
X0037400Y0182500D03*
X0030200Y0187300D03*
X0065000Y0199300D03*
X0069800Y0204100D03*
X0073400Y0194500D03*
D20*
X0071000Y0192100D01*
X0071000Y0128500D01*
X0072200Y0127300D01*
X0072200Y0016900D01*
X0075800Y0013300D01*
X0089600Y0013300D01*
X0093811Y0018111D01*
X0093858Y0018111D01*
X0098600Y0021700D02*
X0095000Y0025300D01*
X0080600Y0025300D01*
X0077000Y0028900D01*
X0077000Y0123700D01*
X0074600Y0126100D01*
X0074600Y0132100D01*
X0089000Y0134500D02*
X0089000Y0193300D01*
X0097400Y0201700D01*
X0127400Y0201700D01*
X0138997Y0213297D01*
X0138997Y0216297D01*
X0141800Y0207700D02*
X0148997Y0213697D01*
X0148997Y0216297D01*
X0158797Y0216297D02*
X0146600Y0204100D01*
X0137000Y0204100D01*
X0131000Y0196900D01*
X0102200Y0196900D01*
X0095000Y0188500D01*
X0095000Y0145300D01*
X0091400Y0138100D02*
X0095000Y0134500D01*
X0095000Y0127300D01*
X0090200Y0122500D01*
X0085400Y0120100D02*
X0099800Y0105700D01*
X0099800Y0061300D01*
X0107000Y0054100D01*
X0126200Y0054100D01*
X0129800Y0049300D01*
X0129800Y0027700D01*
X0135800Y0022900D02*
X0122600Y0022900D01*
X0120200Y0025300D01*
X0120200Y0038500D01*
X0116600Y0040900D01*
X0101000Y0040900D01*
X0097400Y0045700D01*
X0097400Y0104500D01*
X0083000Y0118900D01*
X0083000Y0195700D01*
X0092600Y0206500D01*
X0114200Y0206500D01*
X0118997Y0211297D01*
X0118997Y0216297D01*
X0128997Y0216297D02*
X0128997Y0214097D01*
X0119000Y0204100D01*
X0093800Y0204100D01*
X0085400Y0194500D01*
X0085400Y0120100D01*
X0080600Y0114100D02*
X0083000Y0111700D01*
X0080600Y0114100D02*
X0080600Y0206500D01*
X0088997Y0214897D01*
X0088997Y0216297D01*
X0078997Y0216297D02*
X0078997Y0109703D01*
X0093800Y0094900D01*
X0093800Y0090100D01*
X0093200Y0087100D01*
X0093200Y0043300D01*
X0089600Y0040900D02*
X0089602Y0040754D01*
X0089608Y0040608D01*
X0089618Y0040462D01*
X0089632Y0040316D01*
X0089649Y0040171D01*
X0089671Y0040026D01*
X0089697Y0039882D01*
X0089726Y0039739D01*
X0089760Y0039597D01*
X0089797Y0039455D01*
X0089838Y0039315D01*
X0089883Y0039176D01*
X0089931Y0039038D01*
X0089984Y0038901D01*
X0090039Y0038766D01*
X0090099Y0038633D01*
X0090162Y0038501D01*
X0090229Y0038371D01*
X0090299Y0038242D01*
X0090373Y0038116D01*
X0090450Y0037992D01*
X0090530Y0037870D01*
X0090614Y0037750D01*
X0090701Y0037632D01*
X0090791Y0037517D01*
X0090884Y0037404D01*
X0090981Y0037294D01*
X0091080Y0037186D01*
X0091182Y0037082D01*
X0091286Y0036980D01*
X0091394Y0036881D01*
X0091504Y0036784D01*
X0091617Y0036691D01*
X0091732Y0036601D01*
X0091850Y0036514D01*
X0091970Y0036430D01*
X0092092Y0036350D01*
X0092216Y0036273D01*
X0092342Y0036199D01*
X0092471Y0036129D01*
X0092601Y0036062D01*
X0092733Y0035999D01*
X0092866Y0035939D01*
X0093001Y0035884D01*
X0093138Y0035831D01*
X0093276Y0035783D01*
X0093415Y0035738D01*
X0093555Y0035697D01*
X0093697Y0035660D01*
X0093839Y0035626D01*
X0093982Y0035597D01*
X0094126Y0035571D01*
X0094271Y0035549D01*
X0094416Y0035532D01*
X0094562Y0035518D01*
X0094708Y0035508D01*
X0094854Y0035502D01*
X0095000Y0035500D01*
X0098600Y0035500D01*
X0097400Y0027700D02*
X0083000Y0027700D01*
X0079400Y0031300D01*
X0079400Y0085300D01*
X0083000Y0088900D01*
X0089600Y0090700D02*
X0089000Y0092500D01*
X0089600Y0090700D02*
X0089600Y0040900D01*
X0093200Y0043300D02*
X0093202Y0043173D01*
X0093208Y0043046D01*
X0093217Y0042920D01*
X0093231Y0042794D01*
X0093248Y0042668D01*
X0093269Y0042543D01*
X0093294Y0042418D01*
X0093322Y0042295D01*
X0093354Y0042172D01*
X0093390Y0042050D01*
X0093430Y0041930D01*
X0093473Y0041811D01*
X0093520Y0041693D01*
X0093570Y0041576D01*
X0093624Y0041461D01*
X0093681Y0041348D01*
X0093742Y0041237D01*
X0093806Y0041127D01*
X0093873Y0041020D01*
X0093943Y0040914D01*
X0094017Y0040811D01*
X0094094Y0040710D01*
X0094174Y0040611D01*
X0094256Y0040515D01*
X0094342Y0040421D01*
X0094430Y0040330D01*
X0094521Y0040242D01*
X0094615Y0040156D01*
X0094711Y0040074D01*
X0094810Y0039994D01*
X0094911Y0039917D01*
X0095014Y0039843D01*
X0095120Y0039773D01*
X0095227Y0039706D01*
X0095337Y0039642D01*
X0095448Y0039581D01*
X0095561Y0039524D01*
X0095676Y0039470D01*
X0095793Y0039420D01*
X0095911Y0039373D01*
X0096030Y0039330D01*
X0096150Y0039290D01*
X0096272Y0039254D01*
X0096395Y0039222D01*
X0096518Y0039194D01*
X0096643Y0039169D01*
X0096768Y0039148D01*
X0096894Y0039131D01*
X0097020Y0039117D01*
X0097146Y0039108D01*
X0097273Y0039102D01*
X0097400Y0039100D01*
X0097400Y0027700D02*
X0103858Y0021242D01*
X0103858Y0018111D01*
X0098600Y0021700D02*
X0098600Y0010900D01*
X0101389Y0008111D01*
X0103858Y0008111D01*
X0109400Y0012569D02*
X0109400Y0024700D01*
X0113600Y0022900D02*
X0113600Y0018369D01*
X0109400Y0012569D02*
X0109402Y0012437D01*
X0109408Y0012305D01*
X0109418Y0012173D01*
X0109431Y0012042D01*
X0109449Y0011911D01*
X0109470Y0011780D01*
X0109496Y0011651D01*
X0109525Y0011522D01*
X0109558Y0011394D01*
X0109594Y0011267D01*
X0109635Y0011141D01*
X0109679Y0011017D01*
X0109727Y0010894D01*
X0109778Y0010772D01*
X0109833Y0010652D01*
X0109892Y0010533D01*
X0109954Y0010417D01*
X0110019Y0010302D01*
X0110088Y0010189D01*
X0110161Y0010079D01*
X0110236Y0009970D01*
X0110315Y0009864D01*
X0110396Y0009760D01*
X0110481Y0009659D01*
X0110569Y0009560D01*
X0110659Y0009464D01*
X0110753Y0009370D01*
X0110849Y0009280D01*
X0110948Y0009192D01*
X0111049Y0009107D01*
X0111153Y0009026D01*
X0111259Y0008947D01*
X0111368Y0008872D01*
X0111478Y0008799D01*
X0111591Y0008730D01*
X0111706Y0008665D01*
X0111822Y0008603D01*
X0111941Y0008544D01*
X0112061Y0008489D01*
X0112183Y0008438D01*
X0112306Y0008390D01*
X0112430Y0008346D01*
X0112556Y0008305D01*
X0112683Y0008269D01*
X0112811Y0008236D01*
X0112940Y0008207D01*
X0113069Y0008181D01*
X0113200Y0008160D01*
X0113331Y0008142D01*
X0113462Y0008129D01*
X0113594Y0008119D01*
X0113726Y0008113D01*
X0113858Y0008111D01*
X0093858Y0008111D02*
X0087469Y0012100D01*
X0074600Y0012100D01*
X0074389Y0008111D02*
X0074206Y0008113D01*
X0074022Y0008120D01*
X0073839Y0008131D01*
X0073657Y0008146D01*
X0073474Y0008166D01*
X0073292Y0008191D01*
X0073111Y0008219D01*
X0072931Y0008252D01*
X0072751Y0008290D01*
X0072573Y0008332D01*
X0072395Y0008378D01*
X0072219Y0008428D01*
X0072044Y0008482D01*
X0071870Y0008541D01*
X0071698Y0008604D01*
X0071527Y0008671D01*
X0071358Y0008742D01*
X0071191Y0008818D01*
X0071026Y0008897D01*
X0070862Y0008980D01*
X0070701Y0009067D01*
X0070542Y0009159D01*
X0070385Y0009253D01*
X0070230Y0009352D01*
X0070078Y0009454D01*
X0069928Y0009560D01*
X0069781Y0009670D01*
X0069637Y0009783D01*
X0069495Y0009900D01*
X0069357Y0010020D01*
X0069221Y0010143D01*
X0069088Y0010269D01*
X0068958Y0010399D01*
X0068832Y0010532D01*
X0068709Y0010668D01*
X0068589Y0010806D01*
X0068472Y0010948D01*
X0068359Y0011092D01*
X0068249Y0011239D01*
X0068143Y0011389D01*
X0068041Y0011541D01*
X0067942Y0011696D01*
X0067848Y0011853D01*
X0067756Y0012012D01*
X0067669Y0012173D01*
X0067586Y0012337D01*
X0067507Y0012502D01*
X0067431Y0012669D01*
X0067360Y0012838D01*
X0067293Y0013009D01*
X0067230Y0013181D01*
X0067171Y0013355D01*
X0067117Y0013530D01*
X0067067Y0013706D01*
X0067021Y0013884D01*
X0066979Y0014062D01*
X0066941Y0014242D01*
X0066908Y0014422D01*
X0066880Y0014603D01*
X0066855Y0014785D01*
X0066835Y0014968D01*
X0066820Y0015150D01*
X0066809Y0015333D01*
X0066802Y0015517D01*
X0066800Y0015700D01*
X0066800Y0197500D01*
X0065000Y0199300D01*
X0069800Y0204100D02*
X0069800Y0091900D01*
X0070400Y0091300D01*
X0070400Y0016300D01*
X0070402Y0016173D01*
X0070408Y0016046D01*
X0070417Y0015920D01*
X0070431Y0015794D01*
X0070448Y0015668D01*
X0070469Y0015543D01*
X0070494Y0015418D01*
X0070522Y0015295D01*
X0070554Y0015172D01*
X0070590Y0015050D01*
X0070630Y0014930D01*
X0070673Y0014811D01*
X0070720Y0014693D01*
X0070770Y0014576D01*
X0070824Y0014461D01*
X0070881Y0014348D01*
X0070942Y0014237D01*
X0071006Y0014127D01*
X0071073Y0014020D01*
X0071143Y0013914D01*
X0071217Y0013811D01*
X0071294Y0013710D01*
X0071374Y0013611D01*
X0071456Y0013515D01*
X0071542Y0013421D01*
X0071630Y0013330D01*
X0071721Y0013242D01*
X0071815Y0013156D01*
X0071911Y0013074D01*
X0072010Y0012994D01*
X0072111Y0012917D01*
X0072214Y0012843D01*
X0072320Y0012773D01*
X0072427Y0012706D01*
X0072537Y0012642D01*
X0072648Y0012581D01*
X0072761Y0012524D01*
X0072876Y0012470D01*
X0072993Y0012420D01*
X0073111Y0012373D01*
X0073230Y0012330D01*
X0073350Y0012290D01*
X0073472Y0012254D01*
X0073595Y0012222D01*
X0073718Y0012194D01*
X0073843Y0012169D01*
X0073968Y0012148D01*
X0074094Y0012131D01*
X0074220Y0012117D01*
X0074346Y0012108D01*
X0074473Y0012102D01*
X0074600Y0012100D01*
X0074389Y0008111D02*
X0083858Y0008111D01*
X0113600Y0022900D02*
X0113595Y0023291D01*
X0113581Y0023683D01*
X0113557Y0024073D01*
X0113524Y0024464D01*
X0113482Y0024853D01*
X0113430Y0025241D01*
X0113369Y0025627D01*
X0113298Y0026012D01*
X0113218Y0026396D01*
X0113129Y0026777D01*
X0113031Y0027156D01*
X0112924Y0027532D01*
X0112807Y0027906D01*
X0112682Y0028277D01*
X0112547Y0028645D01*
X0112404Y0029009D01*
X0112252Y0029370D01*
X0112091Y0029727D01*
X0111922Y0030080D01*
X0111744Y0030429D01*
X0111558Y0030773D01*
X0111364Y0031113D01*
X0111161Y0031448D01*
X0110951Y0031778D01*
X0110732Y0032103D01*
X0110506Y0032422D01*
X0110272Y0032736D01*
X0110031Y0033044D01*
X0109782Y0033346D01*
X0109526Y0033643D01*
X0109263Y0033932D01*
X0108993Y0034216D01*
X0108716Y0034493D01*
X0108432Y0034763D01*
X0108143Y0035026D01*
X0107846Y0035282D01*
X0107544Y0035531D01*
X0107236Y0035772D01*
X0106922Y0036006D01*
X0106603Y0036232D01*
X0106278Y0036451D01*
X0105948Y0036661D01*
X0105613Y0036864D01*
X0105273Y0037058D01*
X0104929Y0037244D01*
X0104580Y0037422D01*
X0104227Y0037591D01*
X0103870Y0037752D01*
X0103509Y0037904D01*
X0103145Y0038047D01*
X0102777Y0038182D01*
X0102406Y0038307D01*
X0102032Y0038424D01*
X0101656Y0038531D01*
X0101277Y0038629D01*
X0100896Y0038718D01*
X0100512Y0038798D01*
X0100127Y0038869D01*
X0099741Y0038930D01*
X0099353Y0038982D01*
X0098964Y0039024D01*
X0098573Y0039057D01*
X0098183Y0039081D01*
X0097791Y0039095D01*
X0097400Y0039100D01*
X0098600Y0035500D02*
X0098861Y0035497D01*
X0099122Y0035487D01*
X0099382Y0035472D01*
X0099642Y0035450D01*
X0099902Y0035421D01*
X0100160Y0035387D01*
X0100418Y0035346D01*
X0100675Y0035299D01*
X0100930Y0035246D01*
X0101185Y0035186D01*
X0101437Y0035121D01*
X0101688Y0035049D01*
X0101937Y0034971D01*
X0102185Y0034888D01*
X0102430Y0034798D01*
X0102673Y0034703D01*
X0102913Y0034601D01*
X0103151Y0034494D01*
X0103386Y0034381D01*
X0103619Y0034263D01*
X0103849Y0034139D01*
X0104075Y0034009D01*
X0104299Y0033874D01*
X0104519Y0033734D01*
X0104735Y0033588D01*
X0104948Y0033437D01*
X0105157Y0033281D01*
X0105363Y0033120D01*
X0105564Y0032955D01*
X0105762Y0032784D01*
X0105955Y0032609D01*
X0106144Y0032428D01*
X0106328Y0032244D01*
X0106509Y0032055D01*
X0106684Y0031862D01*
X0106855Y0031664D01*
X0107020Y0031463D01*
X0107181Y0031257D01*
X0107337Y0031048D01*
X0107488Y0030835D01*
X0107634Y0030619D01*
X0107774Y0030399D01*
X0107909Y0030175D01*
X0108039Y0029949D01*
X0108163Y0029719D01*
X0108281Y0029486D01*
X0108394Y0029251D01*
X0108501Y0029013D01*
X0108603Y0028773D01*
X0108698Y0028530D01*
X0108788Y0028285D01*
X0108871Y0028037D01*
X0108949Y0027788D01*
X0109021Y0027537D01*
X0109086Y0027285D01*
X0109146Y0027030D01*
X0109199Y0026775D01*
X0109246Y0026518D01*
X0109287Y0026260D01*
X0109321Y0026002D01*
X0109350Y0025742D01*
X0109372Y0025482D01*
X0109387Y0025222D01*
X0109397Y0024961D01*
X0109400Y0024700D01*
X0135800Y0022900D02*
X0139400Y0020500D01*
X0139400Y0013769D01*
X0143858Y0008111D01*
X0153858Y0008111D02*
X0153860Y0008263D01*
X0153866Y0008414D01*
X0153876Y0008565D01*
X0153890Y0008716D01*
X0153908Y0008867D01*
X0153929Y0009017D01*
X0153955Y0009166D01*
X0153985Y0009315D01*
X0154018Y0009462D01*
X0154055Y0009609D01*
X0154096Y0009755D01*
X0154141Y0009900D01*
X0154190Y0010043D01*
X0154243Y0010186D01*
X0154299Y0010326D01*
X0154358Y0010466D01*
X0154422Y0010603D01*
X0154489Y0010739D01*
X0154560Y0010873D01*
X0154634Y0011005D01*
X0154711Y0011136D01*
X0154792Y0011264D01*
X0154876Y0011390D01*
X0154964Y0011514D01*
X0155054Y0011635D01*
X0155148Y0011754D01*
X0155245Y0011871D01*
X0155345Y0011985D01*
X0155448Y0012096D01*
X0155554Y0012204D01*
X0155662Y0012310D01*
X0155773Y0012413D01*
X0155887Y0012513D01*
X0156004Y0012610D01*
X0156123Y0012704D01*
X0156244Y0012794D01*
X0156368Y0012882D01*
X0156494Y0012966D01*
X0156622Y0013047D01*
X0156753Y0013124D01*
X0156885Y0013198D01*
X0157019Y0013269D01*
X0157155Y0013336D01*
X0157292Y0013400D01*
X0157432Y0013459D01*
X0157572Y0013515D01*
X0157715Y0013568D01*
X0157858Y0013617D01*
X0158003Y0013662D01*
X0158149Y0013703D01*
X0158296Y0013740D01*
X0158443Y0013773D01*
X0158592Y0013803D01*
X0158741Y0013829D01*
X0158891Y0013850D01*
X0159042Y0013868D01*
X0159193Y0013882D01*
X0159344Y0013892D01*
X0159495Y0013898D01*
X0159647Y0013900D01*
X0212600Y0013900D01*
X0220800Y0012100D02*
X0167847Y0012100D01*
X0167722Y0012098D01*
X0167597Y0012092D01*
X0167472Y0012082D01*
X0167347Y0012069D01*
X0167223Y0012051D01*
X0167100Y0012029D01*
X0166977Y0012004D01*
X0166855Y0011975D01*
X0166734Y0011942D01*
X0166614Y0011905D01*
X0166496Y0011864D01*
X0166379Y0011820D01*
X0166263Y0011772D01*
X0166149Y0011720D01*
X0166036Y0011665D01*
X0165925Y0011607D01*
X0165816Y0011544D01*
X0165710Y0011479D01*
X0165605Y0011410D01*
X0165502Y0011338D01*
X0165402Y0011263D01*
X0165304Y0011185D01*
X0165209Y0011103D01*
X0165116Y0011019D01*
X0165026Y0010932D01*
X0164939Y0010842D01*
X0164855Y0010749D01*
X0164773Y0010654D01*
X0164695Y0010556D01*
X0164620Y0010456D01*
X0164548Y0010353D01*
X0164479Y0010248D01*
X0164414Y0010142D01*
X0164351Y0010033D01*
X0164293Y0009922D01*
X0164238Y0009809D01*
X0164186Y0009695D01*
X0164138Y0009579D01*
X0164094Y0009462D01*
X0164053Y0009344D01*
X0164016Y0009224D01*
X0163983Y0009103D01*
X0163954Y0008981D01*
X0163929Y0008858D01*
X0163907Y0008735D01*
X0163889Y0008611D01*
X0163876Y0008486D01*
X0163866Y0008361D01*
X0163860Y0008236D01*
X0163858Y0008111D01*
X0173858Y0008111D02*
X0173860Y0007980D01*
X0173866Y0007850D01*
X0173875Y0007719D01*
X0173889Y0007589D01*
X0173906Y0007460D01*
X0173928Y0007331D01*
X0173953Y0007202D01*
X0173981Y0007075D01*
X0174014Y0006948D01*
X0174050Y0006823D01*
X0174090Y0006698D01*
X0174134Y0006575D01*
X0174181Y0006453D01*
X0174232Y0006333D01*
X0174287Y0006214D01*
X0174345Y0006097D01*
X0174406Y0005981D01*
X0174471Y0005868D01*
X0174539Y0005756D01*
X0174610Y0005647D01*
X0174685Y0005539D01*
X0174763Y0005434D01*
X0174844Y0005332D01*
X0174928Y0005231D01*
X0175014Y0005134D01*
X0175104Y0005039D01*
X0175197Y0004946D01*
X0175292Y0004856D01*
X0175389Y0004770D01*
X0175490Y0004686D01*
X0175592Y0004605D01*
X0175697Y0004527D01*
X0175805Y0004452D01*
X0175914Y0004381D01*
X0176026Y0004313D01*
X0176139Y0004248D01*
X0176255Y0004187D01*
X0176372Y0004129D01*
X0176491Y0004074D01*
X0176611Y0004023D01*
X0176733Y0003976D01*
X0176856Y0003932D01*
X0176981Y0003892D01*
X0177106Y0003856D01*
X0177233Y0003823D01*
X0177360Y0003795D01*
X0177489Y0003770D01*
X0177618Y0003748D01*
X0177747Y0003731D01*
X0177877Y0003717D01*
X0178008Y0003708D01*
X0178138Y0003702D01*
X0178269Y0003700D01*
X0222400Y0003700D01*
X0212200Y0023500D02*
X0179247Y0023500D01*
X0178985Y0025300D02*
X0169847Y0025300D01*
X0162847Y0027100D02*
X0195800Y0027100D01*
X0200555Y0025300D02*
X0204600Y0025900D01*
X0200555Y0025300D02*
X0178985Y0025300D01*
X0179000Y0031300D02*
X0150200Y0031300D01*
X0152600Y0026500D02*
X0155600Y0028300D01*
X0188000Y0028300D01*
X0193400Y0033700D01*
X0193400Y0045700D01*
X0195200Y0049300D01*
X0211400Y0057700D02*
X0137000Y0057700D01*
X0131000Y0063700D01*
X0110600Y0063700D01*
X0109400Y0064900D01*
X0104600Y0062500D02*
X0108200Y0058900D01*
X0128600Y0058900D01*
X0134600Y0052900D01*
X0134600Y0048100D01*
X0137000Y0045700D01*
X0137000Y0045100D01*
X0135200Y0043300D01*
X0135200Y0046300D02*
X0135202Y0046488D01*
X0135209Y0046677D01*
X0135220Y0046865D01*
X0135236Y0047053D01*
X0135257Y0047240D01*
X0135282Y0047427D01*
X0135311Y0047613D01*
X0135345Y0047799D01*
X0135384Y0047983D01*
X0135427Y0048167D01*
X0135474Y0048349D01*
X0135526Y0048530D01*
X0135582Y0048710D01*
X0135642Y0048889D01*
X0135707Y0049066D01*
X0135776Y0049241D01*
X0135849Y0049415D01*
X0135926Y0049587D01*
X0136008Y0049757D01*
X0136093Y0049925D01*
X0136183Y0050091D01*
X0136277Y0050254D01*
X0136374Y0050416D01*
X0136476Y0050574D01*
X0136581Y0050731D01*
X0136690Y0050885D01*
X0136802Y0051036D01*
X0136919Y0051184D01*
X0137038Y0051330D01*
X0137162Y0051472D01*
X0137288Y0051612D01*
X0137418Y0051748D01*
X0137552Y0051882D01*
X0137688Y0052012D01*
X0137828Y0052138D01*
X0137970Y0052262D01*
X0138116Y0052381D01*
X0138264Y0052498D01*
X0138415Y0052610D01*
X0138569Y0052719D01*
X0138726Y0052824D01*
X0138884Y0052926D01*
X0139046Y0053023D01*
X0139209Y0053117D01*
X0139375Y0053207D01*
X0139543Y0053292D01*
X0139713Y0053374D01*
X0139885Y0053451D01*
X0140059Y0053524D01*
X0140234Y0053593D01*
X0140411Y0053658D01*
X0140590Y0053718D01*
X0140770Y0053774D01*
X0140951Y0053826D01*
X0141133Y0053873D01*
X0141317Y0053916D01*
X0141501Y0053955D01*
X0141687Y0053989D01*
X0141873Y0054018D01*
X0142060Y0054043D01*
X0142247Y0054064D01*
X0142435Y0054080D01*
X0142623Y0054091D01*
X0142812Y0054098D01*
X0143000Y0054100D01*
X0251000Y0054100D01*
X0251126Y0054102D01*
X0251251Y0054108D01*
X0251376Y0054118D01*
X0251501Y0054132D01*
X0251626Y0054149D01*
X0251750Y0054171D01*
X0251873Y0054196D01*
X0251995Y0054226D01*
X0252116Y0054259D01*
X0252236Y0054296D01*
X0252355Y0054336D01*
X0252472Y0054381D01*
X0252589Y0054429D01*
X0252703Y0054481D01*
X0252816Y0054536D01*
X0252927Y0054595D01*
X0253036Y0054657D01*
X0253143Y0054723D01*
X0253248Y0054792D01*
X0253351Y0054864D01*
X0253452Y0054939D01*
X0253550Y0055018D01*
X0253645Y0055100D01*
X0253738Y0055184D01*
X0253828Y0055272D01*
X0253916Y0055362D01*
X0254000Y0055455D01*
X0254082Y0055550D01*
X0254161Y0055648D01*
X0254236Y0055749D01*
X0254308Y0055852D01*
X0254377Y0055957D01*
X0254443Y0056064D01*
X0254505Y0056173D01*
X0254564Y0056284D01*
X0254619Y0056397D01*
X0254671Y0056511D01*
X0254719Y0056628D01*
X0254764Y0056745D01*
X0254804Y0056864D01*
X0254841Y0056984D01*
X0254874Y0057105D01*
X0254904Y0057227D01*
X0254929Y0057350D01*
X0254951Y0057474D01*
X0254968Y0057599D01*
X0254982Y0057724D01*
X0254992Y0057849D01*
X0254998Y0057974D01*
X0255000Y0058100D01*
X0255000Y0126300D01*
X0265000Y0136300D02*
X0260000Y0141300D01*
X0260000Y0151300D01*
X0255800Y0156100D01*
X0249800Y0156100D02*
X0249800Y0150700D01*
X0255000Y0146300D01*
X0243800Y0154900D02*
X0243800Y0066100D01*
X0233000Y0057700D01*
X0222200Y0057700D01*
X0211400Y0057700D02*
X0233000Y0079300D01*
X0234200Y0072100D02*
X0240200Y0078100D01*
X0240200Y0158500D01*
X0247400Y0165700D01*
X0247400Y0200500D01*
X0243800Y0204100D01*
X0230600Y0204100D01*
X0227000Y0207700D01*
X0210200Y0207700D01*
X0195603Y0216297D01*
X0195006Y0216297D01*
X0205006Y0216297D02*
X0206403Y0216297D01*
X0215000Y0208900D01*
X0228200Y0208900D01*
X0231800Y0205300D01*
X0245000Y0205300D01*
X0248600Y0201700D01*
X0248600Y0164500D01*
X0241400Y0157300D01*
X0241400Y0068500D01*
X0237800Y0064900D01*
X0233000Y0064900D01*
X0234200Y0070900D02*
X0234200Y0072100D01*
X0248600Y0081700D02*
X0247400Y0087700D01*
X0247400Y0157300D01*
X0252606Y0163706D01*
X0253400Y0207700D01*
X0255006Y0209306D01*
X0255006Y0216297D01*
X0245000Y0207700D02*
X0249800Y0202900D01*
X0249800Y0163300D01*
X0243800Y0154900D01*
X0249800Y0156100D02*
X0255800Y0164500D01*
X0257000Y0189700D01*
X0243800Y0196900D02*
X0239000Y0201700D01*
X0139400Y0201700D01*
X0129800Y0192100D01*
X0104600Y0192100D01*
X0099800Y0187300D01*
X0091400Y0190900D02*
X0091400Y0138100D01*
X0099800Y0112900D02*
X0104600Y0108100D01*
X0104600Y0062500D01*
X0140000Y0026500D02*
X0152600Y0026500D01*
X0153858Y0018111D02*
X0153861Y0018328D01*
X0153868Y0018545D01*
X0153882Y0018762D01*
X0153900Y0018979D01*
X0153924Y0019195D01*
X0153952Y0019410D01*
X0153986Y0019624D01*
X0154025Y0019838D01*
X0154070Y0020051D01*
X0154119Y0020262D01*
X0154174Y0020472D01*
X0154233Y0020681D01*
X0154298Y0020889D01*
X0154368Y0021095D01*
X0154442Y0021299D01*
X0154522Y0021501D01*
X0154606Y0021701D01*
X0154695Y0021899D01*
X0154789Y0022095D01*
X0154888Y0022288D01*
X0154991Y0022480D01*
X0155099Y0022668D01*
X0155211Y0022854D01*
X0155328Y0023037D01*
X0155449Y0023217D01*
X0155575Y0023395D01*
X0155705Y0023569D01*
X0155839Y0023740D01*
X0155977Y0023907D01*
X0156119Y0024072D01*
X0156265Y0024233D01*
X0156414Y0024390D01*
X0156568Y0024544D01*
X0156725Y0024693D01*
X0156886Y0024839D01*
X0157051Y0024981D01*
X0157218Y0025119D01*
X0157389Y0025253D01*
X0157563Y0025383D01*
X0157741Y0025509D01*
X0157921Y0025630D01*
X0158104Y0025747D01*
X0158290Y0025859D01*
X0158478Y0025967D01*
X0158670Y0026070D01*
X0158863Y0026169D01*
X0159059Y0026263D01*
X0159257Y0026352D01*
X0159457Y0026436D01*
X0159659Y0026516D01*
X0159863Y0026590D01*
X0160069Y0026660D01*
X0160277Y0026725D01*
X0160486Y0026784D01*
X0160696Y0026839D01*
X0160907Y0026888D01*
X0161120Y0026933D01*
X0161334Y0026972D01*
X0161548Y0027006D01*
X0161763Y0027034D01*
X0161979Y0027058D01*
X0162196Y0027076D01*
X0162413Y0027090D01*
X0162630Y0027097D01*
X0162847Y0027100D01*
X0164011Y0018711D02*
X0163858Y0018111D01*
X0163846Y0018270D01*
X0163837Y0018430D01*
X0163832Y0018590D01*
X0163831Y0018750D01*
X0163834Y0018910D01*
X0163841Y0019069D01*
X0163851Y0019229D01*
X0163866Y0019388D01*
X0163884Y0019547D01*
X0163906Y0019705D01*
X0163932Y0019863D01*
X0163962Y0020020D01*
X0163995Y0020176D01*
X0164033Y0020332D01*
X0164074Y0020486D01*
X0164118Y0020640D01*
X0164167Y0020792D01*
X0164219Y0020943D01*
X0164275Y0021093D01*
X0164334Y0021242D01*
X0164397Y0021389D01*
X0164464Y0021534D01*
X0164534Y0021678D01*
X0164607Y0021820D01*
X0164684Y0021960D01*
X0164764Y0022098D01*
X0164847Y0022235D01*
X0164934Y0022369D01*
X0165024Y0022501D01*
X0165117Y0022631D01*
X0165214Y0022759D01*
X0165313Y0022884D01*
X0165415Y0023007D01*
X0165521Y0023127D01*
X0165629Y0023245D01*
X0165740Y0023360D01*
X0165853Y0023472D01*
X0165970Y0023582D01*
X0166089Y0023689D01*
X0166210Y0023793D01*
X0166334Y0023893D01*
X0166461Y0023991D01*
X0166590Y0024086D01*
X0166721Y0024178D01*
X0166854Y0024266D01*
X0166989Y0024351D01*
X0167126Y0024433D01*
X0167266Y0024512D01*
X0167407Y0024587D01*
X0167550Y0024659D01*
X0167694Y0024727D01*
X0167840Y0024792D01*
X0167988Y0024853D01*
X0168137Y0024911D01*
X0168288Y0024965D01*
X0168439Y0025015D01*
X0168592Y0025062D01*
X0168746Y0025105D01*
X0168901Y0025144D01*
X0169057Y0025179D01*
X0169214Y0025211D01*
X0169371Y0025239D01*
X0169529Y0025263D01*
X0169688Y0025283D01*
X0169847Y0025300D01*
X0173858Y0018111D02*
X0173860Y0018257D01*
X0173866Y0018403D01*
X0173876Y0018548D01*
X0173890Y0018694D01*
X0173907Y0018839D01*
X0173929Y0018983D01*
X0173955Y0019127D01*
X0173984Y0019269D01*
X0174017Y0019412D01*
X0174054Y0019553D01*
X0174095Y0019693D01*
X0174140Y0019832D01*
X0174189Y0019969D01*
X0174241Y0020106D01*
X0174297Y0020241D01*
X0174356Y0020374D01*
X0174419Y0020505D01*
X0174486Y0020635D01*
X0174556Y0020763D01*
X0174629Y0020889D01*
X0174706Y0021013D01*
X0174787Y0021135D01*
X0174870Y0021255D01*
X0174957Y0021372D01*
X0175047Y0021487D01*
X0175140Y0021600D01*
X0175236Y0021710D01*
X0175335Y0021817D01*
X0175436Y0021922D01*
X0175541Y0022023D01*
X0175648Y0022122D01*
X0175758Y0022218D01*
X0175871Y0022311D01*
X0175986Y0022401D01*
X0176103Y0022488D01*
X0176223Y0022571D01*
X0176345Y0022652D01*
X0176469Y0022729D01*
X0176595Y0022802D01*
X0176723Y0022872D01*
X0176853Y0022939D01*
X0176984Y0023002D01*
X0177117Y0023061D01*
X0177252Y0023117D01*
X0177389Y0023169D01*
X0177526Y0023218D01*
X0177665Y0023263D01*
X0177805Y0023304D01*
X0177946Y0023341D01*
X0178089Y0023374D01*
X0178231Y0023403D01*
X0178375Y0023429D01*
X0178519Y0023451D01*
X0178664Y0023468D01*
X0178810Y0023482D01*
X0178955Y0023492D01*
X0179101Y0023498D01*
X0179247Y0023500D01*
X0195800Y0027100D02*
X0196022Y0027103D01*
X0196244Y0027111D01*
X0196466Y0027124D01*
X0196688Y0027143D01*
X0196909Y0027167D01*
X0197129Y0027197D01*
X0197349Y0027231D01*
X0197568Y0027271D01*
X0197785Y0027317D01*
X0198002Y0027367D01*
X0198217Y0027423D01*
X0198431Y0027484D01*
X0198643Y0027550D01*
X0198854Y0027622D01*
X0199062Y0027698D01*
X0199269Y0027779D01*
X0199474Y0027866D01*
X0199677Y0027957D01*
X0199877Y0028053D01*
X0200075Y0028154D01*
X0200271Y0028259D01*
X0200464Y0028370D01*
X0200654Y0028485D01*
X0200842Y0028604D01*
X0201026Y0028729D01*
X0201208Y0028857D01*
X0201386Y0028990D01*
X0201561Y0029127D01*
X0201733Y0029268D01*
X0201901Y0029414D01*
X0202065Y0029563D01*
X0202226Y0029716D01*
X0202384Y0029874D01*
X0202537Y0030035D01*
X0202686Y0030199D01*
X0202832Y0030367D01*
X0202973Y0030539D01*
X0203110Y0030714D01*
X0203243Y0030892D01*
X0203371Y0031074D01*
X0203496Y0031258D01*
X0203615Y0031446D01*
X0203730Y0031636D01*
X0203841Y0031829D01*
X0203946Y0032025D01*
X0204047Y0032223D01*
X0204143Y0032423D01*
X0204234Y0032626D01*
X0204321Y0032831D01*
X0204402Y0033038D01*
X0204478Y0033246D01*
X0204550Y0033457D01*
X0204616Y0033669D01*
X0204677Y0033883D01*
X0204733Y0034098D01*
X0204783Y0034315D01*
X0204829Y0034532D01*
X0204869Y0034751D01*
X0204903Y0034971D01*
X0204933Y0035191D01*
X0204957Y0035412D01*
X0204976Y0035634D01*
X0204989Y0035856D01*
X0204997Y0036078D01*
X0205000Y0036300D01*
X0215000Y0036300D02*
X0214997Y0036049D01*
X0214988Y0035798D01*
X0214973Y0035547D01*
X0214951Y0035296D01*
X0214924Y0035046D01*
X0214891Y0034797D01*
X0214852Y0034549D01*
X0214806Y0034302D01*
X0214755Y0034056D01*
X0214698Y0033811D01*
X0214635Y0033568D01*
X0214566Y0033326D01*
X0214491Y0033086D01*
X0214410Y0032848D01*
X0214324Y0032612D01*
X0214232Y0032378D01*
X0214135Y0032147D01*
X0214031Y0031917D01*
X0213923Y0031691D01*
X0213809Y0031467D01*
X0213689Y0031246D01*
X0213564Y0031028D01*
X0213434Y0030813D01*
X0213299Y0030601D01*
X0213159Y0030392D01*
X0213014Y0030187D01*
X0212864Y0029986D01*
X0212709Y0029788D01*
X0212549Y0029594D01*
X0212385Y0029404D01*
X0212216Y0029217D01*
X0212042Y0029035D01*
X0211865Y0028858D01*
X0211683Y0028684D01*
X0211496Y0028515D01*
X0211306Y0028351D01*
X0211112Y0028191D01*
X0210914Y0028036D01*
X0210713Y0027886D01*
X0210508Y0027741D01*
X0210299Y0027601D01*
X0210087Y0027466D01*
X0209872Y0027336D01*
X0209654Y0027211D01*
X0209433Y0027091D01*
X0209209Y0026977D01*
X0208983Y0026869D01*
X0208753Y0026765D01*
X0208522Y0026668D01*
X0208288Y0026576D01*
X0208052Y0026490D01*
X0207814Y0026409D01*
X0207574Y0026334D01*
X0207332Y0026265D01*
X0207089Y0026202D01*
X0206844Y0026145D01*
X0206598Y0026094D01*
X0206351Y0026048D01*
X0206103Y0026009D01*
X0205854Y0025976D01*
X0205604Y0025949D01*
X0205353Y0025927D01*
X0205102Y0025912D01*
X0204851Y0025903D01*
X0204600Y0025900D01*
X0212200Y0023500D02*
X0212509Y0023504D01*
X0212818Y0023515D01*
X0213127Y0023534D01*
X0213435Y0023560D01*
X0213743Y0023593D01*
X0214049Y0023634D01*
X0214355Y0023683D01*
X0214659Y0023738D01*
X0214962Y0023802D01*
X0215263Y0023872D01*
X0215563Y0023950D01*
X0215860Y0024034D01*
X0216155Y0024126D01*
X0216448Y0024226D01*
X0216739Y0024332D01*
X0217027Y0024445D01*
X0217312Y0024565D01*
X0217594Y0024692D01*
X0217873Y0024826D01*
X0218148Y0024966D01*
X0218421Y0025113D01*
X0218689Y0025267D01*
X0218954Y0025427D01*
X0219215Y0025593D01*
X0219471Y0025766D01*
X0219724Y0025945D01*
X0219972Y0026129D01*
X0220215Y0026320D01*
X0220454Y0026517D01*
X0220688Y0026719D01*
X0220917Y0026927D01*
X0221141Y0027140D01*
X0221360Y0027359D01*
X0221573Y0027583D01*
X0221781Y0027812D01*
X0221983Y0028046D01*
X0222180Y0028285D01*
X0222371Y0028528D01*
X0222555Y0028776D01*
X0222734Y0029029D01*
X0222907Y0029285D01*
X0223073Y0029546D01*
X0223233Y0029811D01*
X0223387Y0030079D01*
X0223534Y0030352D01*
X0223674Y0030627D01*
X0223808Y0030906D01*
X0223935Y0031188D01*
X0224055Y0031473D01*
X0224168Y0031761D01*
X0224274Y0032052D01*
X0224374Y0032345D01*
X0224466Y0032640D01*
X0224550Y0032937D01*
X0224628Y0033237D01*
X0224698Y0033538D01*
X0224762Y0033841D01*
X0224817Y0034145D01*
X0224866Y0034451D01*
X0224907Y0034757D01*
X0224940Y0035065D01*
X0224966Y0035373D01*
X0224985Y0035682D01*
X0224996Y0035991D01*
X0225000Y0036300D01*
X0255000Y0036300D02*
X0254990Y0035512D01*
X0254962Y0034725D01*
X0254914Y0033939D01*
X0254848Y0033154D01*
X0254762Y0032371D01*
X0254658Y0031590D01*
X0254535Y0030812D01*
X0254393Y0030037D01*
X0254232Y0029265D01*
X0254053Y0028498D01*
X0253855Y0027736D01*
X0253639Y0026978D01*
X0253404Y0026226D01*
X0253152Y0025480D01*
X0252882Y0024740D01*
X0252593Y0024007D01*
X0252287Y0023281D01*
X0251964Y0022562D01*
X0251624Y0021852D01*
X0251266Y0021150D01*
X0250891Y0020457D01*
X0250500Y0019773D01*
X0250093Y0019099D01*
X0249669Y0018435D01*
X0249229Y0017781D01*
X0248774Y0017138D01*
X0248303Y0016507D01*
X0247817Y0015886D01*
X0247317Y0015278D01*
X0246801Y0014682D01*
X0246272Y0014099D01*
X0245729Y0013529D01*
X0245171Y0012971D01*
X0244601Y0012428D01*
X0244018Y0011899D01*
X0243422Y0011383D01*
X0242814Y0010883D01*
X0242193Y0010397D01*
X0241562Y0009926D01*
X0240919Y0009471D01*
X0240265Y0009031D01*
X0239601Y0008607D01*
X0238927Y0008200D01*
X0238243Y0007809D01*
X0237550Y0007434D01*
X0236848Y0007076D01*
X0236138Y0006736D01*
X0235419Y0006413D01*
X0234693Y0006107D01*
X0233960Y0005818D01*
X0233220Y0005548D01*
X0232474Y0005296D01*
X0231722Y0005061D01*
X0230964Y0004845D01*
X0230202Y0004647D01*
X0229435Y0004468D01*
X0228663Y0004307D01*
X0227888Y0004165D01*
X0227110Y0004042D01*
X0226329Y0003938D01*
X0225546Y0003852D01*
X0224761Y0003786D01*
X0223975Y0003738D01*
X0223188Y0003710D01*
X0222400Y0003700D01*
X0220800Y0012100D02*
X0221385Y0012107D01*
X0221969Y0012128D01*
X0222553Y0012164D01*
X0223136Y0012213D01*
X0223717Y0012276D01*
X0224297Y0012354D01*
X0224874Y0012445D01*
X0225449Y0012551D01*
X0226022Y0012670D01*
X0226591Y0012803D01*
X0227158Y0012950D01*
X0227720Y0013110D01*
X0228278Y0013284D01*
X0228832Y0013472D01*
X0229381Y0013673D01*
X0229926Y0013887D01*
X0230465Y0014114D01*
X0230998Y0014354D01*
X0231525Y0014606D01*
X0232046Y0014872D01*
X0232561Y0015150D01*
X0233068Y0015440D01*
X0233569Y0015743D01*
X0234062Y0016057D01*
X0234547Y0016384D01*
X0235024Y0016722D01*
X0235493Y0017071D01*
X0235954Y0017432D01*
X0236405Y0017804D01*
X0236848Y0018186D01*
X0237281Y0018579D01*
X0237704Y0018983D01*
X0238117Y0019396D01*
X0238521Y0019819D01*
X0238914Y0020252D01*
X0239296Y0020695D01*
X0239668Y0021146D01*
X0240029Y0021607D01*
X0240378Y0022076D01*
X0240716Y0022553D01*
X0241043Y0023038D01*
X0241357Y0023531D01*
X0241660Y0024032D01*
X0241950Y0024539D01*
X0242228Y0025054D01*
X0242494Y0025575D01*
X0242746Y0026102D01*
X0242986Y0026635D01*
X0243213Y0027174D01*
X0243427Y0027719D01*
X0243628Y0028268D01*
X0243816Y0028822D01*
X0243990Y0029380D01*
X0244150Y0029942D01*
X0244297Y0030509D01*
X0244430Y0031078D01*
X0244549Y0031651D01*
X0244655Y0032226D01*
X0244746Y0032803D01*
X0244824Y0033383D01*
X0244887Y0033964D01*
X0244936Y0034547D01*
X0244972Y0035131D01*
X0244993Y0035715D01*
X0245000Y0036300D01*
X0235000Y0036300D02*
X0234993Y0035759D01*
X0234974Y0035218D01*
X0234941Y0034677D01*
X0234895Y0034138D01*
X0234837Y0033600D01*
X0234765Y0033063D01*
X0234680Y0032529D01*
X0234583Y0031996D01*
X0234472Y0031466D01*
X0234349Y0030939D01*
X0234213Y0030415D01*
X0234065Y0029895D01*
X0233904Y0029378D01*
X0233730Y0028865D01*
X0233544Y0028357D01*
X0233346Y0027853D01*
X0233136Y0027354D01*
X0232914Y0026861D01*
X0232680Y0026373D01*
X0232434Y0025890D01*
X0232177Y0025414D01*
X0231908Y0024944D01*
X0231628Y0024481D01*
X0231337Y0024025D01*
X0231035Y0023575D01*
X0230722Y0023134D01*
X0230399Y0022700D01*
X0230065Y0022273D01*
X0229721Y0021856D01*
X0229367Y0021446D01*
X0229003Y0021045D01*
X0228629Y0020653D01*
X0228247Y0020271D01*
X0227855Y0019897D01*
X0227454Y0019533D01*
X0227044Y0019179D01*
X0226627Y0018835D01*
X0226200Y0018501D01*
X0225766Y0018178D01*
X0225325Y0017865D01*
X0224875Y0017563D01*
X0224419Y0017272D01*
X0223956Y0016992D01*
X0223486Y0016723D01*
X0223010Y0016466D01*
X0222527Y0016220D01*
X0222039Y0015986D01*
X0221546Y0015764D01*
X0221047Y0015554D01*
X0220543Y0015356D01*
X0220035Y0015170D01*
X0219522Y0014996D01*
X0219005Y0014835D01*
X0218485Y0014687D01*
X0217961Y0014551D01*
X0217434Y0014428D01*
X0216904Y0014317D01*
X0216371Y0014220D01*
X0215837Y0014135D01*
X0215300Y0014063D01*
X0214762Y0014005D01*
X0214223Y0013959D01*
X0213682Y0013926D01*
X0213141Y0013907D01*
X0212600Y0013900D01*
X0099800Y0112900D02*
X0099800Y0171700D01*
X0111800Y0178900D02*
X0119000Y0186100D01*
X0133400Y0186100D01*
X0144200Y0196900D01*
X0227000Y0196900D01*
X0235400Y0188500D01*
X0235400Y0148900D01*
X0243800Y0168100D02*
X0243800Y0196900D01*
X0239000Y0194500D02*
X0234200Y0199300D01*
X0141800Y0199300D01*
X0132200Y0189700D01*
X0114200Y0189700D01*
X0108200Y0183700D01*
X0099800Y0199300D02*
X0091400Y0190900D01*
X0099800Y0199300D02*
X0128600Y0199300D01*
X0135800Y0206500D01*
X0141800Y0207700D01*
X0158797Y0216297D02*
X0158997Y0216297D01*
X0215006Y0216297D02*
X0216003Y0216297D01*
X0223400Y0210100D01*
X0231800Y0210100D01*
X0234200Y0207700D01*
X0245000Y0207700D01*
X0225006Y0216297D02*
X0225000Y0216302D01*
X0225000Y0226300D01*
X0235000Y0226300D02*
X0235000Y0230900D01*
X0231800Y0234100D01*
X0093800Y0234100D01*
X0089000Y0229300D01*
X0089000Y0226300D01*
X0052402Y0208898D02*
X0052402Y0186698D01*
X0059000Y0180100D01*
X0059000Y0174100D01*
X0060200Y0172900D01*
X0051800Y0177700D02*
X0042402Y0187098D01*
X0042402Y0208898D01*
X0032402Y0208898D02*
X0032402Y0194698D01*
X0037400Y0189700D01*
X0037400Y0182500D01*
X0030200Y0187300D02*
X0021800Y0187300D01*
X0015800Y0193300D01*
X0015800Y0225700D01*
X0021800Y0231700D01*
X0037400Y0231700D01*
X0042200Y0226900D01*
X0042200Y0219100D01*
X0042402Y0218898D01*
M02*
