G75*
%MOIN*%
%OFA0B0*%
%FSLAX25Y25*%
%IPPOS*%
%LPD*%
%AMOC8*
5,1,8,0,0,1.08239X$1,22.5*
%
%ADD10C,0.00000*%
%ADD11C,0.00600*%
%ADD12C,0.00400*%
%ADD13C,0.00300*%
%ADD14C,0.00500*%
%ADD15R,0.00200X0.00400*%
%ADD16R,0.00200X0.01800*%
%ADD17R,0.00200X0.02200*%
%ADD18R,0.00200X0.02800*%
%ADD19R,0.00200X0.03000*%
%ADD20R,0.00200X0.03200*%
%ADD21R,0.00200X0.03600*%
%ADD22R,0.00200X0.04200*%
%ADD23R,0.00200X0.04400*%
%ADD24R,0.00200X0.04600*%
%ADD25R,0.00200X0.04800*%
%ADD26R,0.00200X0.05000*%
%ADD27R,0.00200X0.05200*%
%ADD28R,0.00200X0.05400*%
%ADD29R,0.00200X0.05600*%
%ADD30R,0.00200X0.05800*%
%ADD31R,0.00200X0.06000*%
%ADD32R,0.00200X0.06200*%
%ADD33R,0.00200X0.06400*%
%ADD34R,0.00200X0.06600*%
%ADD35R,0.00200X0.01200*%
%ADD36R,0.00200X0.01400*%
%ADD37R,0.00200X0.02400*%
%ADD38R,0.00200X0.06800*%
%ADD39R,0.00200X0.03400*%
%ADD40R,0.00200X0.04000*%
%ADD41R,0.00200X0.02000*%
%ADD42R,0.00200X0.07000*%
%ADD43R,0.00200X0.07200*%
%ADD44R,0.00200X0.07400*%
%ADD45R,0.00200X0.07600*%
%ADD46R,0.00200X0.07800*%
%ADD47R,0.00200X0.08000*%
%ADD48R,0.00200X0.08200*%
%ADD49R,0.00200X0.08600*%
%ADD50R,0.00200X0.08400*%
%ADD51R,0.00200X0.08800*%
%ADD52R,0.00200X0.09000*%
%ADD53R,0.00200X0.09200*%
%ADD54R,0.00200X0.09400*%
%ADD55R,0.00200X0.09600*%
%ADD56R,0.00200X0.10000*%
%ADD57R,0.00200X0.09800*%
%ADD58R,0.00200X0.10200*%
%ADD59R,0.00200X0.10400*%
%ADD60R,0.00200X0.10600*%
%ADD61R,0.00200X0.10800*%
%ADD62R,0.00200X0.11000*%
%ADD63R,0.00200X0.11400*%
%ADD64R,0.00200X0.22200*%
%ADD65R,0.00200X0.00600*%
%ADD66R,0.00200X0.21800*%
%ADD67R,0.00200X0.21600*%
%ADD68R,0.00200X0.21400*%
%ADD69R,0.00200X0.25800*%
%ADD70R,0.00200X0.26200*%
%ADD71R,0.00200X0.26400*%
%ADD72R,0.00200X0.26800*%
%ADD73R,0.00200X0.27200*%
%ADD74R,0.00200X0.27400*%
%ADD75R,0.00200X0.27600*%
%ADD76R,0.00200X0.28000*%
%ADD77R,0.00200X0.28200*%
%ADD78R,0.00200X0.28600*%
%ADD79R,0.00200X0.29200*%
%ADD80R,0.00200X0.29800*%
%ADD81R,0.00200X0.11600*%
%ADD82R,0.00200X0.18600*%
%ADD83R,0.00200X0.32000*%
%ADD84R,0.00200X0.44200*%
%ADD85R,0.00200X0.13400*%
%ADD86R,0.00200X0.30400*%
%ADD87R,0.00200X0.44400*%
%ADD88R,0.00200X0.45400*%
%ADD89R,0.00200X0.45600*%
%ADD90R,0.00200X0.46000*%
%ADD91R,0.00200X0.46200*%
%ADD92R,0.00200X0.46400*%
%ADD93R,0.00200X0.46600*%
%ADD94R,0.00200X0.46800*%
%ADD95R,0.00200X0.47000*%
%ADD96R,0.00200X0.47200*%
%ADD97R,0.00200X0.47400*%
%ADD98R,0.00200X0.47600*%
%ADD99R,0.00200X0.36400*%
%ADD100R,0.00200X0.36000*%
%ADD101R,0.00200X0.35800*%
%ADD102R,0.00200X0.35600*%
%ADD103R,0.00200X0.35200*%
%ADD104R,0.00200X0.19200*%
%ADD105R,0.00200X0.17800*%
%ADD106R,0.00200X0.17600*%
%ADD107R,0.00200X0.16600*%
%ADD108R,0.00200X0.16200*%
%ADD109R,0.00200X0.16000*%
%ADD110R,0.00200X0.15400*%
%ADD111R,0.00200X0.15000*%
%ADD112R,0.00200X0.14600*%
%ADD113R,0.00200X0.14400*%
%ADD114R,0.00200X0.11800*%
%ADD115R,0.00200X0.14200*%
%ADD116R,0.00200X0.12800*%
%ADD117R,0.00200X0.14000*%
%ADD118R,0.00200X0.13600*%
%ADD119R,0.00200X0.14800*%
%ADD120R,0.00200X0.00200*%
%ADD121R,0.00200X0.16400*%
%ADD122R,0.00200X0.13200*%
%ADD123R,0.00200X0.17200*%
%ADD124R,0.00200X0.12600*%
%ADD125R,0.00200X0.19400*%
%ADD126R,0.00200X0.20200*%
%ADD127R,0.00200X0.12200*%
%ADD128R,0.00200X0.20400*%
%ADD129R,0.00200X0.21000*%
%ADD130R,0.00200X0.12000*%
%ADD131R,0.00200X0.22600*%
%ADD132R,0.00200X0.00800*%
%ADD133R,0.00200X0.23000*%
%ADD134R,0.00200X0.11200*%
%ADD135R,0.00200X0.03800*%
%ADD136R,0.00200X0.24000*%
%ADD137R,0.00200X0.25000*%
%ADD138R,0.00200X0.26000*%
%ADD139R,0.00200X0.27800*%
%ADD140R,0.00200X0.01600*%
%ADD141R,0.00200X0.29000*%
%ADD142R,0.00200X0.29600*%
%ADD143R,0.00200X0.31200*%
%ADD144R,0.00200X0.32400*%
%ADD145R,0.00200X0.32800*%
%ADD146R,0.00200X0.33400*%
%ADD147R,0.00200X0.33800*%
%ADD148R,0.00200X0.34200*%
%ADD149R,0.00200X0.34600*%
%ADD150R,0.00200X0.34800*%
%ADD151R,0.00200X0.35000*%
%ADD152R,0.00200X0.01000*%
%ADD153R,0.00200X0.35400*%
%ADD154R,0.00200X0.33600*%
%ADD155R,0.00200X0.12400*%
%ADD156R,0.00200X0.33200*%
%ADD157R,0.00200X0.33000*%
%ADD158R,0.00200X0.32200*%
%ADD159R,0.00200X0.30800*%
%ADD160R,0.00200X0.29400*%
%ADD161R,0.00200X0.28800*%
%ADD162R,0.00200X0.13000*%
%ADD163R,0.00200X0.26600*%
%ADD164R,0.00200X0.25600*%
%ADD165R,0.00200X0.25200*%
%ADD166R,0.00200X0.24800*%
%ADD167R,0.00200X0.24200*%
%ADD168R,0.00200X0.23600*%
%ADD169R,0.00200X0.13800*%
%ADD170R,0.00200X0.22400*%
%ADD171R,0.00200X0.21200*%
%ADD172R,0.00200X0.02600*%
%ADD173R,0.00200X0.15200*%
%ADD174R,0.00200X0.15600*%
%ADD175R,0.00200X0.16800*%
%ADD176R,0.00200X0.17000*%
%ADD177R,0.00200X0.17400*%
%ADD178R,0.00200X0.18000*%
%ADD179R,0.00200X0.15800*%
%ADD180R,0.00200X0.30600*%
%ADD181R,0.00200X0.38000*%
%ADD182R,0.00200X0.37800*%
%ADD183R,0.00200X0.37600*%
%ADD184R,0.00200X0.37400*%
%ADD185R,0.00200X0.37200*%
%ADD186R,0.00200X0.37000*%
%ADD187R,0.00200X0.22800*%
%ADD188R,0.00200X0.20800*%
%ADD189R,0.00200X0.19800*%
%ADD190R,0.00200X0.18800*%
%ADD191R,0.00200X0.22000*%
%ADD192R,0.00200X0.34400*%
%ADD193R,0.00200X0.42200*%
%ADD194R,0.00200X0.41800*%
%ADD195R,0.00200X0.41400*%
%ADD196R,0.00200X0.41200*%
%ADD197R,0.00200X0.40400*%
%ADD198R,0.00200X0.40000*%
%ADD199R,0.00200X0.39600*%
%ADD200R,0.00200X0.40200*%
%ADD201R,0.00200X0.42400*%
%ADD202R,0.00200X0.43800*%
%ADD203R,0.00200X0.44600*%
%ADD204R,0.00200X0.45200*%
%ADD205R,0.00200X0.48400*%
%ADD206R,0.00200X0.48800*%
%ADD207R,0.00200X0.49200*%
%ADD208R,0.00200X0.49800*%
%ADD209R,0.00200X0.50000*%
%ADD210R,0.00200X0.50800*%
%ADD211R,0.00200X0.51000*%
%ADD212R,0.00200X0.51200*%
%ADD213R,0.00200X0.51800*%
%ADD214R,0.00200X0.52400*%
%ADD215R,0.00200X0.52600*%
%ADD216R,0.00200X0.53000*%
%ADD217R,0.00200X0.53600*%
%ADD218R,0.00200X0.53800*%
%ADD219R,0.00200X0.54600*%
%ADD220R,0.00200X0.55000*%
%ADD221R,0.00200X0.55600*%
%ADD222R,0.00200X0.56400*%
%ADD223R,0.00200X0.56600*%
%ADD224R,0.00200X0.56800*%
%ADD225R,0.00200X0.57200*%
%ADD226R,0.00200X0.57400*%
%ADD227R,0.00200X0.57800*%
%ADD228R,0.00200X0.58000*%
%ADD229R,0.00200X0.58600*%
%ADD230R,0.00200X0.41600*%
%ADD231R,0.00200X0.41000*%
%ADD232R,0.00200X0.40800*%
%ADD233R,0.00200X0.40600*%
%ADD234R,0.00200X0.27000*%
%ADD235R,0.00200X0.25400*%
%ADD236R,0.00200X0.24600*%
%ADD237R,0.00200X0.24400*%
%ADD238R,0.00200X0.18200*%
%ADD239R,0.00200X0.18400*%
%ADD240R,0.00200X0.20000*%
%ADD241R,0.00200X0.20600*%
%ADD242R,0.00200X0.23400*%
%ADD243R,0.00200X0.23200*%
%ADD244R,0.00200X0.67600*%
%ADD245R,0.00200X0.67000*%
%ADD246R,0.00200X0.66600*%
%ADD247R,0.00200X0.65800*%
%ADD248R,0.00200X0.65600*%
%ADD249R,0.00200X0.64800*%
%ADD250R,0.00200X0.64200*%
%ADD251R,0.00200X0.63600*%
%ADD252R,0.00200X0.63200*%
%ADD253R,0.00200X0.62600*%
%ADD254R,0.00200X0.62000*%
%ADD255R,0.00200X0.61400*%
%ADD256R,0.00200X0.61200*%
%ADD257R,0.00200X0.60200*%
%ADD258R,0.00200X0.60000*%
%ADD259R,0.00200X0.59600*%
%ADD260R,0.00200X0.58200*%
%ADD261R,0.00200X0.57600*%
%ADD262R,0.00200X0.56000*%
%ADD263R,0.00200X0.54800*%
%ADD264R,0.00200X0.54000*%
%ADD265R,0.00200X0.51400*%
%ADD266R,0.00200X0.50400*%
%ADD267R,0.00200X0.49600*%
%ADD268R,0.00200X0.48600*%
%ADD269R,0.00200X0.48200*%
%ADD270R,0.00200X0.47800*%
%ADD271R,0.00200X0.45000*%
%ADD272R,0.00200X0.43200*%
%ADD273R,0.00200X0.42800*%
%ADD274R,0.00200X0.38800*%
%ADD275R,0.00200X0.38200*%
%ADD276R,0.00200X0.36800*%
%ADD277R,0.00200X0.28400*%
D10*
X0064055Y0010103D02*
X0064055Y0090922D01*
X0064052Y0091135D01*
X0064045Y0091347D01*
X0064032Y0091560D01*
X0064014Y0091772D01*
X0063991Y0091983D01*
X0063963Y0092194D01*
X0063929Y0092404D01*
X0063891Y0092613D01*
X0063848Y0092822D01*
X0063799Y0093029D01*
X0063746Y0093235D01*
X0063687Y0093439D01*
X0063624Y0093642D01*
X0063556Y0093844D01*
X0063483Y0094044D01*
X0063405Y0094242D01*
X0063323Y0094438D01*
X0063235Y0094632D01*
X0063143Y0094823D01*
X0063047Y0095013D01*
X0062946Y0095200D01*
X0062840Y0095385D01*
X0062730Y0095567D01*
X0062615Y0095746D01*
X0062497Y0095923D01*
X0062374Y0096096D01*
X0062247Y0096267D01*
X0062115Y0096434D01*
X0061980Y0096599D01*
X0061841Y0096759D01*
X0061698Y0096917D01*
X0061551Y0097071D01*
X0061401Y0097221D01*
X0061247Y0097368D01*
X0061089Y0097511D01*
X0060929Y0097650D01*
X0060764Y0097785D01*
X0060597Y0097917D01*
X0060426Y0098044D01*
X0060253Y0098167D01*
X0060076Y0098285D01*
X0059897Y0098400D01*
X0059715Y0098510D01*
X0059530Y0098616D01*
X0059343Y0098717D01*
X0059153Y0098813D01*
X0058962Y0098905D01*
X0058768Y0098993D01*
X0058572Y0099075D01*
X0058374Y0099153D01*
X0058174Y0099226D01*
X0057972Y0099294D01*
X0057769Y0099357D01*
X0057565Y0099416D01*
X0057359Y0099469D01*
X0057152Y0099518D01*
X0056943Y0099561D01*
X0056734Y0099599D01*
X0056524Y0099633D01*
X0056313Y0099661D01*
X0056102Y0099684D01*
X0055890Y0099702D01*
X0055677Y0099715D01*
X0055465Y0099722D01*
X0055252Y0099725D01*
X0019195Y0099725D01*
X0018852Y0099729D01*
X0018509Y0099742D01*
X0018167Y0099762D01*
X0017825Y0099791D01*
X0017484Y0099828D01*
X0017144Y0099874D01*
X0016805Y0099928D01*
X0016468Y0099989D01*
X0016132Y0100059D01*
X0015798Y0100137D01*
X0015466Y0100224D01*
X0015136Y0100318D01*
X0014809Y0100420D01*
X0014484Y0100530D01*
X0014161Y0100647D01*
X0013842Y0100773D01*
X0013526Y0100906D01*
X0013213Y0101047D01*
X0012904Y0101195D01*
X0012598Y0101351D01*
X0012296Y0101514D01*
X0011999Y0101684D01*
X0011705Y0101862D01*
X0011416Y0102046D01*
X0011131Y0102238D01*
X0010851Y0102436D01*
X0010576Y0102641D01*
X0010306Y0102853D01*
X0010041Y0103071D01*
X0009782Y0103295D01*
X0009528Y0103525D01*
X0009280Y0103762D01*
X0009037Y0104005D01*
X0008800Y0104253D01*
X0008570Y0104507D01*
X0008346Y0104766D01*
X0008128Y0105031D01*
X0007916Y0105301D01*
X0007711Y0105576D01*
X0007513Y0105856D01*
X0007321Y0106141D01*
X0007137Y0106430D01*
X0006959Y0106724D01*
X0006789Y0107021D01*
X0006626Y0107323D01*
X0006470Y0107629D01*
X0006322Y0107938D01*
X0006181Y0108251D01*
X0006048Y0108567D01*
X0005922Y0108886D01*
X0005805Y0109209D01*
X0005695Y0109534D01*
X0005593Y0109861D01*
X0005499Y0110191D01*
X0005412Y0110523D01*
X0005334Y0110857D01*
X0005264Y0111193D01*
X0005203Y0111530D01*
X0005149Y0111869D01*
X0005103Y0112209D01*
X0005066Y0112550D01*
X0005037Y0112892D01*
X0005017Y0113234D01*
X0005004Y0113577D01*
X0005000Y0113920D01*
X0005000Y0225098D01*
X0005003Y0225368D01*
X0005013Y0225637D01*
X0005029Y0225907D01*
X0005052Y0226175D01*
X0005081Y0226444D01*
X0005117Y0226711D01*
X0005159Y0226977D01*
X0005208Y0227243D01*
X0005263Y0227507D01*
X0005324Y0227769D01*
X0005392Y0228031D01*
X0005466Y0228290D01*
X0005546Y0228548D01*
X0005633Y0228803D01*
X0005725Y0229056D01*
X0005824Y0229308D01*
X0005929Y0229556D01*
X0006040Y0229802D01*
X0006156Y0230045D01*
X0006279Y0230286D01*
X0006407Y0230523D01*
X0006541Y0230757D01*
X0006680Y0230988D01*
X0006825Y0231215D01*
X0006976Y0231439D01*
X0007132Y0231659D01*
X0007293Y0231876D01*
X0007459Y0232088D01*
X0007631Y0232296D01*
X0007807Y0232500D01*
X0007989Y0232700D01*
X0008175Y0232895D01*
X0008366Y0233086D01*
X0008561Y0233272D01*
X0008761Y0233454D01*
X0008965Y0233630D01*
X0009173Y0233802D01*
X0009385Y0233968D01*
X0009602Y0234129D01*
X0009822Y0234285D01*
X0010046Y0234436D01*
X0010273Y0234581D01*
X0010504Y0234720D01*
X0010738Y0234854D01*
X0010975Y0234982D01*
X0011216Y0235105D01*
X0011459Y0235221D01*
X0011705Y0235332D01*
X0011953Y0235437D01*
X0012205Y0235536D01*
X0012458Y0235628D01*
X0012713Y0235715D01*
X0012971Y0235795D01*
X0013230Y0235869D01*
X0013492Y0235937D01*
X0013754Y0235998D01*
X0014018Y0236053D01*
X0014284Y0236102D01*
X0014550Y0236144D01*
X0014817Y0236180D01*
X0015086Y0236209D01*
X0015354Y0236232D01*
X0015624Y0236248D01*
X0015893Y0236258D01*
X0016163Y0236261D01*
X0254763Y0236261D01*
X0262006Y0233275D02*
X0263110Y0232178D01*
X0265000Y0227635D02*
X0265000Y0185714D01*
X0265293Y0185007D02*
X0271217Y0179158D01*
X0272717Y0175571D02*
X0272717Y0101174D01*
X0272714Y0100903D01*
X0272704Y0100632D01*
X0272687Y0100361D01*
X0272664Y0100091D01*
X0272635Y0099822D01*
X0272598Y0099553D01*
X0272556Y0099285D01*
X0272506Y0099018D01*
X0272451Y0098753D01*
X0272388Y0098489D01*
X0272320Y0098227D01*
X0272245Y0097966D01*
X0272164Y0097707D01*
X0272076Y0097451D01*
X0271982Y0097196D01*
X0271882Y0096944D01*
X0271776Y0096695D01*
X0271664Y0096448D01*
X0271546Y0096204D01*
X0271422Y0095963D01*
X0271292Y0095724D01*
X0271157Y0095490D01*
X0271016Y0095258D01*
X0270869Y0095030D01*
X0270716Y0094806D01*
X0270559Y0094585D01*
X0270396Y0094369D01*
X0270227Y0094156D01*
X0270054Y0093948D01*
X0269875Y0093743D01*
X0269692Y0093544D01*
X0269504Y0093348D01*
X0269311Y0093158D01*
X0269114Y0092972D01*
X0268912Y0092791D01*
X0268705Y0092615D01*
X0268495Y0092444D01*
X0266956Y0091226D01*
X0264843Y0086856D02*
X0264843Y0033371D01*
X0265000Y0012547D01*
X0264997Y0012275D01*
X0264987Y0012004D01*
X0264970Y0011732D01*
X0264947Y0011462D01*
X0264918Y0011191D01*
X0264882Y0010922D01*
X0264839Y0010653D01*
X0264790Y0010386D01*
X0264735Y0010120D01*
X0264673Y0009855D01*
X0264605Y0009592D01*
X0264530Y0009331D01*
X0264450Y0009071D01*
X0264362Y0008814D01*
X0264269Y0008559D01*
X0264170Y0008306D01*
X0264064Y0008055D01*
X0263953Y0007808D01*
X0263835Y0007562D01*
X0263712Y0007320D01*
X0263583Y0007081D01*
X0263448Y0006845D01*
X0263307Y0006613D01*
X0263161Y0006384D01*
X0263009Y0006158D01*
X0262852Y0005936D01*
X0262690Y0005718D01*
X0262522Y0005504D01*
X0262349Y0005294D01*
X0262172Y0005089D01*
X0261989Y0004888D01*
X0261801Y0004691D01*
X0261609Y0004499D01*
X0261412Y0004311D01*
X0261211Y0004128D01*
X0261006Y0003951D01*
X0260796Y0003778D01*
X0260582Y0003610D01*
X0260364Y0003448D01*
X0260142Y0003291D01*
X0259916Y0003139D01*
X0259687Y0002993D01*
X0259455Y0002852D01*
X0259219Y0002717D01*
X0258980Y0002588D01*
X0258738Y0002465D01*
X0258492Y0002347D01*
X0258245Y0002236D01*
X0257994Y0002130D01*
X0257741Y0002031D01*
X0257486Y0001938D01*
X0257229Y0001850D01*
X0256969Y0001770D01*
X0256708Y0001695D01*
X0256445Y0001627D01*
X0256180Y0001565D01*
X0255914Y0001510D01*
X0255647Y0001461D01*
X0255378Y0001418D01*
X0255109Y0001382D01*
X0254838Y0001353D01*
X0254568Y0001330D01*
X0254296Y0001313D01*
X0254025Y0001303D01*
X0253753Y0001300D01*
X0072859Y0001300D01*
X0072646Y0001303D01*
X0072434Y0001310D01*
X0072221Y0001323D01*
X0072009Y0001341D01*
X0071798Y0001364D01*
X0071587Y0001392D01*
X0071377Y0001426D01*
X0071168Y0001464D01*
X0070959Y0001507D01*
X0070752Y0001556D01*
X0070546Y0001609D01*
X0070342Y0001668D01*
X0070139Y0001731D01*
X0069937Y0001799D01*
X0069737Y0001872D01*
X0069539Y0001950D01*
X0069343Y0002032D01*
X0069149Y0002120D01*
X0068958Y0002212D01*
X0068768Y0002308D01*
X0068581Y0002409D01*
X0068396Y0002515D01*
X0068214Y0002625D01*
X0068035Y0002740D01*
X0067858Y0002858D01*
X0067685Y0002981D01*
X0067514Y0003108D01*
X0067347Y0003240D01*
X0067182Y0003375D01*
X0067022Y0003514D01*
X0066864Y0003657D01*
X0066710Y0003804D01*
X0066560Y0003954D01*
X0066413Y0004108D01*
X0066270Y0004266D01*
X0066131Y0004426D01*
X0065996Y0004591D01*
X0065864Y0004758D01*
X0065737Y0004929D01*
X0065614Y0005102D01*
X0065496Y0005279D01*
X0065381Y0005458D01*
X0065271Y0005640D01*
X0065165Y0005825D01*
X0065064Y0006012D01*
X0064968Y0006202D01*
X0064876Y0006393D01*
X0064788Y0006587D01*
X0064706Y0006783D01*
X0064628Y0006981D01*
X0064555Y0007181D01*
X0064487Y0007383D01*
X0064424Y0007586D01*
X0064365Y0007790D01*
X0064312Y0007996D01*
X0064263Y0008203D01*
X0064220Y0008412D01*
X0064182Y0008621D01*
X0064148Y0008831D01*
X0064120Y0009042D01*
X0064097Y0009253D01*
X0064079Y0009465D01*
X0064066Y0009678D01*
X0064059Y0009890D01*
X0064056Y0010103D01*
X0264843Y0086856D02*
X0264845Y0087004D01*
X0264851Y0087151D01*
X0264861Y0087299D01*
X0264874Y0087446D01*
X0264892Y0087593D01*
X0264913Y0087739D01*
X0264939Y0087884D01*
X0264968Y0088029D01*
X0265001Y0088173D01*
X0265038Y0088316D01*
X0265078Y0088458D01*
X0265122Y0088599D01*
X0265171Y0088739D01*
X0265222Y0088877D01*
X0265278Y0089014D01*
X0265337Y0089150D01*
X0265399Y0089283D01*
X0265465Y0089415D01*
X0265535Y0089546D01*
X0265608Y0089674D01*
X0265684Y0089801D01*
X0265764Y0089925D01*
X0265847Y0090047D01*
X0265933Y0090167D01*
X0266022Y0090285D01*
X0266115Y0090400D01*
X0266210Y0090513D01*
X0266308Y0090623D01*
X0266410Y0090731D01*
X0266514Y0090836D01*
X0266621Y0090938D01*
X0266730Y0091037D01*
X0266842Y0091133D01*
X0266957Y0091226D01*
X0258700Y0166300D02*
X0258702Y0166458D01*
X0258708Y0166617D01*
X0258718Y0166775D01*
X0258732Y0166932D01*
X0258750Y0167090D01*
X0258771Y0167246D01*
X0258797Y0167403D01*
X0258827Y0167558D01*
X0258860Y0167713D01*
X0258898Y0167867D01*
X0258939Y0168020D01*
X0258984Y0168171D01*
X0259033Y0168322D01*
X0259086Y0168471D01*
X0259142Y0168619D01*
X0259203Y0168766D01*
X0259266Y0168911D01*
X0259334Y0169054D01*
X0259405Y0169195D01*
X0259479Y0169335D01*
X0259557Y0169473D01*
X0259639Y0169609D01*
X0259724Y0169742D01*
X0259812Y0169874D01*
X0259903Y0170003D01*
X0259998Y0170130D01*
X0260096Y0170254D01*
X0260197Y0170376D01*
X0260301Y0170496D01*
X0260407Y0170613D01*
X0260517Y0170727D01*
X0260630Y0170838D01*
X0260745Y0170946D01*
X0260864Y0171052D01*
X0260984Y0171154D01*
X0261107Y0171254D01*
X0261233Y0171350D01*
X0261361Y0171443D01*
X0261492Y0171533D01*
X0261624Y0171619D01*
X0261759Y0171702D01*
X0261896Y0171782D01*
X0262035Y0171858D01*
X0262175Y0171931D01*
X0262318Y0172000D01*
X0262462Y0172066D01*
X0262607Y0172128D01*
X0262755Y0172186D01*
X0262903Y0172241D01*
X0263053Y0172292D01*
X0263204Y0172339D01*
X0263357Y0172382D01*
X0263510Y0172421D01*
X0263664Y0172457D01*
X0263819Y0172488D01*
X0263975Y0172516D01*
X0264132Y0172540D01*
X0264289Y0172560D01*
X0264447Y0172576D01*
X0264604Y0172588D01*
X0264763Y0172596D01*
X0264921Y0172600D01*
X0265079Y0172600D01*
X0265237Y0172596D01*
X0265396Y0172588D01*
X0265553Y0172576D01*
X0265711Y0172560D01*
X0265868Y0172540D01*
X0266025Y0172516D01*
X0266181Y0172488D01*
X0266336Y0172457D01*
X0266490Y0172421D01*
X0266643Y0172382D01*
X0266796Y0172339D01*
X0266947Y0172292D01*
X0267097Y0172241D01*
X0267245Y0172186D01*
X0267393Y0172128D01*
X0267538Y0172066D01*
X0267682Y0172000D01*
X0267825Y0171931D01*
X0267965Y0171858D01*
X0268104Y0171782D01*
X0268241Y0171702D01*
X0268376Y0171619D01*
X0268508Y0171533D01*
X0268639Y0171443D01*
X0268767Y0171350D01*
X0268893Y0171254D01*
X0269016Y0171154D01*
X0269136Y0171052D01*
X0269255Y0170946D01*
X0269370Y0170838D01*
X0269483Y0170727D01*
X0269593Y0170613D01*
X0269699Y0170496D01*
X0269803Y0170376D01*
X0269904Y0170254D01*
X0270002Y0170130D01*
X0270097Y0170003D01*
X0270188Y0169874D01*
X0270276Y0169742D01*
X0270361Y0169609D01*
X0270443Y0169473D01*
X0270521Y0169335D01*
X0270595Y0169195D01*
X0270666Y0169054D01*
X0270734Y0168911D01*
X0270797Y0168766D01*
X0270858Y0168619D01*
X0270914Y0168471D01*
X0270967Y0168322D01*
X0271016Y0168171D01*
X0271061Y0168020D01*
X0271102Y0167867D01*
X0271140Y0167713D01*
X0271173Y0167558D01*
X0271203Y0167403D01*
X0271229Y0167246D01*
X0271250Y0167090D01*
X0271268Y0166932D01*
X0271282Y0166775D01*
X0271292Y0166617D01*
X0271298Y0166458D01*
X0271300Y0166300D01*
X0271298Y0166142D01*
X0271292Y0165983D01*
X0271282Y0165825D01*
X0271268Y0165668D01*
X0271250Y0165510D01*
X0271229Y0165354D01*
X0271203Y0165197D01*
X0271173Y0165042D01*
X0271140Y0164887D01*
X0271102Y0164733D01*
X0271061Y0164580D01*
X0271016Y0164429D01*
X0270967Y0164278D01*
X0270914Y0164129D01*
X0270858Y0163981D01*
X0270797Y0163834D01*
X0270734Y0163689D01*
X0270666Y0163546D01*
X0270595Y0163405D01*
X0270521Y0163265D01*
X0270443Y0163127D01*
X0270361Y0162991D01*
X0270276Y0162858D01*
X0270188Y0162726D01*
X0270097Y0162597D01*
X0270002Y0162470D01*
X0269904Y0162346D01*
X0269803Y0162224D01*
X0269699Y0162104D01*
X0269593Y0161987D01*
X0269483Y0161873D01*
X0269370Y0161762D01*
X0269255Y0161654D01*
X0269136Y0161548D01*
X0269016Y0161446D01*
X0268893Y0161346D01*
X0268767Y0161250D01*
X0268639Y0161157D01*
X0268508Y0161067D01*
X0268376Y0160981D01*
X0268241Y0160898D01*
X0268104Y0160818D01*
X0267965Y0160742D01*
X0267825Y0160669D01*
X0267682Y0160600D01*
X0267538Y0160534D01*
X0267393Y0160472D01*
X0267245Y0160414D01*
X0267097Y0160359D01*
X0266947Y0160308D01*
X0266796Y0160261D01*
X0266643Y0160218D01*
X0266490Y0160179D01*
X0266336Y0160143D01*
X0266181Y0160112D01*
X0266025Y0160084D01*
X0265868Y0160060D01*
X0265711Y0160040D01*
X0265553Y0160024D01*
X0265396Y0160012D01*
X0265237Y0160004D01*
X0265079Y0160000D01*
X0264921Y0160000D01*
X0264763Y0160004D01*
X0264604Y0160012D01*
X0264447Y0160024D01*
X0264289Y0160040D01*
X0264132Y0160060D01*
X0263975Y0160084D01*
X0263819Y0160112D01*
X0263664Y0160143D01*
X0263510Y0160179D01*
X0263357Y0160218D01*
X0263204Y0160261D01*
X0263053Y0160308D01*
X0262903Y0160359D01*
X0262755Y0160414D01*
X0262607Y0160472D01*
X0262462Y0160534D01*
X0262318Y0160600D01*
X0262175Y0160669D01*
X0262035Y0160742D01*
X0261896Y0160818D01*
X0261759Y0160898D01*
X0261624Y0160981D01*
X0261492Y0161067D01*
X0261361Y0161157D01*
X0261233Y0161250D01*
X0261107Y0161346D01*
X0260984Y0161446D01*
X0260864Y0161548D01*
X0260745Y0161654D01*
X0260630Y0161762D01*
X0260517Y0161873D01*
X0260407Y0161987D01*
X0260301Y0162104D01*
X0260197Y0162224D01*
X0260096Y0162346D01*
X0259998Y0162470D01*
X0259903Y0162597D01*
X0259812Y0162726D01*
X0259724Y0162858D01*
X0259639Y0162991D01*
X0259557Y0163127D01*
X0259479Y0163265D01*
X0259405Y0163405D01*
X0259334Y0163546D01*
X0259266Y0163689D01*
X0259203Y0163834D01*
X0259142Y0163981D01*
X0259086Y0164129D01*
X0259033Y0164278D01*
X0258984Y0164429D01*
X0258939Y0164580D01*
X0258898Y0164733D01*
X0258860Y0164887D01*
X0258827Y0165042D01*
X0258797Y0165197D01*
X0258771Y0165354D01*
X0258750Y0165510D01*
X0258732Y0165668D01*
X0258718Y0165825D01*
X0258708Y0165983D01*
X0258702Y0166142D01*
X0258700Y0166300D01*
X0272717Y0175571D02*
X0272715Y0175709D01*
X0272709Y0175846D01*
X0272700Y0175984D01*
X0272687Y0176121D01*
X0272670Y0176257D01*
X0272649Y0176393D01*
X0272625Y0176529D01*
X0272597Y0176664D01*
X0272566Y0176798D01*
X0272530Y0176931D01*
X0272491Y0177063D01*
X0272449Y0177194D01*
X0272403Y0177323D01*
X0272353Y0177452D01*
X0272300Y0177579D01*
X0272243Y0177704D01*
X0272184Y0177828D01*
X0272120Y0177950D01*
X0272054Y0178071D01*
X0271984Y0178189D01*
X0271911Y0178306D01*
X0271834Y0178421D01*
X0271755Y0178533D01*
X0271673Y0178644D01*
X0271587Y0178752D01*
X0271499Y0178857D01*
X0271408Y0178960D01*
X0271314Y0179061D01*
X0271217Y0179159D01*
X0265293Y0185007D02*
X0265251Y0185051D01*
X0265213Y0185097D01*
X0265177Y0185146D01*
X0265144Y0185197D01*
X0265115Y0185249D01*
X0265088Y0185304D01*
X0265065Y0185359D01*
X0265045Y0185416D01*
X0265029Y0185475D01*
X0265016Y0185534D01*
X0265007Y0185593D01*
X0265002Y0185654D01*
X0265000Y0185714D01*
X0262006Y0233275D02*
X0261826Y0233450D01*
X0261641Y0233620D01*
X0261452Y0233786D01*
X0261260Y0233947D01*
X0261063Y0234103D01*
X0260863Y0234255D01*
X0260659Y0234402D01*
X0260451Y0234543D01*
X0260241Y0234680D01*
X0260026Y0234811D01*
X0259809Y0234937D01*
X0259589Y0235057D01*
X0259366Y0235173D01*
X0259140Y0235282D01*
X0258911Y0235387D01*
X0258680Y0235485D01*
X0258447Y0235578D01*
X0258211Y0235665D01*
X0257974Y0235747D01*
X0257734Y0235822D01*
X0257493Y0235892D01*
X0257250Y0235956D01*
X0257005Y0236013D01*
X0256760Y0236065D01*
X0256513Y0236111D01*
X0256265Y0236151D01*
X0256016Y0236184D01*
X0255766Y0236212D01*
X0255516Y0236233D01*
X0255265Y0236249D01*
X0255014Y0236258D01*
X0254763Y0236261D01*
X0263110Y0232177D02*
X0263220Y0232065D01*
X0263328Y0231950D01*
X0263433Y0231832D01*
X0263535Y0231711D01*
X0263634Y0231588D01*
X0263730Y0231463D01*
X0263822Y0231335D01*
X0263912Y0231205D01*
X0263998Y0231073D01*
X0264082Y0230939D01*
X0264161Y0230803D01*
X0264238Y0230665D01*
X0264311Y0230525D01*
X0264380Y0230383D01*
X0264446Y0230240D01*
X0264509Y0230095D01*
X0264567Y0229949D01*
X0264623Y0229801D01*
X0264674Y0229652D01*
X0264722Y0229501D01*
X0264766Y0229350D01*
X0264807Y0229197D01*
X0264843Y0229044D01*
X0264876Y0228889D01*
X0264905Y0228734D01*
X0264930Y0228578D01*
X0264951Y0228422D01*
X0264969Y0228265D01*
X0264983Y0228108D01*
X0264992Y0227950D01*
X0264998Y0227793D01*
X0265000Y0227635D01*
X0058700Y0226300D02*
X0058702Y0226458D01*
X0058708Y0226617D01*
X0058718Y0226775D01*
X0058732Y0226932D01*
X0058750Y0227090D01*
X0058771Y0227246D01*
X0058797Y0227403D01*
X0058827Y0227558D01*
X0058860Y0227713D01*
X0058898Y0227867D01*
X0058939Y0228020D01*
X0058984Y0228171D01*
X0059033Y0228322D01*
X0059086Y0228471D01*
X0059142Y0228619D01*
X0059203Y0228766D01*
X0059266Y0228911D01*
X0059334Y0229054D01*
X0059405Y0229195D01*
X0059479Y0229335D01*
X0059557Y0229473D01*
X0059639Y0229609D01*
X0059724Y0229742D01*
X0059812Y0229874D01*
X0059903Y0230003D01*
X0059998Y0230130D01*
X0060096Y0230254D01*
X0060197Y0230376D01*
X0060301Y0230496D01*
X0060407Y0230613D01*
X0060517Y0230727D01*
X0060630Y0230838D01*
X0060745Y0230946D01*
X0060864Y0231052D01*
X0060984Y0231154D01*
X0061107Y0231254D01*
X0061233Y0231350D01*
X0061361Y0231443D01*
X0061492Y0231533D01*
X0061624Y0231619D01*
X0061759Y0231702D01*
X0061896Y0231782D01*
X0062035Y0231858D01*
X0062175Y0231931D01*
X0062318Y0232000D01*
X0062462Y0232066D01*
X0062607Y0232128D01*
X0062755Y0232186D01*
X0062903Y0232241D01*
X0063053Y0232292D01*
X0063204Y0232339D01*
X0063357Y0232382D01*
X0063510Y0232421D01*
X0063664Y0232457D01*
X0063819Y0232488D01*
X0063975Y0232516D01*
X0064132Y0232540D01*
X0064289Y0232560D01*
X0064447Y0232576D01*
X0064604Y0232588D01*
X0064763Y0232596D01*
X0064921Y0232600D01*
X0065079Y0232600D01*
X0065237Y0232596D01*
X0065396Y0232588D01*
X0065553Y0232576D01*
X0065711Y0232560D01*
X0065868Y0232540D01*
X0066025Y0232516D01*
X0066181Y0232488D01*
X0066336Y0232457D01*
X0066490Y0232421D01*
X0066643Y0232382D01*
X0066796Y0232339D01*
X0066947Y0232292D01*
X0067097Y0232241D01*
X0067245Y0232186D01*
X0067393Y0232128D01*
X0067538Y0232066D01*
X0067682Y0232000D01*
X0067825Y0231931D01*
X0067965Y0231858D01*
X0068104Y0231782D01*
X0068241Y0231702D01*
X0068376Y0231619D01*
X0068508Y0231533D01*
X0068639Y0231443D01*
X0068767Y0231350D01*
X0068893Y0231254D01*
X0069016Y0231154D01*
X0069136Y0231052D01*
X0069255Y0230946D01*
X0069370Y0230838D01*
X0069483Y0230727D01*
X0069593Y0230613D01*
X0069699Y0230496D01*
X0069803Y0230376D01*
X0069904Y0230254D01*
X0070002Y0230130D01*
X0070097Y0230003D01*
X0070188Y0229874D01*
X0070276Y0229742D01*
X0070361Y0229609D01*
X0070443Y0229473D01*
X0070521Y0229335D01*
X0070595Y0229195D01*
X0070666Y0229054D01*
X0070734Y0228911D01*
X0070797Y0228766D01*
X0070858Y0228619D01*
X0070914Y0228471D01*
X0070967Y0228322D01*
X0071016Y0228171D01*
X0071061Y0228020D01*
X0071102Y0227867D01*
X0071140Y0227713D01*
X0071173Y0227558D01*
X0071203Y0227403D01*
X0071229Y0227246D01*
X0071250Y0227090D01*
X0071268Y0226932D01*
X0071282Y0226775D01*
X0071292Y0226617D01*
X0071298Y0226458D01*
X0071300Y0226300D01*
X0071298Y0226142D01*
X0071292Y0225983D01*
X0071282Y0225825D01*
X0071268Y0225668D01*
X0071250Y0225510D01*
X0071229Y0225354D01*
X0071203Y0225197D01*
X0071173Y0225042D01*
X0071140Y0224887D01*
X0071102Y0224733D01*
X0071061Y0224580D01*
X0071016Y0224429D01*
X0070967Y0224278D01*
X0070914Y0224129D01*
X0070858Y0223981D01*
X0070797Y0223834D01*
X0070734Y0223689D01*
X0070666Y0223546D01*
X0070595Y0223405D01*
X0070521Y0223265D01*
X0070443Y0223127D01*
X0070361Y0222991D01*
X0070276Y0222858D01*
X0070188Y0222726D01*
X0070097Y0222597D01*
X0070002Y0222470D01*
X0069904Y0222346D01*
X0069803Y0222224D01*
X0069699Y0222104D01*
X0069593Y0221987D01*
X0069483Y0221873D01*
X0069370Y0221762D01*
X0069255Y0221654D01*
X0069136Y0221548D01*
X0069016Y0221446D01*
X0068893Y0221346D01*
X0068767Y0221250D01*
X0068639Y0221157D01*
X0068508Y0221067D01*
X0068376Y0220981D01*
X0068241Y0220898D01*
X0068104Y0220818D01*
X0067965Y0220742D01*
X0067825Y0220669D01*
X0067682Y0220600D01*
X0067538Y0220534D01*
X0067393Y0220472D01*
X0067245Y0220414D01*
X0067097Y0220359D01*
X0066947Y0220308D01*
X0066796Y0220261D01*
X0066643Y0220218D01*
X0066490Y0220179D01*
X0066336Y0220143D01*
X0066181Y0220112D01*
X0066025Y0220084D01*
X0065868Y0220060D01*
X0065711Y0220040D01*
X0065553Y0220024D01*
X0065396Y0220012D01*
X0065237Y0220004D01*
X0065079Y0220000D01*
X0064921Y0220000D01*
X0064763Y0220004D01*
X0064604Y0220012D01*
X0064447Y0220024D01*
X0064289Y0220040D01*
X0064132Y0220060D01*
X0063975Y0220084D01*
X0063819Y0220112D01*
X0063664Y0220143D01*
X0063510Y0220179D01*
X0063357Y0220218D01*
X0063204Y0220261D01*
X0063053Y0220308D01*
X0062903Y0220359D01*
X0062755Y0220414D01*
X0062607Y0220472D01*
X0062462Y0220534D01*
X0062318Y0220600D01*
X0062175Y0220669D01*
X0062035Y0220742D01*
X0061896Y0220818D01*
X0061759Y0220898D01*
X0061624Y0220981D01*
X0061492Y0221067D01*
X0061361Y0221157D01*
X0061233Y0221250D01*
X0061107Y0221346D01*
X0060984Y0221446D01*
X0060864Y0221548D01*
X0060745Y0221654D01*
X0060630Y0221762D01*
X0060517Y0221873D01*
X0060407Y0221987D01*
X0060301Y0222104D01*
X0060197Y0222224D01*
X0060096Y0222346D01*
X0059998Y0222470D01*
X0059903Y0222597D01*
X0059812Y0222726D01*
X0059724Y0222858D01*
X0059639Y0222991D01*
X0059557Y0223127D01*
X0059479Y0223265D01*
X0059405Y0223405D01*
X0059334Y0223546D01*
X0059266Y0223689D01*
X0059203Y0223834D01*
X0059142Y0223981D01*
X0059086Y0224129D01*
X0059033Y0224278D01*
X0058984Y0224429D01*
X0058939Y0224580D01*
X0058898Y0224733D01*
X0058860Y0224887D01*
X0058827Y0225042D01*
X0058797Y0225197D01*
X0058771Y0225354D01*
X0058750Y0225510D01*
X0058732Y0225668D01*
X0058718Y0225825D01*
X0058708Y0225983D01*
X0058702Y0226142D01*
X0058700Y0226300D01*
D11*
X0017900Y0227104D02*
X0011495Y0227104D01*
X0013630Y0224969D01*
X0015765Y0222794D02*
X0011495Y0222794D01*
X0015765Y0222794D02*
X0017900Y0220658D01*
X0015765Y0218523D01*
X0011495Y0218523D01*
X0013630Y0209909D02*
X0013630Y0208842D01*
X0015765Y0206706D01*
X0017900Y0206706D02*
X0013630Y0206706D01*
X0014697Y0204531D02*
X0015765Y0204531D01*
X0015765Y0200261D01*
X0016832Y0200261D02*
X0014697Y0200261D01*
X0013630Y0201329D01*
X0013630Y0203464D01*
X0014697Y0204531D01*
X0017900Y0203464D02*
X0017900Y0201329D01*
X0016832Y0200261D01*
X0016832Y0198086D02*
X0017900Y0197018D01*
X0017900Y0193815D01*
X0020035Y0193815D02*
X0013630Y0193815D01*
X0013630Y0197018D01*
X0014697Y0198086D01*
X0016832Y0198086D01*
X0017900Y0191654D02*
X0017900Y0189518D01*
X0017900Y0190586D02*
X0011495Y0190586D01*
X0011495Y0189518D01*
X0014697Y0187343D02*
X0015765Y0187343D01*
X0015765Y0183073D01*
X0016832Y0183073D02*
X0014697Y0183073D01*
X0013630Y0184141D01*
X0013630Y0186276D01*
X0014697Y0187343D01*
X0017900Y0186276D02*
X0017900Y0184141D01*
X0016832Y0183073D01*
X0017900Y0180898D02*
X0011495Y0180898D01*
X0014697Y0180898D02*
X0014697Y0176627D01*
X0014697Y0174452D02*
X0017900Y0174452D01*
X0017900Y0171250D01*
X0016832Y0170182D01*
X0015765Y0171250D01*
X0015765Y0174452D01*
X0014697Y0174452D02*
X0013630Y0173385D01*
X0013630Y0171250D01*
X0013630Y0168007D02*
X0013630Y0164804D01*
X0014697Y0163736D01*
X0016832Y0163736D01*
X0017900Y0164804D01*
X0017900Y0168007D01*
X0011495Y0168007D01*
X0011495Y0176627D02*
X0017900Y0176627D01*
X0028800Y0162200D02*
X0032800Y0162200D01*
X0036300Y0158700D01*
X0036300Y0154700D01*
X0032800Y0151200D01*
X0028800Y0151200D01*
X0025300Y0154700D01*
X0025300Y0158700D01*
X0028800Y0162200D01*
X0017900Y0161561D02*
X0014697Y0161561D01*
X0013630Y0160494D01*
X0013630Y0157291D01*
X0017900Y0157291D01*
X0017900Y0155116D02*
X0014697Y0155116D01*
X0013630Y0154048D01*
X0013630Y0151913D01*
X0015765Y0151913D02*
X0015765Y0155116D01*
X0017900Y0155116D02*
X0017900Y0151913D01*
X0016832Y0150845D01*
X0015765Y0151913D01*
X0014697Y0148670D02*
X0015765Y0147603D01*
X0015765Y0144400D01*
X0017900Y0144400D02*
X0011495Y0144400D01*
X0011495Y0147603D01*
X0012562Y0148670D01*
X0014697Y0148670D01*
X0025300Y0144300D02*
X0028800Y0147800D01*
X0032800Y0147800D01*
X0036300Y0144300D01*
X0036300Y0140300D01*
X0032800Y0136800D01*
X0028800Y0136800D01*
X0025300Y0140300D01*
X0025300Y0144300D01*
X0029400Y0132800D02*
X0033400Y0132800D01*
X0036900Y0129300D01*
X0036900Y0125300D01*
X0033400Y0121800D01*
X0029400Y0121800D01*
X0025900Y0125300D01*
X0025900Y0129300D01*
X0029400Y0132800D01*
X0019600Y0125600D02*
X0015600Y0125600D01*
X0012100Y0122100D01*
X0012100Y0118100D01*
X0015600Y0114600D01*
X0019600Y0114600D01*
X0023100Y0118100D01*
X0023100Y0122100D01*
X0019600Y0125600D01*
X0030000Y0118400D02*
X0034000Y0118400D01*
X0037500Y0114900D01*
X0037500Y0110900D01*
X0034000Y0107400D01*
X0030000Y0107400D01*
X0026500Y0110900D01*
X0026500Y0114900D01*
X0030000Y0118400D01*
X0111100Y0130100D02*
X0114600Y0126600D01*
X0118600Y0126600D01*
X0122100Y0130100D01*
X0122100Y0134100D01*
X0118600Y0137600D01*
X0114600Y0137600D01*
X0111100Y0134100D01*
X0111100Y0130100D01*
X0120100Y0117900D02*
X0123600Y0121400D01*
X0127600Y0121400D01*
X0131100Y0117900D01*
X0131100Y0113900D01*
X0127600Y0110400D01*
X0123600Y0110400D01*
X0120100Y0113900D01*
X0120100Y0117900D01*
X0131400Y0127800D02*
X0135400Y0127800D01*
X0138900Y0131300D01*
X0138900Y0135300D01*
X0135400Y0138800D01*
X0131400Y0138800D01*
X0127900Y0135300D01*
X0127900Y0131300D01*
X0131400Y0127800D01*
X0141000Y0121400D02*
X0145000Y0121400D01*
X0148500Y0117900D01*
X0148500Y0113900D01*
X0145000Y0110400D01*
X0141000Y0110400D01*
X0137500Y0113900D01*
X0137500Y0117900D01*
X0141000Y0121400D01*
X0148200Y0127800D02*
X0152200Y0127800D01*
X0155700Y0131300D01*
X0155700Y0135300D01*
X0152200Y0138800D01*
X0148200Y0138800D01*
X0144700Y0135300D01*
X0144700Y0131300D01*
X0148200Y0127800D01*
X0171700Y0120300D02*
X0171700Y0116300D01*
X0175200Y0112800D01*
X0179200Y0112800D01*
X0182700Y0116300D01*
X0182700Y0120300D01*
X0179200Y0123800D01*
X0175200Y0123800D01*
X0171700Y0120300D01*
X0185500Y0124100D02*
X0189000Y0120600D01*
X0193000Y0120600D01*
X0196500Y0124100D01*
X0196500Y0128100D01*
X0193000Y0131600D01*
X0189000Y0131600D01*
X0185500Y0128100D01*
X0185500Y0124100D01*
X0202300Y0122300D02*
X0205800Y0118800D01*
X0209800Y0118800D01*
X0213300Y0122300D01*
X0213300Y0126300D01*
X0209800Y0129800D01*
X0205800Y0129800D01*
X0202300Y0126300D01*
X0202300Y0122300D01*
X0219100Y0121700D02*
X0222600Y0118200D01*
X0226600Y0118200D01*
X0230100Y0121700D01*
X0230100Y0125700D01*
X0226600Y0129200D01*
X0222600Y0129200D01*
X0219100Y0125700D01*
X0219100Y0121700D01*
X0222600Y0114800D02*
X0226600Y0114800D01*
X0230100Y0111300D01*
X0230100Y0107300D01*
X0226600Y0103800D01*
X0222600Y0103800D01*
X0219100Y0107300D01*
X0219100Y0111300D01*
X0222600Y0114800D01*
X0222600Y0100400D02*
X0226600Y0100400D01*
X0230100Y0096900D01*
X0230100Y0092900D01*
X0226600Y0089400D01*
X0222600Y0089400D01*
X0219100Y0092900D01*
X0219100Y0096900D01*
X0222600Y0100400D01*
X0215800Y0089600D02*
X0211800Y0089600D01*
X0208300Y0086100D01*
X0208300Y0082100D01*
X0211800Y0078600D01*
X0215800Y0078600D01*
X0219300Y0082100D01*
X0219300Y0086100D01*
X0215800Y0089600D01*
X0137700Y0146900D02*
X0134200Y0143400D01*
X0130200Y0143400D01*
X0126700Y0146900D01*
X0126700Y0150900D01*
X0130200Y0154400D01*
X0134200Y0154400D01*
X0137700Y0150900D01*
X0137700Y0146900D01*
X0144700Y0147500D02*
X0148200Y0144000D01*
X0152200Y0144000D01*
X0155700Y0147500D01*
X0155700Y0151500D01*
X0152200Y0155000D01*
X0148200Y0155000D01*
X0144700Y0151500D01*
X0144700Y0147500D01*
X0144400Y0156600D02*
X0140400Y0156600D01*
X0136900Y0160100D01*
X0136900Y0164100D01*
X0140400Y0167600D01*
X0144400Y0167600D01*
X0147900Y0164100D01*
X0147900Y0160100D01*
X0144400Y0156600D01*
X0129900Y0160700D02*
X0129900Y0164700D01*
X0126400Y0168200D01*
X0122400Y0168200D01*
X0118900Y0164700D01*
X0118900Y0160700D01*
X0122400Y0157200D01*
X0126400Y0157200D01*
X0129900Y0160700D01*
X0122700Y0150900D02*
X0119200Y0154400D01*
X0115200Y0154400D01*
X0111700Y0150900D01*
X0111700Y0146900D01*
X0115200Y0143400D01*
X0119200Y0143400D01*
X0122700Y0146900D01*
X0122700Y0150900D01*
X0168700Y0152900D02*
X0172200Y0149400D01*
X0176200Y0149400D01*
X0179700Y0152900D01*
X0179700Y0156900D01*
X0176200Y0160400D01*
X0172200Y0160400D01*
X0168700Y0156900D01*
X0168700Y0152900D01*
X0017900Y0224969D02*
X0017900Y0229239D01*
X0017900Y0231414D02*
X0017900Y0232482D01*
X0016832Y0232482D01*
X0016832Y0231414D01*
X0017900Y0231414D01*
X0016832Y0234637D02*
X0012562Y0234637D01*
X0011495Y0235705D01*
X0011495Y0237840D01*
X0012562Y0238907D01*
X0016832Y0234637D01*
X0017900Y0235705D01*
X0017900Y0237840D01*
X0016832Y0238907D01*
X0012562Y0238907D01*
X0081358Y0023111D02*
X0086358Y0023111D01*
X0088858Y0020611D01*
X0088858Y0005611D01*
X0091358Y0003111D01*
X0096358Y0003111D01*
X0098858Y0005611D01*
X0098858Y0020611D01*
X0101358Y0023111D01*
X0106358Y0023111D01*
X0108858Y0020611D01*
X0108858Y0005611D01*
X0111358Y0003111D01*
X0116358Y0003111D01*
X0118858Y0005611D01*
X0118858Y0020611D01*
X0121358Y0023111D01*
X0126358Y0023111D01*
X0128858Y0020611D01*
X0128858Y0005611D01*
X0131358Y0003111D01*
X0136358Y0003111D01*
X0138858Y0005611D01*
X0138858Y0020611D01*
X0141358Y0023111D01*
X0146358Y0023111D01*
X0148858Y0020611D01*
X0148858Y0005611D01*
X0146358Y0003111D01*
X0141358Y0003111D01*
X0138858Y0005611D01*
X0128858Y0005611D02*
X0126358Y0003111D01*
X0121358Y0003111D01*
X0118858Y0005611D01*
X0108858Y0005611D02*
X0106358Y0003111D01*
X0101358Y0003111D01*
X0098858Y0005611D01*
X0088858Y0005611D02*
X0086358Y0003111D01*
X0081358Y0003111D01*
X0078858Y0005611D01*
X0078858Y0020611D01*
X0081358Y0023111D01*
X0088858Y0020611D02*
X0091358Y0023111D01*
X0096358Y0023111D01*
X0098858Y0020611D01*
X0108858Y0020611D02*
X0111358Y0023111D01*
X0116358Y0023111D01*
X0118858Y0020611D01*
X0128858Y0020611D02*
X0131358Y0023111D01*
X0136358Y0023111D01*
X0138858Y0020611D01*
X0148858Y0020611D02*
X0151358Y0023111D01*
X0156358Y0023111D01*
X0158858Y0020611D01*
X0158858Y0005611D01*
X0156358Y0003111D01*
X0151358Y0003111D01*
X0148858Y0005611D01*
X0158858Y0005611D02*
X0161358Y0003111D01*
X0166358Y0003111D01*
X0168858Y0005611D01*
X0168858Y0020611D01*
X0171358Y0023111D01*
X0176358Y0023111D01*
X0178858Y0020611D01*
X0178858Y0005611D01*
X0176358Y0003111D01*
X0171358Y0003111D01*
X0168858Y0005611D01*
X0178858Y0005611D02*
X0181358Y0003111D01*
X0186358Y0003111D01*
X0188858Y0005611D01*
X0191358Y0003111D01*
X0196358Y0003111D01*
X0198858Y0005611D01*
X0198858Y0020611D01*
X0196358Y0023111D01*
X0191358Y0023111D01*
X0188858Y0020611D01*
X0188858Y0005611D01*
X0188858Y0020611D02*
X0186358Y0023111D01*
X0181358Y0023111D01*
X0178858Y0020611D01*
X0168858Y0020611D02*
X0166358Y0023111D01*
X0161358Y0023111D01*
X0158858Y0020611D01*
D12*
X0071400Y0107435D02*
X0069865Y0105900D01*
X0066796Y0105900D01*
X0063900Y0105900D02*
X0059296Y0105900D01*
X0063900Y0108969D01*
X0059296Y0108969D01*
X0060831Y0111271D02*
X0061598Y0110504D01*
X0063133Y0110504D01*
X0063900Y0111271D01*
X0063900Y0112806D01*
X0063133Y0113573D01*
X0061598Y0113573D01*
X0060831Y0112806D01*
X0060831Y0111271D01*
X0056400Y0110504D02*
X0051796Y0110504D01*
X0051796Y0112806D01*
X0052563Y0113573D01*
X0054098Y0113573D01*
X0054865Y0112806D01*
X0054865Y0110504D01*
X0054865Y0112039D02*
X0056400Y0113573D01*
X0056400Y0115108D02*
X0051796Y0115108D01*
X0051796Y0118177D01*
X0051796Y0119712D02*
X0051796Y0122781D01*
X0054098Y0121246D02*
X0054098Y0119712D01*
X0056400Y0119712D02*
X0051796Y0119712D01*
X0048900Y0118944D02*
X0047365Y0120479D01*
X0044296Y0120479D01*
X0044296Y0117410D02*
X0047365Y0117410D01*
X0048900Y0118944D01*
X0048133Y0115875D02*
X0048900Y0115108D01*
X0048900Y0113573D01*
X0048133Y0112806D01*
X0048133Y0111271D02*
X0048900Y0111271D01*
X0048900Y0110504D01*
X0048133Y0110504D01*
X0048133Y0111271D01*
X0048133Y0108969D02*
X0048900Y0108202D01*
X0048900Y0106667D01*
X0048133Y0105900D01*
X0046598Y0107435D02*
X0046598Y0108202D01*
X0047365Y0108969D01*
X0048133Y0108969D01*
X0046598Y0108202D02*
X0045831Y0108969D01*
X0045063Y0108969D01*
X0044296Y0108202D01*
X0044296Y0106667D01*
X0045063Y0105900D01*
X0051796Y0107435D02*
X0053331Y0108969D01*
X0056400Y0108969D01*
X0054098Y0108969D02*
X0054098Y0105900D01*
X0053331Y0105900D02*
X0051796Y0107435D01*
X0053331Y0105900D02*
X0056400Y0105900D01*
X0066796Y0108969D02*
X0069865Y0108969D01*
X0071400Y0107435D01*
X0071400Y0110504D02*
X0071400Y0112039D01*
X0071400Y0111271D02*
X0068331Y0111271D01*
X0068331Y0110504D01*
X0066796Y0111271D02*
X0066029Y0111271D01*
X0068331Y0113573D02*
X0068331Y0115875D01*
X0069098Y0116642D01*
X0071400Y0116642D01*
X0071400Y0113573D02*
X0068331Y0113573D01*
X0063900Y0119712D02*
X0063900Y0122014D01*
X0063133Y0122781D01*
X0062365Y0122014D01*
X0062365Y0120479D01*
X0061598Y0119712D01*
X0060831Y0120479D01*
X0060831Y0122781D01*
X0060831Y0124316D02*
X0060831Y0126618D01*
X0061598Y0127385D01*
X0063133Y0127385D01*
X0063900Y0126618D01*
X0063900Y0124316D01*
X0065435Y0124316D02*
X0060831Y0124316D01*
X0061598Y0128920D02*
X0060831Y0129687D01*
X0060831Y0131222D01*
X0061598Y0131989D01*
X0062365Y0131989D01*
X0062365Y0128920D01*
X0061598Y0128920D02*
X0063133Y0128920D01*
X0063900Y0129687D01*
X0063900Y0131222D01*
X0063133Y0133524D02*
X0063900Y0134291D01*
X0063900Y0136593D01*
X0063900Y0138127D02*
X0063900Y0139662D01*
X0063900Y0138895D02*
X0060831Y0138895D01*
X0060831Y0138127D01*
X0060831Y0136593D02*
X0060831Y0134291D01*
X0061598Y0133524D01*
X0063133Y0133524D01*
X0067563Y0132756D02*
X0070633Y0132756D01*
X0071400Y0133524D01*
X0068331Y0133524D02*
X0068331Y0131989D01*
X0069098Y0130454D02*
X0068331Y0129687D01*
X0068331Y0128152D01*
X0069098Y0127385D01*
X0070633Y0127385D01*
X0071400Y0128152D01*
X0071400Y0129687D01*
X0070633Y0130454D01*
X0069098Y0130454D01*
X0071400Y0125850D02*
X0066796Y0125850D01*
X0066796Y0122781D02*
X0071400Y0125850D01*
X0071400Y0122781D02*
X0066796Y0122781D01*
X0056400Y0118177D02*
X0056400Y0115108D01*
X0054098Y0115108D02*
X0054098Y0116642D01*
X0048133Y0115875D02*
X0047365Y0115875D01*
X0046598Y0115108D01*
X0046598Y0114341D01*
X0046598Y0115108D02*
X0045831Y0115875D01*
X0045063Y0115875D01*
X0044296Y0115108D01*
X0044296Y0113573D01*
X0045063Y0112806D01*
X0044296Y0126618D02*
X0048900Y0129687D01*
X0044296Y0129687D01*
X0045831Y0131989D02*
X0046598Y0131222D01*
X0048133Y0131222D01*
X0048900Y0131989D01*
X0048900Y0133524D01*
X0048133Y0134291D01*
X0046598Y0134291D01*
X0045831Y0133524D01*
X0045831Y0131989D01*
X0045831Y0135826D02*
X0045831Y0137360D01*
X0045063Y0136593D02*
X0048133Y0136593D01*
X0048900Y0137360D01*
X0052563Y0138895D02*
X0055633Y0138895D01*
X0056400Y0139662D01*
X0058529Y0138895D02*
X0059296Y0138895D01*
X0060831Y0141964D02*
X0060831Y0143499D01*
X0061598Y0144266D01*
X0063900Y0144266D01*
X0063900Y0141964D01*
X0063133Y0141197D01*
X0062365Y0141964D01*
X0062365Y0144266D01*
X0063900Y0145801D02*
X0063900Y0147335D01*
X0063900Y0146568D02*
X0059296Y0146568D01*
X0059296Y0145801D01*
X0056400Y0146568D02*
X0056400Y0148870D01*
X0055633Y0150405D02*
X0056400Y0151172D01*
X0056400Y0152707D01*
X0055633Y0153474D01*
X0054098Y0153474D01*
X0053331Y0152707D01*
X0053331Y0151172D01*
X0054098Y0150405D01*
X0055633Y0150405D01*
X0053331Y0148870D02*
X0053331Y0146568D01*
X0054098Y0145801D01*
X0055633Y0145801D01*
X0056400Y0146568D01*
X0048900Y0146568D02*
X0048900Y0144266D01*
X0048133Y0143499D01*
X0046598Y0143499D01*
X0045831Y0144266D01*
X0045831Y0146568D01*
X0046598Y0148103D02*
X0048133Y0148103D01*
X0048900Y0148870D01*
X0048900Y0150405D01*
X0048133Y0151172D01*
X0046598Y0151172D01*
X0045831Y0150405D01*
X0045831Y0148870D01*
X0046598Y0148103D01*
X0045831Y0152707D02*
X0045831Y0155009D01*
X0046598Y0155776D01*
X0048900Y0155776D01*
X0048900Y0157310D02*
X0045831Y0157310D01*
X0045831Y0159612D01*
X0046598Y0160380D01*
X0048900Y0160380D01*
X0048133Y0161914D02*
X0046598Y0161914D01*
X0045831Y0162682D01*
X0045831Y0164216D01*
X0046598Y0164984D01*
X0047365Y0164984D01*
X0047365Y0161914D01*
X0048133Y0161914D02*
X0048900Y0162682D01*
X0048900Y0164216D01*
X0048133Y0166518D02*
X0048900Y0167286D01*
X0048900Y0169588D01*
X0048133Y0171890D02*
X0045063Y0171890D01*
X0045831Y0172657D02*
X0045831Y0171122D01*
X0045831Y0169588D02*
X0045831Y0167286D01*
X0046598Y0166518D01*
X0048133Y0166518D01*
X0053331Y0166518D02*
X0054098Y0167286D01*
X0054865Y0167286D01*
X0054865Y0164216D01*
X0054098Y0164216D02*
X0053331Y0164984D01*
X0053331Y0166518D01*
X0054098Y0164216D02*
X0055633Y0164216D01*
X0056400Y0164984D01*
X0056400Y0166518D01*
X0055633Y0168820D02*
X0056400Y0169588D01*
X0056400Y0171890D01*
X0055633Y0174192D02*
X0056400Y0174959D01*
X0055633Y0174192D02*
X0052563Y0174192D01*
X0053331Y0174959D02*
X0053331Y0173424D01*
X0053331Y0171890D02*
X0053331Y0169588D01*
X0054098Y0168820D01*
X0055633Y0168820D01*
X0060063Y0167286D02*
X0063133Y0167286D01*
X0063900Y0168053D01*
X0063133Y0169588D02*
X0061598Y0169588D01*
X0060831Y0170355D01*
X0060831Y0171890D01*
X0061598Y0172657D01*
X0062365Y0172657D01*
X0062365Y0169588D01*
X0063133Y0169588D02*
X0063900Y0170355D01*
X0063900Y0171890D01*
X0063133Y0174192D02*
X0063900Y0174959D01*
X0063900Y0177261D01*
X0063133Y0179563D02*
X0063900Y0180330D01*
X0063133Y0179563D02*
X0060063Y0179563D01*
X0060831Y0180330D02*
X0060831Y0178795D01*
X0060831Y0177261D02*
X0060831Y0174959D01*
X0061598Y0174192D01*
X0063133Y0174192D01*
X0066796Y0178028D02*
X0071400Y0178028D01*
X0071400Y0175726D01*
X0070633Y0174959D01*
X0069098Y0174959D01*
X0068331Y0175726D01*
X0068331Y0178028D01*
X0063900Y0181865D02*
X0063900Y0183399D01*
X0063900Y0182632D02*
X0060831Y0182632D01*
X0060831Y0181865D01*
X0059296Y0182632D02*
X0058529Y0182632D01*
X0056400Y0181865D02*
X0055633Y0181097D01*
X0054098Y0181097D01*
X0053331Y0181865D01*
X0053331Y0184167D01*
X0051796Y0184167D02*
X0056400Y0184167D01*
X0056400Y0181865D01*
X0054865Y0179563D02*
X0054865Y0176494D01*
X0054098Y0176494D02*
X0053331Y0177261D01*
X0053331Y0178795D01*
X0054098Y0179563D01*
X0054865Y0179563D01*
X0056400Y0178795D02*
X0056400Y0177261D01*
X0055633Y0176494D01*
X0054098Y0176494D01*
X0048900Y0176493D02*
X0048900Y0174959D01*
X0048133Y0174192D01*
X0046598Y0174192D01*
X0045831Y0174959D01*
X0045831Y0176493D01*
X0046598Y0177261D01*
X0047365Y0177261D01*
X0047365Y0174192D01*
X0048900Y0172657D02*
X0048133Y0171890D01*
X0048133Y0178795D02*
X0046598Y0178795D01*
X0045831Y0179563D01*
X0045831Y0181865D01*
X0044296Y0181865D02*
X0048900Y0181865D01*
X0048900Y0179563D01*
X0048133Y0178795D01*
X0060831Y0185701D02*
X0061598Y0184934D01*
X0063133Y0184934D01*
X0063900Y0185701D01*
X0063900Y0187236D01*
X0063133Y0188003D01*
X0061598Y0188003D01*
X0060831Y0187236D01*
X0060831Y0185701D01*
X0060831Y0189538D02*
X0060831Y0191840D01*
X0061598Y0192607D01*
X0063900Y0192607D01*
X0063900Y0189538D02*
X0060831Y0189538D01*
X0069098Y0173424D02*
X0069865Y0173424D01*
X0069865Y0170355D01*
X0069098Y0170355D02*
X0068331Y0171122D01*
X0068331Y0172657D01*
X0069098Y0173424D01*
X0071400Y0172657D02*
X0071400Y0171122D01*
X0070633Y0170355D01*
X0069098Y0170355D01*
X0068331Y0168820D02*
X0068331Y0167286D01*
X0067563Y0168053D02*
X0070633Y0168053D01*
X0071400Y0168820D01*
X0071400Y0165751D02*
X0071400Y0163449D01*
X0070633Y0162682D01*
X0069098Y0162682D01*
X0068331Y0163449D01*
X0068331Y0165751D01*
X0063900Y0164216D02*
X0063133Y0164984D01*
X0061598Y0164984D01*
X0060831Y0164216D01*
X0060831Y0162682D01*
X0061598Y0161914D01*
X0063133Y0161914D01*
X0063900Y0162682D01*
X0063900Y0164216D01*
X0060831Y0166518D02*
X0060831Y0168053D01*
X0056400Y0162682D02*
X0054098Y0162682D01*
X0053331Y0161914D01*
X0053331Y0159612D01*
X0056400Y0159612D01*
X0056400Y0158078D02*
X0054098Y0158078D01*
X0053331Y0157310D01*
X0053331Y0155009D01*
X0056400Y0155009D01*
X0060831Y0155776D02*
X0061598Y0156543D01*
X0063133Y0156543D01*
X0063900Y0155776D01*
X0063900Y0153474D01*
X0065435Y0153474D02*
X0060831Y0153474D01*
X0060831Y0155776D01*
X0060831Y0158078D02*
X0063900Y0158078D01*
X0062365Y0158078D02*
X0060831Y0159612D01*
X0060831Y0160380D01*
X0068331Y0160380D02*
X0068331Y0158845D01*
X0069098Y0158078D01*
X0070633Y0158078D01*
X0071400Y0158845D01*
X0071400Y0160380D01*
X0069865Y0161147D02*
X0069865Y0158078D01*
X0069098Y0156543D02*
X0071400Y0156543D01*
X0069098Y0156543D02*
X0068331Y0155776D01*
X0068331Y0153474D01*
X0071400Y0153474D01*
X0071400Y0151939D02*
X0069098Y0151939D01*
X0068331Y0151172D01*
X0068331Y0148870D01*
X0071400Y0148870D01*
X0070633Y0147335D02*
X0071400Y0146568D01*
X0071400Y0145033D01*
X0070633Y0144266D01*
X0069098Y0144266D01*
X0068331Y0145033D01*
X0068331Y0146568D01*
X0069098Y0147335D01*
X0070633Y0147335D01*
X0071400Y0142731D02*
X0071400Y0140429D01*
X0070633Y0139662D01*
X0069098Y0139662D01*
X0068331Y0140429D01*
X0068331Y0142731D01*
X0056400Y0135826D02*
X0055633Y0136593D01*
X0054098Y0136593D01*
X0053331Y0135826D01*
X0053331Y0134291D01*
X0054098Y0133524D01*
X0055633Y0133524D01*
X0056400Y0134291D01*
X0056400Y0135826D01*
X0053331Y0138127D02*
X0053331Y0139662D01*
X0054098Y0131989D02*
X0056400Y0131989D01*
X0054098Y0131989D02*
X0053331Y0131222D01*
X0053331Y0128920D01*
X0056400Y0128920D01*
X0048900Y0126618D02*
X0044296Y0126618D01*
X0045831Y0152707D02*
X0048900Y0152707D01*
X0068331Y0160380D02*
X0069098Y0161147D01*
X0069865Y0161147D01*
D13*
X0077964Y0197650D02*
X0078581Y0197650D01*
X0079198Y0198267D01*
X0079198Y0199502D01*
X0079816Y0200119D01*
X0080433Y0200119D01*
X0081050Y0199502D01*
X0081050Y0198267D01*
X0080433Y0197650D01*
X0077964Y0197650D02*
X0077347Y0198267D01*
X0077347Y0199502D01*
X0077964Y0200119D01*
X0077964Y0201333D02*
X0080433Y0201333D01*
X0081050Y0201950D01*
X0081050Y0203185D01*
X0080433Y0203802D01*
X0081050Y0205016D02*
X0081050Y0207485D01*
X0081050Y0205016D02*
X0077347Y0205016D01*
X0077964Y0203802D02*
X0077347Y0203185D01*
X0077347Y0201950D01*
X0077964Y0201333D01*
X0087547Y0201333D02*
X0087547Y0203185D01*
X0088164Y0203802D01*
X0090633Y0203802D01*
X0091250Y0203185D01*
X0091250Y0201333D01*
X0087547Y0201333D01*
X0088164Y0200119D02*
X0087547Y0199502D01*
X0087547Y0198267D01*
X0088164Y0197650D01*
X0088781Y0197650D01*
X0089398Y0198267D01*
X0089398Y0199502D01*
X0090016Y0200119D01*
X0090633Y0200119D01*
X0091250Y0199502D01*
X0091250Y0198267D01*
X0090633Y0197650D01*
X0097147Y0197650D02*
X0100850Y0200119D01*
X0097147Y0200119D01*
X0097764Y0201333D02*
X0100233Y0201333D01*
X0100850Y0201950D01*
X0100850Y0203185D01*
X0100233Y0203802D01*
X0097764Y0203802D02*
X0097147Y0203185D01*
X0097147Y0201950D01*
X0097764Y0201333D01*
X0097147Y0197650D02*
X0100850Y0197650D01*
X0107347Y0198267D02*
X0107964Y0197650D01*
X0110433Y0197650D01*
X0111050Y0198267D01*
X0111050Y0199502D01*
X0110433Y0200119D01*
X0109198Y0200119D01*
X0109198Y0198884D01*
X0107964Y0200119D02*
X0107347Y0199502D01*
X0107347Y0198267D01*
X0107347Y0201333D02*
X0111050Y0203802D01*
X0107347Y0203802D01*
X0107347Y0205016D02*
X0107347Y0206868D01*
X0107964Y0207485D01*
X0110433Y0207485D01*
X0111050Y0206868D01*
X0111050Y0205016D01*
X0107347Y0205016D01*
X0107347Y0201333D02*
X0111050Y0201333D01*
X0116947Y0202568D02*
X0120650Y0202568D01*
X0120650Y0203802D02*
X0120650Y0201333D01*
X0120033Y0200119D02*
X0117564Y0200119D01*
X0116947Y0199502D01*
X0116947Y0197650D01*
X0120650Y0197650D01*
X0120650Y0199502D01*
X0120033Y0200119D01*
X0118181Y0201333D02*
X0116947Y0202568D01*
X0117564Y0205016D02*
X0116947Y0205633D01*
X0116947Y0206868D01*
X0117564Y0207485D01*
X0118181Y0207485D01*
X0118798Y0206868D01*
X0119416Y0207485D01*
X0120033Y0207485D01*
X0120650Y0206868D01*
X0120650Y0205633D01*
X0120033Y0205016D01*
X0118798Y0206251D02*
X0118798Y0206868D01*
X0127747Y0206868D02*
X0127747Y0205633D01*
X0128364Y0205016D01*
X0127747Y0206868D02*
X0128364Y0207485D01*
X0128981Y0207485D01*
X0131450Y0205016D01*
X0131450Y0207485D01*
X0131450Y0203802D02*
X0131450Y0201333D01*
X0131450Y0202568D02*
X0127747Y0202568D01*
X0128981Y0201333D01*
X0128364Y0200119D02*
X0127747Y0199502D01*
X0127747Y0197650D01*
X0131450Y0197650D01*
X0131450Y0199502D01*
X0130833Y0200119D01*
X0128364Y0200119D01*
X0138547Y0199502D02*
X0138547Y0197650D01*
X0142250Y0197650D01*
X0142250Y0199502D01*
X0141633Y0200119D01*
X0139164Y0200119D01*
X0138547Y0199502D01*
X0139781Y0201333D02*
X0138547Y0202568D01*
X0142250Y0202568D01*
X0142250Y0203802D02*
X0142250Y0201333D01*
X0142250Y0205016D02*
X0142250Y0207485D01*
X0142250Y0206251D02*
X0138547Y0206251D01*
X0139781Y0205016D01*
X0148147Y0205633D02*
X0148147Y0206868D01*
X0148764Y0207485D01*
X0151233Y0205016D01*
X0151850Y0205633D01*
X0151850Y0206868D01*
X0151233Y0207485D01*
X0148764Y0207485D01*
X0148147Y0205633D02*
X0148764Y0205016D01*
X0151233Y0205016D01*
X0151850Y0203802D02*
X0151850Y0201333D01*
X0151850Y0202568D02*
X0148147Y0202568D01*
X0149381Y0201333D01*
X0148764Y0200119D02*
X0148147Y0199502D01*
X0148147Y0197650D01*
X0151850Y0197650D01*
X0151850Y0199502D01*
X0151233Y0200119D01*
X0148764Y0200119D01*
X0158347Y0199502D02*
X0158347Y0197650D01*
X0162050Y0197650D01*
X0162050Y0199502D01*
X0161433Y0200119D01*
X0158964Y0200119D01*
X0158347Y0199502D01*
X0158964Y0201333D02*
X0159581Y0201333D01*
X0160198Y0201950D01*
X0160198Y0203802D01*
X0158964Y0203802D02*
X0158347Y0203185D01*
X0158347Y0201950D01*
X0158964Y0201333D01*
X0161433Y0201333D02*
X0162050Y0201950D01*
X0162050Y0203185D01*
X0161433Y0203802D01*
X0158964Y0203802D01*
X0167347Y0203785D02*
X0167964Y0204402D01*
X0168581Y0204402D01*
X0169198Y0203785D01*
X0169198Y0202550D01*
X0168581Y0201933D01*
X0167964Y0201933D01*
X0167347Y0202550D01*
X0167347Y0203785D01*
X0169198Y0203785D02*
X0169816Y0204402D01*
X0170433Y0204402D01*
X0171050Y0203785D01*
X0171050Y0202550D01*
X0170433Y0201933D01*
X0169816Y0201933D01*
X0169198Y0202550D01*
X0167964Y0200719D02*
X0167347Y0200102D01*
X0167347Y0198250D01*
X0171050Y0198250D01*
X0171050Y0200102D01*
X0170433Y0200719D01*
X0167964Y0200719D01*
X0182947Y0200102D02*
X0182947Y0198250D01*
X0186650Y0198250D01*
X0186650Y0200102D01*
X0186033Y0200719D01*
X0183564Y0200719D01*
X0182947Y0200102D01*
X0182947Y0201933D02*
X0182947Y0204402D01*
X0183564Y0204402D01*
X0186033Y0201933D01*
X0186650Y0201933D01*
X0193147Y0200102D02*
X0193147Y0198250D01*
X0196850Y0198250D01*
X0196850Y0200102D01*
X0196233Y0200719D01*
X0193764Y0200719D01*
X0193147Y0200102D01*
X0194998Y0201933D02*
X0194998Y0203785D01*
X0195616Y0204402D01*
X0196233Y0204402D01*
X0196850Y0203785D01*
X0196850Y0202550D01*
X0196233Y0201933D01*
X0194998Y0201933D01*
X0193764Y0203168D01*
X0193147Y0204402D01*
X0203347Y0204402D02*
X0203347Y0201933D01*
X0205198Y0201933D01*
X0204581Y0203168D01*
X0204581Y0203785D01*
X0205198Y0204402D01*
X0206433Y0204402D01*
X0207050Y0203785D01*
X0207050Y0202550D01*
X0206433Y0201933D01*
X0206433Y0200719D02*
X0203964Y0200719D01*
X0203347Y0200102D01*
X0203347Y0198250D01*
X0207050Y0198250D01*
X0207050Y0200102D01*
X0206433Y0200719D01*
X0212947Y0200102D02*
X0212947Y0198250D01*
X0216650Y0198250D01*
X0216650Y0200102D01*
X0216033Y0200719D01*
X0213564Y0200719D01*
X0212947Y0200102D01*
X0214798Y0201933D02*
X0212947Y0203785D01*
X0216650Y0203785D01*
X0214798Y0204402D02*
X0214798Y0201933D01*
X0223147Y0202550D02*
X0223147Y0203785D01*
X0223764Y0204402D01*
X0224381Y0204402D01*
X0224998Y0203785D01*
X0225616Y0204402D01*
X0226233Y0204402D01*
X0226850Y0203785D01*
X0226850Y0202550D01*
X0226233Y0201933D01*
X0226233Y0200719D02*
X0223764Y0200719D01*
X0223147Y0200102D01*
X0223147Y0198250D01*
X0226850Y0198250D01*
X0226850Y0200102D01*
X0226233Y0200719D01*
X0224998Y0203168D02*
X0224998Y0203785D01*
X0223764Y0201933D02*
X0223147Y0202550D01*
X0232747Y0201850D02*
X0232747Y0203702D01*
X0233364Y0204319D01*
X0235833Y0204319D01*
X0236450Y0203702D01*
X0236450Y0201850D01*
X0232747Y0201850D01*
X0233364Y0205533D02*
X0232747Y0206150D01*
X0232747Y0207385D01*
X0233364Y0208002D01*
X0233981Y0208002D01*
X0236450Y0205533D01*
X0236450Y0208002D01*
X0243547Y0207568D02*
X0243547Y0205099D01*
X0243547Y0206334D02*
X0247250Y0206334D01*
X0247250Y0208783D02*
X0243547Y0211251D01*
X0243547Y0208783D02*
X0247250Y0211251D01*
X0253147Y0210651D02*
X0256850Y0208183D01*
X0256850Y0206968D02*
X0255616Y0205734D01*
X0255616Y0206351D02*
X0255616Y0204499D01*
X0256850Y0204499D02*
X0253147Y0204499D01*
X0253147Y0206351D01*
X0253764Y0206968D01*
X0254998Y0206968D01*
X0255616Y0206351D01*
X0253147Y0208183D02*
X0256850Y0210651D01*
X0256850Y0203285D02*
X0253147Y0200816D01*
X0253764Y0199602D02*
X0253147Y0198985D01*
X0253147Y0197750D01*
X0253764Y0197133D01*
X0256233Y0197133D01*
X0253764Y0199602D01*
X0256233Y0199602D01*
X0256850Y0198985D01*
X0256850Y0197750D01*
X0256233Y0197133D01*
X0256233Y0195919D02*
X0253764Y0195919D01*
X0253147Y0195302D01*
X0253147Y0193450D01*
X0256850Y0193450D01*
X0256850Y0195302D01*
X0256233Y0195919D01*
X0247250Y0195902D02*
X0247250Y0194050D01*
X0243547Y0194050D01*
X0243547Y0195902D01*
X0244164Y0196519D01*
X0246633Y0196519D01*
X0247250Y0195902D01*
X0247250Y0197733D02*
X0247250Y0200202D01*
X0247250Y0198968D02*
X0243547Y0198968D01*
X0244781Y0197733D01*
X0243547Y0201416D02*
X0247250Y0203885D01*
X0091250Y0205016D02*
X0088781Y0205016D01*
X0087547Y0206251D01*
X0088781Y0207485D01*
X0091250Y0207485D01*
X0089398Y0207485D02*
X0089398Y0205016D01*
X0122947Y0079473D02*
X0122947Y0077004D01*
X0126650Y0077004D01*
X0126650Y0075790D02*
X0126650Y0073321D01*
X0122947Y0073321D01*
X0122947Y0075790D01*
X0124798Y0077004D02*
X0124798Y0078239D01*
X0124798Y0074556D02*
X0124798Y0073321D01*
X0124798Y0072107D02*
X0125416Y0071490D01*
X0125416Y0069638D01*
X0126650Y0069638D02*
X0122947Y0069638D01*
X0122947Y0071490D01*
X0123564Y0072107D01*
X0124798Y0072107D01*
X0125416Y0070872D02*
X0126650Y0072107D01*
X0126033Y0068424D02*
X0123564Y0068424D01*
X0122947Y0067806D01*
X0122947Y0066572D01*
X0123564Y0065955D01*
X0126033Y0065955D01*
X0126650Y0066572D01*
X0126650Y0067806D01*
X0126033Y0068424D01*
X0126650Y0064734D02*
X0126650Y0063499D01*
X0126650Y0064117D02*
X0122947Y0064117D01*
X0122947Y0064734D02*
X0122947Y0063499D01*
X0122947Y0062285D02*
X0126650Y0059816D01*
X0125416Y0058602D02*
X0122947Y0058602D01*
X0125416Y0058602D02*
X0126650Y0057368D01*
X0125416Y0056133D01*
X0122947Y0056133D01*
X0122947Y0054919D02*
X0122947Y0052450D01*
X0124798Y0052450D01*
X0124181Y0053684D01*
X0124181Y0054302D01*
X0124798Y0054919D01*
X0126033Y0054919D01*
X0126650Y0054302D01*
X0126650Y0053067D01*
X0126033Y0052450D01*
X0132547Y0052450D02*
X0132547Y0054302D01*
X0133164Y0054919D01*
X0134398Y0054919D01*
X0135016Y0054302D01*
X0135016Y0052450D01*
X0136250Y0052450D02*
X0132547Y0052450D01*
X0135016Y0053684D02*
X0136250Y0054919D01*
X0135633Y0056133D02*
X0136250Y0056750D01*
X0136250Y0057985D01*
X0135633Y0058602D01*
X0135016Y0058602D01*
X0134398Y0057985D01*
X0134398Y0056750D01*
X0133781Y0056133D01*
X0133164Y0056133D01*
X0132547Y0056750D01*
X0132547Y0057985D01*
X0133164Y0058602D01*
X0132547Y0059816D02*
X0132547Y0062285D01*
X0132547Y0061051D02*
X0136250Y0061051D01*
X0142747Y0057985D02*
X0142747Y0056750D01*
X0143364Y0056133D01*
X0145833Y0056133D01*
X0146450Y0056750D01*
X0146450Y0057985D01*
X0145833Y0058602D01*
X0143364Y0058602D02*
X0142747Y0057985D01*
X0142747Y0054919D02*
X0146450Y0054919D01*
X0142747Y0052450D01*
X0146450Y0052450D01*
X0152347Y0052450D02*
X0154198Y0052450D01*
X0153581Y0053684D01*
X0153581Y0054302D01*
X0154198Y0054919D01*
X0155433Y0054919D01*
X0156050Y0054302D01*
X0156050Y0053067D01*
X0155433Y0052450D01*
X0152347Y0052450D02*
X0152347Y0054919D01*
X0152347Y0056133D02*
X0154816Y0056133D01*
X0156050Y0057368D01*
X0154816Y0058602D01*
X0152347Y0058602D01*
X0162547Y0058602D02*
X0166250Y0058602D01*
X0162547Y0056133D01*
X0166250Y0056133D01*
X0165633Y0054919D02*
X0164398Y0054919D01*
X0164398Y0053684D01*
X0163164Y0052450D02*
X0165633Y0052450D01*
X0166250Y0053067D01*
X0166250Y0054302D01*
X0165633Y0054919D01*
X0163164Y0054919D02*
X0162547Y0054302D01*
X0162547Y0053067D01*
X0163164Y0052450D01*
X0172147Y0052467D02*
X0172764Y0051850D01*
X0175233Y0051850D01*
X0175850Y0052467D01*
X0175850Y0053702D01*
X0175233Y0054319D01*
X0173998Y0054319D01*
X0173998Y0053084D01*
X0172764Y0054319D02*
X0172147Y0053702D01*
X0172147Y0052467D01*
X0172147Y0055533D02*
X0175850Y0058002D01*
X0172147Y0058002D01*
X0172147Y0059216D02*
X0172147Y0061068D01*
X0172764Y0061685D01*
X0175233Y0061685D01*
X0175850Y0061068D01*
X0175850Y0059216D01*
X0172147Y0059216D01*
X0172147Y0055533D02*
X0175850Y0055533D01*
X0182947Y0054919D02*
X0186650Y0054919D01*
X0182947Y0052450D01*
X0186650Y0052450D01*
X0186033Y0056133D02*
X0186650Y0056750D01*
X0186650Y0057985D01*
X0186033Y0058602D01*
X0186033Y0056133D02*
X0183564Y0056133D01*
X0182947Y0056750D01*
X0182947Y0057985D01*
X0183564Y0058602D01*
X0201547Y0058602D02*
X0202164Y0057368D01*
X0203398Y0056133D01*
X0203398Y0057985D01*
X0204016Y0058602D01*
X0204633Y0058602D01*
X0205250Y0057985D01*
X0205250Y0056750D01*
X0204633Y0056133D01*
X0203398Y0056133D01*
X0203398Y0054919D02*
X0203398Y0052450D01*
X0202781Y0052450D02*
X0205250Y0052450D01*
X0205250Y0054919D02*
X0202781Y0054919D01*
X0201547Y0053684D01*
X0202781Y0052450D01*
X0211147Y0053684D02*
X0212381Y0054919D01*
X0214850Y0054919D01*
X0214233Y0056133D02*
X0214850Y0056750D01*
X0214850Y0057985D01*
X0214233Y0058602D01*
X0212998Y0058602D01*
X0212381Y0057985D01*
X0212381Y0057368D01*
X0212998Y0056133D01*
X0211147Y0056133D01*
X0211147Y0058602D01*
X0212998Y0054919D02*
X0212998Y0052450D01*
X0212381Y0052450D02*
X0214850Y0052450D01*
X0212381Y0052450D02*
X0211147Y0053684D01*
X0222547Y0054284D02*
X0223781Y0055519D01*
X0226250Y0055519D01*
X0224398Y0055519D02*
X0224398Y0053050D01*
X0223781Y0053050D02*
X0222547Y0054284D01*
X0223781Y0053050D02*
X0226250Y0053050D01*
X0224398Y0056733D02*
X0224398Y0059202D01*
X0222547Y0058585D02*
X0226250Y0058585D01*
X0224398Y0056733D02*
X0222547Y0058585D01*
X0231547Y0058585D02*
X0232164Y0059202D01*
X0232781Y0059202D01*
X0233398Y0058585D01*
X0234016Y0059202D01*
X0234633Y0059202D01*
X0235250Y0058585D01*
X0235250Y0057350D01*
X0234633Y0056733D01*
X0235250Y0055519D02*
X0232781Y0055519D01*
X0231547Y0054284D01*
X0232781Y0053050D01*
X0235250Y0053050D01*
X0233398Y0053050D02*
X0233398Y0055519D01*
X0232164Y0056733D02*
X0231547Y0057350D01*
X0231547Y0058585D01*
X0233398Y0058585D02*
X0233398Y0057968D01*
X0241747Y0058585D02*
X0243598Y0056733D01*
X0243598Y0059202D01*
X0241747Y0058585D02*
X0245450Y0058585D01*
X0245450Y0055519D02*
X0242981Y0055519D01*
X0241747Y0054284D01*
X0242981Y0053050D01*
X0245450Y0053050D01*
X0243598Y0053050D02*
X0243598Y0055519D01*
X0252547Y0056733D02*
X0252547Y0059202D01*
X0253781Y0058585D02*
X0254398Y0059202D01*
X0255633Y0059202D01*
X0256250Y0058585D01*
X0256250Y0057350D01*
X0255633Y0056733D01*
X0254398Y0056733D02*
X0253781Y0057968D01*
X0253781Y0058585D01*
X0254398Y0056733D02*
X0252547Y0056733D01*
X0253781Y0055519D02*
X0252547Y0054284D01*
X0253781Y0053050D01*
X0256250Y0053050D01*
X0254398Y0053050D02*
X0254398Y0055519D01*
X0253781Y0055519D02*
X0256250Y0055519D01*
X0166250Y0059816D02*
X0166250Y0061668D01*
X0165633Y0062285D01*
X0163164Y0062285D01*
X0162547Y0061668D01*
X0162547Y0059816D01*
X0166250Y0059816D01*
X0116450Y0057985D02*
X0116450Y0056750D01*
X0115833Y0056133D01*
X0113364Y0056133D01*
X0112747Y0056750D01*
X0112747Y0057985D01*
X0113364Y0058602D01*
X0115833Y0058602D02*
X0116450Y0057985D01*
X0116450Y0054919D02*
X0112747Y0054919D01*
X0112747Y0052450D02*
X0116450Y0054919D01*
X0116450Y0052450D02*
X0112747Y0052450D01*
D14*
X0005000Y0026300D02*
X0005000Y0236300D01*
X0259000Y0236300D01*
X0265000Y0230300D01*
X0265000Y0185300D01*
X0275000Y0175300D01*
X0275000Y0046300D01*
X0265000Y0036300D01*
X0265000Y0026300D01*
X0260000Y0031300D02*
X0200000Y0031300D01*
X0200000Y0041300D01*
X0260000Y0041300D01*
X0260000Y0051300D01*
X0200000Y0051300D01*
X0200000Y0041300D01*
X0260000Y0041300D01*
X0260000Y0031300D01*
X0190000Y0031300D02*
X0110000Y0031300D01*
X0110000Y0041300D01*
X0190000Y0041300D01*
X0190000Y0031300D01*
X0190200Y0041300D02*
X0110200Y0041300D01*
X0110200Y0051300D01*
X0190200Y0051300D01*
X0190200Y0041300D01*
X0091319Y0029614D02*
X0091319Y0028864D01*
X0090568Y0028113D01*
X0091319Y0027362D01*
X0091319Y0026612D01*
X0090568Y0025861D01*
X0089067Y0025861D01*
X0088316Y0026612D01*
X0089817Y0028113D02*
X0090568Y0028113D01*
X0091319Y0029614D02*
X0090568Y0030365D01*
X0089067Y0030365D01*
X0088316Y0029614D01*
X0086715Y0029614D02*
X0086715Y0028113D01*
X0085964Y0027362D01*
X0083712Y0027362D01*
X0083712Y0025861D02*
X0083712Y0030365D01*
X0085964Y0030365D01*
X0086715Y0029614D01*
X0082111Y0030365D02*
X0080610Y0030365D01*
X0081360Y0030365D02*
X0081360Y0026612D01*
X0080610Y0025861D01*
X0079859Y0025861D01*
X0079108Y0026612D01*
X0073997Y0211297D02*
X0073997Y0221297D01*
X0173997Y0221297D01*
X0173997Y0211297D01*
X0073997Y0211297D01*
X0074000Y0221300D02*
X0074000Y0231300D01*
X0174000Y0231300D01*
X0174000Y0221300D01*
X0074000Y0221300D01*
X0039862Y0226648D02*
X0036859Y0226648D01*
X0038361Y0226648D02*
X0038361Y0231152D01*
X0036859Y0229651D01*
X0035258Y0230402D02*
X0034507Y0231152D01*
X0032255Y0231152D01*
X0032255Y0226648D01*
X0032255Y0228150D02*
X0034507Y0228150D01*
X0035258Y0228900D01*
X0035258Y0230402D01*
X0030654Y0231152D02*
X0029153Y0231152D01*
X0029903Y0231152D02*
X0029903Y0227399D01*
X0029153Y0226648D01*
X0028402Y0226648D01*
X0027652Y0227399D01*
X0180000Y0231300D02*
X0180000Y0221300D01*
X0260000Y0221300D01*
X0260000Y0231300D01*
X0180000Y0231300D01*
X0180006Y0221297D02*
X0260006Y0221297D01*
X0260006Y0211297D01*
X0180006Y0211297D01*
X0180006Y0221297D01*
D15*
X0248600Y0178400D03*
X0182000Y0161200D03*
X0174200Y0095400D03*
X0142200Y0092400D03*
X0144800Y0061600D03*
D16*
X0181200Y0063900D03*
X0198400Y0086100D03*
X0182600Y0094300D03*
X0182200Y0094100D03*
X0182000Y0094100D03*
X0176400Y0095300D03*
X0176200Y0095300D03*
X0172800Y0105900D03*
X0141400Y0092100D03*
X0168800Y0129700D03*
X0194000Y0139300D03*
X0181000Y0162700D03*
X0180800Y0163100D03*
X0180600Y0163300D03*
X0180000Y0164300D03*
X0179600Y0165100D03*
X0179400Y0165100D03*
X0178200Y0166900D03*
X0201000Y0171300D03*
X0201400Y0171700D03*
X0201600Y0171900D03*
X0201800Y0171900D03*
X0202200Y0172100D03*
X0202400Y0172300D03*
X0202600Y0172300D03*
X0180000Y0183700D03*
X0248400Y0178300D03*
D17*
X0248200Y0178300D03*
X0238600Y0196500D03*
X0200800Y0171100D03*
X0178000Y0167100D03*
X0177800Y0167500D03*
X0177200Y0168100D03*
X0177000Y0168300D03*
X0176400Y0169100D03*
X0176200Y0169300D03*
X0175400Y0170300D03*
X0175200Y0170300D03*
X0175000Y0170700D03*
X0168000Y0145700D03*
X0168200Y0145300D03*
X0168400Y0129100D03*
X0193400Y0139900D03*
X0193800Y0139500D03*
X0223600Y0152700D03*
X0240200Y0147100D03*
X0207800Y0106300D03*
X0195800Y0100100D03*
X0192600Y0098300D03*
X0192400Y0098100D03*
X0192000Y0097900D03*
X0191800Y0097700D03*
X0191600Y0097700D03*
X0191400Y0097700D03*
X0191200Y0097700D03*
X0190400Y0097300D03*
X0190200Y0097300D03*
X0189800Y0097100D03*
X0189400Y0096900D03*
X0189200Y0096900D03*
X0188400Y0096500D03*
X0188000Y0096300D03*
X0187800Y0096300D03*
X0187400Y0096100D03*
X0187000Y0095900D03*
X0186800Y0095900D03*
X0186000Y0095500D03*
X0185800Y0095500D03*
X0185600Y0095500D03*
X0185400Y0095300D03*
X0185000Y0095100D03*
X0184800Y0095100D03*
X0184600Y0095100D03*
X0184200Y0094900D03*
X0184000Y0094700D03*
X0183800Y0094700D03*
X0183400Y0094500D03*
X0168600Y0108500D03*
X0145000Y0061300D03*
D18*
X0140600Y0091600D03*
X0168400Y0108400D03*
X0172400Y0105600D03*
X0167800Y0128000D03*
X0168000Y0128400D03*
X0193000Y0140600D03*
X0167800Y0146000D03*
X0200400Y0170400D03*
X0171600Y0173800D03*
X0171200Y0174200D03*
X0170800Y0174600D03*
X0169800Y0175400D03*
X0248000Y0178200D03*
X0197800Y0086000D03*
D19*
X0152400Y0125100D03*
X0167600Y0127700D03*
X0192800Y0140900D03*
X0209400Y0136300D03*
X0212400Y0153500D03*
X0214200Y0165300D03*
X0239800Y0147300D03*
X0247800Y0178300D03*
X0238400Y0196500D03*
X0171000Y0174500D03*
X0170600Y0174700D03*
X0170400Y0174900D03*
X0170200Y0175100D03*
X0170000Y0175300D03*
X0169600Y0175700D03*
X0169400Y0175700D03*
X0169200Y0175900D03*
X0168800Y0176100D03*
X0168600Y0176300D03*
X0168000Y0176700D03*
X0167200Y0146900D03*
X0167400Y0146700D03*
D20*
X0167000Y0147200D03*
X0191600Y0144000D03*
X0167400Y0127200D03*
X0140400Y0091400D03*
X0129400Y0074600D03*
X0145200Y0061400D03*
X0181000Y0064000D03*
X0197400Y0086000D03*
X0197600Y0086000D03*
X0169000Y0176000D03*
X0168400Y0176400D03*
X0168200Y0176600D03*
X0167800Y0177000D03*
X0167600Y0177000D03*
X0167000Y0177400D03*
X0166800Y0177600D03*
X0247600Y0178200D03*
D21*
X0247400Y0178200D03*
X0247200Y0178200D03*
X0223400Y0152800D03*
X0239200Y0147400D03*
X0239400Y0147400D03*
X0166600Y0148000D03*
X0167200Y0127000D03*
X0140200Y0091200D03*
X0129600Y0074800D03*
X0165800Y0178200D03*
X0165000Y0178600D03*
X0164600Y0179000D03*
X0164200Y0179200D03*
X0164000Y0179200D03*
X0163400Y0179600D03*
X0162800Y0180000D03*
D22*
X0161400Y0180700D03*
X0161000Y0180900D03*
X0160600Y0181100D03*
X0160400Y0181100D03*
X0159800Y0181500D03*
X0159200Y0181700D03*
X0159000Y0181700D03*
X0158800Y0181900D03*
X0158400Y0182100D03*
X0158200Y0182100D03*
X0157200Y0182500D03*
X0200000Y0169500D03*
X0212800Y0154100D03*
X0246800Y0178100D03*
X0247000Y0178100D03*
X0237800Y0196500D03*
X0166000Y0149300D03*
X0166600Y0125900D03*
X0168000Y0108100D03*
X0195800Y0086100D03*
X0196000Y0086100D03*
X0196200Y0086100D03*
X0208800Y0109700D03*
D23*
X0179400Y0088600D03*
X0180800Y0064000D03*
X0166200Y0125200D03*
X0152600Y0124400D03*
X0165800Y0149600D03*
X0165600Y0149800D03*
X0199800Y0169200D03*
X0158000Y0182200D03*
X0157800Y0182200D03*
X0157600Y0182400D03*
X0157400Y0182400D03*
X0157000Y0182600D03*
X0156400Y0182800D03*
X0156200Y0182800D03*
X0156000Y0183000D03*
X0155800Y0183000D03*
X0155400Y0183200D03*
X0155200Y0183200D03*
X0238800Y0147400D03*
X0246600Y0178200D03*
D24*
X0246400Y0178100D03*
X0237600Y0196300D03*
X0199600Y0169100D03*
X0238600Y0147500D03*
X0194200Y0140500D03*
X0156800Y0182700D03*
X0156600Y0182700D03*
X0155600Y0183100D03*
X0155000Y0183300D03*
X0154800Y0183300D03*
X0154400Y0183500D03*
X0154200Y0183500D03*
X0154000Y0183500D03*
X0153800Y0183700D03*
X0153600Y0183700D03*
X0139600Y0090700D03*
X0139400Y0090700D03*
X0130000Y0074900D03*
X0195200Y0086100D03*
X0195400Y0086100D03*
X0195600Y0086100D03*
D25*
X0195000Y0086000D03*
X0194800Y0086000D03*
X0194600Y0086000D03*
X0145400Y0061800D03*
X0165800Y0124200D03*
X0166000Y0124600D03*
X0209600Y0136200D03*
X0213000Y0154400D03*
X0238400Y0147600D03*
X0246200Y0178000D03*
X0237400Y0196200D03*
X0154600Y0183400D03*
X0153400Y0183800D03*
X0152800Y0184000D03*
X0152600Y0184000D03*
X0152400Y0184000D03*
X0152000Y0184200D03*
X0151800Y0184200D03*
D26*
X0151600Y0184300D03*
X0151400Y0184300D03*
X0151200Y0184300D03*
X0150600Y0184500D03*
X0149800Y0184700D03*
X0149600Y0184700D03*
X0149400Y0184700D03*
X0152200Y0184100D03*
X0153000Y0183900D03*
X0153200Y0183900D03*
X0165200Y0150700D03*
X0165400Y0150300D03*
X0165600Y0124100D03*
X0167800Y0108100D03*
X0173200Y0101300D03*
X0189200Y0084100D03*
X0188600Y0083700D03*
X0188000Y0083300D03*
X0187800Y0083300D03*
X0190000Y0084700D03*
X0190200Y0084700D03*
X0191000Y0085100D03*
X0192200Y0085500D03*
X0192400Y0085500D03*
X0193800Y0085900D03*
X0194000Y0085900D03*
X0194200Y0085900D03*
X0194400Y0085900D03*
X0139200Y0090500D03*
X0139000Y0090500D03*
X0130200Y0075100D03*
X0238200Y0147700D03*
X0245800Y0177900D03*
X0246000Y0177900D03*
X0237200Y0196100D03*
D27*
X0245400Y0177800D03*
X0245600Y0177800D03*
X0214000Y0165200D03*
X0194400Y0152000D03*
X0193200Y0148000D03*
X0209800Y0136200D03*
X0238000Y0147800D03*
X0180600Y0183600D03*
X0151000Y0184400D03*
X0150800Y0184400D03*
X0150400Y0184600D03*
X0150200Y0184600D03*
X0150000Y0184600D03*
X0149200Y0184800D03*
X0149000Y0184800D03*
X0148800Y0184800D03*
X0165000Y0151200D03*
X0190600Y0085000D03*
X0190800Y0085000D03*
X0190400Y0084800D03*
X0189800Y0084600D03*
X0189600Y0084400D03*
X0189400Y0084200D03*
X0189000Y0084000D03*
X0188400Y0083600D03*
X0188200Y0083400D03*
X0187600Y0083200D03*
X0187400Y0083200D03*
X0191200Y0085200D03*
X0191400Y0085200D03*
X0191800Y0085400D03*
X0192000Y0085400D03*
X0192600Y0085600D03*
X0192800Y0085600D03*
X0193200Y0085800D03*
X0193400Y0085800D03*
X0193600Y0085800D03*
D28*
X0193000Y0085700D03*
X0191600Y0085300D03*
X0188800Y0083900D03*
X0187200Y0083100D03*
X0187000Y0083100D03*
X0186800Y0083100D03*
X0179200Y0088700D03*
X0180600Y0064100D03*
X0145600Y0061900D03*
X0130400Y0075100D03*
X0138600Y0090300D03*
X0138800Y0090300D03*
X0165400Y0123300D03*
X0193000Y0147500D03*
X0193400Y0148900D03*
X0193600Y0149300D03*
X0193800Y0150300D03*
X0194200Y0151500D03*
X0199400Y0168300D03*
X0180800Y0183700D03*
X0148600Y0184900D03*
X0148400Y0184900D03*
X0148200Y0184900D03*
X0148000Y0184900D03*
X0164800Y0151500D03*
X0237800Y0147900D03*
X0245000Y0177700D03*
X0245200Y0177700D03*
X0237000Y0196100D03*
D29*
X0236800Y0196000D03*
X0244600Y0177600D03*
X0244800Y0177600D03*
X0213800Y0165200D03*
X0194000Y0150600D03*
X0192800Y0147200D03*
X0194400Y0141000D03*
X0165200Y0123000D03*
X0165000Y0122600D03*
X0164800Y0122400D03*
X0167600Y0108000D03*
X0138400Y0090200D03*
X0182800Y0082200D03*
X0185600Y0083000D03*
X0185800Y0083000D03*
X0186000Y0083000D03*
X0186200Y0083000D03*
X0186400Y0083000D03*
X0186600Y0083000D03*
X0237600Y0148000D03*
X0147800Y0185000D03*
X0147600Y0185000D03*
X0147400Y0185000D03*
X0147200Y0185000D03*
X0147000Y0185000D03*
X0146400Y0185200D03*
X0146200Y0185200D03*
D30*
X0146000Y0185300D03*
X0145800Y0185300D03*
X0145600Y0185300D03*
X0145400Y0185300D03*
X0145200Y0185300D03*
X0145000Y0185300D03*
X0144800Y0185300D03*
X0146600Y0185100D03*
X0146800Y0185100D03*
X0164600Y0152100D03*
X0199200Y0167900D03*
X0244000Y0177500D03*
X0244200Y0177500D03*
X0244400Y0177500D03*
X0236600Y0195900D03*
X0152800Y0123900D03*
X0138200Y0090100D03*
X0138000Y0090100D03*
X0130600Y0075100D03*
X0182200Y0081900D03*
X0182400Y0082100D03*
X0182600Y0082100D03*
X0183000Y0082300D03*
X0183200Y0082300D03*
X0183600Y0082500D03*
X0185000Y0082900D03*
X0185200Y0082900D03*
X0185400Y0082900D03*
D31*
X0184800Y0082800D03*
X0184600Y0082800D03*
X0184400Y0082800D03*
X0184200Y0082800D03*
X0183800Y0082600D03*
X0183400Y0082400D03*
X0182000Y0082000D03*
X0181800Y0082000D03*
X0181600Y0082000D03*
X0237200Y0148000D03*
X0237400Y0148000D03*
X0237000Y0148200D03*
X0199000Y0167400D03*
X0243600Y0177400D03*
X0243800Y0177400D03*
X0236400Y0195800D03*
X0144600Y0185400D03*
X0144400Y0185400D03*
X0144200Y0185400D03*
X0144000Y0185400D03*
D32*
X0143800Y0185500D03*
X0143600Y0185500D03*
X0143400Y0185500D03*
X0143200Y0185500D03*
X0143000Y0185500D03*
X0142800Y0185500D03*
X0142600Y0185500D03*
X0142400Y0185500D03*
X0142200Y0185500D03*
X0142000Y0185500D03*
X0141800Y0185500D03*
X0141600Y0185500D03*
X0141400Y0185500D03*
X0141200Y0185500D03*
X0141000Y0185500D03*
X0140800Y0185500D03*
X0140600Y0185500D03*
X0140400Y0185500D03*
X0181000Y0183500D03*
X0198800Y0167300D03*
X0213600Y0165100D03*
X0237000Y0175900D03*
X0237600Y0176100D03*
X0237800Y0176300D03*
X0238000Y0176300D03*
X0242600Y0177300D03*
X0242800Y0177300D03*
X0243000Y0177300D03*
X0243200Y0177300D03*
X0243400Y0177300D03*
X0236200Y0195700D03*
X0236000Y0195700D03*
X0164400Y0152500D03*
X0192000Y0144100D03*
X0236800Y0148300D03*
X0207800Y0110900D03*
X0184000Y0082700D03*
D33*
X0181400Y0082000D03*
X0181200Y0082000D03*
X0181000Y0082000D03*
X0180400Y0081600D03*
X0180200Y0081600D03*
X0137800Y0090000D03*
X0131000Y0075400D03*
X0130800Y0075400D03*
X0164600Y0121600D03*
X0192200Y0144200D03*
X0210000Y0136200D03*
X0236600Y0148400D03*
X0213400Y0155000D03*
X0213200Y0155000D03*
X0236800Y0175800D03*
X0237200Y0176000D03*
X0237400Y0176000D03*
X0238200Y0176400D03*
X0238400Y0176400D03*
X0238600Y0176400D03*
X0238800Y0176400D03*
X0240400Y0176800D03*
X0240600Y0176800D03*
X0241800Y0177000D03*
X0242000Y0177000D03*
X0242200Y0177000D03*
X0242400Y0177200D03*
X0235600Y0195400D03*
X0235800Y0195600D03*
X0164200Y0153000D03*
X0159400Y0164800D03*
X0140200Y0185400D03*
X0207600Y0111000D03*
D34*
X0207400Y0111100D03*
X0208600Y0109500D03*
X0173400Y0101300D03*
X0167400Y0107900D03*
X0164400Y0121300D03*
X0164000Y0153300D03*
X0140000Y0185500D03*
X0139800Y0185500D03*
X0139600Y0185500D03*
X0139400Y0185500D03*
X0139200Y0185500D03*
X0139000Y0185500D03*
X0138800Y0185500D03*
X0138600Y0185500D03*
X0138400Y0185500D03*
X0138200Y0185500D03*
X0138000Y0185500D03*
X0137800Y0185500D03*
X0137600Y0185500D03*
X0137400Y0185500D03*
X0137200Y0185500D03*
X0235400Y0195300D03*
X0239000Y0176500D03*
X0239200Y0176500D03*
X0239400Y0176500D03*
X0240000Y0176700D03*
X0240200Y0176700D03*
X0240800Y0176900D03*
X0241000Y0176900D03*
X0241200Y0176900D03*
X0241400Y0176900D03*
X0241600Y0176900D03*
X0236600Y0175700D03*
X0236400Y0175700D03*
X0236200Y0175700D03*
X0235400Y0175500D03*
X0236400Y0148500D03*
X0137600Y0089900D03*
X0137400Y0089900D03*
X0137200Y0089900D03*
X0180000Y0081500D03*
X0180600Y0081900D03*
X0180800Y0081900D03*
X0180400Y0064300D03*
D35*
X0141800Y0092200D03*
X0173000Y0106000D03*
X0177400Y0094600D03*
X0177600Y0094600D03*
X0177800Y0094600D03*
X0178000Y0094400D03*
X0178200Y0094200D03*
X0197200Y0100200D03*
X0197400Y0100400D03*
X0197800Y0100600D03*
X0198000Y0100600D03*
X0198200Y0100800D03*
X0198400Y0100800D03*
X0199000Y0101000D03*
X0199200Y0101200D03*
X0199400Y0101200D03*
X0199600Y0101400D03*
X0199800Y0101400D03*
X0200000Y0101400D03*
X0200200Y0101400D03*
X0200400Y0101600D03*
X0200600Y0101800D03*
X0200800Y0101800D03*
X0201400Y0102000D03*
X0201800Y0102200D03*
X0202400Y0102400D03*
X0202800Y0102600D03*
X0203000Y0102600D03*
X0203400Y0102800D03*
X0203600Y0102800D03*
X0204000Y0103000D03*
X0204200Y0103200D03*
X0204400Y0103200D03*
X0204800Y0103400D03*
X0205000Y0103600D03*
X0205200Y0103600D03*
X0205600Y0103800D03*
X0205800Y0104000D03*
X0206200Y0104200D03*
X0206400Y0104400D03*
X0207000Y0105000D03*
X0240600Y0147200D03*
X0223800Y0152600D03*
X0212000Y0152600D03*
X0181800Y0161600D03*
D36*
X0181600Y0161700D03*
X0181200Y0162500D03*
X0202800Y0172500D03*
X0203000Y0172500D03*
X0203400Y0172700D03*
X0203800Y0172900D03*
X0204000Y0172900D03*
X0240400Y0147100D03*
X0209200Y0136300D03*
X0169000Y0129900D03*
X0168600Y0144900D03*
X0207400Y0105500D03*
X0206800Y0104700D03*
X0206600Y0104500D03*
X0206000Y0104100D03*
X0205400Y0103700D03*
X0203200Y0102700D03*
X0202600Y0102500D03*
X0202200Y0102300D03*
X0202000Y0102300D03*
X0201200Y0101900D03*
X0201000Y0101900D03*
X0198800Y0100900D03*
X0198600Y0100900D03*
X0197600Y0100500D03*
X0197000Y0100100D03*
X0196800Y0100100D03*
X0196600Y0100100D03*
X0196400Y0100100D03*
X0196200Y0100100D03*
X0180800Y0093900D03*
X0180600Y0093900D03*
X0180400Y0093900D03*
X0180200Y0093900D03*
X0180000Y0093900D03*
X0179800Y0093900D03*
X0179600Y0093900D03*
X0179400Y0093900D03*
X0179200Y0093900D03*
X0178600Y0094100D03*
X0178400Y0094100D03*
X0177200Y0094900D03*
X0177000Y0094900D03*
X0176800Y0095100D03*
X0176600Y0095100D03*
X0179800Y0088300D03*
X0198600Y0086100D03*
D37*
X0183600Y0094600D03*
X0188200Y0096400D03*
X0172600Y0105800D03*
X0141000Y0091800D03*
X0193200Y0140400D03*
X0178400Y0166600D03*
X0176600Y0168800D03*
X0176000Y0169600D03*
X0175800Y0169800D03*
X0174800Y0170800D03*
X0174600Y0171000D03*
X0174400Y0171200D03*
X0174200Y0171400D03*
X0174000Y0171600D03*
X0173600Y0172000D03*
X0173400Y0172200D03*
X0173200Y0172400D03*
X0173000Y0172600D03*
X0200600Y0170800D03*
X0240000Y0147200D03*
D38*
X0236200Y0148600D03*
X0210200Y0136200D03*
X0163800Y0153600D03*
X0181200Y0183400D03*
X0137000Y0185400D03*
X0136800Y0185400D03*
X0136600Y0185400D03*
X0235000Y0195200D03*
X0235200Y0195200D03*
X0239600Y0176600D03*
X0239800Y0176600D03*
X0236000Y0175600D03*
X0235800Y0175600D03*
X0235600Y0175600D03*
X0235200Y0175400D03*
X0235000Y0175400D03*
X0167200Y0107800D03*
X0179600Y0081400D03*
X0179800Y0081400D03*
X0145800Y0062400D03*
X0131200Y0075600D03*
D39*
X0197000Y0086100D03*
X0197200Y0086100D03*
X0167000Y0126900D03*
X0166800Y0147700D03*
X0200200Y0170100D03*
X0212600Y0153700D03*
X0239600Y0147300D03*
X0180200Y0183700D03*
X0167400Y0177100D03*
X0167200Y0177300D03*
X0166600Y0177700D03*
X0166400Y0177900D03*
X0166200Y0177900D03*
X0166000Y0178100D03*
X0165600Y0178300D03*
X0165400Y0178500D03*
X0165200Y0178500D03*
X0164800Y0178700D03*
X0238200Y0196500D03*
D40*
X0238000Y0196400D03*
X0197200Y0155400D03*
X0191800Y0144000D03*
X0166400Y0148400D03*
X0166200Y0148600D03*
X0166800Y0126200D03*
X0166400Y0125400D03*
X0139800Y0091000D03*
X0129800Y0074800D03*
X0196400Y0086000D03*
X0239000Y0147400D03*
X0162400Y0180200D03*
X0162200Y0180200D03*
X0161600Y0180600D03*
X0161200Y0180800D03*
X0160800Y0181000D03*
X0160200Y0181200D03*
X0160000Y0181400D03*
X0159600Y0181600D03*
X0159400Y0181600D03*
X0158600Y0182000D03*
D41*
X0176800Y0168600D03*
X0177400Y0167800D03*
X0177600Y0167600D03*
X0178600Y0166400D03*
X0178800Y0166000D03*
X0179000Y0165800D03*
X0179200Y0165400D03*
X0179800Y0164600D03*
X0180200Y0164000D03*
X0180400Y0163800D03*
X0201200Y0171400D03*
X0212200Y0153000D03*
X0193600Y0139800D03*
X0168600Y0129200D03*
X0152200Y0125200D03*
X0187200Y0096000D03*
X0187600Y0096200D03*
X0186600Y0095800D03*
X0186400Y0095600D03*
X0186200Y0095600D03*
X0185200Y0095200D03*
X0184400Y0095000D03*
X0183200Y0094400D03*
X0183000Y0094400D03*
X0182800Y0094400D03*
X0182400Y0094200D03*
X0188600Y0096600D03*
X0188800Y0096800D03*
X0189000Y0096800D03*
X0189600Y0097000D03*
X0190000Y0097200D03*
X0190600Y0097400D03*
X0190800Y0097400D03*
X0191000Y0097600D03*
X0192200Y0098000D03*
X0198200Y0086000D03*
X0141200Y0092000D03*
X0129200Y0074600D03*
X0238800Y0196600D03*
D42*
X0234800Y0195100D03*
X0234600Y0194900D03*
X0234400Y0194900D03*
X0234200Y0194700D03*
X0234000Y0194700D03*
X0234200Y0175300D03*
X0234400Y0175300D03*
X0234600Y0175300D03*
X0234800Y0175300D03*
X0213600Y0155300D03*
X0195400Y0156500D03*
X0194600Y0154100D03*
X0163600Y0154300D03*
X0136400Y0185300D03*
X0136200Y0185300D03*
X0136000Y0185300D03*
X0135800Y0185300D03*
X0135600Y0185300D03*
X0135400Y0185300D03*
X0135200Y0185300D03*
X0135000Y0185300D03*
X0235600Y0148900D03*
X0236000Y0148700D03*
X0164200Y0120700D03*
X0173600Y0101300D03*
X0179400Y0081500D03*
X0180200Y0064300D03*
X0137000Y0089900D03*
X0136800Y0089900D03*
X0136600Y0089900D03*
X0136400Y0089900D03*
X0136200Y0089900D03*
X0136000Y0089900D03*
X0135800Y0089900D03*
X0135600Y0089900D03*
X0131400Y0075700D03*
D43*
X0131600Y0075800D03*
X0134800Y0090000D03*
X0135000Y0090000D03*
X0135200Y0090000D03*
X0135400Y0090000D03*
X0134600Y0090200D03*
X0134400Y0090200D03*
X0134200Y0090200D03*
X0134000Y0090200D03*
X0167000Y0107800D03*
X0207200Y0111200D03*
X0210400Y0136400D03*
X0235200Y0149200D03*
X0235400Y0149000D03*
X0235800Y0148800D03*
X0198600Y0166400D03*
X0195200Y0156000D03*
X0195000Y0155000D03*
X0194800Y0154600D03*
X0163400Y0154600D03*
X0181400Y0183400D03*
X0134800Y0185200D03*
X0134600Y0185200D03*
X0134400Y0185200D03*
X0134200Y0185200D03*
X0133800Y0185000D03*
X0133600Y0185000D03*
X0133400Y0185000D03*
X0133200Y0185000D03*
X0133000Y0185000D03*
X0232800Y0194000D03*
X0233000Y0194000D03*
X0233200Y0194200D03*
X0233600Y0175400D03*
X0233800Y0175400D03*
X0234000Y0175400D03*
X0146000Y0062600D03*
D44*
X0132200Y0076300D03*
X0132000Y0076100D03*
X0131800Y0075900D03*
X0133000Y0090300D03*
X0133200Y0090300D03*
X0133400Y0090300D03*
X0133600Y0090300D03*
X0133800Y0090300D03*
X0165800Y0097700D03*
X0166000Y0097700D03*
X0179200Y0081700D03*
X0208400Y0109700D03*
X0207000Y0111300D03*
X0164000Y0120300D03*
X0194600Y0141500D03*
X0192400Y0144100D03*
X0198400Y0166100D03*
X0233200Y0175300D03*
X0233400Y0175300D03*
X0231600Y0193300D03*
X0232000Y0193500D03*
X0232200Y0193700D03*
X0232600Y0193900D03*
X0233400Y0194300D03*
X0233600Y0194500D03*
X0233800Y0194500D03*
X0235000Y0149300D03*
X0134000Y0185100D03*
X0132800Y0184900D03*
X0132600Y0184900D03*
D45*
X0132400Y0184800D03*
X0132200Y0184800D03*
X0132000Y0184800D03*
X0131800Y0184800D03*
X0131600Y0184800D03*
X0131400Y0184800D03*
X0159600Y0164800D03*
X0181600Y0183400D03*
X0181800Y0183400D03*
X0198200Y0165800D03*
X0198000Y0164800D03*
X0197800Y0164400D03*
X0195800Y0157600D03*
X0195600Y0157400D03*
X0213400Y0165200D03*
X0230600Y0174800D03*
X0230800Y0174800D03*
X0231400Y0175000D03*
X0231600Y0175000D03*
X0232000Y0175200D03*
X0232200Y0175200D03*
X0232400Y0175200D03*
X0232600Y0175200D03*
X0232800Y0175200D03*
X0233000Y0175200D03*
X0222600Y0187000D03*
X0221800Y0186600D03*
X0231800Y0193400D03*
X0232400Y0193800D03*
X0234600Y0149600D03*
X0234800Y0149400D03*
X0163800Y0120000D03*
X0166200Y0097800D03*
X0132800Y0090400D03*
X0132600Y0090400D03*
X0132400Y0076400D03*
D46*
X0132600Y0076500D03*
X0132400Y0090500D03*
X0132200Y0090500D03*
X0132000Y0090500D03*
X0131800Y0090500D03*
X0131600Y0090500D03*
X0131400Y0090500D03*
X0131000Y0090700D03*
X0130200Y0090900D03*
X0130000Y0090900D03*
X0129400Y0091100D03*
X0166400Y0097900D03*
X0173800Y0101300D03*
X0166800Y0107700D03*
X0194800Y0141700D03*
X0197200Y0162300D03*
X0230400Y0174700D03*
X0231000Y0174900D03*
X0231200Y0174900D03*
X0231800Y0175100D03*
X0222200Y0186700D03*
X0222000Y0186700D03*
X0222400Y0186900D03*
X0223200Y0187500D03*
X0231400Y0193100D03*
X0234200Y0149900D03*
X0234400Y0149900D03*
X0131200Y0184700D03*
X0131000Y0184700D03*
X0130800Y0184700D03*
D47*
X0130600Y0184600D03*
X0130400Y0184600D03*
X0130200Y0184400D03*
X0130000Y0184400D03*
X0129800Y0184400D03*
X0129200Y0184200D03*
X0163000Y0155800D03*
X0163200Y0155400D03*
X0210600Y0136600D03*
X0210800Y0136600D03*
X0233800Y0150200D03*
X0234000Y0150000D03*
X0213800Y0155800D03*
X0226400Y0173200D03*
X0226600Y0173200D03*
X0226800Y0173200D03*
X0227200Y0173400D03*
X0227400Y0173600D03*
X0227600Y0173600D03*
X0228200Y0173800D03*
X0229200Y0174200D03*
X0229400Y0174200D03*
X0229600Y0174400D03*
X0229800Y0174400D03*
X0230000Y0174600D03*
X0230200Y0174600D03*
X0221600Y0186400D03*
X0221200Y0186200D03*
X0221000Y0186000D03*
X0222800Y0187200D03*
X0223000Y0187400D03*
X0223400Y0187600D03*
X0223600Y0187800D03*
X0223800Y0187800D03*
X0224000Y0188000D03*
X0231200Y0192800D03*
X0163600Y0119400D03*
X0163400Y0119000D03*
X0166600Y0098000D03*
X0131200Y0090600D03*
X0130800Y0090800D03*
X0130600Y0090800D03*
X0130400Y0090800D03*
X0129800Y0091000D03*
X0129600Y0091000D03*
X0129200Y0091200D03*
X0129000Y0091200D03*
X0128800Y0091200D03*
X0133200Y0077000D03*
X0133000Y0076800D03*
X0132800Y0076600D03*
X0146200Y0062800D03*
X0180000Y0064400D03*
X0208200Y0109600D03*
X0206800Y0111200D03*
D48*
X0206600Y0111100D03*
X0211000Y0136900D03*
X0233400Y0150500D03*
X0233600Y0150300D03*
X0225800Y0172900D03*
X0226000Y0173100D03*
X0226200Y0173100D03*
X0227000Y0173300D03*
X0227800Y0173700D03*
X0228000Y0173700D03*
X0228400Y0173900D03*
X0228600Y0174100D03*
X0228800Y0174100D03*
X0229000Y0174100D03*
X0221400Y0186300D03*
X0224200Y0188100D03*
X0224400Y0188100D03*
X0224600Y0188300D03*
X0225000Y0188500D03*
X0225200Y0188700D03*
X0230400Y0192300D03*
X0230600Y0192300D03*
X0230800Y0192500D03*
X0231000Y0192700D03*
X0197600Y0163700D03*
X0182000Y0183300D03*
X0129600Y0184300D03*
X0129400Y0184300D03*
X0129000Y0184100D03*
X0128800Y0184100D03*
X0128600Y0184100D03*
X0128400Y0184100D03*
X0166800Y0098100D03*
X0134200Y0077700D03*
X0133600Y0077300D03*
X0133400Y0077100D03*
X0128600Y0091300D03*
X0128400Y0091300D03*
X0179800Y0064500D03*
D49*
X0139400Y0082300D03*
X0139200Y0082300D03*
X0138800Y0081900D03*
X0138600Y0081900D03*
X0138400Y0081500D03*
X0138200Y0081500D03*
X0137200Y0080500D03*
X0136600Y0079700D03*
X0136400Y0079700D03*
X0135800Y0079100D03*
X0135600Y0078900D03*
X0135400Y0078700D03*
X0135200Y0078500D03*
X0135000Y0078300D03*
X0134800Y0078300D03*
X0134400Y0077900D03*
X0127600Y0091500D03*
X0127000Y0091700D03*
X0126800Y0091900D03*
X0126600Y0091900D03*
X0126400Y0091900D03*
X0126200Y0091900D03*
X0126000Y0091900D03*
X0167000Y0098300D03*
X0167200Y0098300D03*
X0167400Y0098300D03*
X0166600Y0107700D03*
X0153000Y0122500D03*
X0211200Y0137100D03*
X0213400Y0139500D03*
X0232800Y0151100D03*
X0233200Y0150700D03*
X0214000Y0156100D03*
X0213200Y0165100D03*
X0225000Y0172500D03*
X0225200Y0172500D03*
X0220600Y0185700D03*
X0225600Y0188900D03*
X0226200Y0189300D03*
X0226400Y0189300D03*
X0226600Y0189500D03*
X0226800Y0189700D03*
X0227000Y0189700D03*
X0227200Y0189900D03*
X0227400Y0189900D03*
X0227600Y0190100D03*
X0227800Y0190100D03*
X0228000Y0190300D03*
X0228400Y0190700D03*
X0228600Y0190700D03*
X0228800Y0190900D03*
X0229000Y0191100D03*
X0229600Y0191500D03*
X0230000Y0191900D03*
X0184800Y0182100D03*
X0184400Y0182300D03*
X0184200Y0182300D03*
X0184000Y0182500D03*
X0183800Y0182500D03*
X0183400Y0182700D03*
X0183200Y0182900D03*
X0183000Y0182900D03*
X0182800Y0182900D03*
X0162600Y0156700D03*
X0127200Y0183700D03*
X0127000Y0183500D03*
X0126800Y0183500D03*
X0126000Y0183300D03*
D50*
X0127400Y0183800D03*
X0127600Y0183800D03*
X0127800Y0183800D03*
X0128000Y0184000D03*
X0128200Y0184000D03*
X0162800Y0156400D03*
X0196000Y0158200D03*
X0197400Y0163200D03*
X0225400Y0172800D03*
X0225600Y0172800D03*
X0220800Y0185800D03*
X0224800Y0188400D03*
X0225400Y0188800D03*
X0225800Y0189000D03*
X0226000Y0189200D03*
X0228200Y0190600D03*
X0229200Y0191200D03*
X0229400Y0191400D03*
X0229800Y0191600D03*
X0230200Y0192000D03*
X0182600Y0183000D03*
X0182400Y0183200D03*
X0182200Y0183200D03*
X0233000Y0151000D03*
X0213200Y0139200D03*
X0195000Y0141800D03*
X0206400Y0111200D03*
X0208000Y0109600D03*
X0146400Y0063000D03*
X0133800Y0077400D03*
X0134000Y0077600D03*
X0134600Y0078000D03*
X0128200Y0091400D03*
X0128000Y0091400D03*
X0127800Y0091400D03*
X0127400Y0091600D03*
X0127200Y0091600D03*
X0086200Y0137800D03*
D51*
X0125000Y0092400D03*
X0125400Y0092200D03*
X0125600Y0092200D03*
X0125800Y0092000D03*
X0137600Y0081000D03*
X0137800Y0081000D03*
X0138000Y0081400D03*
X0137400Y0080600D03*
X0137000Y0080200D03*
X0136800Y0080000D03*
X0136200Y0079600D03*
X0136000Y0079200D03*
X0139000Y0082200D03*
X0139600Y0082400D03*
X0174000Y0101400D03*
X0166400Y0107600D03*
X0211400Y0137200D03*
X0212000Y0137800D03*
X0213000Y0138800D03*
X0232200Y0151600D03*
X0232600Y0151400D03*
X0196200Y0158400D03*
X0192600Y0144400D03*
X0186400Y0181400D03*
X0186200Y0181400D03*
X0186000Y0181400D03*
X0185800Y0181600D03*
X0185600Y0181600D03*
X0185400Y0181800D03*
X0185000Y0182000D03*
X0184600Y0182200D03*
X0183600Y0182600D03*
X0220400Y0185600D03*
X0126600Y0183400D03*
X0126400Y0183400D03*
X0126200Y0183400D03*
X0125800Y0183200D03*
X0125200Y0183000D03*
X0125000Y0183000D03*
D52*
X0124800Y0182900D03*
X0124400Y0182700D03*
X0124200Y0182700D03*
X0125400Y0183100D03*
X0125600Y0183100D03*
X0162400Y0157700D03*
X0185200Y0181900D03*
X0186600Y0181300D03*
X0186800Y0181300D03*
X0187000Y0181100D03*
X0187200Y0181100D03*
X0187400Y0180900D03*
X0187600Y0180900D03*
X0187800Y0180900D03*
X0188000Y0180700D03*
X0188200Y0180700D03*
X0188400Y0180500D03*
X0188600Y0180500D03*
X0188800Y0180500D03*
X0224600Y0172300D03*
X0224800Y0172300D03*
X0231600Y0152300D03*
X0231800Y0152100D03*
X0232000Y0151900D03*
X0232400Y0151500D03*
X0212800Y0138700D03*
X0212600Y0138300D03*
X0212400Y0138300D03*
X0212200Y0137900D03*
X0211800Y0137700D03*
X0206200Y0111100D03*
X0140200Y0082900D03*
X0139800Y0082700D03*
X0125200Y0092300D03*
X0124800Y0092500D03*
X0124600Y0092500D03*
X0124400Y0092500D03*
X0124200Y0092500D03*
D53*
X0124000Y0092600D03*
X0123800Y0092800D03*
X0123400Y0093000D03*
X0123200Y0093000D03*
X0140000Y0082800D03*
X0140400Y0083200D03*
X0146600Y0063400D03*
X0179600Y0064600D03*
X0167600Y0098400D03*
X0174200Y0101400D03*
X0166200Y0107600D03*
X0206000Y0111200D03*
X0211600Y0137400D03*
X0231400Y0152400D03*
X0190000Y0180000D03*
X0189800Y0180000D03*
X0189600Y0180000D03*
X0189400Y0180200D03*
X0189200Y0180200D03*
X0189000Y0180400D03*
X0124600Y0182800D03*
X0124000Y0182600D03*
X0123800Y0182600D03*
X0123400Y0182400D03*
D54*
X0123200Y0182300D03*
X0123000Y0182100D03*
X0122800Y0182100D03*
X0123600Y0182500D03*
X0162000Y0158300D03*
X0162200Y0157900D03*
X0190200Y0179900D03*
X0220200Y0185300D03*
X0214200Y0156500D03*
X0231200Y0152900D03*
X0167800Y0098500D03*
X0140600Y0083300D03*
X0123600Y0092900D03*
X0123000Y0093100D03*
X0122800Y0093100D03*
X0122400Y0093300D03*
X0146800Y0063500D03*
X0179400Y0064700D03*
D55*
X0141000Y0083800D03*
X0140800Y0083600D03*
X0122600Y0093200D03*
X0122200Y0093400D03*
X0121800Y0093600D03*
X0121400Y0093800D03*
X0174400Y0101400D03*
X0174600Y0101400D03*
X0215200Y0143400D03*
X0229600Y0154800D03*
X0229200Y0155400D03*
X0228800Y0155800D03*
X0228400Y0156200D03*
X0230600Y0153600D03*
X0230800Y0153400D03*
X0231000Y0153000D03*
X0224400Y0172000D03*
X0190400Y0179800D03*
X0122600Y0182000D03*
X0122400Y0182000D03*
X0122200Y0182000D03*
X0122000Y0181800D03*
X0121600Y0181600D03*
D56*
X0121200Y0181400D03*
X0121000Y0181400D03*
X0120800Y0181400D03*
X0120600Y0181200D03*
X0120400Y0181200D03*
X0120200Y0181000D03*
X0120000Y0180800D03*
X0159800Y0164600D03*
X0161600Y0159600D03*
X0161800Y0159200D03*
X0190600Y0179400D03*
X0227600Y0156800D03*
X0227800Y0156600D03*
X0228200Y0156400D03*
X0229800Y0154600D03*
X0230400Y0153800D03*
X0214800Y0142800D03*
X0214200Y0142000D03*
X0213600Y0140800D03*
X0195200Y0142400D03*
X0205400Y0111200D03*
X0205600Y0111200D03*
X0168000Y0098800D03*
X0165800Y0107600D03*
X0120400Y0094200D03*
X0120200Y0094400D03*
X0120000Y0094400D03*
X0147200Y0064000D03*
D57*
X0147000Y0063700D03*
X0179200Y0064900D03*
X0122000Y0093500D03*
X0121600Y0093700D03*
X0121200Y0093900D03*
X0121000Y0093900D03*
X0120800Y0093900D03*
X0120600Y0094100D03*
X0153200Y0122100D03*
X0166000Y0107500D03*
X0205800Y0111100D03*
X0215000Y0143300D03*
X0215400Y0143700D03*
X0228600Y0155900D03*
X0229000Y0155500D03*
X0229400Y0155100D03*
X0230000Y0154300D03*
X0230200Y0154100D03*
X0228000Y0156500D03*
X0214400Y0156700D03*
X0121800Y0181700D03*
X0121400Y0181500D03*
D58*
X0119800Y0180700D03*
X0195400Y0142500D03*
X0213800Y0141100D03*
X0214000Y0141500D03*
X0214600Y0142700D03*
X0214600Y0157100D03*
X0227200Y0156900D03*
X0227400Y0156900D03*
X0205200Y0111300D03*
X0168200Y0098900D03*
X0165600Y0107700D03*
X0141400Y0084300D03*
X0141200Y0084100D03*
X0147400Y0064100D03*
X0179000Y0064900D03*
D59*
X0142000Y0084800D03*
X0141800Y0084600D03*
X0141600Y0084600D03*
X0146200Y0089400D03*
X0146400Y0089600D03*
X0146800Y0090000D03*
X0119800Y0094600D03*
X0119600Y0094600D03*
X0119400Y0094600D03*
X0119200Y0094800D03*
X0118800Y0095000D03*
X0174800Y0101400D03*
X0205000Y0111200D03*
X0214400Y0142200D03*
X0226000Y0157800D03*
X0226400Y0157600D03*
X0226600Y0157400D03*
X0226800Y0157200D03*
X0227000Y0157200D03*
X0190800Y0179200D03*
X0119600Y0180600D03*
X0119400Y0180600D03*
X0119200Y0180600D03*
X0119000Y0180400D03*
X0118800Y0180200D03*
X0118600Y0180200D03*
D60*
X0118400Y0180100D03*
X0118200Y0179900D03*
X0118000Y0179900D03*
X0117800Y0179700D03*
X0117600Y0179700D03*
X0196400Y0159300D03*
X0213000Y0164500D03*
X0214800Y0157300D03*
X0225400Y0158300D03*
X0225800Y0158100D03*
X0226200Y0157700D03*
X0207200Y0179900D03*
X0207000Y0179900D03*
X0206800Y0179900D03*
X0206600Y0179900D03*
X0206400Y0179900D03*
X0206200Y0179900D03*
X0206000Y0179900D03*
X0205800Y0179900D03*
X0205600Y0179900D03*
X0205400Y0179900D03*
X0205200Y0179900D03*
X0205000Y0179900D03*
X0204800Y0179900D03*
X0204600Y0179900D03*
X0204400Y0179900D03*
X0204200Y0179900D03*
X0119000Y0094900D03*
X0118600Y0095100D03*
X0118000Y0095500D03*
X0142200Y0085100D03*
X0145600Y0088700D03*
X0146000Y0089100D03*
X0146600Y0089900D03*
X0147000Y0090300D03*
X0147600Y0064300D03*
X0178800Y0064900D03*
D61*
X0147800Y0064600D03*
X0142400Y0085200D03*
X0142600Y0085600D03*
X0142800Y0085800D03*
X0143000Y0086000D03*
X0143200Y0086200D03*
X0145000Y0088000D03*
X0145200Y0088200D03*
X0145800Y0089000D03*
X0147200Y0090800D03*
X0168400Y0099200D03*
X0165400Y0107600D03*
X0204800Y0111200D03*
X0195600Y0142600D03*
X0216000Y0145400D03*
X0216200Y0145600D03*
X0225600Y0158200D03*
X0225200Y0158600D03*
X0225000Y0158800D03*
X0224800Y0159200D03*
X0207800Y0179800D03*
X0207600Y0179800D03*
X0207400Y0179800D03*
X0204000Y0179800D03*
X0203800Y0179800D03*
X0203600Y0179800D03*
X0203400Y0179800D03*
X0203200Y0179800D03*
X0196600Y0159400D03*
X0160000Y0164200D03*
X0117400Y0179600D03*
X0117200Y0095800D03*
X0117800Y0095600D03*
X0118200Y0095400D03*
X0118400Y0095200D03*
D62*
X0117600Y0095700D03*
X0117400Y0095700D03*
X0117000Y0096100D03*
X0116800Y0096100D03*
X0116600Y0096300D03*
X0143800Y0086700D03*
X0144000Y0087100D03*
X0144200Y0087100D03*
X0144400Y0087500D03*
X0144600Y0087700D03*
X0144800Y0087900D03*
X0145400Y0088500D03*
X0168600Y0099300D03*
X0175000Y0101500D03*
X0165200Y0107500D03*
X0204400Y0111100D03*
X0204600Y0111100D03*
X0215600Y0144900D03*
X0215800Y0145100D03*
X0224600Y0159500D03*
X0212800Y0164500D03*
X0209000Y0179700D03*
X0208800Y0179700D03*
X0208600Y0179700D03*
X0208400Y0179700D03*
X0208200Y0179700D03*
X0208000Y0179700D03*
X0191000Y0178700D03*
X0161400Y0160500D03*
X0117200Y0179500D03*
X0117000Y0179300D03*
X0116800Y0179100D03*
X0148000Y0064900D03*
X0178400Y0065300D03*
D63*
X0178200Y0065500D03*
X0177600Y0066100D03*
X0148200Y0065100D03*
X0147600Y0091500D03*
X0168800Y0099700D03*
X0204000Y0111100D03*
X0224400Y0159900D03*
X0209400Y0179500D03*
X0202600Y0179700D03*
X0202400Y0179700D03*
X0191200Y0178500D03*
X0160200Y0164100D03*
X0116400Y0178900D03*
X0116000Y0178700D03*
X0115400Y0178300D03*
X0115400Y0096900D03*
X0115600Y0096900D03*
X0115800Y0096700D03*
D64*
X0101200Y0112300D03*
X0101000Y0112500D03*
X0165200Y0089900D03*
X0170200Y0082500D03*
X0101000Y0162700D03*
X0224200Y0165700D03*
D65*
X0224000Y0152700D03*
X0194400Y0156500D03*
X0129000Y0074700D03*
D66*
X0164800Y0089900D03*
X0209600Y0161900D03*
X0209800Y0161900D03*
X0224000Y0165900D03*
D67*
X0223800Y0165800D03*
X0223600Y0165800D03*
X0198600Y0147000D03*
X0101400Y0111800D03*
X0170000Y0082600D03*
D68*
X0169800Y0082700D03*
X0164600Y0090100D03*
X0150000Y0097900D03*
X0210000Y0161900D03*
X0223400Y0165900D03*
X0101400Y0163500D03*
D69*
X0099800Y0115500D03*
X0208600Y0160500D03*
X0223200Y0163700D03*
D70*
X0223000Y0163500D03*
X0099600Y0115900D03*
D71*
X0152600Y0099800D03*
X0152800Y0099800D03*
X0222800Y0163200D03*
D72*
X0222600Y0163000D03*
X0222400Y0163000D03*
X0208200Y0160200D03*
X0200400Y0149800D03*
D73*
X0222200Y0162800D03*
X0153200Y0100200D03*
D74*
X0222000Y0162700D03*
D75*
X0221800Y0162600D03*
X0099400Y0158400D03*
X0087800Y0137600D03*
X0099400Y0116800D03*
D76*
X0099200Y0117200D03*
X0221600Y0162400D03*
D77*
X0221400Y0162300D03*
X0207800Y0159500D03*
X0200800Y0150500D03*
X0099200Y0157900D03*
D78*
X0221200Y0162100D03*
D79*
X0221000Y0162000D03*
X0173600Y0081800D03*
D80*
X0099000Y0156900D03*
X0220600Y0161900D03*
X0220800Y0161900D03*
D81*
X0220400Y0152400D03*
X0196800Y0159600D03*
X0191400Y0178400D03*
X0202000Y0179600D03*
X0202200Y0179600D03*
X0115200Y0178200D03*
X0203800Y0111200D03*
X0176200Y0102400D03*
X0169600Y0099800D03*
X0169000Y0099800D03*
X0165000Y0107600D03*
X0115200Y0097000D03*
X0115000Y0097200D03*
X0114800Y0097400D03*
X0114400Y0097600D03*
X0114200Y0097800D03*
X0177200Y0066600D03*
X0177400Y0066200D03*
X0177800Y0066000D03*
D82*
X0167600Y0084100D03*
X0220400Y0167700D03*
X0214600Y0177500D03*
D83*
X0220200Y0162000D03*
X0206800Y0157800D03*
D84*
X0220000Y0167900D03*
D85*
X0212000Y0178900D03*
X0211800Y0178900D03*
X0199400Y0178900D03*
X0192400Y0177100D03*
X0219800Y0152100D03*
X0199200Y0110100D03*
X0199000Y0110100D03*
X0198600Y0109900D03*
X0198400Y0109900D03*
X0198200Y0109900D03*
X0197600Y0109500D03*
X0197400Y0109500D03*
X0197200Y0109300D03*
X0197000Y0109300D03*
X0196000Y0108900D03*
X0195800Y0108700D03*
X0192600Y0107100D03*
X0190000Y0106700D03*
X0178400Y0102500D03*
X0178200Y0102500D03*
X0176000Y0101300D03*
X0148400Y0093100D03*
X0111200Y0100100D03*
X0111000Y0100300D03*
X0110600Y0100700D03*
X0149000Y0066900D03*
X0110600Y0174700D03*
X0110800Y0174900D03*
X0111000Y0175100D03*
D86*
X0201400Y0151800D03*
X0207200Y0158400D03*
X0219800Y0174600D03*
X0099000Y0118600D03*
D87*
X0219600Y0167400D03*
D88*
X0219400Y0166900D03*
D89*
X0219200Y0166800D03*
D90*
X0219000Y0166400D03*
X0160000Y0101200D03*
D91*
X0091400Y0137500D03*
X0218600Y0166100D03*
X0218800Y0166300D03*
D92*
X0218400Y0165800D03*
D93*
X0218200Y0165700D03*
X0159800Y0101300D03*
X0091600Y0137700D03*
D94*
X0217800Y0165400D03*
X0218000Y0165400D03*
D95*
X0217600Y0165100D03*
D96*
X0217400Y0165000D03*
X0217200Y0164800D03*
X0216800Y0164600D03*
D97*
X0217000Y0164700D03*
X0216400Y0164300D03*
X0159600Y0101300D03*
D98*
X0159400Y0101400D03*
X0216600Y0164400D03*
D99*
X0216200Y0169600D03*
D100*
X0216000Y0169600D03*
X0089200Y0137600D03*
D101*
X0215800Y0169700D03*
D102*
X0215600Y0169600D03*
X0204200Y0155800D03*
D103*
X0204800Y0156200D03*
X0215000Y0169600D03*
X0215200Y0169600D03*
X0215400Y0169600D03*
D104*
X0211200Y0162200D03*
X0214800Y0177400D03*
X0103000Y0109200D03*
X0168000Y0083800D03*
D105*
X0167200Y0084500D03*
X0104200Y0107300D03*
X0104200Y0167900D03*
X0196000Y0175900D03*
X0214400Y0177500D03*
D106*
X0214200Y0177600D03*
X0195800Y0175800D03*
X0195600Y0175800D03*
X0104400Y0168200D03*
X0104400Y0107200D03*
X0167000Y0084600D03*
D107*
X0105800Y0105300D03*
X0105400Y0105700D03*
X0197200Y0144900D03*
X0195000Y0175700D03*
X0194800Y0175700D03*
X0194600Y0175700D03*
X0214000Y0178100D03*
X0105800Y0169900D03*
X0105600Y0169700D03*
X0105400Y0169500D03*
D108*
X0106000Y0105100D03*
X0106200Y0104900D03*
X0166200Y0085500D03*
X0175000Y0086500D03*
X0176000Y0085700D03*
X0195600Y0107100D03*
X0213800Y0178100D03*
D109*
X0213600Y0178200D03*
X0194400Y0175800D03*
X0194200Y0175800D03*
X0180600Y0137800D03*
X0180400Y0137800D03*
X0180200Y0137800D03*
X0149200Y0094800D03*
X0166000Y0085800D03*
X0174200Y0086600D03*
X0174400Y0086600D03*
X0174600Y0086600D03*
X0174800Y0086600D03*
X0175400Y0086000D03*
X0175800Y0085800D03*
X0176200Y0085600D03*
X0176400Y0085600D03*
X0176600Y0085400D03*
X0176800Y0085400D03*
X0177000Y0085400D03*
X0151400Y0071000D03*
X0151000Y0070400D03*
X0106000Y0170200D03*
X0106200Y0170400D03*
D110*
X0107000Y0171300D03*
X0179400Y0137900D03*
X0179600Y0137900D03*
X0181400Y0137900D03*
X0196800Y0144300D03*
X0211800Y0163500D03*
X0194000Y0175900D03*
X0197600Y0177700D03*
X0213400Y0178100D03*
X0153600Y0075700D03*
X0153200Y0074500D03*
X0152800Y0073500D03*
X0150000Y0068900D03*
X0149800Y0068700D03*
D111*
X0149600Y0068300D03*
X0149400Y0068100D03*
X0178200Y0085100D03*
X0107800Y0103100D03*
X0107200Y0103700D03*
X0086600Y0137700D03*
X0107200Y0171700D03*
X0107600Y0171900D03*
X0213200Y0178300D03*
D112*
X0213000Y0178500D03*
X0198400Y0178300D03*
X0198200Y0178300D03*
X0108400Y0172700D03*
X0108000Y0172300D03*
X0108400Y0102500D03*
X0148800Y0093900D03*
X0178400Y0084900D03*
X0178600Y0084900D03*
X0178800Y0084900D03*
D113*
X0179000Y0085000D03*
X0180000Y0103200D03*
X0180200Y0103400D03*
X0180400Y0103400D03*
X0108800Y0102200D03*
X0212200Y0163800D03*
X0193400Y0176400D03*
X0198600Y0178400D03*
X0212800Y0178600D03*
X0108600Y0173000D03*
D114*
X0114600Y0177700D03*
X0114800Y0177900D03*
X0115000Y0178100D03*
X0160400Y0163700D03*
X0195800Y0142900D03*
X0212600Y0164500D03*
X0210000Y0179500D03*
X0209800Y0179500D03*
X0209600Y0179500D03*
X0201800Y0179500D03*
X0201600Y0179500D03*
X0201400Y0179500D03*
X0203200Y0111100D03*
X0203400Y0111100D03*
X0203600Y0111100D03*
X0176400Y0102500D03*
X0169800Y0099900D03*
X0169400Y0099900D03*
X0169200Y0099900D03*
X0164800Y0107500D03*
X0147800Y0091700D03*
X0114600Y0097500D03*
X0114000Y0097900D03*
X0148400Y0065500D03*
X0177000Y0066900D03*
D115*
X0179800Y0103100D03*
X0180600Y0103300D03*
X0180800Y0103300D03*
X0182800Y0104100D03*
X0183000Y0104100D03*
X0184800Y0104900D03*
X0196400Y0143900D03*
X0193200Y0176500D03*
X0212600Y0178700D03*
X0109600Y0173900D03*
X0109400Y0173700D03*
X0109200Y0173500D03*
X0109000Y0173300D03*
X0108800Y0173100D03*
X0108600Y0102300D03*
X0109000Y0101900D03*
D116*
X0111600Y0099800D03*
X0112000Y0099400D03*
X0112200Y0099200D03*
X0148200Y0092600D03*
X0164200Y0107400D03*
X0175800Y0101400D03*
X0177800Y0102400D03*
X0201000Y0110800D03*
X0201200Y0110800D03*
X0201400Y0110800D03*
X0201600Y0110800D03*
X0212400Y0164200D03*
X0211400Y0179000D03*
X0200400Y0179200D03*
X0200200Y0179200D03*
X0192200Y0177400D03*
X0192000Y0177600D03*
X0160800Y0163000D03*
X0111800Y0175800D03*
X0111600Y0175600D03*
D117*
X0109800Y0174000D03*
X0181600Y0138000D03*
X0188400Y0106400D03*
X0188600Y0106400D03*
X0188200Y0106200D03*
X0188000Y0106200D03*
X0187800Y0106000D03*
X0187600Y0106000D03*
X0187400Y0106000D03*
X0187200Y0105800D03*
X0186600Y0105400D03*
X0186400Y0105400D03*
X0186200Y0105400D03*
X0186000Y0105400D03*
X0185800Y0105200D03*
X0185600Y0105200D03*
X0185400Y0105000D03*
X0185200Y0105000D03*
X0185000Y0105000D03*
X0184600Y0104800D03*
X0184400Y0104600D03*
X0184200Y0104600D03*
X0184000Y0104600D03*
X0183800Y0104600D03*
X0183600Y0104400D03*
X0183400Y0104400D03*
X0183200Y0104200D03*
X0182600Y0104000D03*
X0182400Y0104000D03*
X0182200Y0103800D03*
X0181600Y0103600D03*
X0181200Y0103400D03*
X0181000Y0103400D03*
X0179400Y0102800D03*
X0170600Y0101000D03*
X0170400Y0101000D03*
X0149200Y0067400D03*
X0109600Y0101400D03*
X0109400Y0101600D03*
X0109200Y0101800D03*
X0193000Y0176600D03*
X0198800Y0178600D03*
X0212400Y0178800D03*
D118*
X0212200Y0178800D03*
X0199200Y0178800D03*
X0110400Y0174600D03*
X0110200Y0174400D03*
X0110000Y0174200D03*
X0189200Y0106600D03*
X0189400Y0106600D03*
X0189600Y0106600D03*
X0189800Y0106600D03*
X0179000Y0102600D03*
X0178800Y0102600D03*
X0178600Y0102600D03*
X0110400Y0100800D03*
X0110200Y0101000D03*
D119*
X0108200Y0102600D03*
X0108000Y0103000D03*
X0179200Y0137800D03*
X0196600Y0144200D03*
X0212000Y0163600D03*
X0193600Y0176200D03*
X0108200Y0172600D03*
X0107800Y0172200D03*
D120*
X0168800Y0144500D03*
X0211800Y0152100D03*
D121*
X0197000Y0144800D03*
X0211600Y0163200D03*
X0195400Y0107000D03*
X0166400Y0085400D03*
X0105600Y0105600D03*
D122*
X0110800Y0100400D03*
X0175600Y0070000D03*
X0176400Y0068800D03*
X0190200Y0106800D03*
X0190400Y0106800D03*
X0190600Y0106800D03*
X0190800Y0106800D03*
X0191200Y0107000D03*
X0192400Y0107200D03*
X0196200Y0109000D03*
X0196400Y0109000D03*
X0196600Y0109200D03*
X0196800Y0109200D03*
X0197800Y0109600D03*
X0198000Y0109600D03*
X0198800Y0110000D03*
X0199400Y0110200D03*
X0199600Y0110400D03*
X0199800Y0110400D03*
X0200000Y0110400D03*
X0200200Y0110400D03*
X0200400Y0110600D03*
X0196200Y0143400D03*
X0199600Y0179000D03*
X0199800Y0179000D03*
X0211600Y0179000D03*
X0111200Y0175200D03*
D123*
X0104800Y0168600D03*
X0196600Y0176400D03*
X0211400Y0163000D03*
X0104800Y0106600D03*
X0105000Y0106200D03*
X0166800Y0084800D03*
D124*
X0174800Y0071300D03*
X0175000Y0071100D03*
X0175200Y0070700D03*
X0175400Y0070500D03*
X0176600Y0068100D03*
X0177400Y0102500D03*
X0177600Y0102500D03*
X0164400Y0107500D03*
X0201800Y0110900D03*
X0202000Y0110900D03*
X0196000Y0143300D03*
X0200600Y0179300D03*
X0211000Y0179100D03*
X0211200Y0179100D03*
X0112600Y0176500D03*
X0112400Y0176300D03*
X0112200Y0176100D03*
X0112000Y0175900D03*
X0112400Y0099100D03*
X0112600Y0098900D03*
D125*
X0102800Y0109500D03*
X0168200Y0083700D03*
X0211000Y0162100D03*
X0103000Y0166100D03*
X0102800Y0165900D03*
D126*
X0102200Y0165100D03*
X0197800Y0146700D03*
X0210800Y0162100D03*
X0149800Y0097300D03*
D127*
X0175400Y0101300D03*
X0176800Y0102300D03*
X0177000Y0102300D03*
X0202800Y0111100D03*
X0203000Y0111100D03*
X0174600Y0071500D03*
X0113400Y0098300D03*
X0113000Y0098700D03*
X0197000Y0159900D03*
X0191800Y0177900D03*
X0191600Y0177900D03*
X0201000Y0179300D03*
X0210600Y0179300D03*
X0210800Y0179300D03*
X0161000Y0162500D03*
X0160600Y0163500D03*
X0113600Y0177100D03*
D128*
X0197400Y0146800D03*
X0197600Y0146800D03*
X0198000Y0146800D03*
X0210600Y0162000D03*
X0169000Y0083200D03*
X0168800Y0083200D03*
D129*
X0169400Y0082900D03*
X0198200Y0146700D03*
X0210200Y0161900D03*
X0210400Y0161900D03*
D130*
X0210400Y0179400D03*
X0210200Y0179400D03*
X0201200Y0179400D03*
X0114400Y0177600D03*
X0114200Y0177600D03*
X0114000Y0177400D03*
X0113800Y0177200D03*
X0176600Y0102400D03*
X0175200Y0101200D03*
X0148600Y0065800D03*
X0113800Y0098000D03*
X0113600Y0098200D03*
D131*
X0165400Y0089900D03*
X0170400Y0082500D03*
X0199000Y0147500D03*
X0209400Y0161700D03*
D132*
X0159200Y0164600D03*
X0209200Y0109600D03*
X0198800Y0086200D03*
X0142000Y0092400D03*
D133*
X0150600Y0098700D03*
X0165600Y0089700D03*
X0100800Y0113100D03*
X0100800Y0162100D03*
X0209200Y0161500D03*
D134*
X0209200Y0179600D03*
X0203000Y0179800D03*
X0202800Y0179800D03*
X0161200Y0161000D03*
X0116600Y0179000D03*
X0116200Y0178800D03*
X0115800Y0178600D03*
X0115600Y0178400D03*
X0204200Y0111200D03*
X0147400Y0091000D03*
X0143600Y0086600D03*
X0143400Y0086400D03*
X0116400Y0096400D03*
X0116200Y0096400D03*
X0116000Y0096600D03*
X0178000Y0065600D03*
X0178600Y0065200D03*
D135*
X0196600Y0086100D03*
X0196800Y0086100D03*
X0179600Y0088500D03*
X0173000Y0101500D03*
X0172200Y0105300D03*
X0168200Y0108300D03*
X0140000Y0091100D03*
X0209000Y0109700D03*
X0164400Y0179100D03*
X0163800Y0179300D03*
X0163600Y0179500D03*
X0163200Y0179700D03*
X0163000Y0179900D03*
X0162600Y0180100D03*
X0162000Y0180300D03*
X0161800Y0180500D03*
X0180400Y0183700D03*
D136*
X0209000Y0161200D03*
X0151000Y0099200D03*
X0087400Y0137600D03*
D137*
X0208800Y0160700D03*
D138*
X0208400Y0160400D03*
X0099600Y0159400D03*
D139*
X0200600Y0150300D03*
X0208000Y0159700D03*
D140*
X0202000Y0172000D03*
X0203200Y0172600D03*
X0203600Y0172800D03*
X0181400Y0162200D03*
X0168400Y0145000D03*
X0207600Y0105600D03*
X0207200Y0105200D03*
X0196000Y0100000D03*
X0181800Y0094000D03*
X0181600Y0094000D03*
X0181400Y0094000D03*
X0181200Y0094000D03*
X0181000Y0094000D03*
X0179000Y0094000D03*
X0178800Y0094000D03*
X0141600Y0092200D03*
D141*
X0172600Y0083100D03*
X0172800Y0083100D03*
X0173000Y0082500D03*
X0207600Y0159100D03*
D142*
X0207400Y0158800D03*
X0172400Y0083600D03*
X0173800Y0081400D03*
X0174000Y0081200D03*
D143*
X0088400Y0137600D03*
X0201800Y0152200D03*
X0207000Y0158000D03*
D144*
X0206600Y0157600D03*
D145*
X0206400Y0157400D03*
X0202200Y0153200D03*
X0098800Y0155200D03*
D146*
X0206200Y0157100D03*
D147*
X0206000Y0157100D03*
X0204000Y0154700D03*
X0203800Y0154500D03*
X0203600Y0154300D03*
X0203200Y0153900D03*
X0088800Y0137700D03*
D148*
X0205600Y0156700D03*
X0205800Y0156700D03*
D149*
X0205400Y0156500D03*
X0163400Y0097300D03*
D150*
X0205200Y0156400D03*
D151*
X0205000Y0156300D03*
D152*
X0169200Y0130100D03*
X0201600Y0102100D03*
X0203800Y0102900D03*
X0204600Y0103300D03*
D153*
X0204400Y0155900D03*
X0204600Y0156100D03*
D154*
X0203400Y0154200D03*
X0203000Y0153600D03*
X0202800Y0153600D03*
D155*
X0200800Y0179400D03*
X0113400Y0177000D03*
X0113200Y0176800D03*
X0113000Y0176600D03*
X0112800Y0176600D03*
X0202200Y0111000D03*
X0202400Y0111000D03*
X0202600Y0111000D03*
X0177200Y0102400D03*
X0175600Y0101400D03*
X0170000Y0100200D03*
X0164600Y0107600D03*
X0148000Y0092400D03*
X0174200Y0072000D03*
X0174400Y0071800D03*
X0176800Y0067600D03*
X0148800Y0066200D03*
X0113200Y0098400D03*
X0112800Y0098800D03*
D156*
X0098800Y0120200D03*
X0202600Y0153400D03*
D157*
X0202400Y0153300D03*
X0088600Y0137700D03*
D158*
X0202000Y0152700D03*
D159*
X0201600Y0152000D03*
D160*
X0201200Y0151300D03*
X0173200Y0082300D03*
X0173400Y0081900D03*
D161*
X0201000Y0151000D03*
D162*
X0200000Y0179100D03*
X0111400Y0175500D03*
X0200600Y0110700D03*
X0200800Y0110700D03*
X0192200Y0107300D03*
X0192000Y0107300D03*
X0191800Y0107300D03*
X0191600Y0107300D03*
X0191400Y0107100D03*
X0191000Y0106900D03*
X0178000Y0102500D03*
X0164000Y0107500D03*
X0111800Y0099500D03*
X0111400Y0099900D03*
X0175800Y0069700D03*
X0176000Y0069500D03*
X0176200Y0069100D03*
D163*
X0200200Y0149500D03*
D164*
X0200000Y0149000D03*
D165*
X0199800Y0148800D03*
X0099800Y0160000D03*
X0087600Y0137600D03*
D166*
X0100000Y0114800D03*
X0151800Y0099600D03*
X0152000Y0099600D03*
X0199600Y0148600D03*
D167*
X0199400Y0148300D03*
X0151200Y0099300D03*
D168*
X0150800Y0099000D03*
X0199200Y0148000D03*
D169*
X0192800Y0176700D03*
X0192600Y0176900D03*
X0199000Y0178700D03*
X0086400Y0137700D03*
X0109800Y0101300D03*
X0110000Y0101100D03*
X0148600Y0093500D03*
X0170200Y0100900D03*
X0179200Y0102700D03*
X0179600Y0102900D03*
X0181400Y0103500D03*
X0181800Y0103700D03*
X0182000Y0103700D03*
X0186800Y0105500D03*
X0187000Y0105700D03*
X0188800Y0106500D03*
X0189000Y0106500D03*
D170*
X0150200Y0098400D03*
X0198800Y0147400D03*
D171*
X0198400Y0146800D03*
X0164400Y0090000D03*
X0169600Y0082800D03*
X0101600Y0111400D03*
X0101600Y0163800D03*
D172*
X0167600Y0146100D03*
X0168200Y0128700D03*
X0140800Y0091700D03*
X0198000Y0086100D03*
X0175600Y0169900D03*
X0173800Y0171700D03*
X0172800Y0172900D03*
X0172600Y0172900D03*
X0172400Y0173100D03*
X0172200Y0173300D03*
X0172000Y0173500D03*
X0171800Y0173700D03*
X0171400Y0174100D03*
D173*
X0193800Y0176000D03*
X0197800Y0178000D03*
X0198000Y0178000D03*
X0107400Y0171800D03*
X0107400Y0103600D03*
X0107600Y0103400D03*
X0149000Y0094400D03*
X0153400Y0075200D03*
X0153000Y0074200D03*
X0178000Y0085200D03*
D174*
X0177800Y0085200D03*
X0177600Y0085200D03*
X0177400Y0085200D03*
X0153800Y0076000D03*
X0152600Y0073200D03*
X0152400Y0072600D03*
X0152000Y0071800D03*
X0151800Y0071600D03*
X0150200Y0069400D03*
X0107000Y0104000D03*
X0106800Y0104200D03*
X0179800Y0137800D03*
X0181000Y0137800D03*
X0181200Y0137800D03*
X0197400Y0177600D03*
X0106800Y0171000D03*
X0106600Y0170800D03*
D175*
X0197200Y0177000D03*
X0195200Y0106800D03*
X0194400Y0106400D03*
X0193600Y0106000D03*
X0193400Y0106000D03*
X0166600Y0085000D03*
X0105200Y0106000D03*
D176*
X0192800Y0105700D03*
X0193000Y0105900D03*
X0193200Y0105900D03*
X0193800Y0106100D03*
X0194000Y0106100D03*
X0194200Y0106300D03*
X0194600Y0106500D03*
X0194800Y0106500D03*
X0195000Y0106500D03*
X0105200Y0169300D03*
X0105000Y0169100D03*
X0195200Y0175700D03*
X0197000Y0176900D03*
D177*
X0196800Y0176500D03*
X0195400Y0175700D03*
X0104600Y0168500D03*
X0104600Y0106700D03*
X0149400Y0095900D03*
D178*
X0167400Y0084400D03*
X0103800Y0167600D03*
X0104000Y0167800D03*
X0196200Y0176000D03*
X0196400Y0176000D03*
D179*
X0180800Y0137700D03*
X0180000Y0137700D03*
X0106600Y0104500D03*
X0106400Y0104500D03*
X0154000Y0076500D03*
X0152200Y0072300D03*
X0151600Y0071500D03*
X0151200Y0070700D03*
X0150800Y0070100D03*
X0150600Y0069700D03*
X0150400Y0069700D03*
X0165800Y0085900D03*
X0175200Y0086100D03*
X0175600Y0085900D03*
X0177200Y0085300D03*
X0106400Y0170700D03*
D180*
X0088200Y0137700D03*
X0172200Y0084500D03*
D181*
X0172000Y0088400D03*
D182*
X0171800Y0088700D03*
D183*
X0171600Y0088800D03*
D184*
X0171400Y0088900D03*
D185*
X0171200Y0089000D03*
X0170800Y0089400D03*
D186*
X0171000Y0089300D03*
D187*
X0170600Y0082400D03*
X0150400Y0098600D03*
D188*
X0164000Y0090200D03*
X0164200Y0090200D03*
X0169200Y0083000D03*
X0101800Y0111000D03*
D189*
X0168400Y0083500D03*
X0168600Y0083500D03*
X0102600Y0165500D03*
D190*
X0103200Y0166600D03*
X0103400Y0166800D03*
X0086800Y0137800D03*
X0103200Y0108800D03*
X0103400Y0108600D03*
X0167800Y0084000D03*
D191*
X0165000Y0090000D03*
X0087200Y0137800D03*
X0101200Y0163000D03*
D192*
X0089000Y0137600D03*
X0163600Y0097200D03*
X0163800Y0097000D03*
D193*
X0163200Y0101300D03*
D194*
X0163000Y0101100D03*
X0161000Y0100300D03*
D195*
X0162800Y0100900D03*
X0090400Y0137700D03*
D196*
X0162600Y0100800D03*
D197*
X0162400Y0100400D03*
D198*
X0162200Y0100200D03*
X0162000Y0100000D03*
X0090000Y0137600D03*
D199*
X0161400Y0099600D03*
X0161600Y0099600D03*
X0161800Y0099800D03*
D200*
X0161200Y0099700D03*
D201*
X0160800Y0100400D03*
D202*
X0160600Y0100900D03*
D203*
X0160400Y0101100D03*
X0091000Y0137700D03*
D204*
X0160200Y0101200D03*
D205*
X0159200Y0101400D03*
D206*
X0159000Y0101200D03*
D207*
X0158800Y0101200D03*
D208*
X0158600Y0101100D03*
D209*
X0158400Y0101000D03*
D210*
X0158200Y0101000D03*
D211*
X0158000Y0100900D03*
D212*
X0157800Y0101000D03*
X0092800Y0137600D03*
D213*
X0157600Y0100900D03*
D214*
X0157400Y0100800D03*
D215*
X0157200Y0100700D03*
D216*
X0157000Y0100500D03*
X0093400Y0137700D03*
X0093200Y0137700D03*
D217*
X0156800Y0100400D03*
D218*
X0156600Y0100300D03*
D219*
X0156400Y0100100D03*
X0093800Y0137700D03*
D220*
X0156200Y0099900D03*
D221*
X0156000Y0099600D03*
X0155800Y0099600D03*
X0094200Y0137600D03*
D222*
X0155600Y0099200D03*
D223*
X0155400Y0099100D03*
D224*
X0155200Y0099000D03*
D225*
X0155000Y0098800D03*
X0094600Y0137600D03*
D226*
X0154800Y0098700D03*
D227*
X0154600Y0098500D03*
D228*
X0154400Y0098400D03*
D229*
X0154200Y0098100D03*
X0095200Y0137700D03*
D230*
X0154000Y0106600D03*
D231*
X0153800Y0106700D03*
D232*
X0153600Y0106600D03*
D233*
X0153400Y0106700D03*
X0090200Y0137700D03*
D234*
X0153000Y0100100D03*
D235*
X0152400Y0099700D03*
X0152200Y0099700D03*
D236*
X0151600Y0099500D03*
X0100000Y0160500D03*
D237*
X0100200Y0161000D03*
X0100200Y0114400D03*
X0151400Y0099400D03*
D238*
X0149600Y0096300D03*
X0104000Y0107500D03*
X0103800Y0107900D03*
X0103600Y0167300D03*
D239*
X0103600Y0108000D03*
D240*
X0102600Y0109800D03*
X0102400Y0110000D03*
X0102200Y0110200D03*
X0102400Y0165400D03*
D241*
X0102000Y0164500D03*
X0101800Y0164300D03*
X0087000Y0137700D03*
X0102000Y0110700D03*
D242*
X0100600Y0113500D03*
X0100400Y0113700D03*
X0100400Y0161500D03*
D243*
X0100600Y0161800D03*
D244*
X0098600Y0137600D03*
D245*
X0098400Y0137700D03*
D246*
X0098200Y0137700D03*
D247*
X0098000Y0137700D03*
D248*
X0097800Y0137600D03*
D249*
X0097600Y0137600D03*
X0097400Y0137600D03*
D250*
X0097200Y0137700D03*
D251*
X0097000Y0137600D03*
D252*
X0096800Y0137600D03*
D253*
X0096600Y0137700D03*
D254*
X0096400Y0137600D03*
D255*
X0096200Y0137700D03*
D256*
X0096000Y0137600D03*
D257*
X0095800Y0137700D03*
D258*
X0095600Y0137600D03*
D259*
X0095400Y0137600D03*
D260*
X0095000Y0137700D03*
D261*
X0094800Y0137600D03*
D262*
X0094400Y0137600D03*
D263*
X0094000Y0137600D03*
D264*
X0093600Y0137600D03*
D265*
X0093000Y0137700D03*
D266*
X0092600Y0137600D03*
D267*
X0092400Y0137600D03*
D268*
X0092200Y0137700D03*
D269*
X0092000Y0137700D03*
D270*
X0091800Y0137700D03*
D271*
X0091200Y0137700D03*
D272*
X0090800Y0137600D03*
D273*
X0090600Y0137600D03*
D274*
X0089800Y0137600D03*
D275*
X0089600Y0137500D03*
D276*
X0089400Y0137600D03*
D277*
X0088000Y0137600D03*
M02*
