%
M48
M72
T01C0.02362
T02C0.03500
T03C0.04000
T04C0.05200
T05C0.12600
%
T01
X83000Y88900
X89000Y92500
X83000Y111700
X90200Y122500
X89000Y134500
X74600Y132100
X95000Y145300
X105800Y159700
X99800Y171700
X111800Y178900
X108200Y183700
X99800Y187300
X73400Y194500
X65000Y199300
X69800Y204100
X30200Y187300
X37400Y182500
X51800Y177700
X60200Y172900
X233000Y79300
X234200Y70900
X233000Y64900
X222200Y57700
X195200Y49300
X179000Y31300
X150200Y31300
X140000Y26500
X129800Y27700
X109400Y64900
X153800Y68500
X248600Y81700
X236600Y139300
X235400Y148900
X255800Y156100
X257000Y189700
X239000Y194500
X243800Y168100
T02
X115200Y46300
X125200Y46300
X135200Y46300
X145200Y46300
X155200Y46300
X165200Y46300
X175200Y46300
X185200Y46300
X185000Y36300
X175000Y36300
X165000Y36300
X155000Y36300
X145000Y36300
X135000Y36300
X125000Y36300
X115000Y36300
X205000Y36300
X215000Y36300
X225000Y36300
X235000Y36300
X245000Y36300
X255000Y36300
X255000Y46300
X245000Y46300
X235000Y46300
X225000Y46300
X215000Y46300
X205000Y46300
X265000Y126300
X255000Y126300
X255000Y136300
X265000Y136300
X265000Y146300
X255000Y146300
X255006Y216297
X245006Y216297
X235006Y216297
X225006Y216297
X215006Y216297
X205006Y216297
X195006Y216297
X185006Y216297
X185000Y226300
X195000Y226300
X205000Y226300
X215000Y226300
X225000Y226300
X235000Y226300
X245000Y226300
X255000Y226300
X169000Y226300
X159000Y226300
X149000Y226300
X139000Y226300
X129000Y226300
X119000Y226300
X109000Y226300
X99000Y226300
X89000Y226300
X79000Y226300
X78997Y216297
X88997Y216297
X98997Y216297
X108997Y216297
X118997Y216297
X128997Y216297
X138997Y216297
X148997Y216297
X158997Y216297
X168997Y216297
T03
X83858Y18111
X93858Y18111
X103858Y18111
X113858Y18111
X123858Y18111
X133858Y18111
X143858Y18111
X153858Y18111
X163858Y18111
X173858Y18111
X183858Y18111
X193858Y18111
X193858Y8111
X183858Y8111
X173858Y8111
X163858Y8111
X153858Y8111
X143858Y8111
X133858Y8111
X123858Y8111
X113858Y8111
X103858Y8111
X93858Y8111
X83858Y8111
X52402Y218898
X42402Y218898
X32402Y218898
X32402Y208898
X42402Y208898
X52402Y208898
T04
X17600Y120100
X32000Y112900
X31400Y127300
X30800Y142300
X30800Y156700
X116600Y132100
X133400Y133300
X150200Y133300
X150200Y149500
X132200Y148900
X117200Y148900
X124400Y162700
X142400Y162100
X174200Y154900
X191000Y126100
X177200Y118300
X207800Y124300
X224600Y123700
X224600Y109300
X224600Y94900
X213800Y84100
X143000Y115900
X125600Y115900
T05
X265000Y166300
X65000Y226300
M30
